<svg xmlns="http://www.w3.org/2000/svg" viewBox="0 0 3012.65 608.76"><defs><style>.cls-1{fill:#333;}.cls-2{fill:#e41321;}</style></defs><g id="Capa_2" data-name="Capa 2"><g id="Layer_1" data-name="Layer 1"><path class="cls-1" d="M1043.39,517.64l-1.79-48.75c-.95-26.74-3-89-3-89-1.2-38.4-9.08-67-47.28-77.39v-1.83c32.13-12.8,54.54-48.77,54.54-97.5,0-76.82-36.36-112.15-106.69-112.15H831.26V517.63h69.09V342.13h33.34c27.27,0,37,16.46,37.59,45.08L973.72,475q.53,21.31.56,42.64ZM974.92,237.31c-.6,25-9.08,51.2-41.82,51.2H900.33V153.21h33.34c30.94,0,42.44,27.43,41.84,50.58l-.59,33.52ZM3012.63,517.64V454.26H2901.7V327.5H2992V264.12H2901.7V154.42h111V91H2832.59v426.6h180Zm-220.22,0V454.26H2681.46V91.05h-69.11V517.64Zm-316.14,0c50.34,0,94-36.57,94-121.27,0-50-24.84-84.72-58.21-96.3v-2.41c34.58-14.63,55.8-50,55.8-96.9,0-79.22-38.82-109.7-97.62-109.7h-117v426.6h123.05v0Zm19.41-290.09c-.6,30.46-20.62,44.49-38.81,44.49h-35.16V153.2h34c29.1,0,41.21,14,40.61,48.13l-.6,26.22Zm3.65,176.73c0,34.14-13.94,51.81-44.28,51.81h-33.34v-128h31.53c29.11,0,46.09,20.74,46.09,48.77v27.41ZM2216.9,517.64c50.32,0,93.95-36.57,93.95-121.27,0-50-24.84-84.71-58.18-96.3v-2.41c34.55-14.63,55.78-50,55.78-96.9,0-79.22-38.82-109.7-97.62-109.7h-117v426.6H2216.9v0Zm19.41-290.09c-.62,30.46-20.63,44.49-38.82,44.49h-35.15V153.2h33.94c29.1,0,41.22,14,40.6,48.13l-.59,26.22Zm3.62,176.73c0,34.14-13.94,51.81-44.25,51.81h-33.34v-128h31.51c29.1,0,46.08,20.74,46.08,48.77v27.41Zm-300.09,121.3c73.35,0,104.86-48.15,104.86-114.57V91h-65.47V409.15c0,26.83-6.67,53.64-37.58,53.64-32.75,0-38.82-31.09-38.82-52.41V91h-69.11V415.86c0,73.75,38.82,109.69,106.1,109.69l0,0Zm-237.67-7.92c50.32,0,94-36.57,94-121.26,0-50-24.86-84.72-58.2-96.31v-2.42c34.56-14.64,55.77-50,55.77-96.9,0-79.23-38.81-109.7-97.59-109.7h-117V517.66Zm19.41-290.08c-.6,30.45-20.63,44.48-38.82,44.48h-35.15V153.23h33.94c29.1,0,41.24,14,40.62,48.13l-.59,26.21Zm3.62,176.72c0,34.14-13.93,51.81-44.25,51.81h-33.34v-128h31.53c29.1,0,46.06,20.74,46.06,48.77V404.3ZM1430.56,517.66c63,0,98.21-32.9,98.21-102.37V191c0-67.65-35.77-99.94-100-99.94H1315.37V517.62h115.19v0Zm28.49-105.42c0,26.81-8.48,42.64-42.44,42.64h-32.13V153.81h32.74c33.94,0,42.44,20.11,42.44,42.66l-.6,215.76,0,0ZM1091,517.62V91H1271.1v63.38h-111V264.1h90.33v63.42h-90.33V454.28h111v63.38H1091v0Z"/><path class="cls-2" d="M421.87,414.05H340.74a8.13,8.13,0,0,1-8.12-8.16V202.26a8.13,8.13,0,0,1,8.12-8.14H416c56.45,0,68.3,33.24,68.3,61.11,0,16.12-4.28,28.92-12.78,38.31,20.7,8.54,31.85,27.79,31.85,55.64,0,40.63-30.46,64.87-81.45,64.87m-117.81,0H135.56a8.12,8.12,0,0,1-8.11-8.14V202.26a8.13,8.13,0,0,1,8.11-8.15h78.72c49.17,0,78.51,26.48,78.51,70.83,0,29.5-14.83,52.67-38.74,62.08l56.08,73.47A8.17,8.17,0,0,1,304.06,414m.3-414C136.28,0,0,136.27,0,304.35S136.27,608.76,304.37,608.76,608.73,472.48,608.73,304.38,472.49,0,304.39,0"/></g></g></svg>