<?xml version="1.0" encoding="UTF-8"?>
<svg width="200.17mm" height="30.556mm" version="1.1" viewBox="0 0 200.17 30.556" xmlns="http://www.w3.org/2000/svg" xmlns:cc="http://creativecommons.org/ns#" xmlns:dc="http://purl.org/dc/elements/1.1/" xmlns:rdf="http://www.w3.org/1999/02/22-rdf-syntax-ns#">
<metadata>
<rdf:RDF>
<cc:Work rdf:about="">
<dc:format>image/svg+xml</dc:format>
<dc:type rdf:resource="http://purl.org/dc/dcmitype/StillImage"/>
<dc:title/>
</cc:Work>
</rdf:RDF>
</metadata>
<g transform="translate(-22.3 -124.52)">
<path id="teespring-logo" d="m64.146 128.39c-2.0415 0-3.7018 1.6296-3.7018 3.6326 0 2.8517 1.0761 5.4574 2.8501 7.459 0.73483 0.82704 1.588 1.5496 2.5365 2.1414 0.56882-0.8501 1.0454-1.7679 1.4112-2.7364 0.55035-1.4604 0.85166-3.0392 0.85166-4.6857 0-0.97769-0.10761-1.9308-0.31056-2.8517-0.01569-0.0767-0.03544-0.15397-0.05403-0.23066-0.41044-1.568-1.8601-2.7287-3.5819-2.7287zm-22.838 10.497c0.36587 0.96852 0.84244 1.8863 1.4143 2.7364 0.94544-0.59183 1.7986-1.3144 2.5335-2.1414 1.7756-1.9985 2.8532-4.6073 2.8532-7.459 0-2.0031-1.6603-3.6326-3.7049-3.6326-1.7218 0-3.1699 1.1622-3.5819 2.7272-0.01569 0.0767-0.0366 0.15398-0.05403 0.23067-0.19987 0.92238-0.30748 1.8755-0.30748 2.8532 0 1.6449 0.29975 3.2253 0.85013 4.6857zm41.107-1.7771 3.5296 1.7341c-2.5519 4.9962-7.8172 8.4305-13.903 8.4305-1.7894 0-3.505-0.29981-5.1069-0.84551-3.2237 3.2099-7.7019 5.2037-12.66 5.2037s-9.439-1.9954-12.661-5.2068c-1.5988 0.54733-3.3206 0.84551-5.1084 0.84551-6.3337 0-11.783-3.7202-14.205-9.0546l3.6127-1.5757c1.8079 3.977 5.8725 6.758 10.592 6.758 0.86089 0 1.7018-0.0953 2.5089-0.27076-1.5911-2.6134-2.5058-5.6649-2.5058-8.9286 0-1.2421 0.13375-2.4551 0.38435-3.6234 0.0366-0.16908 0.07687-0.33235 0.11836-0.49794 0.87165-3.2037 3.8494-5.5619 7.3898-5.5619 0.07071 0 0.13834 3e-3 0.20905 5e-3 0.21521 6e-3 0.43042 0.0174 0.64259 0.0407 3.8279 0.41485 6.801 3.5973 6.801 7.4605 0 5.193-2.6472 9.7772-6.6872 12.529 2.4074 1.9985 5.5158 3.2068 8.9086 3.2068 3.3913 0 6.4997-1.2099 8.9071-3.2068-4.04-2.7518-6.6872-7.3376-6.6872-12.529 0-3.8648 2.9731-7.047 6.7979-7.462 0.21213-0.0232 0.42583-0.0349 0.64259-0.0407 0.07071 0 0.13834-5e-3 0.21062-5e-3 3.5419 0 6.5181 2.3597 7.3913 5.565 0.04125 0.16443 0.08146 0.32886 0.11836 0.49678 0.25211 1.1683 0.38435 2.3828 0.38435 3.6234 0 3.2637-0.91469 6.3183-2.5058 8.9286 0.80862 0.17547 1.6449 0.27076 2.5058 0.27076 4.535 0 8.4644-2.5642 10.372-6.2906z" fill="#ed2761" stroke-width="1.5373"/>
<g transform="matrix(2.4999 0 0 2.4999 -134.21 -201.89)" fill="#282562" stroke-width=".87308" aria-label="Teespring">
<path d="m92.703 140.31h1.6297v-6.519h2.9452v-1.6297h-7.5201v1.6297h2.9452z"/>
<path d="m96.517 137.4c0 1.7345 1.1525 3.05 3.1198 3.05 1.1175 0 1.8393-0.37251 2.3166-0.76831l-0.64026-1.2689c-0.40743 0.34923-0.95456 0.59369-1.653 0.59369-0.67518 0-1.3736-0.33759-1.5599-1.1175l-0.01164-0.0233h4.2839v-0.41908c0-1.8742-1.0943-3.0965-2.8753-3.0965-1.8276 0-2.9801 1.3271-2.9801 3.05zm4.1791-0.6519h-2.6192c0.15133-0.7101 0.64026-1.0942 1.3736-1.0942 0.74502 0 1.1757 0.46564 1.2456 1.0942z"/>
<path d="m103 137.4c0 1.7345 1.1525 3.05 3.1198 3.05 1.1175 0 1.8393-0.37251 2.3166-0.76831l-0.64026-1.2689c-0.40744 0.34923-0.95456 0.59369-1.653 0.59369-0.67518 0-1.3736-0.33759-1.5599-1.1175l-0.0116-0.0233h4.2839v-0.41908c0-1.8742-1.0942-3.0965-2.8753-3.0965-1.8276 0-2.9801 1.3271-2.9801 3.05zm4.1791-0.6519h-2.6192c0.15134-0.7101 0.64026-1.0942 1.3736-1.0942 0.74502 0 1.1757 0.46564 1.2456 1.0942z"/>
<path d="m109.7 136.2c0 1.2456 1.0244 1.6414 1.9324 1.8393 1.0011 0.22118 1.2922 0.29102 1.2922 0.59369 0 0.32595-0.33759 0.44236-0.76831 0.44236-0.87308 0-1.4784-0.32595-1.8509-0.75667l-0.89636 1.1641c0.50056 0.61698 1.4202 0.96621 2.5843 0.96621 1.6065 0 2.5145-0.61698 2.5145-1.8975 0-1.1641-0.75667-1.5715-1.8626-1.8276-1.071-0.24446-1.3504-0.30267-1.3504-0.58205 0-0.2561 0.25611-0.40744 0.73339-0.40744 0.59369 0 1.234 0.20954 1.5832 0.5937l0.86143-1.1175c-0.52384-0.54713-1.2805-0.86144-2.3166-0.86144-1.525 0-2.4563 0.66354-2.4563 1.8509z"/>
<path d="m115.41 142.64h1.5366v-3.1664c0.454 0.62862 1.1525 0.98949 1.9557 0.98949 1.5599 0 2.6309-1.2572 2.6309-3.0616 0-1.816-1.0826-3.0616-2.6542-3.0616-0.80323 0-1.49 0.33759-1.9324 0.95457v-0.80324h-1.5366zm3.015-3.6786c-0.89636 0-1.525-0.62862-1.525-1.5599s0.62861-1.5599 1.525-1.5599 1.525 0.64026 1.525 1.5599-0.62862 1.5599-1.525 1.5599z"/>
<path d="m124 135.45v-0.95457h-1.4784v5.8205h1.5366v-2.6309c0-1.1175 0.454-1.6879 1.4668-1.6879 0.24447 0 0.48893 0.0233 0.69847 0.0931v-1.653c-0.18626-0.0466-0.36088-0.0815-0.57041-0.0815-0.81488 0-1.3387 0.41908-1.653 1.0943z"/>
<path d="m127.89 133.81c0.57041 0 0.98949-0.41907 0.98949-0.97784 0-0.57041-0.41908-0.98949-0.98949-0.98949-0.55877 0-0.97785 0.41908-0.97785 0.98949 0 0.55877 0.41908 0.97784 0.97785 0.97784zm0.76831 0.68682h-1.5366v5.8205h1.5366z"/>
<path d="m130.1 140.31h1.5366v-2.7822c0-1.1059 0.43072-1.6996 1.2456-1.6996 0.7101 0 1.0826 0.43072 1.0826 1.2572v3.2246h1.5715v-3.6436c0-1.4784-0.74502-2.3166-2.0488-2.3166-0.77995 0-1.4551 0.34923-1.8975 1.0244v-0.88472h-1.49z"/>
<path d="m136.56 137.38c0 1.8044 1.0826 2.9917 2.7356 2.9917 0.80323 0 1.4784-0.32595 1.8742-0.89636v0.37252c0 1.0011-0.57041 1.5017-1.6996 1.5017-0.69846 0-1.2689-0.24446-1.7694-0.73339l-0.75667 1.2689c0.66354 0.61698 1.49 0.908 2.5727 0.908 2.0605 0 3.1664-1.0011 3.1664-2.8637v-5.4364h-1.5366v0.81488c-0.37251-0.5937-1.0943-0.95457-1.8975-0.95457-1.5832 0-2.6891 1.2456-2.6891 3.0267zm4.6215 0.0233c0 0.93128-0.60533 1.5599-1.5017 1.5599-0.908 0-1.5366-0.64026-1.5366-1.5599s0.62861-1.5599 1.5366-1.5599c0.89636 0 1.5017 0.62862 1.5017 1.5599z"/>
</g>
</g>
</svg>
