<?xml version="1.0" encoding="UTF-8"?>
<!-- COPYRIGHT RobotoSkunk 2022 -->


<svg xmlns="http://www.w3.org/2000/svg" shape-rendering="geometricPrecision" image-rendering="optimizeQuality" fill-rule="evenodd" viewBox="0 0 43.48 54.35">
	<path fill="#6F6F6F" d="M7.24 10.87l3.63 0 0 -3.63c0,-3.99 3.26,-7.24 7.24,-7.24l18.12 0c3.99,0 7.24,3.26 7.24,7.24l0 28.99c0,3.99 -3.26,7.24 -7.24,7.24l-3.63 0 0 3.63c0,3.99 -3.26,7.24 -7.24,7.24l-18.12 0c-3.99,0 -7.24,-3.26 -7.24,-7.24l0 -28.99c0,-3.99 3.26,-7.24 7.24,-7.24zm9.06 0l9.06 0c3.99,0 7.24,3.26 7.24,7.24l0 19.93 2.33 0c1.71,0 3.1,-1.4 3.1,-3.1l0 -26.4c0,-1.71 -1.4,-3.1 -3.1,-3.1l-15.53 0c-1.71,0 -3.11,1.4 -3.11,3.1l0 2.33zm-7.77 5.44l15.53 0c1.71,0 3.1,1.4 3.1,3.1l0 26.4c0,1.71 -1.4,3.1 -3.1,3.1l-15.53 0c-1.71,0 -3.11,-1.4 -3.11,-3.1l0 -26.4c0,-1.71 1.4,-3.1 3.11,-3.1z"/>
</svg>
