<?xml version="1.0" encoding="UTF-8"?>
<!-- COPYRIGHT RobotoSkunk 2022 -->

<svg xmlns="http://www.w3.org/2000/svg" fill-rule="evenodd" shape-rendering="geometricPrecision" viewBox="0 0 17.53 12.55">
	<path fill="#767676" d="M8.77 1.21c3.75,0 7.02,2.04 8.77,5.06 -1.75,3.02 -5.02,5.06 -8.77,5.06 -3.75,0 -7.02,-2.04 -8.77,-5.06 1.75,-3.03 5.02,-5.06 8.77,-5.06z"/>
	<circle fill="white" cx="8.77" cy="6.27" r="2.53"/>
	<path fill="#767676" d="M14.13 0.91l0 0c0.25,0.25 0.25,0.65 0,0.89l-9.84 9.84c-0.25,0.25 -0.65,0.25 -0.89,0l0 0c-0.25,-0.25 -0.25,-0.65 0,-0.89l9.84 -9.84c0.25,-0.25 0.65,-0.25 0.89,0z"/>
	<path fill="white" d="M14.65 0.4c0.26,0.26 0.4,0.61 0.4,0.96 0,0.34 -0.13,0.69 -0.4,0.96l0 0 -9.84 9.84 -0 0 -0 0c-0.26,0.26 -0.61,0.4 -0.95,0.4 -0.34,0 -0.69,-0.13 -0.95,-0.4l-0 0 -0 -0 -0 -0 0 -0c-0.26,-0.26 -0.4,-0.61 -0.4,-0.95 0,-0.34 0.13,-0.69 0.4,-0.95l0 -0 0 -0 9.84 -9.84 0 0c0.26,-0.26 0.61,-0.4 0.96,-0.4 0.35,0 0.69,0.13 0.96,0.4zm-0.51 0.51c0.25,0.25 0.25,0.65 0,0.89l-9.84 9.84c-0.25,0.25 -0.65,0.25 -0.89,0 -0.25,-0.25 -0.25,-0.65 0,-0.89l9.84 -9.84c0.25,-0.25 0.65,-0.25 0.89,0z"/>
</svg>
