<?xml version="1.0" encoding="UTF-8"?>
<!-- COPYRIGHT RobotoSkunk 2021 -->

<svg xmlns="http://www.w3.org/2000/svg" shape-rendering="geometricPrecision" fill-rule="evenodd" viewBox="0 0 31239.86 31239.86">
	<g>
		<circle fill="#FFFFFF" cx="15619.93" cy="15619.93" r="15619.93"/>
		<circle fill="#000000" cx="15619.93" cy="15619.93" r="13630.42"/>
		<path fill="#FFFFFF" d="M11302.61 12107.15c-36.89,-101.09 -145.87,-171.86 -184.4,-504.97 -25.33,-218.96 8.95,-424.64 110.89,-573.87 199.88,-292.59 667.14,-284.46 1016,-93.84 120.72,65.96 341.18,247.51 420.71,271.2 419.4,124.9 734.53,-71.52 1032.18,351.91 76.36,108.63 114.52,251.5 120.78,390.76 4.08,90.71 -6.87,86.67 -23.73,159.79 431.44,-29.17 1083.02,-229.39 1472.54,-439.11 48.85,-26.3 135.46,-83.06 181.06,-98.74 -24.26,241.52 -122.39,431.27 -299.5,571.21 -38.66,30.55 -87.12,58.68 -78.14,133.18 23.68,196.58 343.56,11.84 438.25,-29.74l362.66 -173.9c41.65,-20.56 38.01,-9.64 55.03,-53.65 172.71,-446.46 435,-865.9 760.42,-1191.2 305.92,-305.8 601.9,-564.6 1063.69,-670.15 199.74,-45.66 410.81,-36.88 618.08,-36.91 58.09,-0.01 168.22,8.2 217.71,1.43l19.05 -54.5c-245.03,-34.82 -491.39,-140 -659.2,-253.55 -112.07,-75.84 -206.6,-173.34 -289.71,-277.94 -53.35,-67.14 -87.79,-150.82 -114.2,-235.8 -88.77,-285.64 96.62,-526.56 251.49,-623.59 200.71,-125.75 484.79,-162.16 762.28,-141.95 133.47,9.72 266.23,31.2 392.79,58.76 197.37,42.98 157.1,81.37 291.23,-80 128.39,-154.47 262.95,-342.26 331.42,-585.92 19.81,-70.49 76.05,-324.31 53.1,-382.99 -20.51,-52.46 -85.71,-90.49 -150.94,-56.74 -49.72,25.73 -52.59,57.48 -144.07,89.14 -269.63,93.34 -571.94,20.82 -834.26,-0.71 20.76,-40.64 98.21,-116.28 132.99,-156.47 143.24,-165.53 292.53,-290.17 477.72,-424.25 109.15,-79.03 243.23,-157.76 376.68,-222.07 103.28,-49.77 319.15,-149.92 433.72,-172.12 -26.52,50.33 -67.08,95 -97.94,158.06 -102.34,209.12 -96.06,449.95 -72.04,678.85 82.89,790.01 181.83,1085.15 150.98,1945.79 -13.92,388.24 -78.26,543.57 -70.03,979.42 19.1,1010.49 139.78,1263.92 657.95,1965.33 112.92,152.85 232.56,289.4 350.13,435.11 154.93,192.01 331.38,372.17 482.03,567.66l351.55 441.51c308.64,406.85 800.45,1127.69 1029.06,1591.26 44.82,90.89 120.63,286 135.77,392.69 7.6,53.57 -5.03,57.3 -29.28,84.09 -127.2,140.55 -290.2,404.81 -340.53,584.77 -147.68,528.02 98.37,1202.72 492.49,1517.86 137.18,109.69 327.97,219.08 503.72,281.48 66.17,23.49 140.69,37.65 202.41,61.21 -10.83,29.36 -54.8,62.58 -77.78,84.68 -314.94,302.89 -912.37,481.2 -1336.56,482.34 -194.03,0.52 -414.75,-20.3 -597.9,-69.29 14.39,40.12 52.2,70.66 81.55,96.43 32.36,28.42 76.64,48.83 108.45,78.27 55.62,51.49 121.55,131.89 171.91,193.54 39.94,48.89 305.21,373.78 309.42,411.96 -2463.7,329.59 -5102.66,-79.49 -7545.4,-289.25 -1300.29,-111.66 -2476.52,-106.49 -3714.12,180.07 -914.25,211.69 -1704,570.61 -2449.76,1087.91 -65.11,45.16 -242.42,192.89 -291.72,216.6 46.23,-328.72 346.99,-832.22 523.67,-1096.54 136.1,-203.61 285.78,-385.13 436.13,-574.75 31.04,-39.15 65.86,-69.3 97.03,-105.17 65.99,-75.94 179.16,-106.89 212.11,-199.05 -102.56,27.43 -163.59,38.21 -277.08,48.25 -339.89,30.06 -552.96,28.01 -890.44,-62.11 -300.67,-80.28 -587.96,-220.56 -806.13,-437.85l-38.58 -46.03c74.08,-28.28 156.75,-43.1 230.55,-71.49 206.61,-79.47 425.76,-217.58 570.05,-355.57 298.12,-285.08 519.52,-909.77 413.9,-1371.66 -41.72,-182.45 -107.52,-290 -193.15,-420.76 -42.93,-65.57 -73.82,-122.67 -124.16,-179.18 -67.56,-75.84 -90.27,-76.2 -49.45,-213 132.22,-443.14 412.5,-823.82 652.65,-1197.52 157.47,-245.04 336.2,-487.44 506.39,-722.12 172.97,-238.52 365.13,-451.95 551.08,-677.5 99.27,-120.4 516.48,-582.73 559.83,-676.73 -1144.42,-158.61 -2422.83,-606.42 -3297.61,-1329.67l-180.78 -153.58c-53.7,-42.12 -124.06,-126.02 -173.18,-155.9 -121.07,988.63 -96.45,1879.8 73.87,2844.48 164.71,932.86 446.75,1829.67 967.88,2491.96 57.89,73.56 124.8,128.87 175,213.82 86.31,146.04 168.62,405.89 151.35,611.75 -32.11,382.8 -344.24,708.97 -687.19,849.77 -209.28,85.92 -533.57,118.25 -610.04,159.76 -84.41,45.82 -122.21,146.24 -72.75,258.23 85.84,194.39 390.88,478.97 559.39,599.08 72.51,51.68 154.99,101.73 244.11,144.68l274.5 113.14c-37.79,47.84 -282.5,239.26 -352.22,315.34 -50.57,55.19 -115.25,107.4 -170.61,163.7l-324.16 352.37c-55.59,62.39 -102.06,119.43 -154.54,187.45 -537.32,696.5 -929.24,1506.79 -817.46,2534.68 83,763.22 447.31,1433.05 806.54,1891.95 126.7,161.85 252.08,306.11 387.25,452.52 78.77,85.32 183.9,172.24 261.08,252.1 35.46,36.69 54.35,47.45 85.43,77.85 31.45,30.76 57.55,54.34 90.03,80.88 187.56,153.31 370.66,305.63 575.92,442.69 553.07,369.29 1130.89,681.11 1770.6,927.44 2215.37,853.06 4783.67,948.44 7114.78,541.98 1082.06,-188.67 2157.49,-494.71 3159.23,-890.78 664.88,-262.88 1219.63,-530.73 1832.18,-873.59 290.54,-162.62 569.84,-343.66 831.45,-521.46 582.52,-395.93 982.17,-742.7 1467.57,-1238.13 107.94,-110.17 210.45,-236.72 309.78,-358.97 309.97,-381.51 567.98,-793.82 745,-1284.34 260.41,-721.61 352.27,-1546.33 207.59,-2364.61 -62.1,-351.25 -181.52,-739.14 -328.33,-1024.98 -204.11,-397.41 -285.54,-158.92 -809.12,111.64 -534.06,275.97 -1151.11,481.29 -1751.58,612.08 -334.8,72.92 -266.57,81.99 -358.38,-36.21l-149.63 -177.03c-28.34,-31.95 -65,-51.88 -83.03,-87.52 604.03,0.43 1024.96,-176.51 1404.54,-534.17 66.38,-62.55 128.97,-130.24 185.09,-203.62 46.79,-61.18 126.14,-148.99 154.47,-234.19 40.92,-123.08 -24.89,-210.8 -115.78,-244.5 -169.78,-62.96 -348.34,-43.11 -610.43,-159.44 -195.3,-86.69 -334.98,-206.7 -439.28,-338.3 -106.67,-134.58 -217.46,-324.76 -217.55,-557.73 -0.07,-193.05 88.1,-470.51 181.02,-594.07l175.29 -205.82c415.17,-520.63 663.27,-1247.29 822.94,-1898.26 216.93,-884.41 312.54,-1865.4 250.12,-2822.37 -82.67,-1267.31 -439.52,-2544.22 -1091.38,-3559.09 -145.63,-226.73 -481.58,-658.27 -711.52,-843.51l-99.68 -86.85c-33.68,-29.82 -70.96,-58.17 -107.38,-87.05 -72.21,-57.28 -146.24,-108.52 -227.66,-161.08 -920.01,-593.98 -2049.18,-647.65 -3004.04,-83.06 -84.73,50.1 -154.68,103.34 -230.22,158.55 -73.9,54 -150.07,113.16 -208.65,180.12 -30.03,34.32 -66.76,61.09 -97.32,96.95l-175.01 213.81c-27.72,37.26 -51.86,78.38 -81.73,112.85 -20.03,-12.34 -31.76,-34.33 -45.58,-55.66l-110.94 -200.11c-41.33,-91.16 -80.17,-198.9 -105.46,-306.75 -27.32,-116.48 -43.49,-238.58 -46.02,-362.59 -2.22,-108.81 31.19,-292.47 -17.95,-374.4 -125.48,-209.2 -412.96,51.76 -513.39,156.81 -36.54,38.22 -61.27,62.97 -96.99,105.05 -92.29,108.72 -189.97,248.61 -250.73,377.29 -9.24,-5.55 -236.86,-228.6 -301.26,-277.37 -39.16,-29.65 -69.62,-54.55 -110.19,-84.17 -139.79,-102.06 -314.93,-201.92 -497.47,-280.04 -397.95,-170.31 -850.12,-235.01 -1332.9,-214.23 -1733.12,74.6 -3257.5,825.66 -4846.71,1357.41 -1053.18,352.39 -2140.26,613.84 -3307.22,389.63 -216.32,-41.56 -420.26,-99.31 -634.6,-143.22 -660.61,-135.35 -319.35,623.16 -196.49,919.83 263.11,635.28 608.68,1172.66 1024.27,1689.32 31.32,38.94 58.58,68.12 89.04,105.36 86.11,105.28 184.01,198.82 280.45,294.84 65.87,65.59 125.8,131.46 199.27,189.5 36.13,28.55 66.84,59.3 103.61,90.65l328.97 254.23c617.27,443.92 1387.51,760.46 2150.09,952.05 350.59,88.08 965.67,223.64 1319.42,240.55zm-4370.14 10073.2c1.91,782.21 218.67,1231.42 626.59,1790.78 56.8,77.88 119.52,158.57 177.67,226.66l282.91 315.73c95.54,103.95 251.81,254.59 358.47,349 759.89,672.59 1530.47,1055.46 2496.41,1438.05 466.32,184.7 741.73,275.3 1238.46,378.95 1033.07,215.57 1954.92,314.2 3037.21,314.86 1001.95,-0.8 2021.25,-175.32 2947.78,-389.23 898.86,-207.53 1712.34,-502.35 2500.24,-842.8 779.62,-336.87 1537.37,-746.74 2164.77,-1178.58 191.43,-131.77 545.62,-383.63 718.38,-533.52 38.1,-33.06 75.31,-64.07 114.69,-95.24 289.98,-229.55 598.87,-549.88 837.57,-834.03 27.35,-32.56 64.46,-90.01 89.19,-114.09 -70.83,60.93 -126.66,119.05 -193.73,180.41 -65.6,60.02 -132.42,117.18 -202.51,178.5 -999.71,874.69 -2142.66,1471.03 -3385.43,1964.23 -718.16,285.01 -1565.77,517.88 -2380.09,675.64 -2700.33,523.15 -5671.54,318.97 -8092.71,-864.03 -1898.12,-927.43 -3746.05,-2722.8 -2487.92,-4919.54 191.18,-333.8 362.43,-528.73 598.05,-793.75 22.08,-24.83 220.73,-225.84 228.4,-229.55 -207.3,122.92 -380.11,295.38 -543.55,466.6 -525.72,550.72 -1132.69,1754.58 -1130.83,2514.94z"/>
		<path fill="#FFFFFF" d="M18116.34 10469.28c-351.95,35.48 -716.23,203.74 -971.33,433.47 -323.62,291.45 -487.9,514.14 -693.68,892.55 -364.17,669.67 -539.54,1558.28 -523.74,2462.06 20.4,1167.07 461.08,2477 1344.45,3134.15 278.24,206.99 689.09,377.83 1151.29,333.85 206.69,-19.66 416.19,-91.11 574.57,-172.43 201.18,-103.31 380.37,-240.56 536.63,-396.29 32.85,-32.74 57.43,-65.33 89.94,-96.68l169.05 -204.14c97.47,-130.72 209.42,-300.03 287.83,-458.53 371.68,-751.31 555.04,-1583.11 523.04,-2451.07 -32.49,-881.33 -212.79,-1615.55 -638.41,-2350.87 -131.27,-226.79 -216.2,-311.32 -359.54,-480.11 -15.96,-18.79 -27.18,-31.32 -44.19,-49.32 -353.16,-373.9 -884.38,-653.27 -1445.92,-596.66z"/>
		<path fill="#FFFFFF" d="M15295.87 13637.05c-1121.43,343.24 -2547.16,-92.84 -3510.89,-656.36 -161.81,-94.61 -308.36,-190.88 -449.01,-289.64l-415.53 -326.16c-61.07,100.72 -166.06,572.95 -192.52,712.86 -148.34,784.14 -118.5,1674.91 88.67,2426.63 231.59,840.31 703.03,1727.73 1522.53,2092.9 486.25,216.67 1024.25,159.35 1445.65,-86.81 200,-116.83 292.02,-194.33 442.98,-342.27 22.12,-21.67 35.34,-36.71 59.36,-57.3 107.6,-92.28 317.24,-397 388.93,-513.11 214.45,-347.37 410.54,-832.83 507.81,-1295.93 102.08,-486.01 177.78,-1169.14 112.04,-1664.81z"/>
		<path fill="#FFFFFF" d="M11699.79 11192.17c-234.65,52.38 -258.83,296.57 -167.07,524.76 84.36,209.78 207.09,332.68 349.29,443.67 618.85,483.04 1751.28,86.95 1555.78,-334.81 -139.64,-301.25 -576.88,-172.2 -920.9,-269.25 -212.2,-59.86 -502.96,-434.51 -817.11,-364.38z"/>
		<path fill="#FFFFFF" d="M15557.7 16860.32c-280.34,24.62 -488.36,129.86 -606.59,362.44 -194.77,383.11 413.77,842.75 735.41,782.63 301.34,-56.33 660.19,-360.59 643.18,-645.42 -10.11,-169.3 -164.81,-319.79 -260.44,-382.84 -128.64,-84.81 -325.84,-133.12 -511.56,-116.81zm-26 927.95c18.77,-144.04 15.15,-367.97 84.74,-465.85 73.58,38.2 79.2,359.95 93,465.85 291.2,-120.63 567.15,-422.37 217.96,-646.05 -203.67,-130.46 -397.75,-130.88 -604.11,-6 -358.51,216.94 -95.12,526.31 208.41,652.05z"/>
		<path fill="#FFFFFF" d="M18243.51 8943.12c-163.84,19.97 -355.55,94.18 -311.58,285.06 96.98,421.04 1513.65,814.29 1613.79,220.06 68.1,-404.11 -1041.15,-536.93 -1302.21,-505.12z"/>
		<path fill="#FFFFFF" d="M8627.69 7095.55c247.39,-22.72 1184.38,-331.79 1410.56,-414.66 38.04,-13.94 1284.91,-458.62 1331.66,-493.07 1.38,-1.02 3.64,-2.89 5.31,-4.49 -588.94,-106.98 -1108.47,-63.44 -1625.79,146.38 -335.12,135.92 -615.95,314.02 -877.91,537.09 -38.14,32.48 -93.19,74.99 -124.64,108.7 -40.5,43.4 -88.77,77.78 -119.2,120.05z"/>
		<path fill="#FFFFFF" d="M14486.12 17089.6c72.02,5.85 85.74,-28.06 125.3,-58.71 29.58,-22.92 75.28,-47.14 112.74,-66.12 513.19,-260 1271.38,-260.13 1787.65,-2.6 155.96,77.8 158.53,134.3 243.21,127.43 41.87,-108.72 -80.99,-213.1 -131.66,-262.35 -70.69,-68.71 -160.39,-117.25 -268.14,-159.47 -422.1,-165.4 -1040.01,-166.01 -1463.69,-2.2 -104.74,40.5 -201.38,90.97 -269.88,157.81 -51.16,49.93 -177.94,156.13 -135.55,266.2z"/>
	</g>
</svg>
