<?xml version="1.0" encoding="UTF-8"?>
<!-- COPYRIGHT RobotoSkunk 2021 -->

<svg xmlns="http://www.w3.org/2000/svg" shape-rendering="geometricPrecision" viewBox="0 0 3124.43 777.14">
	<g>
		<g>
			<path fill="#FFFFFF" d="M2854.81 0l0 126.88 -31.72 0 0 -126.88 -348.92 0 0 63.44 -31.72 0 0 -63.44 -222.04 0 0 63.44 -15.86 0 0 -63.44 -222.04 0 0 63.44 -63.44 0 0 63.44 -31.72 0 0 -63.44 -63.44 0 0 -63.44 -222.04 0 0 317.2 -79.3 0 0 -317.2 -777.14 0 0 63.44 -31.72 0 0 -63.44 -713.7 0 0 602.68 713.7 0 0 -63.44 31.72 0 0 63.44 95.16 0 0 174.46 1538.42 0 0 -174.46 380.64 0 0 -126.88 31.72 0 0 126.88 333.06 0 0 -602.68 -269.62 0zm-967.46 412.36l31.72 0 0 111.02 -31.72 0 0 -111.02z"/>
			<path fill="#000000" d="M2870.67 15.86l0 126.88 -63.44 0 0 -126.88 -317.2 0 0 63.44 -63.44 0 0 -63.44 -190.32 0 0 63.44 -47.58 0 0 -63.44 -190.32 0 0 63.44 -63.44 0 0 63.44 -63.44 0 0 -63.44 -63.44 0 0 -63.44 -190.32 0 0 317.2 -111.02 0 0 -317.2 -745.42 0 0 63.44 -63.44 0 0 -63.44 -681.98 0 0 570.96 681.98 0 0 -63.44 63.44 0 0 63.44 95.16 0 0 174.46 1506.71 0 0 -174.46 380.64 0 0 -126.88 63.44 0 0 126.88 301.34 0 0 -570.96 -237.9 0zm-999.18 380.64l63.44 0 0 142.74 -63.44 0 0 -142.74z"/>
		</g>
		<g id="PixelMan">
			<g>
				<g>
					<path fill="#FFFFFF" d="M2363.15 523.38l126.88 0 0 -380.64 -63.44 0 0 -63.44 -190.32 0 0 63.44 -47.58 0 0 380.64 111.02 0 0 -190.32 63.44 0 0 190.32zm-63.44 -380.64l63.44 0 0 126.88 -63.44 0 0 -126.88zm0 0l0 0 0 0z"/>
				</g>
				<polygon fill="#FFFFFF" points="2743.79,79.3 2680.35,79.3 2553.47,79.3 2553.47,523.38 2680.35,523.38 2680.35,333.06 2743.79,333.06 2743.79,396.5 2807.23,396.5 2807.23,459.94 2870.67,459.94 2870.67,523.38 3045.13,523.38 3045.13,269.62 3045.13,79.3 2918.25,79.3 2918.25,269.62 2870.67,269.62 2870.67,206.18 2807.23,206.18 2807.23,142.74 2743.79,142.74 "/>
				<polygon fill="#FFFFFF" points="380.64,333.06 317.2,333.06 317.2,523.38 444.08,523.38 444.08,333.06 444.08,269.62 380.64,269.62 "/>
				<rect fill="#FFFFFF" x="380.64" y="79.3" width="63.44" height="126.88"/>
				<polygon fill="#FFFFFF" points="1681.16,523.38 1808.05,523.38 1808.05,269.62 1871.49,269.62 1871.49,333.06 1934.93,333.06 1934.93,269.62 1998.37,269.62 1998.37,523.38 2125.25,523.38 2125.25,79.3 1998.37,79.3 1998.37,142.74 1934.93,142.74 1934.93,206.18 1871.49,206.18 1871.49,142.74 1808.05,142.74 1808.05,79.3 1681.16,79.3 "/>
				<path fill="#FFFFFF" d="M142.74 269.62l174.46 0 0 -190.32 -237.9 0 0 444.08 111.02 0 0 -190.32 -47.58 0 0 -63.44zm0 -126.88l111.02 0 0 63.44 -111.02 0 0 -63.44z"/>
				<polygon fill="#FFFFFF" points="1316.38,523.38 1617.72,523.38 1617.72,396.5 1443.27,396.5 1443.27,79.3 1316.38,79.3 "/>
				<path fill="#FFFFFF" d="M1252.94 523.38l0 -63.44 -126.88 0 0 -126.88 63.44 0 0 -63.44 -63.44 0 0 -126.88 126.88 0 0 -63.44 -126.88 0 -126.88 0c0,148.03 0,296.05 0,444.08 84.59,0 169.17,0 253.76,0z"/>
				<path fill="#FFFFFF" d="M507.52 523.38l126.88 0 0 -63.44 63.44 0 0 -126.88 63.44 0 0 126.88 63.44 0 0 63.44 111.02 0c0,-42.29 0,-84.59 0,-126.88l-63.44 0 0 -190.32 79.3 0 0 -126.88 -111.02 0 0 63.44 -79.3 0 0 126.88 -63.44 0 0 -126.88 -63.44 0 0 -63.44 -126.88 0 0 126.88 63.44 0 0 190.32 -63.44 0c0,42.29 0,84.59 0,126.88z"/>
			</g>
			<g>
				<polygon fill="#E0E4E5" points="2807.23,412.36 2807.23,459.94 2870.67,459.94 2870.67,523.38 3045.13,523.38 3045.13,412.36 "/>
				<rect fill="#E0E4E5" x="2553.47" y="412.36" width="126.88" height="111.02"/>
				<rect fill="#E0E4E5" x="2363.15" y="412.36" width="126.88" height="111.02"/>
				<rect fill="#E0E4E5" x="2188.69" y="412.36" width="111.02" height="111.02"/>
				<rect fill="#E0E4E5" x="1316.38" y="412.36" width="301.34" height="111.02"/>
				<path fill="#E0E4E5" d="M1252.94 523.38l0 -63.44 -126.88 0 0 -47.58 -126.88 0 0 111.02c84.59,0 169.17,0 253.76,0z"/>
				<rect fill="#E0E4E5" x="317.2" y="412.36" width="126.88" height="111.02"/>
				<rect fill="#E0E4E5" x="79.3" y="412.36" width="111.02" height="111.02"/>
				<polygon fill="#E0E4E5" points="507.52,523.38 634.4,523.38 634.4,459.94 697.84,459.94 697.84,412.36 507.52,412.36 "/>
				<polygon fill="#E0E4E5" points="761.28,459.94 824.72,459.94 824.72,523.38 935.74,523.38 935.74,412.36 761.28,412.36 "/>
				<rect fill="#E0E4E5" x="1681.16" y="412.36" width="126.88" height="111.02"/>
				<rect fill="#E0E4E5" x="1998.37" y="412.36" width="126.88" height="111.02"/>
			</g>
		</g>
		<g id="Adventures">
			<g>
				<path fill="#FFFFFF" d="M1570.15 634.4l-15.86 0 0 -15.86 -15.86 0 0 -15.86 -15.86 0 0 -31.72 -47.58 0c0,52.87 0,105.73 0,158.6l47.58 0 0 -63.44 15.86 0 0 15.86 15.86 0 0 15.86 15.86 0 0 31.72 47.58 0c0,-52.87 -0,-105.73 -0,-158.6l-47.58 0 0 63.44z"/>
				<path fill="#FFFFFF" d="M1839.77 681.98l0 -111.02 -47.58 0 0 158.6 111.02 0c0,-52.87 0,-105.73 0,-158.6l-47.58 0 0 111.02 -15.86 0z"/>
				<path fill="#FFFFFF" d="M1332.24 729.56l111.02 0 0 -47.58 -63.44 0 0 -15.86 31.72 0 0 -31.72 -31.72 0 0 -15.86 63.44 0 0 -47.58 -111.02 0c0,52.87 0,105.73 0,158.6z"/>
				<path fill="#FFFFFF" d="M1998.37 570.96l-63.44 0 0 111.02 0 47.58 47.58 0 0 -47.58 15.86 0 0 47.58 47.58 0 -0 -79.3 -15.86 0 0 -15.86 15.86 0 0 -63.44 -47.58 0zm0 63.44l-15.86 0 0 -31.72 15.86 0 0 31.72z"/>
				<path fill="#FFFFFF" d="M1141.92 586.82l-15.86 0 0 -15.86 -79.3 0c0,52.87 0,105.73 0,158.6l79.3 0 0 -15.86 15.86 0 0 -31.72 15.86 0 0 -63.44 -15.86 0 0 -31.72zm-47.58 15.86l15.86 0 0 95.16 -15.86 0 0 -95.16z"/>
				<path fill="#FFFFFF" d="M999.18 586.82l-15.86 0 0 -15.86 -63.44 0 0 15.86 -15.86 0 0 15.86 -15.86 0c0,42.3 0,84.59 0,126.88l47.58 0 0 -47.58 31.72 0 0 47.58 47.58 0 0 -126.88 -15.86 0 0 -15.86zm-31.72 63.44l-31.72 0 0 -31.72 31.72 0 0 31.72z"/>
				<path fill="#FFFFFF" d="M2077.67 729.56l111.02 0 0 -47.58 -63.44 0 0 -15.86 31.72 0 0 -31.72 -31.72 0 0 -15.86 63.44 0 0 -47.58 -111.02 0c0,52.87 0,105.73 0,158.6z"/>
				<path fill="#FFFFFF" d="M2220.41 666.12l63.44 0 0 15.86 -63.44 0 0 47.58 111.02 0c0,-31.72 0,-63.44 0,-95.16l-63.44 0 0 -15.86 63.44 0 0 -47.58 -111.02 0c0,31.72 0,63.44 0,95.16z"/>
				<polygon fill="#FFFFFF" points="1649.45,618.54 1681.16,618.54 1681.16,729.56 1728.75,729.56 1728.75,618.54 1760.47,618.54 1760.47,570.96 1649.45,570.96 "/>
				<path fill="#FFFFFF" d="M1237.08 681.98l0 -111.02 -47.58 0c0,42.29 -0,84.59 -0,126.88l15.86 0 0 15.86 15.86 0 0 15.86 47.58 0 0 -15.86 15.86 0 0 -15.86 15.86 0 0 -126.88 -47.58 0 0 111.02 -15.86 0z"/>
				<rect fill="#E0E4E5" x="1681.17" y="681.98" width="47.58" height="47.58"/>
			</g>
			<g>
				<rect fill="#E0E4E5" x="1474.99" y="681.98" width="47.58" height="47.58"/>
				<polygon fill="#E0E4E5" points="1570.15,729.56 1617.73,729.56 1617.73,681.98 1554.28,681.98 1554.28,697.84 1570.15,697.84 "/>
				<rect fill="#E0E4E5" x="1681.17" y="681.98" width="47.58" height="47.58"/>
				<rect fill="#E0E4E5" x="1934.93" y="681.98" width="47.58" height="47.58"/>
				<rect fill="#E0E4E5" x="1998.37" y="681.98" width="47.58" height="47.58"/>
				<rect fill="#E0E4E5" x="2077.67" y="681.98" width="111.02" height="47.58"/>
				<rect fill="#E0E4E5" x="2220.41" y="681.98" width="111.02" height="47.58"/>
				<rect fill="#E0E4E5" x="1792.19" y="681.98" width="111.02" height="47.58"/>
				<rect fill="#E0E4E5" x="1332.24" y="681.98" width="111.02" height="47.58"/>
				<rect fill="#E0E4E5" x="967.46" y="681.98" width="47.58" height="47.58"/>
				<rect fill="#E0E4E5" x="888.16" y="681.98" width="47.58" height="47.58"/>
				<polygon fill="#E0E4E5" points="1189.5,697.84 1205.36,697.84 1205.36,713.7 1221.22,713.7 1221.22,729.56 1268.8,729.56 1268.8,713.7 1284.66,713.7 1284.66,697.84 1300.52,697.84 1300.52,681.98 1189.5,681.98 "/>
				<polygon fill="#E0E4E5" points="1110.2,697.84 1094.34,697.84 1094.34,681.98 1046.76,681.98 1046.76,729.56 1126.06,729.56 1126.06,713.7 1141.92,713.7 1141.92,681.98 1110.2,681.98 "/>
			</g>
		</g>
	</g>
</svg>
