<svg xmlns="http://www.w3.org/2000/svg" viewBox="0 0 329.78 329.78">
	<path fill="white" d="M109.93,164.89a55,55,0,1,1,55,55,55,55,0,0,1-55-55m-29.71,0a84.67,84.67,0,1,0,84.67-84.68,84.67,84.67,0,0,0-84.67,84.68m152.9-88a19.79,19.79,0,1,0,19.79-19.79,19.8,19.8,0,0,0-19.79,19.79M98.26,299.1c-16.07-.73-24.8-3.41-30.61-5.67a51.19,51.19,0,0,1-19-12.34,51.1,51.1,0,0,1-12.34-18.95c-2.26-5.81-4.94-14.55-5.68-30.62-.79-17.39-1-22.61-1-66.63s.17-49.24,1-66.63c.74-16.08,3.42-24.81,5.68-30.62a51.06,51.06,0,0,1,12.34-19,51,51,0,0,1,19-12.33c5.81-2.26,14.54-4.94,30.61-5.68,17.39-.79,22.6-1,66.63-1s49.24.17,66.63,1c16.07.74,24.81,3.42,30.62,5.68a51,51,0,0,1,19,12.33,51,51,0,0,1,12.33,19c2.26,5.81,4.94,14.54,5.68,30.62.79,17.39,1,22.6,1,66.63s-.17,49.24-1,66.63c-.74,16.07-3.42,24.81-5.68,30.62a54.63,54.63,0,0,1-31.29,31.29c-5.81,2.26-14.55,4.94-30.62,5.67-17.38.8-22.6,1-66.63,1s-49.24-.17-66.63-1M96.91,1c-17.55.79-29.54,3.58-40,7.66a80.87,80.87,0,0,0-29.2,19,80.8,80.8,0,0,0-19,29.21C4.58,67.37,1.79,79.36,1,96.91s-1,23.2-1,68,.19,50.39,1,68,3.58,29.54,7.66,40a80.72,80.72,0,0,0,19,29.21,80.9,80.9,0,0,0,29.2,19c10.49,4.08,22.48,6.86,40,7.66s23.2,1,68,1,50.4-.19,68-1,29.53-3.58,40-7.66a84.26,84.26,0,0,0,48.22-48.23c4.08-10.48,6.87-22.47,7.67-40s1-23.2,1-68-.19-50.4-1-68-3.59-29.54-7.67-40a80.91,80.91,0,0,0-19-29.21,80.91,80.91,0,0,0-29.21-19c-10.49-4.08-22.48-6.87-40-7.66s-23.21-1-68-1-50.39.19-68,1"/>
</svg>