<svg xmlns="http://www.w3.org/2000/svg" viewBox="0 0 240.1 169.16">
	<path fill="white" d="M235.08 26.42c-2.76,-10.4 -10.9,-18.59 -21.23,-21.37 -18.72,-5.05 -93.81,-5.05 -93.81,-5.05 0,0 -75.08,0 -93.81,5.05 -10.33,2.78 -18.47,10.97 -21.23,21.37 -5.02,18.85 -5.02,58.17 -5.02,58.17 0,0 0,39.32 5.02,58.17 2.76,10.4 10.9,18.59 21.23,21.37 18.72,5.05 93.81,5.05 93.81,5.05 0,0 75.08,0 93.81,-5.05 10.33,-2.78 18.47,-10.97 21.23,-21.37 5.02,-18.85 5.02,-58.17 5.02,-58.17 0,0 0,-39.32 -5.02,-58.17zm-139.59 93.86l0 0 0 -71.4 62.75 35.7 -62.75 35.7z"/>
</svg>