<?xml version="1.0" encoding="UTF-8"?>
<!-- COPYRIGHT RobotoSkunk 2021 -->

<svg xmlns="http://www.w3.org/2000/svg" shape-rendering="geometricPrecision" viewBox="0 0 915.26 748.58">
	<g>
		<path fill="#333333" d="M758.87 658.19c-88.98,-142.49 -20.87,-306.82 -29.53,-399.21 -16.12,-114.94 -458.05,-147.5 -502.81,21.57 -17.39,70.92 -4.88,271.9 -62.79,349.46 -15.39,12.98 -0.95,30.84 12.59,31.78 10.21,0.72 19.6,1.32 28.18,1.8 -3.48,2.92 -7.48,6.22 -12.01,9.9 -8.6,7.03 -27.5,20.32 -32.94,30.44 -4.64,8.43 -3.07,23.18 7.33,25.22 26.46,5.71 57.28,2.55 85.26,3.95 52.59,2.38 98.76,12.02 149.06,14.47 24.62,1.31 49.23,1.31 73.82,0 55.41,-2.75 105.01,-6.64 161.91,-10.09 24.72,1.82 54.82,-2.62 79.28,-2.31 15.38,0.2 31.06,-12.63 24.38,-28.98 -3.22,-7.91 -7.29,-15.11 -12.21,-21.61 5.22,0.2 10.43,-0.04 15.62,-0.73 23.11,0.16 18.24,-25.28 14.86,-25.68z"/>
		<path fill="#262626" d="M190.31 246.52c-87.48,40.74 -152.26,121.26 -177.62,213.36 -11.4,41.93 -28.9,195.18 19.46,215.43 86.07,34.13 180.25,-81.51 199.69,-157.81 19.08,-75.83 42.17,-227.74 -41.54,-270.98zm249.45 311.59c8.54,7.45 50.57,10.75 60.04,-1.19 -3.09,-48.49 -9.34,-118.75 -3.76,-169.64 1.18,-41.22 -40.14,-52.32 -46.64,-7.98 2.52,21.87 -7.23,176.78 -9.63,178.81zm328.41 -309.48c-54.29,-27.37 -75.33,108.06 -81.46,146.6 -9.52,91.84 -6.37,135.92 29.33,206.68 56.96,104.73 168.72,106.57 193.16,1.23 16.49,-62.3 -3.66,-156.64 -24.34,-217.08 -22.06,-65.52 -59.06,-103.4 -116.7,-137.43z"/>
		<path fill="#191919" d="M558.6 642.91c-16.37,-17.45 -52.67,-5.74 -69.48,5.53 -31.64,22.16 -23.9,47.61 -16.66,39.31 21.14,-24.54 41.69,-45.45 78.97,-31.78 6.89,2.75 11.82,-7.21 7.18,-13.05z"/>
		<path fill="#E6B891" d="M439.87 558.24c-13.07,16.72 11.43,30.73 23.45,31.89l2.48 -13.24c1.41,-5 3.67,-4.78 4.87,-0.58l2.43 13.82c15.26,1.51 41.25,-18.26 26.68,-33.2 -11.47,-11.23 -46.4,-12.92 -59.92,1.31z"/>
		<path fill="#ffffff" d="M884.82 29.21c-10.59,-2.91 -44.96,10.8 -57.24,14.47 -88.43,26.98 -133.39,-7.08 -214.24,-26.68 -75.14,-17.56 -180.19,1.03 -235.51,56.58 -8.75,-18.01 -85.77,-86.01 -107.1,-71.59 -5.02,3.43 -7.33,8.09 -6.95,13.97 0.59,11 19.71,55.98 22.3,85.95 2.98,36.24 -0.35,88.88 -40.31,105.14 -14.14,5.58 -30.52,4.99 -44.22,13.09 -24.98,14.39 -4.08,48.51 13.05,59.08 33.62,20.42 104.34,20.63 130.52,-16.47 21.57,33.31 51.15,68.45 92.71,74.55 9.61,1.42 21.14,-8.88 19.04,-18.16 27.61,19.88 79.46,37.99 112.67,39.31 9.62,0.38 16.47,-1.97 20.54,-7.06 6.5,14.29 23.14,28.6 38.35,32.44 17.22,4.23 28.05,-2.81 22.76,-22.11 -1.48,-5.37 -8.41,-9.97 -20.77,-13.78 -3.03,-7.23 -4.8,-13.43 -6.41,-18.89 -7.04,-16.5 -23.45,-13.1 -32.86,-0.46 -14.35,-21.75 -29.35,-33.04 -45.6,-51.29 146.06,37.39 328.43,-41.48 352.63,-201.46 1.86,-12.31 2.3,-42.34 -13.36,-46.64zm-367.37 501.35c27.58,-20.58 90.33,-32.25 110.98,-36.81 4.89,-3.65 12.82,-41.12 12.98,-48.75 -49.63,-7.63 -111.28,-25.77 -143.72,-66.99 -8.66,45.53 -7.53,114.75 19.77,152.55zm-70.75 -165.03c-11.93,13.2 -25.98,23.76 -42.15,31.67 6.92,27.86 -1.58,73.47 -9.1,95.2 11.67,3.15 22.48,8.82 32.44,17.01 13.73,-23.13 30.81,-117.91 18.81,-143.88zm-86.57 52.05c0.26,-0.13 -37,13.06 -54.36,16.93 1.36,15.05 6.84,33.44 11.25,47.87 20.94,17.54 18.26,8.63 45.91,7.49 0.18,-0.03 -5.73,-64.55 -2.8,-72.29zm1.46 -88.68c-4.86,-10.58 -18.63,-17.08 -25.18,-3.99 -10.69,21.02 -13.99,23.7 -35.24,33.24 -20.23,9.97 7.13,42.58 38.81,22.65 17.77,-10.91 30.76,-31.28 21.61,-51.9z"/>
		<path fill="#3188D2" d="M534.3 443.84c-2.42,17.69 0.43,61.63 24.61,63.61 28.16,2.26 38.87,-32.26 38.39,-54.47 -17.83,-18.89 -38.7,-21.93 -62.99,-9.14zm-114.93 -6.76c-23.15,-7.8 -43.41,-7.8 -65.41,4.34 -2.12,15.29 -3.12,37.07 8.98,48.45 5.15,-1.02 28.09,0.37 32.4,2.57 13.28,-7.62 24.42,-39.52 24.03,-55.35z"/>
		<path fill="#3A65AD" d="M534.3 443.84c21.93,1.95 42.48,6.95 62.99,9.14 -0.74,-6.32 -0.96,-12.4 -2.73,-18.46 -17.81,-5.47 -35.14,-11.89 -51.75,-20.38 -5.4,7.31 -7.53,20.59 -8.52,29.71zm-174.17 -26.26c-2.92,7.7 -4.98,15.65 -6.18,23.84 18.71,0.31 37.52,-0.9 56.43,-3.61 2.99,-0.38 5.99,-0.63 8.98,-0.73 -0.25,-12.68 -5.73,-30.05 -14.82,-39.89 -14.78,7.07 -29.22,12.79 -44.41,20.38z"/>
		<path fill="#B3D9FF" d="M582.56 504.72c-3.02,9.27 10.6,16.69 18.04,18.04 12.24,2.23 43.74,5.51 47.26,-12.01 3.8,-19.5 -36.29,-19.88 -47.07,-18.42 -7.29,1.2 -16.21,6.09 -18.23,12.39zm-265.53 -22.34c-13.18,1.74 -35.16,4.62 -31.32,22.8 3.3,16.54 45.77,11.8 57.31,9.14 8.46,-1.8 20.26,-11.97 14.55,-20.69 -8.74,-15.21 -25.69,-13.14 -40.54,-11.25z"/>
		<path fill="#ECF6FF" d="M589.66 500.96c-2.31,2.31 -0.12,5.39 2.84,4.84 4.86,-0.67 7.77,-1.37 12.7,-1.85 3.33,-1.1 4.4,-2.77 2.58,-5.63 -3.9,-3.65 -14.37,-0.77 -18.12,2.65zm-281.46 -12.25c-4.48,0.56 -8.71,2.15 -12.71,4.76 -2.92,1.92 -3.62,4.18 -2.11,6.79 2.42,1.88 8.76,-2.28 13.32,-2.11 9.15,0 8.48,-10.35 1.5,-9.44z"/>
	</g>
</svg>
