<?xml version="1.0" encoding="UTF-8"?>
<!-- COPYRIGHT RobotoSkunk 2022 -->

<svg xmlns="http://www.w3.org/2000/svg" shape-rendering="geometricPrecision" viewBox="0 0 2085.83 1669.9">
	<path fill="#c0cde6" d="M34.62 1148.63c-7.81,15.82 -9.62,32.45 -5.42,49.88 5.05,20.98 64.31,80.59 84.56,91.22 42.72,22.42 88.36,32.1 136.92,29.03 28.97,-1.81 41.67,-16.31 38.1,-43.52 -1.31,-9.85 -3.94,-19.36 -7.89,-28.5 66.92,0.15 200.54,-3.71 258.59,-15.43 -47.92,84.36 -318.81,287.82 -216.07,378.72 29.13,25.75 62.44,44.01 99.93,54.77 28.86,8.25 102.15,9.42 119.84,-19.02 14.86,-23.89 13.09,-55.3 -5.3,-94.22 18.62,-48.55 164.26,-162.01 215.66,-210.65 93.97,25.79 201.33,42.29 298.33,28.09 91,-13.34 178.69,-36.14 266.12,-64.37 32.65,26.61 79.48,42.05 119.66,23.91 3.39,-1.52 4.17,-3.64 5.36,-6.77 35.68,12.94 73.04,15.43 112.07,7.48 39.19,-8.07 55.92,-47.72 33.45,-83.33 -39.26,-62.25 -115.6,-45.93 -32.1,-56.59 107.06,-13.68 208.87,-38.29 310.76,-73.38 36.2,-12.43 64.27,-34.14 84.21,-65.13 68.66,-85.16 -1893.02,49.65 -1916.8,97.82z"/>
	<path fill="#acc330" d="M1617.78 18.52c44.48,11.6 110.81,7.1 144.27,60.26 0.23,64.66 -141.07,113.38 -192.91,126.57 -85.95,21.88 -179.96,25.79 -269.21,16.03 -176.87,-19.29 -341.56,-56.15 -515.51,-91.18 -101.29,-20.48 -214.21,-37.94 -315.92,-56.03 -113.4,-20.05 -310.01,-15.43 -352.96,97.2 -33.31,53.91 -13.1,130.46 50.54,162.74 56.87,33.07 152.36,51.29 263.76,62.88 79.41,-2.03 200.89,12.41 309.27,20.47 167.46,15.15 307.28,-11.63 478.3,14.31 100.93,15.23 112.23,71.02 26.85,119.62 -47.73,40.08 -231.47,89.46 -362.3,125.56 -139.08,32.73 -205.39,52.97 -278.08,121.6 -33.93,32.27 -56.37,111.14 -44.06,157.78 400.15,29.27 1174.07,21.6 1338.18,25.31 -0.77,-51.41 8.99,-101.12 -5.39,-150.27 -23.45,-80.67 -74.01,-217.79 -153.39,-267.05 -54.09,-37.88 -209.28,-106.57 -275.48,-127.38 -86.62,-27.07 -319.28,-82.03 -403.36,-93.57 -151.93,-20.94 -266.63,-27.39 -413.24,-79.29 -55.71,-19.55 -115.82,-94.53 -34.54,-98.45 127.64,4.99 320.35,57.85 465.43,88.18 241.79,50.29 453.63,69.92 699.38,42.48 56.99,-6.62 149.09,-21.78 203.24,-36.84 23.76,-6.61 105.21,-60.18 99.79,-84.97 -8.63,-42.83 -54.65,-88.8 -90.16,-109.76 -87.86,-51.56 -284.25,-71.38 -372.5,-46.21z"/>
	<path fill="#757917" d="M1664.88 34.53c20.56,3.3 40.47,8.57 59.71,15.82 20.7,7.65 31.7,21.22 33.02,40.73 -2.64,4.75 -5.67,9.23 -9.1,13.45 -22.45,27.14 -61.49,47.02 -92.14,62.09 -38.46,18.91 -82.39,31.47 -124.57,38.16 -161.75,25.21 -295.59,6.42 -452.6,-24.72 -212.69,-41.59 -416.74,-82.31 -630.75,-114.09 -70.26,-10.41 -139.93,-8.57 -209,5.54 -75.09,15.4 -138.08,73.95 -146.32,151.86 -4.8,45.4 25.85,89.01 63.67,111.32 67.55,40.16 173.03,58.25 249.14,63.67 100.45,6.85 200.89,14.24 301.34,22.14 22.94,1.85 45.87,3.17 68.81,3.96 116.13,4.08 232.27,5.67 348.4,4.75 36.78,-0.27 73.03,3.36 108.75,10.87 29.28,6.24 74.31,23.08 58.53,60.9 -6.2,11.07 -14.3,20.43 -24.32,28.08 -28.87,22.28 -60.44,39.74 -94.71,52.4 -56.55,20.96 -113.83,39.61 -171.83,55.96 -65.46,18.52 -130.31,35.32 -196.15,52.79 -51.57,13.69 -101.44,33.13 -148.49,57.93 -63.2,33.32 -102.23,96.94 -106.97,167.48 -1.05,15.29 0.79,30.06 5.54,44.29 50.86,27.04 1232.91,33.13 1355.63,13.19 -0.13,-16.74 -1.45,-61.89 -3.96,-77.84 -0.53,-15.42 -2.11,-30.78 -4.75,-46.07 -3.29,-19.38 -7.84,-38.49 -13.64,-57.34 -8.57,-27.16 -18.32,-53.98 -29.26,-80.48 -12.52,-29.79 -28.14,-57.8 -46.86,-84.04 -25.31,-35.72 -56.88,-64.79 -94.71,-87.2 -205.86,-122.37 -534.93,-191.32 -768.37,-217.5 -59.85,-6.72 -118.9,-17.73 -177.16,-33.02 -39.94,-10.41 -79.62,-21.62 -119.03,-33.62 -27.55,-8.43 -49.63,-23.66 -66.24,-45.68 -5.67,-7.38 -7.45,-15.82 -5.34,-25.31 7.78,-7.51 17.14,-11.8 28.08,-12.85 23.6,-2.24 46.73,-1.45 69.4,2.37 46,7.78 91.75,17.14 137.22,28.08 44.95,10.94 90.03,21.09 135.25,30.45 45.48,9.36 91.02,18.59 136.63,27.68 90.03,17.9 182.71,30.8 274.05,40.73 46.13,5.01 92.47,8.9 139,11.67 155.59,9.24 357.99,-2.79 507.17,-55.36 30.98,-10.94 54.77,-29.99 71.38,-57.14 6.33,-10.28 8.04,-21.36 5.14,-33.22 -8.83,-35.99 -30.45,-66.57 -64.86,-91.75 -34.54,-25.31 -74.61,-43.83 -120.22,-55.56 -45.74,-11.73 -98.67,-18.26 -158.78,-19.58 -60.24,-1.32 -102.95,-0.13 -128.13,3.56 -25.18,3.56 -43.37,6.79 -54.57,9.69 -15.33,3.86 -26.12,7.42 -40.14,14.44l-0.2 0.79c6.85,0.79 13.71,0.92 20.56,0.4 42.58,-3.3 84.83,-1.58 126.74,5.14zm45.08 -2.57c-20.04,-6.33 -40.34,-10.81 -60.9,-13.45 70.52,-6.99 135.31,-4.88 194.37,6.33 59.05,11.2 107.56,27.94 145.53,50.22 35.52,20.96 74.02,50.49 82.65,93.33 2.5,11.47 -0.07,21.62 -7.71,30.45 -23.86,27.42 -54.05,46.2 -90.56,56.35 -165.86,46.12 -347.39,55.1 -517.85,41.72 -125.04,-9.84 -254.49,-26.82 -377.46,-52.4 -61.16,-12.79 -122.39,-25.18 -183.69,-37.17 -35.85,-7.12 -71.45,-15.62 -106.77,-25.51 -59.19,-16.48 -119.56,-23.92 -181.12,-22.34 -16.21,0.4 -29.26,6.86 -39.15,19.38 -4.75,18.06 -0.92,33.94 11.47,47.65 15.55,17.14 34.6,29.66 57.14,37.57 75.34,26.67 147.91,46.64 227.19,58.92 66.7,10.41 133.53,20.23 200.5,29.46 49.96,6.85 99.39,16.61 148.3,29.26 82.39,21.38 164.23,35.56 245.97,61.1 97.23,30.54 197.95,71.1 281.37,129.51 28.34,19.77 51.41,44.36 69.21,73.75 36.79,60.5 58.16,118.04 77.71,185.27 14.05,48.04 5.39,79.78 11.2,129.81 -82.35,18.33 -1290.91,3.46 -1333.81,-5.83 -3.69,-13.97 -4.94,-28.34 -3.76,-43.1 3.35,-40.85 21.32,-84.89 51.61,-113.69 37.83,-35.72 81.92,-61.43 132.28,-77.11 51.54,-16.08 103.54,-30.91 156.01,-44.49l82.65 -22.15c40.73,-11.2 81.2,-23.13 121.41,-35.79 54.44,-17 106.25,-39.55 155.41,-67.62 25.71,-14.63 41.39,-35.92 47.06,-63.87 7.52,-36.77 -54.89,-58.38 -82.06,-62.48 -74.74,-11.34 -150.14,-14.57 -226.2,-9.69 -86.6,5.41 -172.88,4.22 -258.83,-3.56 -104.53,-9.36 -209.13,-17.27 -313.79,-23.73 -86.36,-5.33 -176.13,-20.51 -254.28,-58.92 -121.18,-59.37 -58.51,-215.91 61.1,-242.61 80.41,-17.93 161.61,-19.64 243.6,-5.14 101.71,18.1 204.2,31.53 305.49,52 173.26,34.89 354.8,75.81 529.91,94.91 89.24,9.76 176.83,3.69 262.78,-18.19 66.31,-16.87 125.49,-46.86 177.56,-89.97 14.37,-11.86 20.1,-26.63 17.2,-44.29 -13.45,-21.35 -33.02,-35.99 -58.72,-43.9z"/>
	<path fill="#333333" d="M1787.1 1050.05c-140.61,-38.42 -317.71,-18.55 -461.59,37.11 -2.93,7.26 0.9,21.3 4.54,28.53 43.06,-15.2 387.58,-40.4 454.46,-41.56 18.16,-6.98 14.67,-19.22 2.59,-24.08zm-1180.12 -260.59c-67.7,-62.12 -163.26,-49.29 -208.79,-8.37 -31.12,52.65 42.36,52.87 28.59,77.79 0,17.21 64.2,31.92 98.4,24.83 89.86,39.87 211.82,59.29 313.44,44.98 49.49,28.68 80.96,36.53 52.34,-25.94 -45.27,-21.04 -111.24,-39.89 -156.59,-62.11 -47.79,-23.19 -85.02,-19.45 -127.39,-51.17zm250.27 309.55c-119.69,54.57 -227.09,115.69 -367.44,88.87 -30.13,40.42 -81.23,110.05 -105.22,153.52 40.04,35.4 71.75,49.58 104.2,92.46 136.66,-123.95 263.69,-223.45 380.74,-272.5 -0.94,-36.17 -6.85,-35.69 -12.29,-62.35zm80.82 -346.11c28.8,5.43 37.88,15.72 44.47,28.26 -36.18,16.69 -55.87,17.74 -92.14,57.56 17.22,-1.08 43.58,-5.34 62.98,3.49 -2.18,11.83 -37.46,24.71 -58.01,46.12 33.65,4.39 41.42,0.94 50.44,22.29 -22.31,32.68 24.94,52.66 39.73,107.23 4.3,16.1 -3.02,52.64 -7.13,68.82 72.01,29.69 173.5,63.82 248.63,103.93 4.69,2.52 48.32,23.69 69.9,30.29 48.07,45.18 106.41,68.59 197.13,70.11 52.33,-16.43 93.19,-84.99 -47.77,-132.98 -89.56,-17.74 -161.75,-64.57 -245.68,-96.62 -57.56,-38.79 -83.88,-59.32 -109.03,-82.81 82.54,3.97 110.49,8.91 177.64,69.37 -18.74,-40.18 4.46,-73.01 35.25,-28.39 14.15,-55.86 17.51,-68.28 78.16,-67.75 -27.91,-45.54 -6.56,-86.72 -3.08,-141.73 -7.92,-11.58 -16.43,-27.92 -19.77,-34.6 -52.06,-53.54 -91.38,-84.46 -210.32,-90.05 -27.56,1.99 -168.43,50.14 -211.39,67.49zm-736.96 288.66c20.62,25.69 6.03,99.65 1.74,132.25 72.01,-8.04 176.12,-15.37 262.89,-26.62 0.02,0.66 248.91,-110.12 264.06,-199.29 -23.84,-19.5 -38.34,-20.63 -69.38,-13.85 -33.36,8.19 -116.39,21.78 -148.59,58.09 -90.29,15.69 -205.03,24.1 -310.72,49.43z"/>
	<path fill="white" d="M1479.67 660.99c-26.62,-0.84 -41.76,4.63 -56.81,19.52 -0.79,1.58 -3.96,8.85 -3.96,10.28 0,5.59 -2.33,10.34 -2.86,16.11 31.96,-4.68 56.12,-35.05 63.63,-45.91zm-142.43 -63.92c-79.62,-18.19 -131.25,-32.76 -174.51,-104.32 -22.09,21.4 -38.86,47.64 -35.62,84.83 6.79,96.94 231.39,177.43 289.03,128.44 -7.42,-48.84 -11.48,-84.22 -78.9,-108.95zm264.52 163.87c-141.85,95.66 -248.11,166.6 -259.97,320.11 177.38,-57.25 302.79,-64.11 463.67,-26.83 42.08,8.45 129.3,-26.27 138.08,-55.77 -71.31,-118.35 -157.92,-197.21 -341.78,-237.51zm-465.84 -112.7c-19.62,3.52 -45.08,28.53 -54.8,46.73 48.35,-7.79 72.35,-41.96 54.8,-46.73zm-720.59 739.75c-13.74,-97.44 -138.17,-57.84 -144.82,12.53 -4.55,48.18 153.23,47.1 144.82,-12.53zm1093.44 -634.49c-35.79,-7 -95.99,24.85 -99.72,74.69 26.17,-2.2 106.17,-44.46 99.72,-74.69zm-522.75 27.85c-12.02,-14.51 -25.94,-23.46 -54.97,-31.76 -61.18,19.22 -143.18,56.69 -198.83,88.91 30.41,8.3 84.32,33.66 114.31,46.05 2.79,-0.61 93.77,-39.23 101.6,-42.8 -125.99,9.3 3.62,-54.89 37.88,-60.4zm-450.7 217.57c-37.47,24.06 -72.91,83.14 -72.79,127.91 1.94,30.91 15.05,55.37 33.04,64.94 83.98,41.98 244.65,-18.71 320.85,-67.75 10.47,-5.32 30.88,-14.66 35,-16.41 8.46,9.86 13.81,19.55 13.35,32.98 35.41,-7.3 51.86,-60.24 60.6,-18.48 18.67,-17.46 25.02,-30.48 34.08,-46.33 20.84,18.9 24.02,12.97 25.86,-5.57 9.51,-34.64 -7.07,-64.3 -13.89,-94.61 34.78,-10.85 19.26,-16.7 -19.62,-23.1 -2.54,-21.48 -11.87,-24.42 -33.22,-34.74 0.52,11.82 -0.77,19.62 -7.45,29.84 -29.66,-23.88 -95.76,-58.3 -80.96,-21.32 -51.89,-7.29 -131.36,-11.42 -100.89,24.29 -3.41,0 -12.38,-0.14 -15.87,-0.14 -60,-3.04 -135.97,21.91 -178.08,48.51zm-508.38 27.49c-6.37,39.34 119.03,11.81 117.73,-27.53 -1.95,-58.79 -105.16,-50.18 -117.73,27.53z"/>
	<path fill="#c0cde6" d="M1138.73 592.13c-2.08,-5.43 -4.18,-10.83 -6.33,-16.21 -18.83,43.3 22.8,138.41 74.37,154.08 22.17,13.94 32.95,20.85 -7.01,25.91 39.72,18.33 78.3,18.88 128.64,2.02 -20.34,13.57 -35.2,25.63 -39.84,26.66 17.15,5.23 45.82,-0.8 72.45,-6.69 6.01,6.41 14,22.26 16.17,24.43 5.24,-19 29.19,-52.74 55.5,-50.27 2.11,-2.24 9.83,-9.89 12.07,-11.87 -6.77,-29.33 22.64,-55.9 32.97,-78.54 -2.72,0.06 -7.47,0.02 -11.36,3.85 -0.59,6.34 -25.71,27.61 -32.23,31.24 -5.05,2.71 -10.38,5.14 -15.74,7.04 -6.33,2.85 -32.86,7.86 -48.72,8.58 -20.19,0.91 -41.74,-2.97 -58.13,-15.42 -6.85,-5.27 -12.65,-4.48 -17.4,2.37 -8.17,-6.63 -42.96,-33.85 -46.27,-40.34 -4.88,-9.49 -11.4,-17.66 -19.57,-24.52 -5.4,-4.61 -10.61,-4.48 -15.62,0.4 -5.49,4.7 1.12,25.34 3.95,30.85 -10.81,-4.09 -20.83,-9.82 -30.06,-17.2 -9.89,-7.78 -19.24,-16.15 -28.08,-25.11 -8.7,-9.1 -15.29,-19.51 -19.77,-31.24zm-105.83 516.05c-25.31,18.83 -59.1,41.88 -83.67,59.1 46.37,-0.57 122.18,-9.38 167.38,-20.68 -22.12,-8.64 -62.52,-27.82 -83.71,-38.42zm902.27 -109.72c-38.99,24.08 -83.48,45.6 -129.71,50.62 34.88,17.02 93.2,4.09 127.73,-16.41 4.48,-2.64 8.5,-5.8 12.06,-9.49 5.48,-14.64 1.87,-22.49 -10.08,-24.72zm-724.07 51.32c-34.56,15.12 62.72,38.59 76.15,44.29 19.55,-5.89 54.55,-11.28 61.46,-23.64 2.92,-8.43 7.71,-20.49 7.71,-29.46 4.47,1.86 6.28,2.43 10.28,5.34 7.05,4.96 14.1,9.44 21.16,13.45 4.38,7.78 4.89,4.87 4.35,-0.99 1.4,-0.78 2.58,-1.9 3.56,-3.36 4.22,-6.33 6.79,-13.31 7.71,-20.96 1.05,-8.7 0.92,-17.27 -0.4,-25.71 3.3,0.13 6.85,0.79 10.68,1.98 20.56,6.85 39.61,4.81 57.14,-6.13 2.64,-2.9 5.54,-8.93 6.72,-12.65 1.05,-3.3 0.59,-6.46 -1.38,-9.49 -3.47,-4.28 -14.04,-6.71 -15.62,-7.51 -0.67,-0.52 -1.39,-1.04 -2.17,-1.58 41.05,-4.73 81.96,-24.16 112.9,-51.01 9.36,-8.17 17.07,-17.6 23.13,-28.28 14.91,-25.99 20.31,-53.74 16.21,-83.25 -28.31,61.93 -166.26,132.03 -237.41,121.08 25.15,37.81 -25.19,38.91 -48.18,27.41 -2.1,64.87 -19.9,73.67 -44.86,38.18 1.04,94.49 -28.33,33.54 -61.2,14.93 -29.22,-20.33 -61.07,-22.95 -96.13,-27.77 6.68,28.74 25.31,30.91 45.14,31.49 2.45,19.39 26.42,12.98 43.04,33.65zm-67.04 -370.46l-7.12 -15.03c-4.63,1.32 -14.17,6.34 -26.1,14.04 -6.76,4.4 -13.88,8.09 -21.35,11.07 -5.39,0.79 -7.52,4.38 -7.8,9.55 10.46,-4.55 62.22,-19.46 62.37,-19.63zm-208.33 224.64c-1.64,-8.68 -20.04,-11.02 -30.26,-4.29 7.2,10.11 22.34,13.77 30.26,4.29zm-284.31 27.59c-23.6,-15.61 -36.04,-15.41 -55.38,15.14 14.46,0.74 43.75,-7.66 55.38,-15.14zm-232.83 449.7c-5.39,-10.23 -12.34,-18.32 -20.96,-25.71 7.52,12.69 14.77,22.66 13.64,38.36l11.27 -4.35 -3.95 -8.3zm109.34 -267.13l-50.62 8.7c-2.86,0.46 -5.76,0.85 -8.7,1.19 -2.06,85.6 36.44,73.27 69.9,-5.51l-10.58 -4.38zm341.48 -14.24c-2.29,-2.49 -4.99,-4.13 -8.11,-4.94 10.39,26.42 -6.02,61.23 18.19,34.8 0.38,-2.5 0.45,-5.07 0.2,-7.71 -0.83,-8.44 -4.3,-16.16 -10.28,-22.14zm67.62 4.15c-0.27,-1.29 -0.73,-2.54 -1.38,-3.76 -3.82,-7.25 -9.82,-11.07 -17.99,-11.47 -1.48,0.24 -2.67,0.7 -3.56,1.38 15.75,30.03 6.57,47.23 22.94,13.84zm20.17 -38.95c8.08,15.42 24.45,29.81 22.54,2.57 -6.07,-5.19 -15.54,-7.23 -22.54,-2.57zm545.73 -308.85c4.59,21.55 -67.87,63.68 -88.58,66.64 -6.61,3.32 -8.25,9.93 -7.7,20.05 51.39,6.99 159.28,-80.91 96.28,-86.69zm-543.55 201.68c-9.67,5.77 -9.35,12.8 -10.09,14.04 12.59,2.04 23.04,0.9 35.13,-7.78 -7.45,-6.37 -18.12,-9.78 -25.04,-6.26zm-109.74 -36.98c-33,-35.57 -12.71,26.64 -4.15,29.86 4.15,0.5 7.86,-4.53 8.5,-8.31 1.32,-7.65 -0.13,-14.83 -4.35,-21.55zm79.49 6.52c-0.39,-3.77 -4.62,-7.48 -9.61,-6.64 0.84,10.3 -0.26,16.57 -1.86,26.22 7.75,-3.32 12.67,-11.09 11.47,-19.58zm18.19 -74.74l3.95 -4.55c-0.74,-8.95 -14.84,-9.16 -18.59,-2.57 -18.83,8.59 -38.07,16.37 -57.74,23.33 -8.87,3.17 -17.94,5.63 -27,7.61 7.19,12.09 19.24,18.34 35.37,19.7 17.78,-17.14 31.32,-32.02 64,-43.51zm-204.06 106.97c2.92,-0.39 5.72,-3.97 5.54,-7.91 -0.13,-3.43 -1.19,-6.52 -3.17,-9.29 -2.38,-3.09 -5.15,-5.53 -8.3,-7.32 -31.66,-6.74 -10.18,10.6 5.93,24.52zm34.89 -18.19c-0.13,0.13 -0.23,0.26 -0.49,0.4 5.47,2.15 7.24,-4.55 6.72,-7.12 -0.54,-2.64 -1.53,-4.88 -2.97,-6.72 -17.67,-10.6 -15.09,9.22 -3.27,13.45zm65.95 47.26c2.59,-0.44 5.66,-4.22 5.54,-8.3 -0.11,-3.89 -1.72,-7.85 -3.96,-10.88 -24.74,-13.27 -20.22,9.63 -1.58,19.18zm-95.3 18.59c-32.99,-0.47 -10.5,7.29 6.72,20.37 3.85,-2.09 4.55,-7.4 3.17,-10.48 -2.23,-4.71 -5.52,-8.01 -9.89,-9.89zm51.21 0.4c1.44,-0.27 3.16,-1.1 3.95,-2.37 7.31,-11.73 -5.66,-21.61 -7.12,-21.95 -35.51,-3.19 -14.24,16.82 3.17,24.32zm-660.61 -16.21c-12.62,-0.67 -19.11,11.66 -21.75,23.53 8.27,8.68 19.32,19.04 38.56,14.24 -4.58,-15.78 -9.09,-29.22 -16.81,-37.77z"/>
	<path fill="#262626" d="M1030.64 727.95c18.13,-11.43 33.13,-19.89 46.62,-25.52 8.64,-11.85 20.13,-41.27 58.67,-54.19l-6.47 -20.56c-35.14,7.16 -92.8,52.82 -98.82,100.27zm-123.26 215.87c7.22,-0.85 7.53,-18.32 4.27,-26.24 -15.18,-10.68 -29.1,-16.77 -41.05,-15.81 1.58,5.67 4.28,10.94 8.11,15.82 5.93,7.3 21.39,20.8 28.67,26.23zm-290.07 -134.78c-22.23,10.19 -43.09,25.73 -55.56,47.26 -5.46,9.42 -8.33,21.16 -5.93,31.83 14.8,13.21 29.02,16.31 42.51,6.52 -0.28,-31.17 25.25,-60.91 54.57,-69.6 3.3,-0.92 6.66,-1.72 10.08,-2.37 -10.89,-13.41 -25.23,-19.77 -45.68,-13.64zm-449.89 354.04c11,13.85 51.27,-1.35 63.53,-10.39l0.4 -3.16c4.07,-30.13 3.59,-84.53 -15.22,-107.96 -52.35,-12.98 -61.82,83.09 -48.7,121.52zm256.51 199.4c8.54,43.41 12.13,87.79 0.72,121.33 27.36,-24.22 54.97,-40.08 64.13,-73.67 -17.88,-23.62 -34.63,-39.69 -64.86,-47.65zm-71.58 18.39c-37.32,-14.35 -45.43,7.55 -71.97,12.85 -24.11,10.97 -28.85,69.72 -24.3,108.08 55.43,74.07 163.03,8.46 155,-107.89 -0.46,0.39 -2.52,0.92 -6.13,1.78 -21.66,5.14 -34.35,-8.45 -52.6,-14.83zm956.81 -267.72c-25.68,9.65 -51.63,30.48 -61.1,56.95 -1.65,4.6 -2.66,8.63 -3.36,13.45 6.83,22.65 25.38,27.9 35.59,23.92 -0.27,-6.06 0.92,-12 3.56,-17.79 13.31,-29.47 35.03,-50.2 66.83,-57.74 -9.9,-11.61 -23.52,-18.17 -41.52,-18.79zm120.39 -362.47c-29.92,10.49 -41.03,25.99 -52.57,64.89 -18.18,41.23 -13.55,71.47 -9.29,88.38 72.68,10.21 255.21,-68.47 209.39,-170.84 -48.3,-54.39 -119.35,-1.51 -147.54,17.56zm92.36 21.51c-12.1,33.07 -61.58,65.13 -106.73,74.28 -24.29,-6.98 -0.43,-47.77 9.2,-58.21 22.08,-23.93 83.7,-56.61 97.53,-16.07zm-433.8 209.87c-8.67,10.43 -13.28,28.02 -12.65,41.33 0.79,14.1 7.05,25.44 18.79,34.01 14.89,10.94 31.77,16.87 50.62,17.79 10.02,0.53 20.1,0.46 30.25,-0.2 9.23,-0.79 17.73,-3.49 25.51,-8.11 23.63,-34.18 -35.5,-30.68 -32.55,-52.94 -47.19,-1.54 -43.85,-24.54 -79.96,-31.89zm77.71 -237.67c4.73,12.87 4.04,29.58 13.64,25.9l16.8 -8.11c12.8,-6.83 25.37,-10.9 30.87,-19.28 -11.11,-9.35 -24.35,-14.28 -36.8,-12.16 -8.52,4.4 -16.67,7.96 -24.52,13.64zm-212.89 202.85c5.12,1.57 7.61,1.44 12.2,-0.97 7.51,-2.37 14.5,-5.8 20.96,-10.28 -34.2,-43.01 -63.07,-18.86 -33.16,11.25zm183.83 -225.39c0.35,0.35 12.02,4 20.56,14.43 8.8,11.31 -4.37,-27.03 -20.56,-14.43zm-1101.54 300.35c-26.09,2.8 -43.62,101.06 13.92,140.41 96.97,9.22 105.66,-115.47 68.53,-147.53 -15.84,-15.12 -28.04,-20.56 -50.82,-13.05 -19.05,6.27 -18.4,15.61 -31.64,20.17z"/>
	<path fill="#191919" d="M1780.36 1056.79c-7.28,1.78 -14.66,3.3 -22.15,4.55 -16.65,2.64 -31.56,4.65 -48.44,6.33 -65.12,6.46 -130.69,9.57 -196.15,10.68 -45.74,0.79 -90.95,5.21 -135.64,13.25 -9.95,1.77 -36.81,9.01 -43.89,15.42 4.33,-6.59 8.14,-13.5 11.07,-20.76 -17.89,0.23 -37.87,6.72 -54.22,11.32 35.74,15.96 70.72,27.38 104.33,46.92 68.92,-29.53 149.65,-36.81 224.08,-37.8 62.97,-0.7 298.56,-24.39 336.87,-67.5 -0.79,-3.57 -3.05,-14.53 -10.95,-16.02 -3.56,3.69 -7.58,6.85 -12.06,9.49 -52.46,29.96 -123.68,25.68 -152.84,24.12zm-1182.02 -162.53c-0.02,3.63 0.24,7.24 1.39,10.68 29.39,26.37 107.7,27.94 132.08,12.85 -18.01,-4.06 -37.6,-7.64 -55.76,-11.27 -25.96,-5.19 -52.88,-7.29 -77.71,-12.26zm-63.27 -17.4c0.1,-1.06 -0.23,-4.94 -2.57,-5.34 -21.94,-3.73 -32.93,-1.46 -53.19,-4.15 -15.34,-1.96 -29.36,-9.8 -39.94,-20.96 -49.61,17.97 55.34,55.47 95.7,30.45zm-136.87 -95.77c-16.59,24.39 19.82,84.9 39.59,50.09 -20.88,-5.38 -34.82,-27.5 -39.59,-50.09zm61.73 345.3c0.02,-0.62 0.02,-1.28 0,-1.98 -38.56,5 -77.25,10.21 -115.87,14.63 -37.75,4.32 -75.38,9.23 -113.1,13.45 -14.12,13.74 -27.61,35.36 -13.77,49.47 77.73,7.1 188.76,-4.57 270.2,-10.83 -14.65,-14.65 -21.65,-43.45 -27.46,-64.74zm784.89 66.01c1.31,-0.94 1.45,-5.26 0.09,-9.46 -0.07,0.2 -11.67,-6.94 -13.84,-8.11 -35.98,-19.21 -68.53,-38.54 -101.83,-62.09 -31.26,-22.11 -68.02,-43.85 -102.82,-59.71 -13.1,3.47 -20.56,7.04 -32.63,13.84 -11.09,19.25 -19.25,22.99 -35.24,10.48 -14.42,36.88 -33.94,62.49 -43.37,25.67 -6.27,6.69 -27.62,42.08 -59.21,43.93 -14.56,6.1 -29.12,12.1 -43.7,17.99 -17.19,7.02 -70.97,16.17 -77.91,22.34 -50.59,43.97 -106.29,80.37 -154.82,126.94 -33.31,31.96 -60.22,61.6 -90.76,95.31 -0.9,26.58 4.32,41.52 19.97,46.27 41.81,-31.45 129.05,-136.74 199.8,-195.35 244.1,102.76 524.85,-20.26 564.43,-48.64 -32.15,-14.7 -101.1,-42.58 -157.59,-66.22 -201.03,43.63 -206.74,40.8 -86.13,-40.84 91.02,37.44 133.12,55.17 215.54,87.65zm285.81 37.6c-10.29,10.17 -18.56,14.03 -28.67,19.38 -0.38,11.86 3.44,23.21 3.44,33.84 17.11,-8.32 51.74,-32.29 25.23,-53.22zm-28.44 55.22c0,-9.26 -1.07,-25.75 -9.13,-30.9 -15.48,7.25 -28.79,10.54 -39.94,9.89 -16.07,-0.95 -24.69,-2.2 -35.99,-6.72 -0.35,9.1 2.88,14.32 3.47,21.44 20.09,6.05 60.55,10.68 81.58,6.3zm-179.17 -55.82c-6.98,-5.05 -14.23,-9.27 -21.75,-12.65 50.14,108.54 143.41,81.16 107.7,46.6 -6.35,1.05 -30.1,-4.82 -33.15,-5.87 -18.98,-6.72 -36.58,-16.08 -52.79,-28.08zm-53.78 -178.14c8.75,-21.81 12.62,-40.63 10.09,-53.78 12.87,3.26 21.18,13.18 23.14,26.06 14.69,-16.61 22.89,-35.12 23.96,-60.66 30.9,10.23 74.18,-1.49 42.66,-21.57 -34.32,6.59 -30.5,-5.03 -55.17,-11.47 -2.5,-0.55 -10.76,2.68 -9.69,11.07 0.94,7.52 7.56,13.41 8.9,25.51 0.68,6.12 -0.41,12.21 -2.17,17.99 -13.29,-6.8 -59.33,-17.17 -69.4,-0.99 -7.61,12.23 8.3,12.55 13.05,22.74 -12.38,-8.23 -18.96,-13.26 -33.81,-19.38 -17.27,-7.12 -35.19,-11.6 -53.78,-13.45 -18.45,-1.95 -46.19,-5.21 -64.06,-1.19 48.33,16.39 117.99,22.15 166.29,79.11zm-307.07 -158.39c-13.79,-8.92 -32.87,-13.78 -48.84,-15.22 -42.6,20.68 8.82,8.71 67.23,36.78 0.09,-0.7 -0.04,-1.36 -0.4,-1.98 -4.09,-8.04 -10.09,-14.57 -17.99,-19.58zm-39.55 -69.4l-9.49 0.59c-7.75,-2.99 -17.65,6.45 -20.18,14.48 35.1,-1.17 53.35,2.3 70.11,12.69 2.43,-0.84 3.58,-3.25 3.05,-5.23 -4.3,-15.92 -29.18,-22.69 -43.5,-22.54zm23.02 -70.67c13.52,5.26 40.75,24.57 49.35,33.5 0.91,-1.62 1.04,-3.4 0.4,-5.34 -2.73,-9.57 -14.93,-28.6 -21.95,-35.19 -9.54,-2.7 -21.31,0.2 -27.79,7.04z"/>
	<path fill="#131313" d="M598.34 894.25l-42.51 -6.13c3.06,9.4 34.16,16.75 43.9,16.81 -0.93,-3.54 -1.39,-7.1 -1.39,-10.68zm-187.25 499.66c-2.94,72.72 -67.2,189.71 -148.1,106.38 -2.18,50.03 34.08,100.53 87.79,91.69 59.69,-22.2 130.65,-87.36 157.98,-136.18 -1.95,-16.72 -8.52,-30.65 -19.97,-46.27 -0.08,6.75 -50.96,56.3 -56.15,60.9 5.39,-15.84 7.78,-32.36 6.13,-49.04 -3.73,-18.92 -4.02,-22.1 -16.02,-31.83l-11.67 4.35zm833.42 -202.67c6.62,14.16 15.85,16.69 26.69,12.06 0,-2.94 -22.97,-18.25 -26.3,-20.37 -0.1,0.74 -0.64,8.3 -0.39,8.3zm328.03 -458.14c14.7,39.68 -33.78,97.52 -65.05,117.06 -32.34,20.2 -66.27,33.68 -102.42,45.28 -12.21,3.92 -24.66,6.75 -37.37,8.5 -6.9,10.37 -0.93,19.72 3.25,28.87 103.24,10.68 315.97,-103.25 201.6,-199.71zm-484.63 249.14c2.63,4.81 7.74,7.87 12.46,10.48 7.8,4.3 15.64,8.45 23.53,12.46 4.73,-18.63 -13.95,-35.89 -35.99,-22.94zm-970.25 32.82c-1.27,4.99 -1.41,10.26 -0.4,15.82 3.44,18.48 6.86,35.18 6.33,54.18 -0.61,21.89 -10.94,42.01 -28.28,55.76 -9.43,7.49 -22.35,10.46 -38.75,8.9 -23.37,-19.12 -38.85,-44.58 -39.74,-74.94 -19.32,20.16 -6.54,96.41 24.25,115.59 38.65,23.5 116.76,22.57 177.43,8.58 7.22,-12.97 10.26,-29.28 12.46,-46.27 -9.99,2.65 -42.17,4.23 -58.33,4.94 17.18,-40.21 23.51,-69.19 26.5,-112.71 -32.09,-1.47 -28.39,-3.11 -42.91,-15.62 -19.24,4.81 -30.29,-5.56 -38.56,-14.24z"/>
	<path fill="#e6b891" d="M333.78 1419.54c-43.3,9.44 -33.9,68.67 -26.1,89.42 37.23,42.68 65.94,-65.66 26.1,-89.42zm-289.15 -289.75c42.11,-4.7 43.77,-77.29 21.84,-95.91 -36.45,-11.49 -40.52,90.38 -21.84,95.91z"/>
	<path fill="#d19160" d="M343.66 1440.18c3.35,8.57 2.47,20.43 1.98,31.44 -0.33,7.59 -3.23,17.68 -8.7,30.25 -5.49,12.55 -13.99,12.22 -25.51,-0.99 -4.36,23.53 18.16,33.76 31.12,21.48 12.83,-25.44 24.53,-84.18 -2.2,-91.43 1.43,3.78 2.37,6.69 3.31,9.24zm-275.44 -391.11c5.12,15.6 3.79,64.12 -9.88,71.77 -4.21,2.36 -7.97,3.09 -11.27,2.18 -3.16,-0.93 -6.12,-6.14 -8.9,-15.62 -8.56,31.37 23.39,47.31 38.97,17.05 7.39,-13.97 6.41,-80.82 -12.68,-84.67 0.77,1.08 2.02,4.18 3.76,9.29z"/>
	<path fill="#ec6ac5" d="M1130.42 885.16c20.43,22.45 51.99,41.4 59.52,12.46 -0.58,-2.19 -1.7,-4.07 -3.36,-5.73 -10.16,-9.44 -42.91,-19.25 -56.15,-6.72z"/>
	<path fill="#9f3441" d="M1041.73 884.62c14.26,14.85 43.04,-5.59 81.5,-0.08 27.95,-10.55 39.93,-6.12 63.35,7.34 1.66,1.66 2.78,3.54 3.36,5.73 7.69,-0.12 17.72,-33.48 12.87,-40.85 -17,-23.24 -36.75,-13.47 -55.52,-16.87 -14.73,-2.66 -29.11,-10.29 -41.85,-18.14 -15.62,-9.61 -74.21,33.89 -63.71,62.86z"/>
	<path fill="black" d="M18.2 1021.99c-8.88,18.5 -14.84,41.97 -16.61,62.29 -2.61,30.02 -3.45,54.33 9.1,82.85 8.85,20.12 29.55,30.4 48.64,38.56 19.66,8.18 59.42,8.01 81.66,7.71l103.41 -2.77c64.2,-1.14 125.43,-3.76 189.23,-7.91 13.31,-0.79 26.63,-1.78 39.94,-2.96 -14.02,19.63 -27.24,38.93 -40.34,59.12 -2.64,4.09 -6.92,10.35 -12.85,18.78l-35.39 54.97c-19.99,-6.95 -34.95,-7.7 -55.17,-2.97 -1.85,0.4 -3.69,0.92 -5.54,1.58 -36.5,13.51 -57.24,45.03 -67.82,81.07 -5.49,18.71 -8.39,44.89 -8.7,64.26 -0.26,18.72 2.37,37.04 7.91,54.97 5.4,17.93 14.63,33.48 27.68,46.66 6.59,6.72 14.44,11.6 23.53,14.63 24.65,8.17 48.51,6.52 71.58,-4.94 27.91,-13.71 112.75,-88.97 131.49,-112.9 21.63,-27.65 71.19,-75.12 98.87,-104.2 13.05,-13.71 26.03,-27.48 38.95,-41.33 28.57,-30.46 59.34,-61.12 88.98,-90.76 4.75,1.19 9.75,1.32 15.03,0.4 45.39,-7.99 87.01,-22.92 130.11,-38.56 14.24,-5.14 28.21,-10.94 41.92,-17.4 3.16,-1.45 6.33,-2.97 9.49,-4.55 40.2,1.58 80.34,-1.45 120.42,-9.1 24.12,-4.75 47.98,-10.35 71.58,-16.81 5.01,1.98 10.02,4.02 15.03,6.13 14.63,5.8 29.06,12 43.3,18.59l76.72 34.4c-22.94,13.05 -46.86,23.86 -71.77,32.43 -25.97,8.7 -52.4,16.15 -79.29,22.34 -30.19,6.9 -56.77,13.3 -87.79,18.78 -62.75,11.07 -125.62,11.67 -188.63,1.78 -41.13,-6.4 -77.55,-14.93 -117.06,-26.69 0.13,0.13 0.26,0.26 0.4,0.39 4.88,6.72 11.34,11.8 19.38,15.23 46.8,19.81 93.21,28.39 143.55,30.84 66.83,3.43 132.74,-2.63 197.73,-18.19 34.4,-8.17 68.48,-17.47 102.23,-27.88 33.61,-10.41 65.71,-24.52 96.29,-42.31 5.67,2.37 11.34,4.68 17.01,6.92 1.31,1.1 17.77,32.86 58.13,61.1 10.28,7.25 21.55,12.46 33.81,15.62 13.45,3.43 24.78,0.33 34.01,-9.29 0.79,-0.79 1.45,-1.65 1.98,-2.57 30.51,7.73 63.78,13.77 93.53,0 22.96,-10.63 39.21,-33.07 36.78,-59.52 -1.19,-12.92 -6.39,-23.86 -15.62,-32.82 -29.7,-28.77 -77.88,-47.91 -119.03,-51.8 34.02,-12.01 77.68,-21.51 112.9,-26.89 24.39,-3.69 48.9,-5.74 73.55,-6.13 73.51,-1.2 160.97,-9.26 233.52,-24.72 32.11,-6.92 79.5,-19.1 108.95,-33.81 6.72,-3.43 12.13,-8.11 16.21,-14.04 0.13,-0.53 0.26,-1.05 0.4,-1.58 -4.09,-30.75 -19.42,-63.7 -37.17,-88.78 -43.92,-62.06 -102.87,-110.38 -171.63,-142.56 -50.16,-23.48 -98.21,-41.13 -150.87,-56.75 -5.27,-10.15 -12.19,-19.05 -20.76,-26.69 -13.84,-12.26 -29.79,-18.92 -47.85,-19.97 -20.96,0.53 -40.67,5.27 -59.12,14.24 -6.86,-1.45 -13.78,-2.77 -20.76,-3.95 3.69,-9.36 8.9,-17.93 15.62,-25.71 7.38,-8.44 14.43,-17 21.16,-25.7 1.45,-1.19 2.24,-2.77 2.37,-4.75 0.13,-1.72 -0.46,-3.03 -1.78,-3.95 -4.61,-3.3 -10.02,-4.22 -16.21,-2.77 -10.41,1.45 -20.63,4.28 -30.65,8.5 -9.84,4.04 -22.17,13.39 -21.35,24.91 0.09,1.31 1.15,7.62 2.37,7.91 1.33,0.31 2.77,0.12 3.56,-1.19 1.72,-5.4 4.81,-9.89 9.29,-13.45 0.13,0 0.2,-0.07 0.2,-0.2 11.25,-8.44 22.41,-12.91 36.58,-13.25 -14.31,19.22 -25.99,29.83 -33.22,54.77 -1.95,6.73 -2.16,13.97 -0.59,20.76 -2.24,1.98 -4.42,4.09 -6.52,6.33 -1.98,-1.32 -6.14,-2.06 -7.91,-1.98 -9.36,1.58 -17.79,5.4 -25.31,11.47 -12.07,9.88 -19.69,25.9 -23.73,40.53 -2.18,-2.17 -6.05,-12.17 -12.06,-18.59 10.27,-5.99 19.97,-11.91 19.97,-24.91 -1.45,0.66 -2.9,1.45 -4.35,2.37 -26.18,17.27 -52.22,29.83 -84.23,26.69 1.19,-0.26 2.24,-0.66 3.17,-1.18 6.98,-3.96 13.45,-8.64 19.38,-14.04 0.88,-0.5 11.59,-2.98 17.6,-8.3l1.19 -1.98c0.83,-0.83 0.18,-3.19 -0.79,-3.56 -3.03,-0.79 -6.2,-0.86 -9.49,-0.2l-44.29 9.69c-21.26,4.9 -46.53,4.73 -66.64,-4.55 7.51,-0.4 13.25,-0.92 17.2,-1.58 5.67,-1.05 11.2,-2.11 16.61,-3.17 7.51,-0.26 15.09,-0.79 22.74,-1.58 2.03,-0.15 31.95,-1.13 13.64,-4.55 -8.17,-1.58 -17.07,-3.1 -26.69,-4.55 -9.62,-1.58 -26.5,-7.19 -50.62,-16.81 -24.12,-9.76 -42.25,-28.87 -54.37,-57.34 -2.37,-4.62 -4.48,-9.36 -6.33,-14.24 -4.63,-13.47 -13.85,-46.2 -14.04,-47.26 -4.3,-23.95 -3.1,-43.49 4.75,-68.02 4.61,-14.24 12.26,-26.36 22.94,-36.38 11.75,24.58 30.33,45.99 54.18,59.32 35.72,19.96 80.24,34.67 120.61,43.9 11.73,2.64 22.67,7.18 32.82,13.64 13.97,8.83 24.12,20.89 30.45,36.18 0.79,2.24 1.52,4.42 2.17,6.52 2.37,6.33 4.15,12.85 5.34,19.57l4.75 29.07 2.37 1.19 2.37 -1.19c1.18,-9.24 1.62,-10.84 1.38,-20.37 -0.66,-13.18 -3.56,-26.03 -8.7,-38.56 -10.32,-25.13 -31.05,-44.47 -56.75,-52.79 -11.07,-3.56 -22.21,-6.79 -33.41,-9.69 -28.42,-7.43 -56.46,-17.3 -82.65,-30.45 -15.69,-7.91 -29.4,-18.19 -41.13,-30.84 -10.02,-10.81 -17.99,-23 -23.92,-36.58 -1.71,-4.46 -3.31,-9.26 -9.1,-9.49 -3.31,-0.13 -8.19,5.15 -9.89,7.51 -3.3,4.48 -6.66,8.9 -10.09,13.25 -17.94,22.6 -25.31,50.59 -25.31,79.29 0,15.5 2.07,26.47 5.73,41.13 -32.87,13.45 -63.14,36.73 -83.05,66.44 -4.41,6.58 -12.72,19.8 -15.03,27.48 -103.48,21.01 -206.25,58.28 -296.79,112.9 -5.4,-1.84 -10.55,-3.49 -15.42,-4.94 -8.57,-2.64 -17.47,-5.4 -26.69,-8.3 -11.37,-3.46 -39.27,-12.8 -48.05,-14.63 -5.14,-1.45 -9.89,-2.9 -14.24,-4.35 -1.19,-1.45 -4.81,-5.34 -10.87,-11.67 -14,-14.46 -34.22,-27.15 -52.4,-33.81 -16.4,-6.01 -37.52,-11.1 -54.97,-11.47 -15.25,-0.32 -24.67,-0.59 -40.14,1.58 -22.97,3.22 -52.06,11.15 -69.2,27.48 -10.99,10.47 -15.01,24.6 -11.27,39.15 2.24,8.73 8.53,19.11 15.03,25.31 5.4,5.14 11.8,8.57 19.18,10.28 0.79,0.13 1.52,0.33 2.17,0.59 0,0.63 -3.57,5.53 -0.59,14.24 5.17,15.13 23.65,23.68 38.16,27.09 6.99,1.58 14.04,2.7 21.16,3.36 12.66,1.18 25.24,1.12 37.77,-0.2 0.26,0 0.59,0 0.99,0l35 13.45 48.84 17.4c-12.52,10.41 -24.85,21.09 -36.98,32.03 -5.54,2.24 -11.01,4.62 -16.41,7.12 -13.31,6.06 -26.1,13.18 -38.36,21.35 -3.95,2.51 -7.58,5.4 -10.87,8.7l-79.09 10.09c-15.82,1.85 -28.67,3.56 -38.56,5.14 -10.02,1.58 -17.86,2.7 -23.53,3.36 -14.9,1.85 -29.13,3.89 -42.71,6.13 -13.71,2.24 -28.34,4.22 -43.89,5.93 -7.25,0.92 -12.66,1.71 -16.21,2.37 -12,2.11 -22.14,3.69 -30.45,4.75 -13.22,1.67 -16.79,2.56 -26.69,4.94 -8.7,2.11 -17.33,4.02 -25.9,5.73 -5.65,-24.71 -11.75,-42.47 -28.27,-63.27 -12.52,-15.82 -28.93,-23.2 -49.24,-22.14 -18.19,1.58 -33.74,9.23 -46.66,22.94 -12.77,13.56 -23.56,29.25 -31.24,46.07zm75.73 -40.14c-2.81,3.51 -5.17,8.05 -6.33,12.46 -1.24,4.73 -1.62,6.69 0,11.27 1.19,3.37 1.75,2.97 3.56,2.97 0.22,-0.44 1.89,-2.04 1.98,-2.77 0.74,-6.46 5.4,-12.53 8.7,-17.79 8.36,-9.64 11.83,-13.41 24.32,-10.09 2.23,2.03 6.64,6.58 13.25,13.64 7,7.55 12.62,22.43 16.81,37.77 4.35,17.27 6.52,35 6.52,53.19l-0.59 17.8 -0.79 7.12c-0.71,6.25 -0.44,12.24 0.79,17.99l2.57 8.7 0.79 0.4c0.92,0.61 1.78,-1.08 1.78,-1.19l1.98 -3.95 7.12 -21.95c1.74,-9.56 2.54,-16.9 2.17,-27.09 -0.4,-10.81 -1.45,-21.49 -3.17,-32.03 11.07,-1.46 22.1,-2.91 33.02,-5.34 6.81,-1.51 12.16,-2.04 21.55,-3.36 11.86,-1.66 27.46,-4.62 42.91,-6.52l58.92 -7.51c25.03,-2.96 48.16,-5.65 70.79,-9.29 13.58,-2.24 27.29,-4.15 41.13,-5.74 17.14,-1.85 34.21,-3.95 51.21,-6.33 2.24,-0.27 4.48,-0.4 6.72,-0.4 7.12,0 12.92,-2.31 17.4,-6.92l0 -2.17c-0.66,-1.06 -1.45,-1.91 -2.37,-2.57 38.43,-25.82 77.72,-37.85 122.79,-46.27l21.55 -4.75c15.77,-3.31 22.45,-3.59 39.35,-5.54 0.66,1.32 1.98,2.44 3.95,3.36 18.7,8.6 22.58,16.58 30.65,20.56 1.71,0.79 3.49,1.52 5.34,2.17l2.77 -1.19c0.12,-0.27 0.19,-0.53 0.2,-0.79 1.37,-3.41 0.71,-6.71 -1.98,-9.89 -4.9,-5.78 -11.41,-9.35 -15.22,-13.64 3.78,-0.34 7.54,-0.67 11.27,-0.99 8.21,-0.44 16.45,-0.7 24.72,-0.79 4.35,3.03 8.83,5.86 13.45,8.5l2.77 -1.38c1.47,-2.15 -0.44,-6.96 -1.78,-8.9 -1.32,-1.85 -2.83,-3.56 -4.55,-5.14 -0.26,-0.13 -0.46,-0.26 -0.59,-0.4 7.9,0.58 11.33,0.71 19.38,2.77 14.63,3.82 29.26,7.05 43.9,9.69 0.4,0.13 0.79,0.2 1.19,0.2 0.85,1.8 4.65,9.81 6.13,10.87 5.02,3.62 9.25,-7.2 4.55,-18.39 -3.76,-8.94 -6.67,-9.05 -8.9,-14.63 19.8,2.72 40.94,15.97 55.76,28.67 5.54,4.75 11.54,6.72 17.99,5.93 4.21,-0.56 2.88,-0.83 3.95,-2.37 0.09,-0.13 2.45,-2.41 3.56,-4.55 3.95,-7.61 4.81,-13.98 2.57,-22.54l7.71 4.55 0 0.2c2.75,1.79 7.63,5.42 9.29,7.91 3.48,5.21 3.32,15.2 2.77,21.16 -0.4,3.69 0.99,6.39 4.15,8.11 0.58,0.15 3.23,-0.12 3.95,-1.58 1.19,-1.98 2.11,-4.02 2.77,-6.13 11.11,1.5 18.04,1.97 29.06,6.72 -11.2,-0.26 -21.62,2.44 -31.24,8.11 -0.17,0.1 -0.37,0.17 -0.59,0.2 -4.27,2.8 -5.4,6.43 -3.36,10.87 3.43,7.17 15.02,-1.33 22.15,-3.36 1.19,5.27 2.9,10.55 5.14,15.82 9.2,22.01 13.04,49.72 6.52,72.96l-3.36 9.69c-4.75,-3.17 -9.29,-6.46 -13.64,-9.89l-5.53 -2.97c-4.04,-1.18 -7.8,-0.12 -11.27,3.16l-0.2 2.17c0.13,0.13 0.2,0.33 0.2,0.59 1.85,1.58 3.76,3.16 5.74,4.75 -2.61,4.58 -1.46,6.12 -3.56,9.89 -5.76,10.96 -11.63,20.29 -19.77,29.66 -2.4,-2.87 -1.43,-12.93 -14.24,-25.11 -3.56,-3.43 -6.99,-3.43 -10.28,0 -1.18,1.32 -1.45,2.64 -0.79,3.95 1.05,2.24 2.37,4.42 3.95,6.53 -4.98,3.87 -7.26,14.68 -27.48,29.06 -2.85,2.1 -5.89,4.01 -9.1,5.73 -0.26,0 -0.53,-0.06 -0.79,-0.2 0,-5.45 -3.77,-30.16 -6.52,-37.17 -1.33,-3.38 -5.78,-8.47 -8.9,-9.29 -1.26,-0.34 -1.64,-1.49 -3.76,-0.99 -7.54,1.78 -1.09,11.21 0.99,19.77 0.4,1.71 0.79,3.43 1.19,5.14 1.98,9.23 3.23,18.52 3.76,27.88 -1.31,2.23 -1.37,4.47 -0.2,6.72 2.11,4.09 5.34,5.34 9.69,3.76 4.14,-1.56 11.69,-5.08 15.23,-7.71l19.77 -16.41c4.22,-3.99 8.27,-11.15 12.65,-15.82 0,1.01 3.22,9.38 3.95,14.24 0.45,2.98 2.04,4.37 4.35,5.73 4.4,2.9 8.55,2.11 12.46,-2.37l13.25 -16.41c6.69,-8.93 11.23,-18.66 13.25,-29.26 2.08,1.52 5.97,4.06 7.32,6.33 1.62,2.75 7.04,10.21 11.27,7.91 4,-2.13 6.77,-5.17 8.3,-9.1 1.21,-2.82 0.97,-3.39 1.58,-6.13 1.79,-4.97 3.31,-10.05 4.55,-15.22 4.05,-16.41 4.17,-32.69 -0.2,-49.04 -3.82,-14.1 -9.75,-27.09 -17.79,-38.95 -0.13,-0.13 -0.33,-0.26 -0.59,-0.4 0,-0.13 -0.07,-0.26 -0.2,-0.4 10.99,-1.57 15.33,2.07 25.9,1.58 2.24,-0.13 3.62,-1.32 4.15,-3.56 1.32,-5.4 -0.27,-10.15 -4.75,-14.24 -10.02,-9.1 -21.75,-14.3 -35.2,-15.62 -5.26,-0.63 -6.34,-0.36 -11.47,0 -0.13,-0.92 -0.2,-1.78 -0.2,-2.57 -0.31,-4.8 -2.95,-12.04 -6.72,-15.82 -1.05,-1.05 -2.17,-2.11 -3.36,-3.16 1.42,-1.42 1.98,-3.55 1.58,-5.54 7.69,5.49 16.94,8.25 26.1,9.49 1.98,0.26 3.69,0.2 5.14,-0.2 8.6,6.54 15.71,12.28 25.31,17.6 7.51,4.22 14.96,4.61 22.34,1.18 0.83,-0.8 -0.03,-8.53 -9.29,-11.47 -25.9,-8.2 -33.05,-26.86 -68.61,-43.3 -5.93,-2.77 -12.19,-4.28 -18.78,-4.55 -9.36,-0.53 -18.06,-0.4 -26.1,0.39 11.06,-11.46 28.82,-22.41 41.92,-27.09 5.82,-2.08 7.07,-4.25 4.35,-8.5 -0.85,-1.32 -4.01,-2.22 -5.93,-1.98l-9.69 2.57c-13.16,4 -39.67,21.86 -47.06,33.42 -0.8,1.28 -1.53,2.6 -2.17,3.95l-32.63 -13.25c-0.6,-0.26 -1.26,-0.52 -1.98,-0.79l0.2 0c-2.86,-1.18 -5.69,-2.37 -8.5,-3.56 -14.37,-6.33 -28.67,-12.39 -42.91,-18.19 -14.37,-5.93 -28.8,-11.4 -43.3,-16.41 -1.58,-0.66 -3.1,-1.19 -4.55,-1.58 55.65,-32.22 116.98,-58.68 178.15,-77.91 0.94,1.88 1.77,3.39 4.55,3.36 19.55,-0.21 31.36,7.59 46.07,18.98 -2.08,-0.51 -4.7,-0.07 -7.32,-0.59 -10.94,1.05 -21.29,4.55 -31.04,10.48 -21.7,13.04 -41.61,25.4 -59.12,44.09 -4.08,4.35 -4.55,8.7 -1.38,13.05 1.05,1.45 2.5,2.04 4.35,1.78 11.47,-1.32 23,-2.37 34.6,-3.16 14.5,-1.22 15.77,-2.61 31.04,0.2 1.6,0.3 2.32,0.65 3.36,1.78 3.16,3.69 6.72,4.55 10.68,2.57 1.72,-3.03 1.72,-6.06 0,-9.1 -2.64,-5.14 -6.99,-7.91 -13.05,-8.3 -16.74,-1.32 -33.55,-1.05 -50.42,0.79 7.95,-6.54 16.64,-13.16 25.11,-18.98 11.21,-7.7 17.04,-13.2 31.04,-18.78 8.17,-3.16 16.21,-6.46 24.12,-9.89 1.55,-1.05 0.79,-3.63 0.79,-3.76l11.27 9.29c5.64,-3.69 2.62,-8.76 2.37,-10.09 -2.64,-6.85 -7.25,-12.39 -13.84,-16.61 -9.1,-5.93 -18.39,-10.74 -27.88,-14.44 8.47,-2.82 17.49,-4.99 26.1,-7.12 13.84,-3.43 27.75,-5.01 41.72,-4.75 2.11,-0.26 3.62,-1.19 4.55,-2.77 0.71,2.14 4.95,2.13 5.54,0.2 0,-1.53 24.85,-16.06 26.89,-17.2 17,-9.46 46.31,-21.85 65.84,-26.3 9.1,-1.98 18.19,-3.3 27.29,-3.95 2.5,3.95 5.14,7.84 7.91,11.67 15.42,21.28 38.67,35.62 63.27,43.3 -3.03,0 -6.06,0 -9.1,0 -7.38,0 -14.7,-0.26 -21.95,-0.79 -5.91,0.14 -8.11,7.3 -5.54,9.69 6.6,6.11 18.77,13.29 26.69,16.81 19.49,8.64 40.78,9.79 61.69,7.32 -2.7,2.23 -3.42,7.41 -0.4,9.69 14.42,9.62 46.5,6.38 61.89,2.57 8.83,-2.24 17.2,-5.27 25.11,-9.1 0.26,0.4 0.59,0.79 0.99,1.19 1.62,2.49 7.23,25.64 16.21,33.42 1.58,1.45 3.49,2.5 5.73,3.16 1.19,0.4 2.44,0.66 3.76,0.79 3.16,-1.58 4.28,-4.09 3.36,-7.51 -2.95,-11.63 0.56,-22.92 6.92,-32.82 3.74,-5.83 5.96,-8.61 11.86,-13.45 9.19,-7.53 10.31,-5.81 17,-8.9 0,3.83 3.1,5.22 4.94,3.76 0.01,-0 14.34,-12.75 15.62,-13.05l1.78 -1.19c0,-0.68 0.85,-1.2 1.38,-1.58 10.68,-8.3 22.28,-14.89 34.8,-19.77 12,-4.75 24.39,-7.65 37.17,-8.7 23.06,-1.92 40.7,5.78 56.16,21.55 13.58,13.85 20.96,34.18 22.34,53.19 0.66,8.04 -0.53,15.82 -3.56,23.33 -8.17,20.56 -21.42,37.24 -39.74,50.02 -45.12,31.54 -104.02,56.88 -159.76,59.71 -9.03,0.46 -14.43,-2.23 -23.53,1.18 -0.28,-0.62 -3.94,-9.78 -5.34,-14.83 -1.02,-7.18 -0.73,-14.37 1.78,-21.55 0.54,-2.32 -0.62,-4.75 -3.16,-4.55 -0.4,0.13 -0.79,0.2 -1.19,0.2 -5.69,6.64 -8.67,16.53 -7.32,25.51 2.49,16.49 8.17,29.24 18.79,41.72 -1.64,2.74 -3.55,3.64 -5.34,4.55 -10.41,5.34 -25.08,7.16 -35.19,-0.2 -5.27,-3.82 -10.61,-7.25 -16.02,-10.28 -2.4,1.03 -1.42,0.73 -2.17,1.78 -0.13,0.13 -0.2,0.26 -0.2,0.4 -0.13,0.13 -0.26,0.26 -0.4,0.4 -0.13,5.01 1.05,9.29 3.56,12.85 0.13,1.58 0.2,3.03 0.2,4.35 -0.11,16.96 -4.82,35.04 -16.02,48.05 -2.37,-3.69 -4.75,-7.45 -7.12,-11.27 -7.12,-11.47 -17.14,-17.4 -30.06,-17.79 -1.25,0.07 -4.08,0.83 -5.14,1.78 -0.66,0.66 -1.12,1.32 -1.38,1.98 0.92,2.24 2.64,4.02 5.14,5.34 2.64,1.32 5.34,2.77 8.11,4.35 0.64,0.82 1.18,6.45 1.19,7.51l-1.58 20.56c-0.92,6.46 -2.64,12.79 -5.14,18.98 -10.28,-12.13 -22.08,-22.8 -35.39,-32.03 -3.96,-2.77 -7.78,-5.6 -11.47,-8.5 -16.93,-13.07 -37.46,-21.13 -58.72,-23.73l-52 -7.32 -13.84 -2.17c-17.33,-2.32 -23.1,5.54 -24.91,5.54 -0.13,0.13 -0.26,0.2 -0.4,0.2 0,0.13 0,0.26 0,0.4 2.92,0.83 2.6,1.44 4.55,2.37 2.95,1.03 37.28,6.91 42.12,7.71 -1.84,9.72 4.33,20.21 12.65,24.52 10.41,5.27 21.42,7.84 33.02,7.71 0,2.46 0.16,2.93 -2.17,3.95 -3.56,1.19 -7.32,1.85 -11.27,1.98 -3.3,0.13 -5.6,1.51 -6.92,4.15 -0.26,2.24 0.72,3.95 2.97,5.14 2.37,1.19 4.81,1.45 7.32,0.79 2.9,0 5.73,-0.4 8.5,-1.19 1.71,-0.4 3.36,-1.12 4.94,-2.17 5.9,1.6 31.32,9.94 33.81,15.42 -0.4,0 -0.86,0 -1.38,0 -5.01,-0.66 -9.43,0.33 -13.25,2.97 -0.53,0.4 -0.99,0.86 -1.38,1.38 -26.27,-9.99 -49.69,-19.09 -76.92,-26.49l-1.58 0.99c0,0.24 -1.81,2.69 0.79,3.76 11.34,5.01 22.87,9.75 34.6,14.24l79.49 30.65c30.48,12.07 57.2,24.3 86.8,37.76l53.58 24.32 17.79 8.5c-2.29,0.95 -4.85,3.26 -3.56,6.13 1.49,3.31 2.5,3.27 5.93,2.57 2.11,-0.43 37.24,3.72 40.34,4.15 9.76,1.58 19.44,3.82 29.07,6.72 26.76,8.04 50.55,21.16 71.38,39.35 5.14,4.48 8.96,9.82 11.47,16.02 -4.61,-5.37 -11.31,-10.59 -17.4,-14.04 -5.4,-3.03 -11.2,-5.21 -17.4,-6.52 -1.32,0.13 -2.7,0.33 -4.15,0.59 -2.05,0.36 -4.53,5 0.79,6.13 13.69,2.92 25.1,12 33.61,22.94 4.43,5.7 6.27,17.35 2.97,24.72 -3.8,8.49 -15.86,18.44 -25.51,23.13 0,-10.62 -0.89,-19.06 -6.13,-28.47 -4.74,-8.52 -11.53,-15.12 -20.96,-18.19 -6.06,-1.98 -12.19,-3.23 -18.39,-3.76 -1.19,0.26 -2.37,0.46 -3.56,0.59 -3.25,0.18 -3.92,4.25 -0.59,5.14 4.25,1.4 6.8,2.94 12.46,4.55 9.88,2.64 17.45,7.59 22.15,16.61 1.71,3.17 2.77,6.59 3.16,10.28 0.4,3.3 0.72,6.59 0.99,9.89 -0.26,2.37 -0.4,4.81 -0.4,7.32 -22.22,4.63 -51.23,0.65 -73.16,-5.93 -0.1,-6.05 -1.36,-9.09 -3.95,-14.24 -2.65,-5.26 -8.17,-11.36 -14.24,-13.45 -2.75,-0.95 -5.47,1.53 -5.34,4.35 0.14,3.06 7.29,7.75 9.49,11.86l1.78 3.16c5.08,10.36 -0.05,22.72 -12.46,22.34 -15.42,-0.26 -29.46,-5.07 -42.12,-14.44 -13.31,-10.15 -25.84,-21.22 -37.57,-33.22 -2.97,-3.1 -8.96,-11.6 -17.99,-25.51 -0.2,-0.23 -0.4,-0.49 -0.59,-0.79 -6.85,-2.77 -13.64,-5.6 -20.37,-8.5l-29.46 -13.25c-32.32,-15.34 -65.61,-28.69 -98.47,-42.51l-77.71 -30.65c-8.96,-3.43 -17.79,-7.12 -26.49,-11.07 -3.19,-1.55 -20.44,-10.97 -21.95,-11.27 -2.51,-1.05 -5.07,-1.52 -7.71,-1.38 -0.56,0.68 -2.69,2.84 -1.78,3.76 0,1.66 3.67,4.48 4.75,5.34 -49.64,36.4 -94.86,63.22 -153.04,84.03 -19.9,7.12 -39.81,14.04 -59.71,20.76 -24.72,8.36 -39.04,10.97 -63.67,16.21 8.44,-11.07 14.63,-19.31 18.59,-24.72 -50.64,33.14 -105.71,95.18 -148.3,140.39 -32.77,34.78 -66.41,69.26 -98.87,104.2l-16.02 17.4c-18.99,20.04 -99.35,98.33 -123.38,110.53 -8.7,4.48 -18.13,7.51 -28.28,9.1 -20.83,3.43 -39.22,-1.45 -55.17,-14.63 -2.24,-1.84 -4.02,-3.76 -5.34,-5.73 -8.84,-11.79 -15.49,-24.57 -19.97,-38.36 -3.36,-11.07 -5.66,-23.59 -6.13,-35.2 -0.87,-21.56 1.42,-44.73 5.73,-65.64 4.71,-22.83 15.91,-44.07 32.03,-60.9 2.77,-2.9 5.6,-5.47 8.5,-7.71 -3.4,8.09 -4.3,17.39 -1.38,25.7 0.36,1.03 0.9,3.47 1.98,3.96 5.03,2.26 6.77,-3.43 6.33,-6.53 -1.06,-7.43 0.25,-15.3 3.76,-21.95 2.64,-5.01 5.93,-9.16 9.89,-12.46 7.25,-2.5 15.09,-3.82 23.53,-3.95 7.38,-0.13 14.3,0.72 20.76,2.57 -8.9,10.62 -18.71,32.36 -10.87,45.87 2.19,3.78 7.18,0.63 7.71,0 0.92,-1.32 0.92,-3.1 0,-5.34l0 -4.94c0,-5.79 1.15,-10.96 3.36,-16.21 3.14,-7.45 3.34,-11.56 11.07,-15.42 22.22,10.37 38.38,34.94 43.3,58.72 1.32,6.59 3.82,12.46 7.51,17.6 2.63,0 1.42,-0.35 2.97,-1.39 0,-0.34 1.08,-1.54 1.19,-6.52 0.66,-15.69 -2.64,-30.38 -9.89,-44.09 -7.57,-14.1 -20.23,-28.17 -32.23,-34.6 6.87,-12.45 26.99,-40.56 34.6,-53.39 6.2,-10.28 10.22,-16.81 12.06,-19.58 10.55,-15.42 21.22,-30.71 32.03,-45.87l16.21 -21.75c7.78,3.96 15.95,6.66 24.52,8.11 17.33,2.97 37.75,4.68 55.36,5.73 45.63,2.73 81.62,-7.41 123.58,-22.14 27.41,-9.63 55.37,-21.4 81.26,-34.4 14.76,-7.38 27.81,-17.01 39.15,-28.87 0.32,-2.6 1.12,-4.15 -1.98,-4.15 -4.78,0.73 -14.71,6.26 -19.58,9.1 -46.31,27.33 -107,51.51 -158.97,63.47 -5.54,1.32 -11.2,2.24 -17,2.77 -32.03,2.9 -64.13,2.77 -96.29,-0.4 -8.27,-0.91 -16.33,-4.61 -22.94,-7.91l10.48 -14.04c11.86,-14.76 23.4,-29.86 34.6,-45.28 0.4,-0.53 0.72,-0.99 0.99,-1.38 10.05,5.29 22.05,9.36 33.22,5.34 3.52,-1.27 4.15,-6.82 -0.99,-8.7 -7.43,-2.72 -11.14,-0.45 -21.75,-4.75 -7.53,-3.05 -17.22,-8.8 -22.54,-15.22 -4.74,-5.72 -13,-15.65 -15.62,-22.54 -1.06,-2.77 -2.9,-4.55 -5.54,-5.34 -0.71,-0.04 -3.41,0.93 -2.97,3.56 0.4,4.35 1.65,8.5 3.76,12.46 7.07,13.02 8.93,17.63 20.76,27.48 -11.95,17.15 -23.72,33.1 -36.78,49.43 -3.16,3.95 -6.26,7.97 -9.29,12.06 -2.69,-1.07 -6.45,-6.21 -7.71,-8.3 -5.56,-9.26 -9.52,-25.94 -10.68,-36.58 -2.5,-22.93 0.91,-45.59 11.07,-66.64 12.89,-26.69 32.2,-50.63 57.34,-66.64 26.48,-16.86 58.27,-28.67 90.16,-38.16 22.03,-6.56 54.72,-10.66 87.2,-13.84 -10.21,-2.55 -23.6,-2.9 -39.74,-1.58 -28.3,2.31 -36.42,4.46 -58.92,10.28 -7.65,1.98 -22.08,7.32 -43.3,16.02 -39.45,16 -69.85,37.5 -91.35,72.17 -12.6,20.32 -21.57,42.73 -21.95,66.83 -0.34,21.3 1.27,38.98 10.28,58.53 2.24,5.01 5.21,9.36 8.9,13.05 -83.21,6.4 -159.75,9.13 -243.01,12.26 -38.84,1.53 -74.63,1.39 -113.3,1.39 -13.11,0 -32.81,-0.11 -45.68,-2.57 -10.45,-1.95 -24.03,-7.46 -33.22,-13.05 -7.44,-4.75 -14.2,-13.25 -18.39,-21.35 -6.15,-11.9 -8.49,-25.89 -9.88,-39.15 -3.68,-34.96 2.08,-69.51 18.39,-101.04 5.17,-10 7.71,-13.32 13.84,-21.95 0,1.01 1.53,9.51 2.37,10.68 0.57,0.8 2.22,3.86 3.56,1.19 1.67,-3.34 0.15,-13.56 0.99,-15.82 0.84,-2.25 1.22,-5.4 2.37,-7.71 10.02,-11.07 22.34,-17.93 36.98,-20.56 5.14,-0.79 10.02,-0.72 14.63,0.2 -5.94,2.85 -11.33,8.16 -14.83,13.25zm411.87 -226.99c15.52,0 42.5,6.55 56.95,12.46 12.1,4.95 28.07,13.26 37.76,22.14 -5.58,-1.35 -14.1,-0.72 -9.89,6.92 1.72,3.3 6,6 12.85,8.11l23.93 7.51c34.36,10.55 75.76,21.13 106.97,36.38 13.18,6.46 27.09,11.86 41.72,16.21 31.62,9.3 53.16,19.62 83.24,32.23 14.12,5.92 29.86,13.34 43.3,20.17 1.85,0.92 3.69,1.85 5.54,2.77 0.92,2.24 1.58,4.62 1.98,7.12 0.46,2.62 0.57,7.71 -0.4,9.89 -0.79,1.19 -1.52,2.37 -2.17,3.56 -8.41,-6.27 -32.08,-23.08 -41.72,-27.88 -13.58,-6.72 -28.01,-9.69 -43.3,-8.9 -5.59,0 -8.57,5.03 -6.52,9.1 1.32,2.77 3.03,5.21 5.14,7.32 -7.51,-1.19 -15.09,-1.91 -22.74,-2.17 -12.65,-3.69 -25.64,-5.4 -38.95,-5.14 -4.55,0.04 -9.17,1.22 -11.27,4.55l-16.41 0.59c-14.95,1.12 -30.21,2.59 -45.28,4.94 -0.79,0.13 -1.58,0.27 -2.37,0.4 -3.03,-0.53 -6.2,-0.92 -9.49,-1.18 -37.48,-3.21 -69.6,-14.46 -103.81,-27.68l-30.06 -11.27c2.33,-2.84 0.08,-6.18 -3.17,-6.13 -8.79,0.14 -12.27,1.56 -19.38,2.17 -14.76,0.92 -29.46,0.33 -44.09,-1.78 -1.45,-0.26 -2.9,-0.46 -4.35,-0.59 -7.25,-1.18 -14.17,-3.3 -20.76,-6.33 -5.98,-2.81 -11.13,-6.89 -14.63,-12.66 -0.95,-1.55 -1.68,-4.02 -1.39,-5.14 0.37,-1.38 3.32,-4.27 5.34,-5.53 13.62,-8.54 20.63,-8.38 35.59,-8.7 2.49,-0.04 5.78,-1.68 5.34,-3.76 -0.66,-3.82 -2.83,-6.46 -6.52,-7.91 -4.22,-1.71 -8.64,-2.24 -13.25,-1.58 -7.74,0.9 -14.73,2.61 -21.75,6.13 -2.4,1.2 -8.16,5 -10.09,6.92 -9.72,-5.26 -17.2,-7.56 -23.53,-17.01 -1.58,-2.37 -2.9,-4.81 -3.95,-7.32 0.4,-3.3 1.72,-6.26 3.95,-8.9 1.4,-1.01 2.85,-1.94 4.35,-2.77 16.31,-9.14 30.11,-3.28 28.08,-13.05 -0.82,-3.95 -7.39,-5.53 -11.27,-4.94 -10.25,1.56 -20.16,4.62 -27.88,11.86 1.16,-7.81 7.04,-14.47 13.05,-19.18 8.96,-7.03 33.23,-9.84 45.08,-10.88 4.46,-0.4 4.29,-5.06 1.98,-6.33 -0.66,-0.4 -1.32,-0.72 -1.98,-0.99 17.65,-3.74 32.35,-4.14 50.22,-3.76zm115.67 171.03c7.51,1.85 15.09,3.36 22.74,4.55 -2.77,0.53 -5.47,1.12 -8.11,1.78 -10.68,2.51 -21.36,5.14 -32.03,7.91 5.8,-4.88 11.6,-9.62 17.4,-14.24zm309.05 -24.32c-1.66,1.99 -1.78,2.68 -1.78,4.55 -5.27,-1.45 -10.35,-3.1 -15.22,-4.94 -0.66,-0.26 -1.32,-0.46 -1.98,-0.59 6.46,-0.66 12.79,-0.33 18.98,0.99zm178.35 -258.43c6.2,-2.97 11.65,-5.77 17.99,-8.3l3.36 10.87c-0.79,0.27 -1.58,0.59 -2.37,0.99 -41.79,20.69 -52.4,53.05 -53.19,53.78 -13.49,5.63 -29.34,15.09 -40.93,23.73 0,-1.14 0.42,-1.56 0,-1.98 6.79,-13.21 12.3,-20.83 21.16,-32.82 14.35,-19.43 32.72,-35.16 53.98,-46.27zm35.59 36.98c-20.26,2.44 -41.58,7.87 -60.31,16.02 13,-16.25 19.84,-25.83 39.55,-38.16 2.9,-1.85 5.93,-3.36 9.1,-4.55 0.66,1.71 1.32,3.49 1.98,5.34 -3.69,0.79 -7.45,1.25 -11.27,1.38 -3.22,0.06 -3.79,4.79 -1.58,8.11 -2.93,1.17 -6.1,3.36 -8.7,5.14 -3.04,2.08 -3.57,6.87 0.59,7.12 2.9,0.13 5.73,0.33 8.5,0.59 6.22,0.68 6.33,-6.2 0.59,-6.72l4.15 -2.57c0,0 5.68,2.3 9.1,-0.4 2.04,-1.6 -2.9,-5.34 -7.71,-5.54 2.9,-0.26 5.73,-0.79 8.5,-1.58l7.51 15.82zm-13.64 319.13c-2.38,-4.36 -3.04,-5.1 -3.76,-10.48 10.55,1.45 21.16,2.77 31.83,3.95 11.73,1.32 22.94,4.61 33.61,9.89 23.32,11.59 43.33,26.27 61.3,45.08 2.2,2.26 3.34,3.41 4.94,6.33 2.11,4.75 5.47,7.38 10.08,7.91 2.08,0.25 2.76,-1.46 4.15,-3.76l4.15 -8.7c3.58,-7.95 5.33,-23.26 6.52,-32.03 0.53,-3.82 0.59,-7.58 0.2,-11.27 4.75,5.07 8.62,9.47 9.49,16.61 0.67,5.5 6.46,12.73 11.86,7.12 15.54,-16.15 26.97,-39.13 23.93,-61.69 12.43,6.22 27.31,6.78 40.14,2.17 10.15,-3.69 17.07,-10.22 20.76,-19.57 -0.13,-0.66 -0.4,-1.19 -0.79,-1.58 -3.43,-3.82 -6.53,-7.84 -9.29,-12.06 12,1.85 24.06,1.78 36.18,-0.2 50.22,-8.28 102.92,-30.35 144.93,-59.12 14.13,-9.67 27.61,-23.17 37.37,-37.17 6.84,-9.82 8.93,-16.25 11.47,-26.5 3.74,-15.21 3.35,-30.57 -1.19,-46.07 0,-0.13 -0.07,-0.26 -0.2,-0.4 0.66,0.13 1.25,0.27 1.78,0.4 49.96,15.42 98.47,34.54 145.53,57.34 51.82,25.24 97.89,61.66 135.84,104.8 27.66,31.43 44.43,65.54 57.54,104.2 0.66,1.98 1.12,3.56 1.38,4.75 -1.05,1.19 -2.7,2.64 -4.94,4.35 -2.24,1.58 -11.27,5.4 -27.09,11.47 -15.82,6.06 -39.41,13.31 -70.79,21.75 -5.54,1.45 -11.14,2.7 -16.81,3.76 -70.39,12.52 -141.31,19.18 -212.76,19.97 -39.94,0.53 -79.68,3.69 -119.23,9.49 -35.85,5.4 -70.59,14.89 -104.2,28.47 -1.05,0.4 -2.04,0.79 -2.97,1.19 -14.15,-8.23 -20.67,-10.54 -33.81,-17.01l-29.86 -13.64c-7.91,-3.69 -15.89,-7.25 -23.93,-10.68l36.98 -11.07c7.91,-2.3 19.67,-5.93 27.48,-7.71 2.9,-0.66 5.87,-1.38 8.9,-2.17 18.32,-4.48 36.71,-9.03 55.17,-13.64 12.92,-3.3 25.9,-6.33 38.95,-9.1 66.96,-14.63 134.85,-19.64 203.66,-15.03 31.24,2.24 62.02,7.05 92.34,14.43 31.28,7.62 64.5,9.92 96.49,6.52 22.28,-2.37 43.04,-8.9 62.29,-19.57 1.52,-0.87 6.92,-4.29 6.92,-6.52 0,-2.84 -0.94,-1.93 -2.57,-3.56 -4.69,1.64 -6.94,2.89 -11.07,4.94 -26.23,11.6 -53.85,16.87 -82.85,15.82 -24.54,-0.83 -50.37,-4.5 -74.15,-10.68 -29.4,-7.65 -59.25,-12.59 -89.57,-14.83 -29.92,-2.24 -59.91,-2.57 -89.97,-0.99 -32.69,2.77 -65.45,7.25 -98.27,13.45 -45.14,8.54 -109.48,22.72 -155.02,37.57l-27.68 7.71 -18.39 5.54c-15.82,-6.72 -31.77,-12.98 -47.85,-18.78l-26.3 -9.49 4.75 0.2c4.39,-0.28 7.15,-2.71 8.3,-7.32l-2.17 -5.34c-4.75,-7.03 -18.78,-15.95 -26.1,-19.58 -6.46,-3.16 -13.12,-5.21 -19.97,-6.13 0.29,-1.73 -0.1,-5.53 -0.59,-6.52 0.63,-0.63 -0.78,-7.95 -3.96,-7.91 -14.95,0.22 -26.62,1.84 -39.15,-9.29zm-96.49 115.87c19.42,9.71 46.27,19.77 67.03,27.88 -34.46,8.62 -62.29,14.51 -98.27,18.59 -18.59,2.11 -33.22,3.23 -43.9,3.36 1.32,-0.92 2.7,-1.78 4.15,-2.57 24.41,-13.56 48.55,-30.57 70.98,-47.26zm-677.41 400.2c7.19,-19.17 9.63,-37.46 7.91,-57.93 -0.92,-11.86 -4.48,-22.67 -10.68,-32.43 -6.98,-10.68 -16.81,-15.03 -29.46,-13.05 -5.67,2.11 -10.81,5.14 -15.42,9.1 -8.34,7.73 -13.62,20.52 -15.42,31.44 -3.16,18.72 -1.71,37.17 4.35,55.36 3.19,9.37 8.61,17.58 15.82,24.12 5.67,5.14 12.19,6.59 19.58,4.35 11.11,-3.54 18.88,-10.53 23.33,-20.96zm-5.34 -54.37l-0.2 8.5c-1.19,16.74 -5.54,32.56 -13.05,47.45l-3.76 3.56c-2.37,1.71 -5.07,2.37 -8.11,1.98 -1.62,-0.69 -7.98,-7.88 -9.69,-10.68 -10.89,-17.78 -13.99,-41.7 -8.9,-61.1 2.63,-9.62 7.7,-17.07 15.22,-22.34 4.71,-2.44 8.27,-3.37 10.68,-2.77 2.4,0.73 4.51,2.45 6.33,5.14l3.16 3.95c4.63,6.58 7.4,15.35 8.3,26.3zm1174.11 -689.08c0.79,-3.95 0.13,-7.58 -1.98,-10.87 -7.12,-11.2 -17.66,-15.89 -31.64,-14.04 -10.28,0.92 -19.57,3.89 -27.88,8.9 -10.19,6.07 -25.73,15.59 -32.82,20.96 -5.2,3.94 -12.87,11.56 -17.6,19.18 -3.43,5.4 -6.79,14.96 -10.09,28.67 -3.43,13.71 -3.36,21.55 0.2,23.53l-0.2 0c3.43,2.24 7.45,3.1 12.06,2.57 17.79,-1.45 34.34,-6.92 49.63,-16.41 14.89,-9.23 28.93,-19.64 42.12,-31.24 9.75,-8.57 15.82,-18.98 18.19,-31.24zm-22.74 -15.62c4.02,0.96 7.71,2.87 11.07,5.73 3.82,6.06 3.36,12.13 -1.38,18.19 -12.82,16.21 -25.63,25.29 -41.92,37.17 -17.53,12.79 -37.04,20.3 -58.53,22.54 -0.53,-0.13 -1.12,-0.13 -1.78,0 4.5,-19.13 5.09,-24.37 13.25,-42.31 5.13,-11.28 21.28,-20.44 32.03,-27.29 11.34,-7.25 23.46,-11.93 36.38,-14.04 3.86,-0.66 7.48,-0.66 10.87,0zm-23.73 36.38c1.65,-2.48 0.65,-8.07 -5.14,-6.92 -5.79,1.15 -13.98,5.51 -17.8,10.28 -2.66,-3.72 1.41,-11.23 -5.14,-10.68 -2.11,0.13 -3.82,1.12 -5.14,2.97 -1.18,1.58 -2.11,3.36 -2.77,5.34 -0.26,0.4 -0.53,0.86 -0.79,1.38 -1.92,-2.56 -8.67,-6.56 -11.67,-4.55 -1.61,1.08 -2.19,3.59 -0.79,5.34 -1.54,5.4 -3.02,11 -5.14,16.21 -2.75,6.07 0.47,7.59 2.97,4.15 4.44,-6.11 7.43,-9.66 9.1,-17 2.37,2.63 2.83,5.6 1.38,8.9 -0.99,1.96 -0.28,6.4 3.56,4.35 3.04,-1.62 3.76,-3.39 4.15,-6.72l2.97 -8.9c1.63,4.49 5.93,9.43 9.89,6.13 3.11,-2.59 3.3,-3.92 7.71,-6.13 -3.55,4.05 -4.9,11.77 0,12.26 2.85,0.29 2.04,-3.01 7.91,-10.08 1.72,-2.11 3.3,-4.22 4.75,-6.33zm-307.66 41.72c-4.88,-0.13 -9.82,-0.07 -14.83,0.2 -10.28,0.4 -19.44,-2.57 -27.48,-8.9 -8.04,-6.72 -17.07,-10.87 -27.09,-12.46 -6.59,-0.13 -13.18,1.05 -19.77,3.56 -15.42,5.67 -28.01,14.96 -37.77,27.88 -7.98,10.73 -15.84,30.34 -7.91,42.51 5.53,8.48 19.02,10.09 28.08,9.49 10.81,-0.53 21.29,-2.77 31.44,-6.72 8.44,-3.3 16.68,-3.03 24.72,0.79 7.12,4.75 13.97,10.02 20.56,15.82 5.14,4.35 10.74,7.97 16.81,10.87 12.79,5.8 24.19,3.62 34.21,-6.52 8.96,-8.96 14.7,-19.84 17.2,-32.63 4.92,-25 -13.52,-43.9 -38.16,-43.9zm-105.59 6.33c9.75,-8.04 20.96,-13.12 33.61,-15.22 3.16,-0.4 5.93,0.13 8.3,1.58 17.36,10.61 31.46,22.49 54.38,19.18 4.75,-0.66 9.49,-0.86 14.24,-0.59 18.77,0.67 26.73,15.73 22.94,32.03 -2.41,10.11 -9.03,22.71 -18.59,28.08 -5.14,2.88 -10.09,4.45 -15.62,1.38 -10.28,-5.54 -20.3,-11.86 -30.05,-18.98 -1.58,-1.05 -3.17,-2.04 -4.75,-2.97 10.67,-3.41 24.95,-1.69 35.39,1.19 5.32,1.47 8.91,3.62 13.45,6.52 2.38,1.52 7.21,1.44 7.51,-1.58 0.66,-3.3 -0.46,-5.73 -3.36,-7.32 -7.34,-4.4 -9.38,-5.22 -17.2,-6.92 -6.46,-1.52 -11.16,-3.16 -17.99,-3.16 -5.67,0 -11.4,0.66 -17.2,1.98 -1.98,0.53 -7.77,2.83 -9.29,4.35 -4.22,-1.85 -7.97,-2.77 -11.27,-2.77 -6.33,-0.13 -12.72,0.86 -19.18,2.97 -9.08,3.09 -18.33,4.83 -29.07,5.34 -19.26,1.85 -18.77,-10.79 -12.65,-24.72 3.56,-7.91 9.03,-14.7 16.41,-20.37zm-348.2 158.38c-6.23,1.1 -17.67,7.66 -11.27,15.42 6.79,8.24 12.86,4.3 26.3,10.28 6.2,2.77 12.39,5.54 18.59,8.31 0.63,0.13 4.77,-1 4.15,-5.93 -0.66,-5.93 -3.95,-10.09 -9.89,-12.46 -3.3,-1.45 -6.52,-2.9 -9.69,-4.35 16.97,-4.07 27.92,-6.13 46.86,-6.33 2.67,2.68 2.4,1.04 3.95,5.73 1.75,5.3 11.63,10.92 13.25,-1.98 0.39,-2.78 -0.33,-5.42 -2.18,-7.91 -4.35,-5.93 -9.82,-10.48 -16.41,-13.64 3.45,-0.99 9.2,-2.38 12.85,-2.57 10.27,-1.05 20.62,-1.51 31.04,-1.38 1.58,2.24 3.03,4.68 4.35,7.32 2.77,5.8 6.86,7.45 12.26,4.94 0.69,-0.59 1.96,-4.15 2.17,-5.73 1.05,-7.69 -5.99,-15.49 -10.28,-20.96 16.17,1.2 37.45,9.67 51.02,16.21 4.61,2.24 9.03,2.5 13.25,0.79l0.99 -1.98c0.54,-0.54 0,-3.46 0,-3.56l-1.19 -1.78c-4.48,-2.5 -9.03,-5.01 -13.64,-7.51 -10.15,-5.67 -20.89,-10.02 -32.23,-13.05 -14.63,-3.95 -29.46,-6.39 -44.49,-7.32 -4.25,-0.13 -9.45,3.8 -7.32,10.48 2.13,6.68 7.08,7.16 11.67,10.09 -18.02,0 -28.04,0.48 -45.68,6.33 -5.01,1.72 -7.84,4.94 -8.5,9.69 -0.32,2.67 2.61,4.5 5.14,6.52 -15.03,1.19 -30.06,3.3 -45.08,6.33zm-658.63 26.3c-1.6,0.8 -6.19,0.88 -9.49,4.15 -24.17,23.95 -25.24,49.9 -22.94,80.87 0.7,9.42 2.59,11.43 4.35,19.38 1.3,5.83 7.07,13.69 12.06,17.01 8.61,5.72 17.63,3.59 24.72,-3.56 6.7,-6.76 11.79,-14.84 15.42,-23.73 10.55,-25.81 9.01,-54.2 -2.77,-79.29 -4.35,-9.36 -11.47,-14.3 -21.36,-14.83zm-1.38 14.04c3.61,-7.21 11.75,7.4 12.85,9.29 7.43,12.77 7.15,32.06 5.73,48.05 -0.96,11.81 -5.66,30.35 -16.02,37.57 -3.18,2.36 -6.47,3.15 -9.89,2.37 -13.56,-4.75 -12.49,-35.02 -12.26,-46.27 0.53,-19.25 7.05,-36.25 19.57,-51.02z"/>
	<path fill="#fff64b" d="M822.36 671.61c-4.47,9.45 -13.04,29.21 -15.42,37.77l-22.15 2.77c-5.26,0 -11.98,0.43 -14.43,5.73 -2.93,5.04 1.37,8.45 6.33,10.28 7.78,2.63 15.29,6.06 22.54,10.28l-2.17 14.44c-0.48,8.45 -0.16,18.86 0.2,27.48 0.08,3.94 4.45,6.29 7.71,5.93 9.26,-1.02 25.21,-22.41 31.04,-30.25 8.57,3.9 15.93,5.17 26.69,11.07 6.27,3.44 17.3,9.84 20.37,-0.4 1.58,-5.4 -4.28,-17.33 -17.6,-35.79 2.98,-3.83 9.82,-11.67 13.25,-14.24 2.52,-1.88 8.26,-4.51 10.09,-7.91 2.66,-6.65 -2.31,-10.22 -8.9,-9.69 -9.89,1.05 -19.51,2.37 -28.87,3.95 -3.55,-9.95 -7.13,-19.89 -12.06,-29.26 -3.32,-5.53 -13.73,-9.09 -16.61,-2.17zm157.99 -195.55c-7.05,-11.12 -13.28,-19.17 -21.95,-29.26 -2.55,-2.97 -4.23,-8.37 -11.07,-8.7 -2.92,-0.14 -6.65,1.62 -7.71,4.94 -4.7,14.9 -14.21,40.21 -15.03,54.97 -16.69,6.95 -26.93,10.44 -43.5,20.56 -10.58,6.5 -7.58,21.86 3.76,24.32 17.32,3.75 26.47,2.06 42.91,1.58 0.57,14.74 -1.49,31.84 2.57,45.87 1.55,5.91 8.61,10.2 14.44,5.14 11.18,-9.71 26.08,-26.61 36.58,-38.16 15.5,6.07 29.97,10.03 46.47,12.26 13.84,1.87 25.03,-8.59 14.04,-17.8 -7.5,-12.11 -15.62,-24.32 -25.71,-34.4 10.42,-12.5 19.91,-20.33 26.69,-36.38 2.99,-6.85 -0.08,-14.98 -7.91,-16.41 -13.8,-2.66 -42.66,7 -54.57,11.47zm340.88 -133.07c-5.21,-16.33 -12.12,-28.89 -21.75,-42.91 -5.77,-8.33 -16.84,-13.23 -23.33,-2.77 -8.03,13.95 -12.94,33.02 -17.79,48.44 -2.9,9.49 -5.93,18.85 -9.1,28.08 -29.17,7.75 -56.64,16.63 -85.42,25.71 -9.32,3.55 -9.79,16.77 1.58,20.96 21.09,8.04 41.52,16.61 61.3,25.71 -6.41,19.23 -13.84,37.57 -20.56,56.55 -7.37,19.91 4.54,27.43 19.38,16.02 19.29,-14.84 37.91,-30.67 57.14,-45.68 17.53,8.7 35.2,17.07 52.99,25.11 5.67,2.5 11.6,3.69 17.79,3.56 5.22,-0.06 11.9,-5.51 8.9,-13.05 -8.65,-21.74 -13.99,-40.54 -18.19,-63.47 15.7,-14.34 28.87,-30.02 45.48,-43.3 6.68,-5.53 14.11,-10.86 6.72,-19.77 -5.84,-7 -59.09,-2.94 -69.6,-1.98 -1.71,-5.8 -3.56,-11.53 -5.53,-17.2z"/>
	<path fill="#e6b891" d="M1106.7 718.27c4.16,4.03 30.02,4.05 28.4,-5.26 -3.45,-9.34 -27.33,-5.57 -28.4,5.26z"/>
	<path fill="#d19160" d="M1109.66 717.88c-0.1,-0.04 -0.23,-0.1 -0.39,-0.2 -3.55,5.64 5.67,6.8 3.36,0.79 -1,-0.01 -1.99,-0.2 -2.97,-0.59zm23.73 -4.55c-4.59,2.73 -10.32,3.52 -15.82,4.35 -1.51,2.18 -3.71,4.14 -5.65,6.77 11.47,2.17 18.8,-0.68 25.36,-6.33 0,-1.31 -2.1,-4.35 -3.89,-4.79z"/>
	<path fill="#f8e5b6" d="M310.25 1458.96c-0.83,6.26 4.43,8.99 6.72,7.71 3.82,-1.98 4.61,-4.88 2.37,-8.7 -1.7,-4.45 -8.3,-4.3 -9.1,0.99zm16.02 -29.26c-1.72,0 -3.6,1.11 -4.94,2.17 -4.48,3.43 -6.79,7.84 -6.92,13.25 -0.07,5.43 8.76,10.88 16.41,-0.59 3.26,-4.88 4.66,-15.11 -4.55,-14.83zm-279.19 -360.66c-3.22,0.38 -4.37,2.86 -5.14,5.73 -1.01,3.78 2.08,9.07 6.72,5.93 4.71,-3.19 4.39,-11.15 -1.58,-11.67zm15.03 -8.11c5.23,-8.71 -2.03,-16.52 -6.52,-14.24 -6.87,3.54 -11.95,13.95 -4.94,19.18 3.72,2.77 9.3,-1.11 11.47,-4.94zm1059.23 -348c0.61,-0.61 0.52,-1.75 0.2,-2.17 -4.8,-0.92 -8.26,0.01 -9.49,3.36 0.13,0.66 0.41,1.38 1.19,1.38 2.9,0 5.6,-0.86 8.11,-2.57zm5.14 -2.37c-0.52,-0.52 -3.05,-0.34 -3.36,0.59 -0.66,1.97 1.83,2.86 3.22,2.03 0.67,-0.4 0.84,-1.7 0.15,-2.62z"/>
	<path fill="white" d="M1396.31 709.08c-24.26,-22.23 -58.2,75.54 7.73,69.68 9.65,-16.83 -1.45,-21.08 -5.58,-35.53 -2.82,-11.12 7.73,-21.73 -2.15,-34.15zm-272.61 38.46c-2.1,3.89 1.77,9.2 6.52,6.52 4.26,-2.39 2.57,-9.09 -2.37,-9.29 -1.85,0.13 -3.23,1.05 -4.15,2.77zm13.05 -15.23c-2.7,0 -4.32,2.73 -3.95,5.14 0.68,3.87 6.85,4.65 7.71,0 0.53,-2.9 -0.72,-4.61 -3.76,-5.14zm10.28 10.68c-1.31,-0.33 -4.58,1.22 -3.95,4.94 0.4,2.5 1.91,3.62 4.55,3.36 1.71,-0.13 2.77,-0.99 3.16,-2.57 0.92,-3.16 -0.33,-5.07 -3.76,-5.73zm-57.93 -14.43c0,-0.53 0,-0.99 0,-1.39 -4.44,-0.95 -5.96,1.03 -5.14,5.34 2.61,0 4.79,-1.15 5.14,-3.95zm4.55 -5.14c2.48,1.77 6.34,-1.53 5.54,-4.35 -7.93,-1.45 -5.89,4.24 -5.54,4.35zm117.71 -42.52c-30.63,-10.84 -89.75,1.89 -115.89,31.65 38.89,-14.69 45.41,1.9 65.14,18.71 36.39,-6.54 63.93,-32.24 50.75,-50.36zm-6.36 93.38c-9,18.55 29.55,36.24 57.71,26.84l5.34 -0.79c6.06,-1.58 11.8,-3.23 17.2,-4.94 10,-3.46 17.21,-6.61 26.1,-11.67 4.21,-2.37 36.96,-23.06 34.25,-41.96 -10.62,-38.31 -114.62,-21.06 -140.6,32.52zm-97.23 -135.86c8.16,35.34 62.16,39.29 70.69,3.43 -3.03,-12.29 -25.85,-3.02 -37.27,-4.09 -11.57,-1.09 -19.76,-9.36 -33.41,0.66z"/>
	<path fill="black" d="M1409.42 718.28c0.53,-2.37 0.27,-4.68 -0.79,-6.92 -3.82,-7.91 -10.15,-12.46 -18.98,-13.64 -2.37,0.13 -4.68,0.59 -6.92,1.38 -3.05,1.06 -7.75,4.56 -9.89,7.12 -8.8,10.73 -15.24,25.74 -14.04,39.94 1.71,20.15 16.23,42.95 38.36,41.72 1.58,-0.13 3.03,-0.46 4.35,-0.99 10.41,-4.09 15.16,-11.53 14.24,-22.34 -0.51,-4.48 -10.92,-19.37 -11.27,-20.56l0.2 -6.33c1.72,-6.46 3.3,-12.92 4.75,-19.38zm-19.18 -8.11c2.78,0.55 6.56,3.24 7.32,4.94 0.26,1.06 0.13,2.17 -0.4,3.36 -2.47,5.9 -6.12,20.3 -4.55,26.5 2.11,7.38 5.74,14.1 10.88,20.17 0,2.66 0.86,3.65 -0.99,6.33 -0.79,1.05 -1.65,2.04 -2.57,2.97 -4.88,2.11 -9.49,1.78 -13.84,-0.99 -9.29,-5.26 -15.81,-18.34 -15.22,-29.66 0.38,-8.97 6.86,-32.37 19.38,-33.61zm-173.61 -33.42c-6.85,-6.06 -15.03,-8.57 -24.52,-7.51 -13.58,0.79 -27.09,2.64 -40.53,5.54 -23.21,5 -43.51,15.47 -61.3,31.04 -5.01,4.35 -7.45,9.49 -7.32,15.42 -5,4.69 -7.03,7.88 -11.07,12.85 -2.5,2.9 -3.56,6.13 -3.17,9.69 0.66,1.8 5.77,3.39 7.91,-1.38l7.91 -10.68c4.54,-4.74 9.18,-9.02 14.63,-12.66 0.4,-0.26 0.86,-0.59 1.38,-0.99 0.9,9.92 13.07,15.56 21.95,13.64 6.01,-1.27 17.83,-5.76 20.37,-11.67 0.79,0.66 1.65,1.32 2.57,1.98 1.98,1.85 3.95,3.82 5.93,5.93 10.1,11.02 14.01,25.68 16.81,40.14 1.53,7.76 0.36,13.11 6.52,15.82l1.98 -1.19c1.05,-1.98 1.58,-4.08 1.58,-6.33 -0.27,-11.12 -4.88,-26.25 -9.1,-36.78 0.13,-0.13 0.33,-0.26 0.59,-0.4 12.52,-5.53 24.32,-12.19 35.39,-19.97 1.85,-1.19 3.62,-2.44 5.34,-3.76 10.15,-8.04 13.84,-18.19 11.07,-30.45 -0.79,-3.3 -2.44,-6.06 -4.94,-8.31zm-8.5 7.12c4.45,6.12 2.76,14.46 -2.97,19.18 -13.76,11.33 -27.26,18.79 -43.7,25.11l-7.51 -6.92c4.45,0 18.46,-5.61 22.34,-7.51 8.05,-3.97 14.18,-14.63 6.72,-19.18 -7.78,-4.75 -16.28,-6.06 -25.51,-3.96 -11.35,2.62 -17.87,6 -27.09,11.67 -13.62,-3.78 -25.28,6.24 -25.71,6.33 -0.26,0 -0.46,0 -0.59,0l14.63 -9.29c15.29,-8.44 31.77,-13.71 49.43,-15.82 15.08,-1.33 24.25,-5.16 39.94,0.4zm-63.87 23.53c6.32,-3.16 21.3,-5.03 28.87,-5.14 -5.14,3.03 -10.61,5.34 -16.41,6.92 -2.66,0.72 -5.59,2.62 -7.51,4.55 0,0.85 -0.92,1.99 -0.4,3.56 -10.59,-7.56 -2.29,-0.27 -8.3,-8.3 1.19,-0.66 2.44,-1.19 3.76,-1.58zm-17.99 2.96c2.52,0.38 5.51,1.35 7.32,3.17 0,0.05 1.98,2.57 1.98,3.95 -6.56,5.65 -13.83,7.05 -22.15,6.33 1.53,-1.28 6.89,-4.51 3.76,-6.33 -1.89,-1.1 -5.43,1.07 -6.92,3.76 -0.83,-1.25 -1.16,-4.23 -0.79,-4.94 1.37,-1.37 2.88,-2.49 4.55,-3.36 1.12,-0.11 5.69,-2.57 12.26,-2.57zm172.22 5.54c-4.09,0.4 -8.11,1.12 -12.06,2.17 -19.11,3.69 -36.18,10.28 -51.21,19.77 -5.67,3.17 -10.87,6.79 -15.62,10.87 -5.01,3.56 -9.56,7.58 -13.64,12.06 -7.27,7.91 -10.96,21.49 -3.56,30.45 9.83,12.37 25.52,15.08 41.33,15.03 4.88,-0.26 10.08,-1.05 15.62,-2.37 1.71,-0.74 1.66,-2.18 2.37,-2.18 0,-0.06 -1.83,-2.33 -5.53,-1.98 -13.27,1.27 -29.37,-2.26 -39.94,-8.31 -5.8,-3.43 -8.24,-8.04 -7.32,-13.84 0,-6.81 11.35,-17.93 16.61,-21.55 9.23,-7.12 19.38,-13.31 30.45,-18.59 8.83,-4.48 18.59,-7.78 29.26,-9.89 9.62,-2.24 19.31,-2.44 29.07,-0.59 14.37,2.37 23.07,9.03 26.1,19.97 0.88,4.18 -7.44,11.42 -10.68,13.05 -15.52,7.46 -40.53,14.75 -57.14,17.4 -10.41,1.58 -19.71,0.72 -27.88,-2.57 -1.88,-1.06 2.24,-4.88 4.35,-6.72 9.89,-9.62 22.81,-16.41 38.75,-20.37 20.55,-5.37 24.03,3 18.98,5.14 -7.51,3.82 -15.42,6.46 -23.73,7.91 -1.19,0 -2.17,-0.06 -2.97,-0.2 -4.88,-0.26 -8.96,0.59 -12.26,2.57 -2.28,2.03 -0.5,7 5.54,7.51 8.92,0.48 46.34,-4.77 48.05,-20.96 0.63,-6.01 -6.09,-12.15 -12.46,-12.85 -12.52,-1.45 -24.52,0.2 -35.99,4.94 -12.26,4.75 -22.81,11.01 -31.64,18.79 -4.75,3.82 -7.25,8.3 -7.51,13.45 -0.66,5.93 2.97,9.95 10.87,12.06 12.01,3.24 20.14,1.97 31.83,0.59 11.68,-1.38 37.79,-7.93 49.83,-12.85 9.49,-3.82 17.79,-9.49 24.91,-17.01 1.45,-1.85 2.44,-3.76 2.97,-5.73 1.06,-12 -4.48,-21.29 -16.61,-27.88 -11.76,-6.34 -25.49,-8.75 -39.15,-7.32zm-181.32 -90.16c-12.83,0.48 -22.87,15.97 -12.46,29.06 19.95,25.08 59.63,21.8 78.5,-2.17 3.17,-4.09 3.69,-8.5 1.58,-13.25 -3.16,-6.86 -8.63,-9.43 -16.41,-7.71 -9.76,2.11 -19.51,2.11 -29.26,0 -4.2,-0.71 -8.96,-5.93 -21.95,-5.93zm-3.56 14.63c0.79,-4.09 4.68,-4.35 11.67,-0.79 9.35,4.35 22.29,5.15 32.43,2.77 5.54,-1.32 11.14,-2.04 16.81,-2.17l1.38 1.19 0 1.19 -3.76 4.94c-1.06,0.66 -2.04,1.32 -2.97,1.98 -6.33,4.61 -13.45,7.65 -21.36,9.1 -12.26,1.98 -22.41,-1.05 -30.45,-9.1 -2.77,-2.37 -4.02,-5.4 -3.76,-9.1z"/>
</svg>
