<?xml version="1.0" encoding="UTF-8"?>
<!-- COPYRIGHT RobotoSkunk 2022 -->

<svg xmlns="http://www.w3.org/2000/svg" shape-rendering="geometricPrecision" viewBox="0 0 183.63 246.07">
	<path fill="#FF7E7E" d="M39.55 172.84c7.74,-0.37 17.25,-0.22 28.53,0.44 1.48,-2.64 2.74,-4.42 4.43,-6.81 -10.08,-0.68 -19.5,-0.94 -28.26,-0.78l-4.7 7.15zm74.7 4.01c9.05,0.43 17.66,1.36 25.8,2.79l8.75 -6.4c-7.74,-1.36 -16.6,-2.39 -26.59,-3.09l-7.96 6.7zm63.97 52.77c-16.18,0.39 -29.97,0.2 -41.37,-0.58l-22.57 14.58c15.75,1.49 30.69,2.31 44.8,2.45l19.14 -16.45zm-8.96 -39.22c6.95,0.28 11.74,0.81 14.37,1.6 -3.29,-6.96 -10.38,-12.17 -21.28,-15.62l-10.38 5.95c8.49,1.14 14.25,3.83 17.29,8.07zm10.69 11.65c-3.56,-1.89 -8.1,-3.57 -13.61,-5.04 -11.87,1.63 -24.43,2.89 -37.66,3.78l10.76 10.04c16.84,-0.75 30.35,-3.68 40.51,-8.78zm-96.31 18.65l-27.23 2.69c2.99,5.9 14.51,11.2 34.55,15.9 6.33,-3.09 14.73,-7.13 25.19,-12.12 -6.88,-0.9 -28.46,-2.66 -32.51,-6.47zm26.39 -51.75c-8.81,-0.81 -18.3,-1.55 -28.47,-2.21 -1.43,1.95 -3.14,4.29 -5.14,7.01 -0.13,-0.02 8.8,0.64 26.8,1.98 2.58,-2.59 4.85,-4.85 6.81,-6.78z"/>
	<path fill="#C0CDE6" d="M120.44 191.8c0,-3.72 -2.44,-8.02 -5.21,-10.42 -3.08,-2.68 -6.77,-4.87 -11.06,-6.57 -10.97,0.18 -17.47,-3.18 -23.97,-6.2 -2.88,-0.45 -5.72,-0.78 -8.51,-0.98 -11.65,2.5 -20.62,2.69 -28.83,5.1 -0.3,0.3 -0.57,0.63 -0.82,0.99 -1.59,2.28 -1.25,5.15 -0.07,7.59 1.66,3.75 4.56,6.45 8.72,8.11 -0.71,1.09 -0.86,1.82 -0.55,3.09 0.45,1.86 1.69,3.31 3.71,4.33 2.84,1.45 5.64,2.45 8.41,2.99 2.94,10.07 18.52,15.62 27.3,16.86 12.4,1.73 22.02,1.84 34.19,1.22 5.49,-0.34 10.86,-1.13 16.1,-2.38 2.58,-0.64 5.65,-2.69 5.65,-5.07 -1.83,-3.46 -5.43,-7.37 -6.57,-10.42 -4.65,-3.72 -12.85,-6.89 -18.49,-8.24z"/>
	<path fill="#AA5962" d="M68.08 173.28c1.05,-1.86 2.25,-3.75 3.61,-5.65 -13.93,-0.77 -23.55,0.93 -28.83,5.1 7.14,-0.18 15.55,0 25.22,0.55zm71.36 37.55c2.07,-0.09 4.09,-0.22 6.06,-0.37 0.16,-2.73 -2.03,-6.2 -6.57,-10.42 -3.36,0.27 -6.77,0.52 -10.25,0.75l10.76 10.04zm-36.22 -35.1c0.31,-0.32 0.62,-0.62 0.92,-0.92 -6.97,-2.56 -14.95,-4.63 -23.94,-6.2 -1.13,1.52 -2.39,3.24 -3.78,5.14 -0.13,-0.02 8.8,0.64 26.8,1.98zm-15.05 39.56c8.71,-1.36 21,-2.56 36.87,-3.61l-11.98 -10.52c-15.07,0.11 -28.66,1.74 -40.76,4.87 6.06,2.45 11.35,5.54 15.87,9.26z"/>
	<path fill="#ACC330" d="M43.4 1.86c8.22,0.38 14.94,2.86 14.85,9.49 -4.28,11.13 -20.56,16.08 -36.43,15.32 -9.14,-0.44 -15.6,0.06 -19.84,9.37 -6.1,11.31 9.26,20.22 19.39,20.87 12.65,1.11 24.2,-2.9 23.58,8.48 13.56,-9.3 26.15,-16.96 27.52,-31.15 -9.72,2.25 -12.77,2.98 -18.89,0.92 -4.73,-5.77 29.96,-12.82 26.63,-21.83 -2.73,-6.99 -25.55,-15.6 -36.81,-11.47z"/>
	<path fill="#757917" d="M78.23 19.12c0.84,-0.86 1.75,-1.6 2.72,-2.21 0.57,-1.57 0.3,-3.42 -0.82,-5.55 -2.68,-5.11 -12.83,-8.81 -18.65,-10.25 -4.09,-1.02 -8.32,-1.34 -12.7,-0.95 -5.6,0.49 -11.17,1.25 -14.95,2.79 -1.13,0.5 -2.18,0.98 -3.13,1.43 7.77,-1.23 15.29,-2.27 20.33,-0.82 4.18,1.21 8.81,5.77 5.1,10.35 -4.51,5.57 -12.83,9.49 -19.88,11.07 -5.54,1.22 -11.15,1.46 -16.85,0.71 -8.6,-1.11 -14.63,2.22 -18.08,9.98 -2.5,5.63 -1.45,10.73 3.13,15.32 4.26,4.25 9.69,6.47 15.66,6.81 4.91,0.25 9.82,0.31 14.74,0.2 0.59,-0.02 2.07,0.08 4.43,0.31 2.34,0.18 3.79,1.68 4.36,4.49 0.56,2.75 0.75,4.51 0.58,5.28 1.77,-0.99 2.49,-2.65 1.56,-5.35 0.09,-2.74 -1.55,-4.77 -4.93,-6.09 -1.73,-0.55 -3.6,-0.78 -5.62,-0.72 -5.04,0.19 -10.07,0.11 -15.08,-0.23 -5.61,-0.37 -10.38,-2.45 -14.3,-6.27 -4.45,-4.33 -5.27,-9.11 -2.45,-14.33 3.15,-5.81 9.29,-8.41 18.42,-7.8 9.12,0.62 15.96,-0.02 20.52,-1.9 4.57,-1.89 8.62,-4.24 12.16,-7.05 3.54,-2.84 5.05,-5.58 4.53,-8.24 -0.55,-2.7 -1.93,-4.88 -4.16,-6.54 -1.77,-1.18 -4.6,-1.82 -8.51,-1.94 2.04,-0.04 3.61,-0.07 4.7,-0.07 4.18,-0.02 9.69,1.3 16.55,3.95 6.83,2.66 10.74,5.27 11.74,7.83 0.98,2.59 -0.49,4.87 -4.39,6.85 -3.93,1.97 -8.41,4.16 -13.45,6.57 -5.06,2.4 -8.02,4.37 -8.88,5.89 -0.87,1.75 -0.55,2.95 0.95,3.61 4.04,1.27 8.12,1.29 12.26,0.06 1.83,-0.54 3.67,-1.01 5.51,-1.39 1.46,-0.47 1.48,-0.99 0.24,-1.57 -6.19,1.23 -9.35,3.52 -16.17,1.84 -2.86,-0.68 -2,-2.3 2.59,-4.87 4.56,-2.56 10.2,-5.31 16.92,-8.24 2.05,-0.88 1.26,-0.86 3.3,-2.96z"/>
	<path fill="#333333" d="M131.01 48.51c-17.2,-22.96 -66.8,-1.41 -74.6,6.71 -9.85,9.07 -16.25,21.45 -11.67,28.71 4.3,20.31 9.5,14.51 15.45,15.84 3.55,28.23 15.21,41.12 25.37,49.27 -1.97,36.97 -4.11,29.67 15.13,30.51 5.12,-15.1 3.51,-17.3 6.31,-26.59 14.68,29.46 -6.16,32.39 24.22,29.06 4.23,-17.28 -1.2,-24.31 -3.53,-34.48 1.14,-23.57 -2.46,-26.27 13.86,-22.27 3.17,-22.31 -12.13,-25.16 -7.83,-51.88 -1.13,-8.67 -4.75,-6.84 0.83,-13.18 -3.8,-3.44 -4.74,-4.8 -3.54,-11.7z"/>
	<path fill="#191919" d="M59.26 71.28c-2.98,9.34 -7.53,14.04 -12.9,18.86 5.51,19.99 16.5,-1.79 15.36,18.87 1.55,13.84 9.95,29.71 23.84,40.03 -1.26,15 -13.36,33.12 1.62,24.99 5.26,-19.47 4.22,-33.91 4.5,-47.43 1.29,-0.99 1.95,-1.55 3.06,-2.62 3.01,-8.18 -0.56,-9.09 -2.42,-8.99 -2.76,2.4 -8.95,7.28 -12.54,5.19 -3.04,-1.76 3.03,-17.63 5.8,-25.51 -1.43,-2.16 -2.94,-5.15 -6.55,1.35 0.05,-2.7 -4.63,14.21 -4.46,9.1 0.29,-8.86 0.29,-19.15 -1.67,-23.35 0.86,-3.82 3,-16.46 -1.07,-14.75 -2.88,4.23 -6.21,10.34 -8.14,15.09 -1.3,-3.6 -1.84,-9.33 -1.84,-13.15 -0.02,0.07 -2.59,2.23 -2.59,2.32zm57.57 93.08c-0.57,-2.94 -3.09,0.68 -4.88,1.36 1.18,12.02 -3.87,19.06 4.54,14.71 0.92,-5.23 1.11,-10.47 0.34,-16.07zm7.7 -46.54c-0.59,0.48 -1.2,0.91 -1.84,1.29 -1.91,-0.12 -1.67,2.3 -0.07,4.33 0.73,0.6 3.18,3.98 4.87,4.01 1.6,-0.57 1.74,-0.75 1.84,-3.13 1.15,-2.13 0.91,-1.67 2.42,-3.64l-5.45 -4.39c-0.57,0.54 -1.16,1.05 -1.77,1.53zm2.45 -19.58c-0.18,-0.34 -0.37,-0.67 -0.58,-0.98 -4.49,2.18 -0.89,10.27 3.34,9.77 -0.55,-3.22 -1.14,-5.82 -2.76,-8.79zm-16.17 7.29c-0.82,2.45 -0.86,1.79 -1.57,2.96 0.66,7.26 9.97,7.69 12.09,6.33 0.34,-0.34 0.68,-0.68 1.02,-1.02 -4.78,-0.45 -9.37,-4.02 -11.54,-8.27zm-2.93 -6.33c-0.1,2.28 -2.65,5.42 -4.87,6.19 -2.67,0.94 -6.71,6.09 -7.93,6.95l1.57 1.77c6.75,1.64 16.52,-8.98 12.61,-10.57 0.86,-2.88 -0.64,-4.85 -1.38,-4.34zm-28.02 -36.64c-1.39,0 -1.64,2.34 -4.76,1.67 -1.34,-0.46 -3.07,-0.17 -2.82,1.97 5.35,5.35 6.78,-7.5 2.43,11.6 11.22,-4.04 7.72,-5.16 4.95,6.34 5.47,0.7 13.84,-0.69 18.18,2.43 -1.3,3.37 -2.16,5.06 -3.27,8.92 9.57,-1.95 37.67,-11.49 33.64,-17.84 -1.82,-1.03 -5.04,-1.81 -13.25,0 -3.7,0.81 -7.04,0.75 -10.76,0.34 -1.63,-0.91 -4.16,-1.92 -7.69,-1.3 0.68,-0.02 -4.82,-0.91 -6.6,-0.75 -2.06,-3.19 -5.58,-5.12 -9.37,-5.31 1.16,-1.59 1.49,-3.89 1.33,-5.79 -0.11,-1.27 -0.78,-2.03 -2.01,-2.28zm16.58 -19.27c-0.32,1.09 -0.76,2.15 -1.33,3.17l0.41 0.82c0.89,2.27 6.52,-4.4 0.92,-3.99zm36.06 27.44c-2.27,-0.83 -6.54,-0.18 -6.95,1.33 5.03,0.17 9.46,3.91 6.95,-1.33zm-5.52 -6.6c-0.29,0.14 -0.51,0.32 -0.65,0.54 0.55,1.16 2.55,1 4.04,0.28 4.89,-2.37 5.83,-5.31 1.82,-6 -1.23,2.17 -3,4.04 -5.21,5.18zm-1.87 -9.67l3.88 0.55c2.36,-1.87 1.32,-3.36 1.66,-6.14 -1.76,0.3 -7.13,-0.23 -8.99,-0.45 1.09,1.52 1.89,4.57 3.45,6.04z"/>
	<path fill="#262626" d="M88.41 174.47c-0.41,-0.14 -0.82,-0.28 -1.23,-0.44 -6.99,1.9 -5.94,7.64 -8.42,11.86 -14.77,25.07 28.14,22.62 21.48,7.76 -6.33,-8 -3.68,-2.27 0.73,-18.09 -2.32,0.35 -9.05,-0.03 -12.56,-1.09zm42.49 6.64c-4.46,0 -7.49,0.33 -12.09,-0.31l-2.32 -0.37c-20.55,17.48 3.7,45.69 20.27,22.26 -1.63,-7.06 -5.63,-7.19 -8.44,-8.6 1.3,-4.02 3.99,-10.73 2.58,-12.98zm-0.58 -71.39c-0.46,-1.71 -1.87,-3.05 -3.54,-2.69 -0.08,0.87 -0.22,0.83 -0.41,1.12 -0.31,0.48 -0.66,2.18 -2.25,3.85 -0.48,0.5 -1.07,1.1 -1.77,1.8 0.02,1.02 0.69,2.61 3.95,2.49 2,-2.07 3.32,-3.78 4.02,-6.57zm10.35 5.72c-3.24,0.72 -6.72,2.65 -8.92,5.24 4.19,6.28 13.66,4.17 8.92,-5.24zm-8.69 -26.92c-2.47,-8.41 -5.66,2.33 0,0zm-43.3 18.03c0.44,3.2 1.67,6.3 3.64,8.44 1.96,0.61 2.7,-0.55 2.76,-2.65 -1.79,-2.12 -3.1,-5.34 -3.74,-8.34 -1.62,-0.38 -2.67,0.18 -2.66,2.55zm3.37 -20.02c0.23,-0.7 0.39,-1.3 0.48,-1.8 -5.96,-4.44 -7.8,3.59 -6.95,9.94 2.73,-1.89 5.38,-4.92 6.47,-8.14zm26.32 -69.96c2.9,2.43 5.82,5.11 11.84,5.38 -0.95,-5.53 -6.71,-8.43 -11.84,-5.38zm-13.83 53.21c0.96,0.8 1.8,1.7 2.52,2.72 0.64,-1.86 5.24,-2.48 6.13,-1.02 0.09,-0.88 0.07,-1.72 -0.07,-2.52 -0.82,-18.08 -1.79,-17.66 -4.25,-18.89 -3.51,-1.78 -5.79,-8.21 -4.33,19.71zm-31.64 -35.97c-1.39,11.69 -0.67,22.83 4.37,26.37 1.91,-0.25 3.68,-0.88 5.32,-1.91 5.12,-3.18 12.06,-8.83 13.85,-14.98 1.52,-10.2 1.83,-10.39 0.31,-18.75 -5.97,-17.17 -22.09,-5.56 -23.85,9.27z"/>
	<path fill="white" d="M76.62 59.66c-0.77,-0.57 -3.5,-2.14 -4,-2.91 0.43,1.27 1.01,5.47 1.14,6.78l2.86 -3.87zm-4.37 -23.77c-10.9,3.85 -20.71,13.48 -22.04,16.05 -0.74,5.23 -5.44,13.97 -3.19,14.86 3.71,-6.18 9.8,-15.14 9.92,-10.18 9.12,-5.52 12.19,-4.76 16.62,-0.15 -1.58,-5.93 -1.78,-14.62 -1.31,-20.58zm27.83 160.03c-1.36,-0.34 -2.68,0 -3.84,0.75 0.57,2.21 1.91,6.41 1.2,9.07 4.47,-2.12 5.23,-6.42 2.64,-9.82zm-9.97 2.52c0.24,2.42 -0.23,6.22 -1.38,8.36 1.04,0.1 6.65,0.53 7.23,-0.2 2.09,-2.64 1.27,-7.61 -0.85,-9.12 -1.76,-0.66 -3.63,-0.31 -5,0.96zm-3.34 -0.07c-1.12,0.22 -1.52,0.05 -2.96,0.85 -1.37,0.77 -2.86,2.8 -2.86,3.17l-0.24 0.54c6.62,8.63 13.75,2.04 7.73,-4.42 -0.49,-0.25 -1.09,-0.19 -1.67,-0.14zm34.73 -77.11c-2.51,-6.32 -26.53,-7.89 -25.82,0.13 -0.37,4.44 -0.72,8.16 -1.22,12.33 -0.64,5.52 -0.82,23.35 3.48,27.45 1.87,1.78 3.96,2.71 6.64,3.15 1.34,-5.18 1.66,-8.02 2.65,-10.36 2.43,3.21 2.87,6.84 4.72,11.2 5.58,-2.25 7.39,-4.9 9.92,-10.06 4.31,-11.08 1.49,-23.42 -0.37,-33.84zm-8.61 85.59c-0.28,1.19 -0.19,1.46 -0.21,2.79 4.82,7.06 19.42,3.56 22.02,0.4 2.82,-4.6 2.85,-11.58 -4.85,-8.69 -1.04,0.23 -1.18,-0.09 -2.05,-0.06 -2.15,-0.2 -3.86,0.4 -5.28,1.44l-1.43 0.61c-0.79,-0.41 -1.68,-0.62 -2.65,-0.65 -2.52,-0.03 -4.85,1.77 -5.55,4.16zm15.28 -133.59c1.36,4.91 2.18,14.26 6.34,21.11 2.25,-4.12 1.12,-13.06 -1.72,-20.86 -0.69,-0.34 -3.93,-1.18 -4.62,-0.25zm-30.1 -26.77c-7.64,3.78 -9.31,24.04 0.11,25.84 3.26,0.16 5.75,-3.09 7.42,-8.37 0.34,-0.84 0.59,-1.69 0.75,-2.55 2.45,-14.83 -4.72,-19.43 -8.28,-14.92zm16.87 24.61c-0.46,0.19 -0.34,1.58 0.6,1.2 0.61,-0.61 0.36,-1.59 -0.6,-1.2zm-9.14 3.24c-0.68,0 -0.74,1.27 0.17,1.09 0.49,-0.09 0.64,-0.93 -0.17,-1.09zm-2.82 0.72c-0.52,1.03 1.21,1.47 1.29,0.44 0.07,-0.81 -0.89,-1.11 -1.29,-0.44zm0.92 -2.42c-1.3,0.09 -0.87,2.13 0.34,1.6 0.74,-0.32 0.68,-1.47 -0.34,-1.6zm10.76 0.48c-0.59,0 -0.73,1.04 0.06,0.99 0.5,-0.04 0.64,-0.81 -0.06,-0.99zm7 -24.04c-2.79,-2.49 -12.18,-6.09 -10.21,9.09 -0.07,4.58 0.15,4.61 0.89,8.89l4.39 4.8c0.46,0.29 1.01,0.36 1.67,0.2l1.74 -0.78c2.81,-6.09 8.05,-13.83 1.52,-22.2zm-40.32 1.14l5.79 -3.99c1.08,5.46 9.95,-0.2 6.14,-4.56 -1.76,-0.82 -2.61,1.49 -5.15,2.87 1.05,-5.61 0.92,-9.67 -2.94,-13.28 -5.27,-5.02 -11.44,12.65 -3.84,18.96zm63.92 -26.97c-26.24,1.99 -28.58,-15.75 -40.07,-1.02 0.93,-2.61 -0.06,-6.2 -3.53,-7.79 1.23,6.64 -4.81,10.64 -8.14,13.16 0.12,17.6 53.1,36.77 51.74,-4.35z"/>
	<path fill="#C0CDE6" d="M73.46 66.96l1.59 6.62 2.41 -6.68 -4 0.06zm13.8 60.28l-4.84 3.02 4.56 7.02 0.28 -10.04zm19.74 25.72c1.51,2.82 4.03,9.67 4.39,12.76 1.29,-0.7 4.72,-1.65 4.97,-3.64 -0.62,-4.73 -2.61,-7.8 -1.57,-10.56 -0.91,-0.46 -4.84,1.16 -7.79,1.44zm-8.69 -1.78c1.29,2.08 6.16,5.59 5.83,11.14 2.04,-0.01 2.01,-7.9 2.21,-9.3 -0.96,-0.08 -6.23,-1.98 -8.04,-1.84zm20.49 -33.66c-3.28,3.94 -7.35,1.03 -9.95,0.67 -2.83,-0.38 -5.14,3.73 -9.66,-3.61 -1.93,0.87 -4.89,4.06 -2.68,6.81 0.59,-0.65 1.2,-1.29 1.84,-1.9 4.61,4.6 8.64,0.6 10.38,1.22 3.21,1.15 6.82,1.76 9.36,-0.98l3 2.62c0.68,-1.76 1.01,-2.87 -2.29,-4.83zm8.25 -44.25c3.04,6.54 3.62,8.66 3.35,11.12l2.92 8.54c0.16,-3.83 0.14,-13.37 -3.65,-19.06 0,-1.08 -1.36,-1.34 -2.62,-0.6zm-44.63 2.02c-2.99,-1.04 -6.99,2.94 -8.66,2.66 0.29,1.22 0.56,3.82 -0.34,5.84 1.94,4.83 1.05,14.09 1.29,21.54l5.07 -10.91c-3.31,-2.27 -6.48,4.98 -1.42,-3.56 1.9,-4.61 1.48,-4.35 2.25,-6.2 -1.02,-3.21 0.83,-7 1.81,-9.37zm45.25 -28.04l-2.49 -1.57c-1.24,0.27 -3.28,-1.21 -4.06,-2.08 -0.17,5.28 6.37,6.58 6.55,3.65zm-34.52 -0.62c1.11,-1.26 1.65,-3.61 0.4,-3.23 -0.8,0.62 -1.83,3.17 -5.07,2.72 -4.05,1.76 1.66,4.69 4.67,0.51zm-9.13 -15.22c0.04,11.88 -0.13,10.32 -2.52,17.77 7.85,-0.19 10.19,-17.48 2.52,-17.77zm59.88 -3.67c-1.13,5.08 -8.52,9.25 -12.94,10.69 0.3,-0.75 -0.39,-2.69 -2.07,-2.08 -5.34,1.86 -10.81,2.73 -16.41,2.62 1.48,-1.13 0.8,-3.03 -0.41,-3.13 -5.44,-0.46 -10.71,-5.54 -13.62,-8.07 5.19,-3.13 5.48,-11.55 5.03,-12.13 -5.48,-3.63 4.29,9.44 -14.42,12.3 -0.58,5.61 2.64,6.06 5.44,7.03 2.78,11.54 7.04,13.43 8.09,9.58 3.69,4.63 11.44,9.31 14.81,8.62 -2.29,-8.42 -3.09,-5.05 5.67,-4.65 -3.18,-4.16 -2.12,-10.65 0.56,-8.56 1.18,0.93 4.07,7.17 3.62,8.27 13.87,0.56 26.15,-11.26 24.83,-26.1 -3.12,0.97 -4.69,0.18 -7.7,2.06 -0.07,1.19 -0.23,2.37 -0.48,3.55zm-60.09 171.48c6.4,3.49 11.99,3.46 16.71,-0.33 2.22,6.81 -2.59,8.87 -10.28,8.99 -11.1,-1.19 -11.87,-5.04 -6.43,-8.66zm29.75 6.17c5.55,4.53 15.43,4.31 22.88,-0.79 0.68,4.31 -1.75,7.74 -11.61,9.05 -9.85,1.23 -14.41,-2.5 -11.27,-8.26z"/>
	<path fill="#131313" d="M72.42 193.81c-0.12,4.62 6.4,9.76 8.29,9.09l0.28 -0.58c0,-0.46 1.63,-2.45 2.82,-3.1 -6.07,-3.54 -6.31,-6.01 -2.55,-12.39 2.48,-4.22 5.1,-9.34 5.92,-12.8l-2.96 -1.47c-1,-0.56 -1.97,-1.22 -2.93,-1.97 -3.31,1.87 -8.67,15.83 -8.87,23.22zm40.26 15.83c-0.04,-0.27 -0.07,-0.55 -0.07,-0.82 0.06,-1.33 0.19,-2.18 0.92,-3.4 -2.9,-3.59 -1.89,-10.95 -0.07,-15.22 1.14,-2.66 2.15,-5.91 3.03,-9.77l-3.88 -0.85c-1.86,1.58 -6.2,12.87 -6.83,18.37 -0.71,6.28 4.09,13.4 6.9,11.69zm9.67 -95.84c-0.34,0.34 -0.68,0.68 -1.02,1.02 -4.08,1.59 -2.15,3.27 1.36,4.29l3.61 -2.82c-1.68,-1.73 -3,-2.56 -3.95,-2.49zm18.76 7.18c-2.93,1.67 -6.54,1.21 -9.36,-0.3 -1.01,0.81 -2.57,3.82 -2.8,4.29l5.41 4.14c3.02,0.43 9.39,-1.48 6.75,-8.13zm-24.34 -40.3c0.22,0.38 0.48,0.74 0.78,1.08 9.61,-1.72 6.42,-5.65 -0.78,-1.08zm-36.36 42.45c-2.38,-1.98 -4.96,-3.06 -8.11,-3.27 -2.02,3.56 -0.73,11.36 1.22,13.52 2.18,-5.91 -0.04,-3.55 5.38,-0.01 -0.02,-4.78 3.82,-1.02 5.32,-5.1 -0.9,-2.19 -2.05,-3.61 -3.81,-5.14zm16.34 -8.89l-1.67 -1.9c-0.91,0.88 -1.83,1.77 -2.76,2.65 1.02,1.14 1.65,1.65 2.86,2.49 3.06,-2.71 4.2,-2.96 1.57,-3.24zm-12.58 -31.28c-1.14,1.75 -4.13,3.51 -5.89,4.39 2.23,1.86 0.54,2.68 -2.46,6.77 6.78,-0.38 2.68,-0.33 3.91,2.59 1.28,0.16 2.53,-0.21 3.67,-0.82l2.18 -1.22c0.59,-1.59 1.05,-2.84 1.36,-3.75l1.71 -6.23c1.2,-0.2 2.49,-0.19 3.88,0.04l0.13 -1.94c-0.46,-1.44 -7.72,-1.17 -8.49,0.17z"/>
	<path fill="#DFCB9F" d="M103.49 119.27c2.56,0.31 4.63,-1.5 6.49,-1.03 4.37,1.12 6.55,1.99 7.83,-0.12 4.99,-2.27 -5.23,-4.13 -8.81,-6.18 -11.48,2.01 -9.28,5.22 -5.51,7.33zm12.89 -35.51c-3.09,2.58 -9.07,4.3 -13.13,2.52 0.72,3.66 0.9,8.23 1.3,11.52 3.02,-0.58 4.5,0.49 5.14,3.23 0.85,-3.57 3.53,-5.88 6.78,-3.17 0.25,-4.17 5.54,-2.24 7.55,1.62 3.11,-6.74 4.1,-10.55 6.41,-17.31 -4.46,-4.47 -9.46,-2.26 -14.05,1.59z"/>
	<path fill="#AC9562" d="M99.19 114.58c1.69,4.06 3.37,5.12 9.1,3.7 2.61,-0.64 6.6,2.15 7.12,0.46 -1.75,-1.95 -3.49,-2.85 -5.21,-2.69 -4.32,0.39 -4.32,1.83 -6.3,1.02 -0.86,-0.36 -1.53,-0.79 -2.01,-1.29 2.33,-0.42 3.67,-2.29 6.2,-3.07 2.54,2.42 6.2,3.83 9.59,4.42l1.08 -1.33c-4.18,-0.59 -8.62,-3.34 -10.18,-7.33 -2.64,2.05 -5.64,5.31 -9.39,6.11zm9.43 -15.7l0.63 2.76c0.89,-0.92 1.83,-3.91 2.17,-5.1 -0.78,0 -2.36,1.57 -2.8,2.34zm18.63 -8.88l-4.39 6.27 1.46 4.05c0.98,-3.16 2.37,-7.06 2.93,-10.32zm-13.48 3.44c0.45,-0.84 0.81,-0.79 1.06,0.14 1.16,-1.41 3.23,-5 3.54,-6.06 -2.34,2.25 -4.36,2.9 -6.06,1.97 0.02,0.03 1.57,3.57 1.46,3.95zm-12.07 -8.62c-1.15,3.88 -1.93,6.4 -2.66,10.46 1.43,-0.45 4.24,-1.24 6.08,-0.07 -0.12,-3 -0.13,-4.91 -0.75,-8 -0.91,-1.43 -1.91,-2.01 -2.67,-2.39z"/>
	<path fill="#3188D2" d="M103.49 63.41c-2.07,0.14 -4.12,0.29 -6.16,0.45 -2.39,9.83 7.71,9.87 6.16,-0.45zm10.89 -0.81c-2.63,10.85 8.01,7.75 5.59,-0.45 -1.86,0.17 -3.73,0.3 -5.59,0.45z"/>
	<path fill="#3A65AD" d="M96.48 63.92c2.05,-0.15 5.85,-0.44 7.92,-0.57 0.3,-8.35 -7.47,-12.1 -7.92,0.57zm17.09 -1.29l7.11 -0.48c-1.4,-9.24 -7.47,-9.6 -7.11,0.48z"/>
	<path fill="#E6B891" d="M108.16 73.83c1.67,1.21 4.25,1.19 4.78,-1.35 -0.22,-2.4 -7.3,-0.67 -4.78,1.35z"/>
	<path fill="#6DC62A" d="M21.34 82.14c-3.09,4.7 -5.25,9.3 -3.34,14.95 2.24,6.59 10.54,6.67 14.57,3.84 5.84,-4.09 2.3,-14.05 -1.66,-11.1 -1.89,1.41 0.91,3.77 -1.6,6.06 -1.09,1 -2.44,1.22 -4.06,0.65 -1.63,-0.57 -2.39,-1.84 -2.28,-3.81 0.09,-2 0.51,-3.55 1.26,-4.67 0.75,-1.15 1.68,-2.69 2.79,-4.59 2.49,-4.36 -0.14,-13.83 -4.42,-9.88 -2.33,2.15 1.09,4.47 -0.21,6.81 -0.47,0.87 -0.82,1.44 -1.05,1.74zm-2.04 -14.57c-0.53,4.29 5.4,5.3 6.02,1.67 0.5,-2.84 -0.74,-4.27 -3.71,-4.29 -1.36,0.31 -2.13,1.19 -2.31,2.62zm143.77 -13.69c-3.1,0 -4.78,3.74 -2.49,5.96 2.28,2.2 5.99,0.63 5.99,-2.49 0,-1.95 -1.59,-3.47 -3.5,-3.47zm-3.61 -27.34c-2.91,2.93 -3.51,5.18 -1.81,6.74 1.68,1.55 2.98,1.39 3.89,-0.47 0.86,-1.86 2.58,-3.37 5.17,-4.53 2.57,-1.18 4.3,-0.45 5.21,2.18 0.86,2.59 -0.23,4.62 -3.27,6.09 -3.04,1.46 -5.29,4.16 -6.74,8.11 -1.45,3.95 -1.05,6.25 1.19,6.91 2.23,0.63 3.57,-0.59 4.02,-3.68 0.45,-3.13 2.25,-5.37 5.38,-6.71 11.08,-4.85 7,-19.95 -3.1,-19.23 -3.74,0.13 -7.06,1.67 -9.94,4.59z"/>
	<path fill="black" d="M128.92 140.37c0.18,-2.45 0.3,-4.38 0.34,-5.8 0.05,-1.14 0.07,-2.26 0.07,-3.37 0.14,-0.8 0.63,-1.31 0.82,-3.99l2.99 1.91c-0.13,0.44 -0.17,1.4 0.34,1.7 1.34,0.8 4.89,-0.95 6.54,-2.04 0.04,0.39 -0.15,2.44 1.09,2.42 0.66,-0.02 1.07,-0.39 1.22,-1.09 1.3,-5.9 0.73,-14.88 -0.81,-20.67 -1.3,-4.88 -2,-7.65 -4.56,-12.29 -1.33,-2.4 -1.12,-1.23 -0.79,-3.54 0.66,-4.53 0.68,-10.7 0.65,-15.11 -0.01,-1.26 -1.19,-2.31 -1.98,-1.26l-0.68 -2.69c0.32,-0.27 0.45,-0.66 0.38,-1.16 -0.27,-2.4 -0.75,-5.3 -2.15,-7.35 -0.13,-0.19 -0.26,-0.38 -0.37,-0.58 1.94,-1.13 3.94,-3.43 3.51,-5.93 -0.16,-0.9 -2,-0.86 -3.31,-3.57 -2.13,-4.43 -0.48,-0.25 -0.58,-5.93 0,-0.24 0.02,-0.49 0.04,-0.74 7.14,-1.12 13.62,-5.88 17.74,-11.75 1.99,-2.84 2.84,-5.02 3.91,-8.17 0.35,-1.03 0.53,-4.03 0.55,-5.18 0.02,-1.13 -0.17,-2.21 -0.58,-3.23 -0.39,-0.84 -1.1,-0.95 -2.15,-0.34 -3.96,2.33 -14.76,1.76 -19.23,1.06 -0.48,-0.98 -1.02,-1.93 -1.64,-2.86 -2.02,-3.02 -4.83,-4.6 -8.44,-4.74 -1.47,0.1 -4.26,1.14 -4.8,1.67 -4.18,-1.17 -7.95,0.4 -10.69,3.64 -0.62,-3.09 -2.16,-5.76 -5.52,-6.36l0 0.03c-0.75,0.15 -1.08,0.6 -0.81,1.36 1,1.25 1.1,2.94 0.3,5.08 -0.81,2.11 -1.64,3.3 -2.48,3.57 -2.13,-5 -5.04,-8.62 -11.1,-8.31 -2.86,0.15 -6.46,2.25 -8.51,4.36 -4.33,4.46 -5.98,9.76 -6.88,15.8 -0.02,0.14 -0.03,0.27 -0.03,0.41 -0.55,0 -5.74,2.78 -6.34,3.13 -4.26,2.47 -10.79,7.41 -13.95,11.06l-4.43 5.52c-0.76,0.9 -0.61,2.19 0.03,2.21 0.62,0.05 1.15,-0.13 1.6,-0.54 -3.36,6.6 -7.11,21.07 -5.95,28.02 0.21,1.27 1.43,2.88 2.38,1.94 0.9,5.66 2.29,10.23 7.08,13.72 1.01,0.73 1.58,-0.11 1.7,-0.14l6.44 0.34c0.16,1.02 0.33,2.06 0.51,3.1 -0.31,-0.04 -1.11,0.29 -1.09,0.89 0.04,1.08 1.75,8.14 2.08,9.56 1.85,7.99 6.11,17.24 11.4,23.59 3.11,3.74 4.56,5.64 8.24,8.96 1.31,1.18 2.03,2.27 3.54,2.96l-1.26 6.88c-2.32,13.04 -10.51,23.36 -11.81,36.32 -0.46,4.56 2.04,6.82 4.93,9.64 1.26,1.23 4.32,3.09 6.4,4.32 3.36,1.98 7.79,2.44 13.28,1.4 8.05,-1.57 9.49,-14.18 0.92,-19.71 6.94,-11.34 7.68,-17.25 9.84,-30.34 0.16,-1 0.28,-1.85 0.37,-2.55 1.57,4.46 3.4,9.5 3.51,13.34 0.05,1.74 0.17,5.96 -0.17,7.49 -0.02,0.07 -0.03,0.13 -0.03,0.17 -0.1,1.69 -1.11,7.33 -1.77,9.2 -0.25,0.68 -0.96,2.66 -2.11,5.95 -1.91,5.01 -2.77,11.7 0.68,16.31 0.84,1.11 2.74,2.62 5.72,4.53 4.24,1.68 8.43,2.28 12.56,1.8 6.15,-0.72 9.12,-1.32 11.27,-5.48 1.89,-3.65 1.03,-8.83 -1.84,-11.91 -1.61,-1.73 -3.45,-2.76 -5.75,-3.34 1.2,-3.43 1.5,-3.56 2.31,-6.77l1.4 -7.09c0.65,-3.81 0.88,-4.15 0.75,-8.13 -0.27,-7.53 -1.53,-12.07 -3.89,-19.65 -0.47,-1.54 -0.99,-3.04 -1.56,-4.49 0.07,-0.7 0.16,-1.69 0.27,-2.96 0.13,-1.54 0.25,-2.95 0.34,-4.21zm15.76 -116.21c2.14,0 4.63,-0.51 6.64,-1.22 0,1.77 0.08,2.54 -0.27,4.39 -2.05,10.88 -11.59,19.69 -22.78,20.63 1.01,-2.5 -1.55,-2.24 -1.87,-4.5 -0.13,-0.95 -0.65,-3.21 -1.36,-3.91l-0.03 0c-1.19,-1.19 -3.15,-0.62 -3.54,-0.1l-1.16 2.01c-0.61,1.3 -0.21,3.66 0.37,4.8 0.34,0.65 0.75,1.24 1.23,1.77 -4.23,-0.38 -8.66,-1.71 -12.39,-3.37 1.52,0.95 3.47,2.02 5.85,3.2 -0.29,1.47 0.29,3.3 0.95,4.59 -3.27,-0.65 -6.59,-2.54 -9.09,-4.83 -1.56,-1.45 -2.95,-3.04 -4.15,-4.77 -0.23,-0.97 -0.04,-2.13 0.55,-3.47 -1.96,1.63 -2.72,3.75 -2.52,6.3 -3.33,-2.96 -4.71,-5.87 -5.62,-10.08 1,-0.3 1.71,-0.58 2.48,-1.46 -1.53,0.14 -4.61,-0.13 -5.92,-0.99 -1.35,-0.89 -2.01,-3.14 -2.01,-4.22 5.73,-0.08 8.47,-3.69 8.58,-3.75 0.27,-0.11 0.55,-0.28 0.82,-0.51 1.62,-1.37 4.38,-6.4 3.1,-8.88l1.26 1.46c1.34,2.27 1.13,4.47 0.3,7.76 2.75,-3.4 4.44,-5.54 7.8,-7.05 5.7,-2.56 9.99,3.87 18.38,5.32 4.44,0.69 11.47,0.98 14.4,0.88zm-65.46 -2.52c1.72,-2.11 3.77,-3.46 6.16,-4.05 1.25,-0.32 2.6,-0.42 4.05,-0.31 2.63,1.09 4.49,2.94 5.58,5.55l0.79 2.25c-1.59,0.99 -2.13,1.39 -4.12,1.57 -0.57,0.05 -3.86,-0.52 -3.89,0.61 -0.1,2.54 0.5,4.95 2.35,6.77 0.93,0.92 2.62,1.71 3.85,1.71 0.36,2.59 1.05,5.3 2.45,7.55 0.02,0 0.04,0.02 0.04,0.04 0.52,0.79 1.09,1.53 1.7,2.21 -1.02,0.34 -1.91,0.92 -2.66,1.74l-0.03 0c-1.92,1.92 -3.45,5.77 -4.02,8.41 -1.01,4.66 -0.64,12.36 3.1,15.73 2.26,2.03 6.62,2.01 7.8,0.78 0.22,-0.25 0.23,-0.43 0.03,-0.55 0.73,-0.5 1.07,-1.17 1.53,-1.94 0.45,0.45 0.34,0.15 1.87,-0.68 2.83,-1.53 5.23,-1.23 7.77,0.17 2.56,1.41 1.89,5.33 2.79,5.11 1.19,-0.3 0.07,-3.22 0.07,-3.58 4.43,0.7 7.99,-9 2.69,-15.35 -0.48,-0.57 -1.04,-0.95 -1.67,-1.16 2.26,-0.43 0.59,-1.47 -0.24,-4.15 -0.3,-0.93 -0.39,-1.57 -0.27,-1.91 1.22,0.37 2.48,0.67 3.78,0.92 1.02,1.05 1.78,2.25 2.28,3.61 1.77,4.82 0.6,10.33 -1.57,14.84l-1.22 2.52c-0.61,1.21 0.04,1.49 0.51,1.16 -0.03,0.03 -0.04,0.05 -0.04,0.07 2.27,-1.7 4.16,-7.65 4.53,-10.42 0.41,-4.11 0.25,-8 -2.25,-11.47 2.27,0.27 5.14,0.27 7.15,0.07 -0.19,1.51 0.13,2.17 -0.68,4.32l-1.5 3.54c-0.73,1.36 1.18,1.64 1.88,0.14 0.22,-0.48 0.43,-0.96 0.61,-1.43 0.79,1.84 1.5,3.12 3.34,4.12 0,0.02 0.01,0.03 0.03,0.03 0,0.02 -0.01,0.03 -0.03,0.03 -0.51,2.8 -3.66,4.5 -6.2,4.53 -0.45,0.01 -2.11,-0.27 -2.45,-0.03 -1.34,0.93 1.85,2.86 5.68,1.36 0.89,2.06 1.81,3.09 1.81,6.16 -1.65,-0.46 -6.15,-0.86 -7.83,0.21 -0.7,0.44 -0.66,1.23 -0.24,1.32 0.68,0.19 1.36,0.25 2.04,0.21 0.75,1.22 1.34,2.22 1.6,3.68l0.04 0 0.03 0.23c-1.49,-0.54 -2.57,-1.1 -4.53,-0.81 -7.25,1.06 -12.86,3.85 -16.54,4.83 -8.76,1.99 -9.58,-1.14 -17.71,-0.85 -5.05,0.18 -1.98,-0.41 -8,1.7l-0.68 0.44 2.28 -6.84c2.48,0.25 1.82,-1.91 -0.27,-2.28l0 0.04c-2.36,-0.48 -5.08,0.43 -6.98,1.94 0.08,-0.29 0.28,-2.57 0.78,-4.29l1.26 -3.89c0.98,-0.49 2.5,-1.18 2.15,-2.51 -0.09,-0.35 -1.22,-0.57 -2.08,0 -1.27,0.84 -2.54,1.01 -3.81,0.51 -0.05,-0.07 -0.1,-0.14 -0.17,-0.21 0.49,-0.49 0.01,-0.28 1.09,-1.36 2.8,-2.8 2.91,-7.82 1.97,-8.14 -0.9,-0.3 -0.84,1.31 -0.88,1.98 -1.19,-2.19 -1.9,-4.43 -2.22,-6.91 -1.28,-9.96 -1.28,-21.35 5.32,-29.59zm40.64 -5.07c4.17,-1.19 7.38,0.94 9.33,4.49 -5.21,-1.57 -5.77,-3.11 -9.33,-4.49zm5.52 29.38c0.32,0.39 0.69,0.76 1.22,1.12 0,1.22 -5.96,0.88 -4.52,-5.31 0.41,-1.76 2.26,-1.38 2.21,0.48 -0.04,1.51 0.24,2.58 1.09,3.71zm-14.81 6.43c0.05,0.03 0.09,0.05 0.14,0.07 -0.32,0.85 -0.55,5.48 0.51,5.96 1.57,0.71 0.1,-2.65 0.68,-5.28 1.27,0.66 2.5,1.05 3.68,1.16 -1.28,0.12 -2.35,2.15 -2.76,4.77 -0.43,2.75 -0.39,4.12 0.24,8.2 -2.86,-1.07 -6.33,-0.84 -8.58,1.33 1.18,-2.76 1.26,-5.28 1.09,-8.17 -0.17,-2.73 -2.46,-6.21 -5.69,-5.79l-1.8 0.75c-1.92,1.14 -2.9,6.06 -2.76,8.58 0.11,2.11 0.84,6.4 2.86,7.66 -1.55,-0.25 -2.76,-1.16 -3.64,-2.72 -3.54,-6.3 -2.04,-13.96 1.49,-19.68 1.21,-1.96 2.36,-2.1 3.1,-2.73 0.9,0.87 2.19,1.86 3.34,2.46 2.26,1.17 1.08,-0.98 0.75,-2.39 4.96,6.63 1.57,15.06 3.3,14.85 0.78,-0.1 1.14,-3.94 1.12,-4.91 -0.04,-2.36 -0.52,-5.11 -1.36,-7.32 1.11,1 2.54,2.07 4.29,3.2zm3.81 10.22c0,-2.73 0.52,-5.98 2.05,-6.3 2.63,-0.56 3.76,5.53 3.57,7.93 -0.39,5.06 -5.78,7.37 -5.62,-1.63zm-16.61 -2.73c0,-0.48 0.53,-1.77 1.06,-2.28 1.28,-1.24 3.15,-1.2 4.08,1.09 1.24,3.07 0.47,6.97 -0.88,9.94 -1.97,4.33 -6.01,-1.74 -4.26,-8.75zm-5.11 22.92c2.36,0.23 4.71,1.23 7.8,1.39 -1.33,4 -1.69,5.22 -2.45,9.6 -1.37,-0.68 -4.48,2.46 -5.35,4.16l-0.95 2.45c-0.11,0.56 -0.2,0.96 -0.27,1.19 -1.25,0.91 -2.42,1.94 -3.51,3.1 -1.18,1.25 -6.49,7.24 -7.01,8.54 -0.04,0.09 -0.33,1.99 2.14,-0.68 1.3,-1.39 5.87,-6.44 7.02,-7.35l2.92 -3c0.31,-0.73 -0.42,-2.04 1.6,-4.63 0.75,-0.95 1.76,-2.27 2.73,-2.21 0.36,0.02 0.56,0.07 0.61,0.14 -0.71,0.51 -3.32,3.07 -2.14,4.32 1.09,1.16 1.55,-3.27 5.54,-4.39 2.37,-0.67 2.67,1.63 2.08,2.75 -1.6,3.07 -3.28,3.18 -2.62,4.09 0.52,0.71 1.58,-0.21 2.18,-0.68 0.86,-0.7 1.56,-1.65 2.11,-2.83 0.26,-0.26 1.97,-0.84 2.86,0.51l0.48 1.2c-0.03,0.02 -0.03,0.04 0,0.06 -0.03,0.03 -0.03,0.05 0,0.07 -0.03,0 -0.03,0.01 0,0.04 0,0.7 -0.39,1.53 -1.16,2.48 -1.66,2 -2.94,2.38 -2.96,3.78 -0.02,1.05 0.89,0.54 1.05,0.54 0.33,-0.32 1.93,-0.94 3.41,-3.33 1.39,0 0.62,1.73 -0.04,2.69 -1.1,1.6 -4.2,4.18 -5.38,4.97 -1.06,0.71 -3.77,1.92 -5.1,1.77 -1.49,-0.17 -1.64,0.58 -1.5,0.71 0,0.22 0.26,0.28 0.44,0.34 -3.39,4.86 -6.33,9.1 -11.3,12.53 -1.07,0.74 -3.59,2.51 -4.36,2.76 -1.2,0.4 -0.64,0.18 -0.92,-0.2 -0.02,-0.03 -0.03,-0.05 -0.03,-0.07 -1.25,-0.75 -2.5,0.77 -2.35,2.42 -1.17,-0.69 -1.52,-1.5 -2.49,-2.52 -0.07,0 0.62,-1.5 -0.34,-1.5 -0.92,0 -2.01,1.89 -2.35,2.65 -4.14,-16.63 7.36,-33.94 7.36,-35.61l0.03 -0.03 0 -0.07c0.14,0.14 0.98,0.59 1.29,0.07 0.66,-1.08 -0.3,-1.55 -0.3,-1.64 -1.22,-1 -2.51,-0.48 -4.09,-0.1l2.73 -3.71c2.25,0.23 3.13,-1.2 2.58,-1.5 -0.72,-0.39 -1.73,-0.64 -2.58,-0.64 1.89,-0.95 4.59,-2.65 5.89,-4.53l5.61 -0.27 1.09 0.17zm10.35 1.63c-0.09,-0.09 -0.17,-0.17 -0.24,-0.24 4.57,-0.21 8.37,-1.67 12.6,-3.03 3.79,-1.21 2.95,-1.12 7.49,-1.9 0.02,0.02 0.06,0.05 0.1,0.1 -2.22,0.51 -3.53,1.07 -5.41,2.41 -1.91,1.3 -3.9,2.42 -5.99,3.38 -2.57,1.17 -6.53,1.29 -8.55,-0.72zm-0.95 1.29c0.66,0.33 2.32,2.59 6.54,1.98 4.43,-0.65 9.03,-3.54 12.59,-5.86 3.07,-1.99 5.92,-1.91 8.62,0.79 -0.93,2.72 -1.71,4.96 -2.32,6.7 0.07,-0.18 0.11,-0.28 0.14,-0.3l-3.07 8.1c-0.16,0.29 -0.28,0.59 -0.37,0.88 -1.23,-2.04 -2.74,-3.15 -5.28,-3.26 -1.48,-0.07 -2.33,0.66 -2.79,2.04 -0.02,0 -0.03,0.01 -0.03,0.03 -3.03,-2.57 -5.98,0.1 -6.44,2.69 -0.67,-1.84 -1.76,-2.77 -4.32,-2.28 0.1,-1.05 -0.13,-3.01 -1.47,-3.4l-2.58 0.06 0.37 -0.1 -1.63 0.51c0.39,-2.14 0.94,-5.42 1.7,-7.38 0.18,-0.41 0.29,-0.81 0.34,-1.2zm-20.5 -9.56c-0.89,2.09 -2.21,5.37 -2.45,7.45 -0.08,0.71 0.26,1.46 0.82,1.74 -1.37,0.44 -2.13,0.25 -2.52,0.41 -1.57,0.64 -0.39,2.72 0.92,3.3l-2.79 3.78c0,-3.24 -0.24,-6.56 -1.3,-9.64l0.62 -0.23c0.25,-0.93 0.07,-1.83 -0.55,-2.69l0.34 -1.43c1.66,0.27 3.08,-2.87 6.91,-2.69zm-2.62 18.69l-3.64 7.86 0.2 -6.74c0.9,0 1.42,-0.76 3.44,-1.12zm50.73 -20.97c1.08,0.1 1.74,0.12 2.83,0.64 0.3,1.65 1.22,5.62 1.22,7.53 0,0.07 0.01,0.12 0.04,0.17 -0.89,2 0.33,2.19 0.91,1.67 0.1,-0.09 0.16,-0.14 0.21,-0.14 -0.05,1.84 -0.23,7.28 -0.51,8.61 -0.02,0.12 -0.04,0.22 -0.04,0.31l-1.6 -2.28c0.87,-0.41 1.14,-0.4 0.41,-2.25l-1.5 -3.27c-0.29,-0.45 -0.8,-0.8 -0.44,-1.29 1.28,-1.25 -0.37,-2.69 -0.37,-2.76 -0.02,-0.31 -0.34,-1.03 -0.62,-1.12 0,-1.75 -0.86,-4.54 -2.04,-5.82l1.5 0zm1.53 14.09l-1.53 0.24 0.68 -2.08c0.34,0.57 0.62,1.18 0.85,1.84zm-2.25 2.32c0.39,-0.14 0.78,-0.25 1.16,-0.34 0.65,1.23 2.23,2.93 3.61,5.31 3.3,5.69 4.68,9.29 6.13,15.73 0.96,4.27 0.96,5.7 1.26,10l-0.1 3.75c-0.16,-0.2 -0.25,-0.32 -0.28,-0.34 -0.01,0 -1.3,-0.62 -1.39,0.51l0.34 1.43c-0.93,1.16 -3.41,2.54 -4.26,2.32 0.53,-1.23 0.79,-1.81 0.14,-3.41 -0.42,-1.02 -1.92,-1.23 -1.7,-0.1l0 2.18c-5.4,-3.6 -6.46,-4.08 -11.65,-8.62l-2.41 -2c1.43,0 2.83,-1.02 1.53,-1.88 -1.18,-0.77 -2.74,0.62 -6.16,-0.98 -1.71,-0.81 -4.61,-2.89 -5.42,-4.5 -0.16,-0.32 -0.33,-0.6 -0.51,-0.85 0.95,-1.41 2.88,-3.95 0.75,-5.34 2.03,0.2 3.32,2.92 4.09,2.04 0.95,-1.1 -2.08,-2.87 -2.9,-3.3 -0.43,-1.93 -0.04,-3.26 1.16,-3.99 2.13,-1.28 3.49,0.84 4.77,2.01l1.26 1.02c0.32,0.33 1.51,-0.12 0.1,-1.56l-0.75 -0.96c-0.5,-2.09 0.49,-2.6 2.96,-1.53 2.58,1.75 3.03,3.8 3.75,6.67 0.14,0.59 0.95,4.81 1.67,4.7 0.04,-0.02 0.09,-0.03 0.13,-0.03l0.04 -0.04c0.02,0 0.04,-0.01 0.06,-0.03l0.04 0c0.31,-0.31 0.37,-0.67 0.41,-1.12l3.54 2.69c4.27,3.3 1.43,-1.1 -0.99,-3 -0.62,-0.49 -2.05,-1.66 -2.79,-1.91l-1.19 -4.42 3.6 -10.11zm3.17 79.87c0,3.68 -0.45,7.38 -1.26,10.96l0.04 0c-1.16,4.27 -2.08,7.92 -3.44,12.12 -1.39,-0.32 -2.79,-0.58 -4.22,-0.78 -0.39,-0.03 -1.77,0.13 -1.5,0.95l0.1 0.14 4.7 1.15c2.93,0.54 6.63,2.19 7.93,5.14 1.01,2.28 0.82,3.35 0.85,5.83 -0.1,0.09 -0.17,3.87 -3.37,5.37 -0.36,0.16 -0.69,0.32 -0.99,0.48 2.08,-4.16 0.76,-10.47 -2.69,-10.83 -0.01,0 -1.18,0.12 0.07,1.37 0.12,0.11 0.26,0.25 0.44,0.4 1.83,1.96 1.98,7.2 -0.71,9.47 -0.62,0.52 -3.21,0.58 -4.73,0.44 2.63,-4.66 0.32,-10.06 -2.22,-10.35 -0.25,-0.03 -0.36,0.2 -0.47,0.31l0 0.48c0.1,0.3 4.98,4.59 -0.44,9.22 0.08,0.09 -2.98,-0.03 -4.36,-0.65 -2.25,-1 -4.62,-2.51 -6.57,-4.29 -2.13,-1.93 -2.4,-6.54 -2.22,-9.29 0.34,-4.9 3.95,-10.68 5.08,-15.83 1.17,-5.36 1.43,-10.99 0.68,-16.24 2.29,-0.87 3.83,-1.74 5.44,-3.57 6.49,-7.34 6.99,-17.88 6.24,-27.17 -0.41,-4.94 -1.36,-8.98 -2.32,-13.72l5.28 4.08 0.03 2.11c0.25,3.84 -0.02,10.01 -0.41,14.85 -0.07,0.81 -0.11,1.51 -0.13,2.07 -0.78,-1.7 -1.09,-2.9 -1.74,-2.24 0.14,1.94 6.91,18.28 6.91,28.02zm-13.51 -51.31c0.13,-0.16 0.26,-0.31 0.37,-0.44l1.8 1.63 1.06 6.16c1.36,5.85 1.75,12.96 1.6,18.93 -0.09,3.09 -0.76,6.27 -2.01,9.54 -2.03,5.22 -4.57,7.57 -8.92,9.94 -0.36,-3.13 -2.85,-8.35 -4.32,-11.1 2.53,-0.25 4.6,-0.59 6.6,-1.98 0.62,-0.45 0.93,-0.92 0.96,-1.39 0.03,-1.27 -3.15,1.49 -6.2,1.67 -1.08,0.06 -1.43,0.23 -2.86,0.2 -3.03,-0.05 -5.83,-1.09 -8.48,-2.42 0,0 -0.82,0.14 -0.58,0.72 0.26,0.59 0.59,0.76 0.89,1.05l0.03 0c0.67,0.67 2.61,1.25 3.61,1.57 0.68,0.2 1.86,0.37 3.54,0.51l-1.77 10.42c-2.74,-0.91 -3.88,-1.49 -5.75,-3.27 -1.92,-1.83 -1.96,-3.31 -2.69,-7.22 -1.04,-5.59 -1.05,-13.85 -0.38,-19.64 0.19,-1.63 1.38,-10.36 1.4,-12.33l-0.07 -2.55c0.68,-0.91 1.44,-1.87 2.28,-2.89l0 0.03c0.3,0.3 1.24,3.09 5.28,4.19 1.21,0.33 5.28,-1.83 7.15,-0.85l3.06 1.05c1.26,0 2.7,0.38 4.4,-1.53zm-11.89 -7.59l1.5 -1.53c1.57,3.99 5.56,6.21 9.74,6.81 -1.4,3.15 -3.89,2.27 -5.69,1.43 -3.71,-2.03 -6.27,1.2 -8.3,0.37l-1.26 -0.58 0.03 0 -0.75 -0.48 -2.04 -2.38c2.42,-0.24 4.98,-2.01 6.77,-3.64zm-11.74 9.6l-0.78 8.2c-0.99,6.57 -1.02,13.16 -0.62,19.99 0.21,3.65 0.55,6.22 1.02,7.69 0.46,1.43 0.81,2.34 1.06,2.73 1.27,1.97 2.71,3.42 4.32,4.35 1.59,0.93 2.85,1.44 3.78,1.54 -1.27,7.16 -4.17,14.93 -7.93,21.17 -0.21,0.34 -0.36,0.71 -0.48,1.09 -1.93,-0.88 -4.34,-1.37 -6.6,-0.95 -0.94,0.17 -0.76,1.49 -0.14,1.5 7.43,0.08 12.83,5.63 11.78,12.15 -0.22,1.39 -0.8,3.34 -1.97,4.12 -0.18,0.11 -0.36,0.23 -0.51,0.34 1.02,-3.81 -0.64,-8.68 -2.93,-8.68 -0.02,0.02 -0.06,0.06 -0.1,0.1 -0.9,0 1.96,2.81 1.6,6.78 -0.09,0.95 -0.55,2.23 -1.16,2.99 -0.58,0.73 -4.35,0.78 -5.38,0.68 1.25,-2.31 1.75,-6.23 0.17,-8.2 -1.6,-1.99 -2.81,-0.62 -1.67,0.07 0,0.55 1.92,2.02 0.07,6.67l-0.78 1.05c-0.03,0 -0.04,0.02 -0.04,0.04 -2.6,-0.57 -3.98,-1.63 -5.92,-2.66 -0.23,-0.11 -0.34,-0.18 -0.34,-0.2l-0.72 -0.48 0 -0.03c-1.58,-1.08 -4.67,-3.29 -5.89,-4.8 -1.24,-1.54 -1.56,-3.26 -1.39,-5.21 0.6,-6.82 2.66,-10.55 6.36,-18.9l1.47 -3.4 0.03 0c3.57,-9.09 4.79,-14.67 5.89,-24.14l1.13 -14.57c0.13,-2.38 0.21,-3.96 0.23,-4.73 2.93,-2.49 4.25,-3.38 6.44,-6.3zm-8.31 7.69l-0.34 6.85 -3.03 -4.8c0.93,-0.44 2.05,-1.12 3.37,-2.05zm-4.36 3c0.18,0.32 0.34,0.65 0.48,0.99 0.78,1.18 2.12,4.13 3.34,5.17l-1.2 9.77c-4.46,-4.3 -7.68,-7.52 -11.43,-12.53 0.64,0.43 1.87,0.57 1.46,-0.58 -0.34,-0.96 -0.54,-2.37 0.14,-3.09 0.95,1.49 4.37,3.88 5.41,3.06 0.32,-0.27 0.33,-0.58 0.03,-0.92 -0.25,-0.32 -0.3,-0.87 -0.17,-1.67 0.03,-0.02 0.62,-0.25 1.77,-0.68 0.03,0.16 0.08,0.32 0.17,0.48zm-11.37 -85.76c0.06,2.32 0.49,5.81 1.02,7.8 -2.72,-3.43 -10.1,-0.88 -13.72,1.09 1.22,-1.36 5.13,-3.97 3.95,-4.36 -0.67,-0.23 -3.24,1.3 -3.98,1.84 -4.06,2.95 -8.39,8.28 -10.89,12.46 0.72,-2.69 1.9,-6.25 3.23,-8.62 0.34,-0.61 0.68,-1.21 1.02,-1.8 0.24,-0.23 3.64,-1.77 4.05,-2.18l-0.1 -0.27c0,-0.28 -2.12,-0.87 -4.12,0.2 0.07,-0.07 0.14,-0.13 0.2,-0.2 1.23,-1.59 2.6,-3.06 4.12,-4.39 4.89,-4.32 9.52,-7.46 15.46,-10.29 -0.23,2.89 -0.31,5.79 -0.24,8.72zm-14.53 13.21c1.51,-1.58 2.65,-2.71 4.63,-3.81 2.67,-1.48 5.35,-1.91 8.03,-1.3 2.66,0.78 3.54,6.71 3.54,8.41 0,0.48 0.03,0.94 0.1,1.4 -1.31,0.78 -0.58,0.12 -1.56,0.44 -1.26,0.4 -0.84,1.6 -0.34,2.04l2.11 1.53c0.45,2.36 0.41,5.43 0.27,7.77l-0.24 3.3c-0.48,-0.41 -1.01,-0.69 -1.6,-0.85l0 0.03c-0.52,-0.05 -1,0.5 -0.75,0.99 3.69,7.18 3.23,11.86 3.07,19.37l-0.21 8.78c-0.07,0.14 -0.11,0.27 -0.13,0.38 -0.94,2.18 -1.64,4.48 -2.12,6.91 -1.14,5.69 -1.18,9.2 -0.44,14.78 0.14,0.99 0.33,1.88 0.58,2.65l-2.59 -4.46c-2.72,-5.08 -4.92,-11.49 -5.92,-17.09 2.55,0.64 0.17,-3.02 -0.1,-3.91l-1.3 -7.83c-0.91,-6.61 -1.18,-11.86 -0.68,-18.59 0.17,-2.25 0.34,-6.5 0.72,-8.51l0.37 -2.46 0 0.04 0.62 -3.61c0.27,-0.8 0.2,-1.51 -0.21,-2.15 -0.02,0 -0.04,-0.01 -0.07,-0.03 -0.35,0 -1.02,-0.55 -1.73,1.84 -1.38,4.59 -1.99,14.5 -2.01,19.81 -0.02,5.08 0.42,8.83 1.16,13.79 -1.2,0 -6.76,-0.18 -7.19,-0.44 -1.63,-1.29 -2.92,-2.47 -3.81,-4.49 -1.72,-3.93 -2.08,-6.29 -2.59,-10.7 -0.08,-0.66 -0.32,-0.26 0.24,-1.87 0.34,-0.96 1.22,-1.6 1.74,-3.78l-0.04 -0.03c0,-0.02 -0.01,-0.05 -0.03,-0.07 0,-0.41 -1.82,-0.31 -2.83,1.36 -0.32,0.52 -0.58,0.97 -0.78,1.33 0,-1.55 0.96,-8.04 1.22,-8.41l1.09 -2.45c1.28,-2.93 6.05,-9.4 8.31,-11.58 -0.11,1.21 1,1.94 1.47,1.47zm17.15 -0.82c0.5,0.77 1.14,1.44 1.91,2.01l-1.06 1.87c-0.13,-1.31 -0.41,-2.61 -0.85,-3.88zm1.33 11.1c-0.02,-0.32 -0.04,-0.64 -0.07,-0.95 0.46,0.04 0.92,0.04 1.4,0l-1.23 3.13c0,-0.73 -0.03,-1.45 -0.1,-2.18zm31.49 44.16c-1.62,2.53 0.18,1.71 0.62,1.09 0.14,-0.2 1.15,-1.61 1.12,-2.15 -0.18,-0.79 -0.76,-0.44 -1.74,1.06zm5.93 -23.94c-0.58,-0.58 -2.06,-1.63 -0.58,0.79 0.91,1.47 1.25,2.59 1.02,3.37 -0.41,1.39 0.71,0.66 1.02,-0.21 0.42,-1.16 -0.27,-2.88 -1.46,-3.95zm6.13 -2.04c-0.92,0.91 -3.95,4.78 -3.58,6.33 0.31,1.3 2.66,-2.47 2.86,-2.79 0.57,-0.86 1.35,-2.02 2.35,-3.47 1.69,-2.47 -0.39,-1.35 -1.57,-0.1 -0.02,0 -0.04,0.01 -0.06,0.03zm-15.94 -10.86c-2.74,-1.22 -5.41,0.09 -5.99,0.1 3.05,0 6.43,0.66 8.24,3.37 -0.15,-1.15 -0.17,-2.46 -2.25,-3.47zm4.6 -4.19c-0.61,1.92 2.4,3.11 3.88,2.86 3.35,-0.57 4.06,-5.94 -1.98,-4.25 -1.06,0.29 -1.7,0.76 -1.9,1.39zm1.39 0.99c-1.36,-1.09 2.33,-1.55 3.1,-1.46 1.39,0.15 0.54,1.37 -0.34,1.9 -0.23,-0.45 -0.6,-0.86 -1.12,-1.22 0.16,0.43 0.25,0.9 0.27,1.43 -0.68,0.02 -1.32,-0.2 -1.91,-0.65zm-29.34 -41.06c-2.41,4.38 -2.66,15.14 0.47,18.35 0.89,0.91 1.8,1.08 2.73,0.51 0.93,-0.59 2.02,-1.52 3.27,-2.79 0.25,-0.29 0.5,-0.56 0.74,-0.78 0.47,2.35 4.8,3.27 8.14,-0.92 2.8,-3.51 -0.8,-9.25 -4.8,-4.26 -0.09,0.12 -0.18,0.23 -0.27,0.34 0.66,-1.78 0.36,-3.44 0.1,-5.85 -0.31,-2.94 -2.59,-6.76 -5.41,-7.7 -2.06,-0.68 -4.03,1.08 -4.97,3.1zm2.55 -0.1c1.06,-1.06 1.93,-1.68 3.23,0.07 1.74,2.33 3.06,6.12 2.63,8.58 -0.36,2.04 -5.7,9.23 -6.64,8.37 -2.74,-3.28 -1.63,-13.3 -0.27,-15.52l1.05 -1.5zm11.1 10.21c2.56,1.29 -1.69,6.67 -4.53,4.6l-0.13 -0.61c1.06,-1.07 1.74,-1.19 2.92,-2.86 0.64,-0.91 1.22,-1.29 1.74,-1.13zm-9.74 -8c-0.88,-0.44 -1.51,1.57 -2.07,2.05 -1.03,0.85 -0.09,1.86 0.74,2.07 -0.25,1.46 -1.02,3.9 0.89,3.47 -0.03,0.35 0.03,2.88 0.34,3.17 0.71,0.67 1.22,-0.13 1.29,-0.71 0.03,0 0.04,-0.02 0.04,-0.04 0.17,-0.17 0.65,-0.2 0.58,-0.65 -0.07,-0.49 -0.39,-0.71 -0.96,-0.64l-0.17 -1.7c0.88,-0.67 -0.12,-1.39 -0.92,-1.23l0.21 -1.77c0.92,-0.55 0.33,-1.56 -0.72,-1.33 0.78,-1.5 1.38,-2.06 0.75,-2.69z"/>
</svg>
