<?xml version="1.0" encoding="UTF-8"?>
<!-- Copyright RobotoSkunk 2022 -->

<svg xmlns="http://www.w3.org/2000/svg" shape-rendering="geometricPrecision" viewBox="0 0 15014.18 8263.68">
	<g id="Sandbox">
		<polygon fill="#c0cde6" points="15014.18,5421.11 14322.54,5161.2 3815.97,5161.2 -0,7704.15 603.57,8263.68 10959.29,8263.68 "/>
		<path fill="#fddda0" d="M12766.66 4776.22c-438.63,0.91 -820.94,123.16 -1236.67,92.25 -391.19,-29.08 -767.35,-208.3 -1251.33,-224.09 -954.64,-21.09 -1346.12,115.45 -1708.57,122.57 -639.28,41.13 -1284.46,-102.71 -1945.96,-4.19 -392.94,62.66 -865.33,92.05 -1256.02,6.47 -788.91,-214.42 -1412.23,104.9 -2045.09,482.64 -391.78,136.96 -521.17,203.98 -840.44,574.85 -156.23,204.84 -350.72,308.22 -575.76,427.92 -152.74,81.24 -320.99,177.61 -593.72,309.67l8738.12 -2.89 2715.43 -1785.19z"/>
		<path fill="#98633b" d="M26.79 6884.74l10388.83 14.11 3867.69 -2569.9 -10337.21 -19.48 -3919.32 2575.27zm966.7 -327.44l3101.13 -2070.92 9102.81 16.54 -3146.2 2074.7 -9057.74 -20.32z"/>
		<path fill="#efb578" d="M3972.01 6225.01c14.17,66.13 81.27,102.49 139.02,133.84l-12.09 169.24 116.57 0 102.76 -104.48 219.32 44.03c27.47,3.92 124.32,-2.89 134.7,-37.13 9.39,-31 2.41,-44.27 -13.82,-68.22l-80.31 -140.75c20.23,-48.77 39.52,-97.42 57.85,-145.92 178.2,-340.49 -639.52,138.24 -664.01,149.38zm3423.7 -1349.62l-2308.95 1001.64c-51.09,127.34 233.46,388.07 366.98,449.87 182.98,84.53 338.41,84.24 466.28,-0.86 128.39,-84.49 143.06,-177.46 44.04,-278.9 352.18,-167.79 725.22,-317.41 1091.43,-493.91 154.77,-44.28 263.85,2.64 327.26,140.74 124.99,273.69 198.46,560.13 315.17,834.12l916.15 0c141.07,-207.51 4.27,-581.47 -117.43,-842.76 240.35,68.87 391.17,101.11 452.46,96.71 75.03,-5.35 283.04,-36.73 297.89,-127.79 58.56,5.94 112.68,11.98 162.34,18.13 449.18,54.99 836.74,-133.27 1239.96,-318.63 137.07,-63.01 232.69,-397.57 -0.86,-534.48 -146.4,-64.11 -297.22,-107 -452.47,-128.66 -210.5,-2.71 -421.49,1.03 -632.93,11.22 -226.16,11.11 -2143.12,166.45 -2167.33,173.56zm-3630.93 1054.32c59.94,5.98 120.43,52.7 246.1,2.59 42.48,-16.94 69.66,-44.44 62.17,-87.22 -95.9,-4.16 -180.03,-63.08 -196.88,-62.17 -57.99,3.75 -231.61,-56.45 -328.98,-64.76 -74.98,-3.2 -250.31,21.46 -316.9,44.91l-306.54 138.15c-35.38,113.98 140.07,79.57 196.02,68.21 92.12,-18.69 163.51,-40.63 259.91,-44.9 127.79,-5.75 256.16,-4.03 385.11,5.18zm746.91 -773.77c-101.66,22.56 -516.81,131.77 -581.99,186.61 7.89,-80.82 -272.95,15.65 -284.94,54.39 -37.17,120.12 327.04,195.47 308.25,9.5 118.43,13.59 421.08,-112.73 574.22,-140.75 88.88,45.73 196.71,41.1 290.99,16.41 287.84,-75.39 226.74,-345.59 33.68,-308.26 -80.61,15.79 -266.41,108.3 -340.21,182.1zm1317.67 -246.87c-33.96,-22.44 -70.52,-37.7 -109.66,-45.76 -54.83,-5.58 -112.73,72.06 -31.09,151.97 98.35,96.27 216.73,126.63 349.72,127.79 54.58,-42.29 75.59,-81.15 63.03,-116.56 -12.61,-34.75 -28.45,-60.95 -47.49,-78.58 -8.01,-3.15 -149.78,8.11 -224.51,-38.86zm5783.59 543.14c87.96,-54.45 63.92,-173.01 -58.72,-202.06 -171.32,-40.57 -302.93,-26.07 -482.69,27.64 -92.41,27.6 -194.88,67.27 -211.55,143.34 -11.89,54.2 117.04,155.94 253,106.2 180.48,-66 192.09,23.78 345.39,-13.81 55.27,-10.36 106.79,-30.8 154.57,-61.3zm-9337.66 894.56c12.54,88.22 55.7,148.66 129.52,181.32l1408.34 0c-5.7,-22.38 -19.52,-46.27 -41.45,-71.66 40.92,-55.84 29.41,-117.43 -34.55,-184.79 -149.34,-158.42 -415.76,-57.63 -594.06,1.74 -139.95,47.2 -315.23,38.28 -525.87,-26.77 -88.09,-27.68 -365.08,-55.14 -341.93,100.16zm8420.65 -447.29l-702.87 392.02 252.13 94.12 581.99 -379.93c-15.8,-33.01 -59.55,-68.41 -131.25,-106.21z"/>
		<path fill="#5a3828" d="M2142.44 6123.26c418.88,-257.32 442.36,-526.9 947.84,-784.06 243.98,-124.12 770.39,-415.68 998.97,-482.22l0.46 -345.48 -3096.22 2045.8 362.71 6.98c225.71,-169.36 554.59,-348.83 786.24,-441.02zm12131.15 -989.52l-32.36 -744.61 -3825.65 2493.45 2.3 739.44 3855.7 -2488.27z"/>
		<path fill="#6f432a" d="M12765.88 4804.49l459.86 -321.34 -9080.68 7.02 -9.32 349.13c169.19,-70.22 454.89,-150.69 817.97,-136.92 304.13,11.54 663.93,112.17 1042.22,119.19 396.94,7.37 787.28,-97.1 1225.81,-93.49 350.13,2.89 655.91,66.12 1013.13,45.78 439.66,-25.03 1402.11,-162.86 2087.25,-127.61 434.64,22.36 717.91,189.36 1084.68,221.53 571.09,50.11 951.27,-121.39 1359.08,-63.29zm-12699.34 2107.04l12.04 740.25 10280.04 2.63 -4.86 -745.31 -10287.22 2.44z"/>
		<path fill="black" d="M14322.54 5161.2l0 -898.88 -10433.43 0 -3889.11 2533.44 0 908.38 10417.88 0 3904.66 -2542.95zm-112.26 -677.83l0 626.02 -3736.27 2429.84 0 -622.57 3736.27 -2433.29zm-14102.35 3122.34l0 -652.79 10202.01 0 0 652.79 -10202.01 0zm10263.31 -751.23l-10263.31 0 3838.17 -2496.32 10264.18 0 -3839.03 2496.32zm-6276.63 -2402.19l-3291.58 2154.38 9277.23 0 3291.58 -2154.38 -9277.23 0zm8649.48 301.35c-212.07,0 -405.02,15.62 -613.08,52.67 -261.93,46.63 -523.84,46.05 -785.77,-1.72 -203.21,-34.54 -404.4,-75.7 -603.58,-123.48 -215.29,-52.96 -435.19,-77.43 -659.7,-73.4 -248.1,4.04 -495.34,15.84 -741.72,35.4 -255.02,25.34 -509.45,48.37 -763.32,69.09 -255.01,26.48 -509.74,26.77 -764.17,0.86 -568.46,-60.17 -988.03,-28.75 -1549.09,68.21 -124.91,20.73 -248.97,22.74 -372.15,6.05 -276.31,-38.58 -553.78,-70.23 -832.4,-94.99 -272.28,-20.72 -541.4,4.61 -807.36,76 -20.72,5.75 -41.45,12.66 -62.17,20.72l0 -259.91 8898.16 0 -343.66 224.51zm-11421.24 1774.45l-227.1 0 2930.65 -1914.33 0 216.73c-87.03,23.22 -136.71,87.18 -206.37,113.12 -150.99,75.5 -295.9,148.85 -446.41,226.22 -153.79,79.07 -294.06,137.92 -446.41,215.01 -186.53,94.39 -257.31,202.98 -395.48,328.99 -146.11,132.93 -229.71,319.79 -408.43,390.3 -177.58,70.67 -328.18,172.33 -499.96,264.22l-300.48 159.74zm10866.88 -1658.74c147.94,-32.23 293.88,-45.19 437.78,-38.86l-2599.93 1697.6 -8589.9 0c93.96,-44.03 155.51,-72.88 247.82,-126.93 170.78,-99.46 341.11,-178.49 516.36,-281.5 87.49,-51.81 165.21,-116.85 233.13,-195.14 117.97,-134.92 343.36,-363.17 494.78,-461.1 139.54,-90.24 284.66,-135.18 441.24,-211.56 168.86,-82.37 282.64,-173.04 461.1,-234 69.78,-23.83 140.21,-98.46 194.28,-113.11l225.37 -60.45c346.54,-116.28 696.26,-133.83 1049.13,-52.67 139.31,30.51 280.06,50.08 422.24,58.72 268.83,21.88 536.8,11.52 803.91,-31.08 448.43,-66.78 897.73,-73.98 1347.89,-21.59 307.23,36.47 607.97,31.72 912.69,-16.41 510.46,-80.61 1032.71,-102.03 1549.09,-87.21 340.71,9.89 437.9,78.38 730.5,149.38 367.27,100.16 741.45,108.8 1122.53,25.9zm-9488.78 1139.79l250.42 -120.02c140.46,-61.89 299.54,-142.81 446.41,-188.24 226.68,-70.11 366.79,25.24 560.4,116.57 61.81,27.3 126.21,34.74 191.69,22.45 1.71,-0.31 39.87,0.01 33.68,-27.64 -8.39,-37.4 -74.41,6.17 -230.55,-43.16 -178.88,-56.52 -220.09,-132.04 -378.2,-128.66 -268.08,5.72 -467.8,158.58 -708.06,255.59 -14.58,5.88 -233.86,93.59 -165.79,113.11zm8714.24 -947.23c31.3,9.36 32.88,13.74 43.17,3.45 14.15,-14.15 -19.36,-45.4 -28.49,-49.22 -120.64,-38.58 -345.52,108.66 -703.73,-28.49 -235.85,-90.3 -553.25,-136.93 -813.4,-77.72 -133.99,30.5 -259.1,69.8 -375.61,145.93 -16.05,10.49 18.49,23.29 26.77,21.59 55.84,-33.97 116.58,-60.16 182.2,-78.58 280.98,-77.51 328.5,-86.65 607.89,-58.72 295.14,29.52 517.11,219.67 873.84,135.56 70.81,-16.69 133.26,-21.3 187.37,-13.81z"/>
	</g>
	<g id="Skunk-with-toys">
		<g id="Stink">
			<path fill="#acc330" d="M9984.78 124c-203.32,-149.58 -964.83,-132.18 -1282.42,86.71 165.35,-39.15 460.02,-76.71 586.87,-5.7 79.45,44.47 103.28,134.19 -34.85,247.98 -480.6,260.78 -1046.2,324.82 -1565.04,331.29 -986.14,56.61 -1836.36,-146.86 -2227.52,277.11 -325.81,301.92 -208.55,803.05 316.58,912.5 520.19,82.23 1498.75,-197.72 2009.49,-353.62 464.38,-161.71 850.78,-232.42 924.2,-105.06 42.35,73.48 36.73,257.13 -260.79,411.83l1869.48 1043.51c-294.86,-701.02 137.75,-1103.41 -23.08,-1441.14 -231.15,-420.58 -1186.72,-459.7 -1593.02,-363.49 -454.9,110.93 -1727.27,352.93 -2092.37,253.17 -398,-111.43 118.82,-326.3 615.36,-308.96 592.35,-21.88 1183.01,-25.27 1802.41,-35.07 375.42,24.61 1868.99,-524.61 954.69,-951.07z"/>
			<path fill="#757917" d="M10072.48 136.62c-197.45,-99.02 -386.54,-144.21 -567.3,-135.57 -262.58,12.19 -511.67,49.38 -706.33,144.21 -40.9,19.92 -168.74,85.84 -189.11,106.21 188.4,-43.41 487.13,-113.63 612.21,-55.27 218.58,101.96 106.71,181.55 -38,258.17 -449.05,237.8 -867.45,276.51 -1355.66,310 -276,18.93 -580.8,1.29 -856.58,-3.46 -239.99,-2.33 -719.94,-3.27 -933.41,29.36 -331.94,55.07 -709.81,201.06 -766.77,576.8 -23.03,154.27 14.97,290.99 113.97,410.15 271.68,326.9 901.52,259.01 1268.45,177.01 480.99,-107.38 1025.17,-276.51 1536.99,-442.09 127.99,-41.7 577.9,-141.15 521.55,121.74 -23.93,104.48 -141.81,192.72 -231.42,250.41 -27.05,17.27 -31.67,36.84 -13.82,58.72 58.92,-58.92 304.88,-151.41 288.4,-364.39 -5.98,-199.53 -409.41,-137.94 -526.71,-102.75l-514.64 150.25c-430.01,131.24 -765.33,219.9 -1005.95,265.95 -426.86,81.6 -1315.47,226.29 -1398.84,-390.3 -55.77,-392.17 392.08,-639.91 725.32,-665.75 207.39,-16.07 456.68,-19.07 668.33,-27.63 402.11,-16.23 824.16,15.32 1219.23,-11.22 235.44,-12.66 474.34,-42.89 716.69,-90.67 232.56,-47.2 445.27,-132.11 638.11,-254.72 208.59,-115.41 66.54,-261.74 -94.98,-304.81 -67.93,-15.54 -208.68,0 -422.25,46.62 77.71,-54.11 248.68,-99.59 512.91,-136.43 267.68,-38.57 494.48,-14.68 680.42,71.66 312.89,145.39 433.95,305.21 133.84,559.53 -275.73,188.24 -578.81,305.11 -909.24,350.58 -49.5,7.48 -97.86,11.22 -145.06,11.22 -619.4,9.79 -1225.28,25.62 -1817.63,47.49 -158.75,8.28 -327.09,5.79 -472.32,38 -399.55,88.61 -373.55,329.23 7.76,327.25l254.73 -4.31c220.48,-10.94 443.54,-35.68 669.2,-74.26 610.65,-107.84 1389.74,-339.36 1991.19,-196.02 445.63,106.22 716.51,242.72 614.8,729.65 -21.3,102.47 -46.05,208.68 -74.27,318.62 -76.58,288.01 -14.57,479.19 94.99,733.96l52.67 38.85c11.1,-110.97 -139.53,-284.85 -106.21,-576.79 14.4,-136.43 44.04,-295.32 88.94,-476.64 63.97,-267.19 47.87,-490.06 -208.96,-632.93 -302.79,-172.12 -645.02,-248.4 -1026.68,-228.82 313.73,-32.24 609.05,-127.22 885.93,-284.96 314.02,-178.73 473.24,-475.17 85.48,-672.64zm-1166.55 980.05c-256.16,45.48 -509.17,91.25 -759,137.3 -454.93,81.09 -750.93,154.28 -1226.14,164.92 -99.19,2.22 -233.52,0.62 -328.98,-16.4 -103.62,-18.48 -131.23,-100.44 -34.54,-153.71 187.34,-104.97 441.56,-121.81 654.51,-115.71 561.95,-5 1133.48,-22.6 1694.15,-16.41z"/>
		</g>
		<g id="Star">
			<path fill="#e5c564" d="M4594.57 6348.49c3.37,-93.54 -34.51,-149.73 -119.16,-205.51 -54.39,8.93 -108.8,17.84 -163.19,26.77 81.54,99.82 176.53,156.6 282.35,178.75zm-582.85 -154.57l300.5 -24.18 -75.13 -62.17c-85.32,-13.03 -182.28,19.38 -225.37,86.34z"/>
			<path fill="#d8ab50" d="M4312.22 6169.74c-14.87,47.47 -14.26,91.05 0,131.25 95.1,83.56 184.74,65.43 282.35,47.49l-282.35 -178.75zm-9.51 -250.41l9.51 250.41 88.93 -118.29c-12.32,-64.43 -53.65,-124.45 -98.44,-132.11zm-114.84 339.35l124.34 -88.94 -300.5 24.18c38.19,49.19 79.89,76.5 176.16,64.76z"/>
			<path fill="#c7903f" d="M4312.22 6301c0,-43.75 0,-87.5 0,-131.25 -84.58,86.48 -139.75,195.41 -183.06,313.45 96.8,-34.82 154.86,-86.24 183.06,-182.2zm267.68 -294.44c-104.96,31.91 -196.69,82.71 -267.68,163.19l163.19 -26.77c66.8,-14.38 102.74,-78.3 104.49,-136.43z"/>
			<path fill="#ecd66c" d="M4237.09 6107.58l75.13 62.17 -9.51 -250.41c-53.09,54.01 -74.45,120.58 -65.63,188.24zm164.06 -56.13l-88.93 118.29 267.68 -163.19c-62.75,-16.83 -120.73,-18.7 -178.75,44.9zm-213.27 207.24c-57.03,71.34 -80.46,139.92 -58.72,224.51l183.06 -313.45 -124.34 88.94z"/>
		</g>
		<g id="Bucket">
			<path fill="#9a9aa5" d="M9358.39 5491.91c166.94,-168.09 337.91,-238.03 512.9,-209.82 57.03,34.55 76.32,26.83 63.9,-16.41 -243.56,-51.17 -450.51,17.92 -620.84,207.24 -351.31,390.49 55.64,1037.65 579.39,958.45 265.95,-40.29 419.94,-136.43 461.96,-288.4l-37.99 21.59c-69.08,123.76 -220.77,200.04 -455.06,228.82 -454.89,55.87 -854.4,-551.34 -504.27,-901.47z"/>
			<path fill="#9e3830" d="M10728.71 5463.01l-234 108.8c-35.84,143.67 2.07,343.47 -97.46,517.21 224.73,-110.75 499.26,-432.51 331.47,-626.01z"/>
			<path fill="#cc4040" d="M10739.96 5495.36c-43.76,-296.79 -338.18,-334.17 -635.15,-228.99 215.61,75.77 310.19,194.15 396.83,324.84l234 -108.8c1.59,4.41 3.03,8.74 4.32,12.95z"/>
			<path fill="#742726" d="M10137.03 5301.17c-249.13,232.75 -113.62,710.84 276.97,684.91 161.06,-278.94 35.83,-617.14 -276.97,-684.91z"/>
			<path fill="#7e2f2e" d="M10430.02 5994.03c-404.37,14.2 -554.12,-465.98 -309.42,-698.01 -457.22,-81.04 -632.08,360.54 -508.68,637.51 128.97,289.49 536.73,420.31 818.1,60.5z"/>
			<path fill="#4d1918" d="M10092.35 5387.44l54.39 -61.31c-7.33,-28.98 -36.84,-24.7 -55.26,-12.08 -133.72,126.82 -133.63,302.48 -66.49,461.1 66.63,157.43 190.48,222.09 352.3,236.93 48.31,6.19 51.55,-10.14 25.9,-40.92 -44.9,1.15 -88.36,-5.47 -130.38,-19.87 -96.15,-46.63 -156.59,-94.41 -181.33,-143.34 -66.1,-131.44 -90.19,-296.19 0.86,-420.51z"/>
		</g>
		<g id="Shovel">
			<path fill="#c3e048" d="M3587.18 5282.66l86.14 -26.41c-21.37,-58.61 -89.52,-179.64 -44.56,-196.53 59.63,-22.41 75.82,101.63 131.69,163.33l764.53 -234.36c-123.69,-369.52 -146.34,-217.46 -97.45,-73.94l-642.66 187.33c-75.89,-167.06 -145.18,-147.67 -194.76,-132.58 -60.45,18.4 -150.78,14.31 -2.92,313.15z"/>
			<path fill="#668c48" d="M3854.61 5329.59c0,-25.86 -13.04,-120.27 -46.66,-129.53 -14.06,9.89 -29.89,14.5 -47.49,13.82 8.9,78.99 39.26,75.16 3.07,99.8 -71.26,48.54 -44.72,-17.08 -102.37,-69.58 -15.38,11.01 -37.46,21.39 -57,21.59 -21,19.5 24.6,73.7 36.91,110.56 32.37,54.41 199.66,52.43 213.54,-46.66zm508.56 -336.76l-373.89 122.62 -161.47 42.31c-1.54,89.7 -42.44,53.23 583.41,-135.01 40.17,-13.85 70.24,-34.23 41.74,-59.27 -29.7,10.08 -59.64,19.87 -89.79,29.35zm238.65 134.33c170.41,-69.52 400.2,-129.24 341.6,-289.43 -36.36,73.14 -292.37,176.79 -396.87,191.57 -23.13,-57.54 -24.33,-39.6 -63.36,-59.77 -45.36,79.1 62.85,180.39 118.63,157.63z"/>
			<path fill="#709b4d" d="M4453.85 4807.16l90.05 215.62c110.1,-21.52 305.04,-93.53 367.03,-148.35 -50.07,-226.62 -70.35,-203.51 -457.08,-67.27z"/>
			<path fill="#7eb94f" d="M4915.53 4874.42c114.09,-208.83 -64.51,-329.81 -500.52,-144.06l38.85 76.79c267.54,-101 417.21,-193.61 461.67,67.27z"/>
		</g>
		<g id="Skunk-body">
			<path fill="#333333" d="M6101.35 5034.41c327.15,53.54 484.27,-292.86 630.49,-438.33 298.53,-297 1176.6,-842.85 1107.01,-1034.74 -191.18,-41.85 -633.62,3.81 -882.11,-77.55 -5.75,6.91 -503.2,874.37 -681.23,1200.77 -280.01,-38.09 -481.56,30.17 -576.12,130.46 -36.27,107.95 74.83,165.85 401.97,219.39zm550.87 -2351.29c29.67,120.21 -188.22,169.08 -259.35,195.58 93.51,158.12 286.38,40.94 95.5,333.46 236.79,-46.07 158.94,-0.84 136.18,59.76 575.14,270.54 1419.27,162.9 1968.6,-7.58 -110.17,-415.42 -102.57,-318.77 151.04,-352.5 -88.2,-81.3 -185.38,-231.01 -206.1,-315.63 -272.82,-1000.48 -1195.63,-1466.46 -1885.87,86.91zm-995.56 2552.14c104.57,659.09 733.07,303.85 1237.31,11.23 182.8,-159.84 220.69,-509.58 63.63,-699.11 -47.8,97.79 -70.29,230.22 -148.2,294.8 -338.72,122.07 -721.18,251.04 -1152.74,393.08z"/>
			<path fill="#262626" d="M6403.56 4535.19c-54.99,26.23 -83.86,68.35 -82.89,128.65 62.18,57.28 124.33,114.55 186.51,171.83 81.28,-14.82 119.33,-61.44 97.58,-151.97 -63.6,-79.05 -113.8,-104.94 -201.19,-148.51zm288.47 -982.17c141.64,186.56 124.65,18.89 -19.76,209.06 56.82,0.92 121.48,4.37 179.44,22.73 136.88,-44.09 262.36,-102.91 347.99,-222.77 -97.85,-152.55 -281.75,-11.82 -507.66,-9.02zm647.54 -1243.03c-33.55,55.93 -40.13,202.48 -37.13,284.08 4.32,128.65 -17.66,244.1 -15.54,364.39 -37.33,31.3 -66.93,72.82 -69.08,132.11l197.73 -20.73c4.07,-1.54 80.91,-66.56 92.39,-91.53 48.55,-105.5 31.34,-338.64 31.95,-460.23 0,-113.98 -21.3,-197.16 -63.9,-249.55 -45.66,-54.96 -107.99,-8.32 -136.43,41.45zm1223.43 -1054.56c-201.45,-86.57 -454.85,124.46 -542.43,349.88 176.34,-46.5 171.13,52.82 -20.44,281.45 87.21,247.47 195.48,652.69 470.97,754.09 342.78,-231.88 304.04,-1081.88 91.9,-1385.42zm-2013.93 533.02c-73.34,256.67 -116.3,706.02 135.12,885.07 183.39,-139.47 337.67,-392.1 434.32,-598.39 140.86,-103.7 -167.81,-82.39 -569.44,-286.67zm-1592.47 3649.13c64.39,551.48 863.67,304.02 977.22,81.09 -30.73,-97.18 -130.57,-221.88 -215.01,-280.62 -513.05,-7.76 -753.85,-208.61 -762.22,199.54zm2205.82 -4163.34c11.4,-156.57 -391.63,-83.06 -354.32,101.32l354.32 -101.32z"/>
			<path fill="#191919" d="M6087.62 4970.31c-217.02,-32.79 -252.86,-75.3 -388.25,-155.29 -157.59,257.3 371.06,198.42 395.48,254.02l462.18 -151.21c536.34,-617.23 451.61,-686 317.98,-677.96 -88.01,178.85 -162.3,282.98 -270.27,443.83 -30.13,44.91 -60.66,95.22 -97.58,151.64 -69.71,76.6 -100.21,96.32 -195.14,136.77 -94.15,40.13 -213.02,24.3 -192.56,-14.68 -3.84,5.79 -28.22,7.16 -31.86,12.89zm2377.93 -1287.39c-186.27,-77.89 -478.65,-187.47 -644.07,-106.26 -59.84,49.56 -96.28,77.24 -167.65,144.78l-192.2 1842.05c40.95,140.02 93,314.07 144.81,451.16 250.97,-168.23 331.59,-495.26 593.39,-358.31 -21.3,-87.49 -50.99,-218.14 -76.33,-292.98 433.62,-322.42 294.56,-184.09 397.61,23.26 88.89,156.31 295.57,248.28 383.62,140.1 446.29,36.3 671.69,-494.98 25.1,-422.92l-174 -498.38c168.75,-247.24 306.59,-643.17 320.22,-849.06 480.73,227.36 718.16,195.01 1116.92,89.32 493.48,-1838.58 -1337.97,-1482.96 -1727.42,-162.75zm-1896.2 -581.12c-168.07,101.4 -135.14,161.05 133.84,75.12 38.46,11.59 21.4,1.7 1.72,-31.09 -24.65,-23.49 -69.83,-38.18 -135.56,-44.03zm2023.8 200.37l-33.48 -113.16c-134.17,-27.96 -215.94,-32.98 -343.66,4.32 -408.23,111.54 -745.27,148.67 -1011.13,111.39 -157.79,-23.19 -379.11,-81.03 -530.17,-54.39 -84.63,20.17 -130.47,128.41 -167.17,240.26 377.14,-77.77 523.04,35.06 987.86,48.39 528.62,15.16 818.92,-105.42 1051.46,21.67 30.96,-310.32 -255.46,-321.33 46.3,-258.48zm-1877 -305.72c-14.62,-33.15 -82.42,6.64 -197.74,-137.29 -348.01,-35.79 109.31,230.8 197.74,137.29zm1697.6 -82.89c103.53,139.5 477.21,52.06 249.55,-37.13 -40.11,22.56 -96.08,25.57 -139.89,13.81 -38.79,-10.41 -100.36,-5.76 -109.66,23.32zm-1594.85 2352.12c-299.25,79.45 -588.69,161.8 -885.07,253.86 -46.6,20.13 -51.16,244.3 13.23,236l938.08 -386.5c-1.49,-14.68 -20.05,-73.14 -66.24,-103.36z"/>
			<path fill="#131313" d="M6605.62 4684.56l-98.44 151.98c15.65,16.9 29.76,32.74 42.31,47.49l102.76 -125.21 -46.63 -74.26zm1853.03 402.39c-29.46,81.39 -17.82,138.4 42.31,166.65 108.74,-84.4 240.86,-158.79 364.39,-215.01 16.61,-65.97 -1.97,-119.49 -48.36,-163.2 -130.47,49.55 -250.68,122.88 -358.34,211.56zm-25.38 -1548.19c-369.98,94.88 -470.91,-48.1 -508.26,25.87 31.26,146.73 124.23,229.48 247.82,306.54 58.14,36.25 174.31,90.91 241.77,98.44 226.47,41.02 92.92,-453.5 18.66,-430.85zm-688.72 2326.19c-42.32,30.22 -84.63,60.44 -126.94,90.67 -62.83,290.16 204.56,387.01 126.94,-90.67zm-327.27 -2922.88c-29.96,0 -157.08,-9.06 -139.88,48.35 10.9,36.38 60.58,30.46 101.03,27.64 38.01,-2.66 80.62,-1.93 88.93,-34.54 4.85,-19.02 -18.65,-43.19 -50.08,-41.45zm1131.16 -1664.79c63.94,91.4 82.62,265.82 83.76,377.35 97.89,166.64 -13.33,440.25 -31.95,626.01 -36.55,105.73 -85.59,222.42 -116.57,327.27 359.24,-175.07 581.37,-1330.63 64.76,-1330.63zm-789.8 4729.1c-32.12,243.52 -48.87,732.62 394.79,639.48 313.73,-65.87 298.31,-568.6 206.56,-767.81 -111.46,-241.99 -525.44,-447.05 -601.35,128.33zm-1812.73 -273.54c6.45,-62.37 5.69,-151.14 -12.95,-213.28 -210.99,70.77 -503.78,153.71 -648.48,153.71 -95.45,63.81 -157.92,-17.81 -184.78,-40.58 -12.85,-10.89 -82.31,-42.84 -109.66,-164.06 -4.45,-20.96 -7.62,-34.5 -9.51,-40.58 -141.72,713.13 660.03,521.34 965.37,304.81z"/>
			<path fill="white" d="M8876.37 1677.74c11.96,227.94 -135.56,603.93 -252.5,806.13 547.78,471.96 -301.36,291.78 1577.57,76.43 -128.69,-558.68 -762.88,-986.3 -1325.07,-882.56zm-1616.59 2085.02c77.21,71.09 75.03,100.1 81.45,138.57 -270.82,-122.17 -265.66,81.05 -613.53,145.01 90.7,153.67 162.94,168.38 243.69,197.47 -184.25,162.91 -97.4,134.19 -34.82,149.03 -15.79,111.19 -182.04,147.25 4.25,192.33 31.04,71.62 21.62,216.65 -27.91,312.55 -73.97,143.21 -166.61,207.78 -30.11,460.2 788.89,-196.73 1069.88,-1274.26 786.33,-1502.02 -45.85,-23.36 46.95,-103.67 77.93,-125.92 -276.17,65.32 -195.81,80.79 -487.28,32.78zm-566.3 -1867.86c-248.52,784.11 654.59,88 0,0zm1032.85 -387.85c-341.02,-586.2 -623.68,4.52 -1436.62,-92.36 224.37,373.77 1512.83,630.25 1436.62,92.36zm788.44 135.85c-172.44,135.19 -267.14,513.92 -0.82,700.24 165.15,-220.57 292.87,-653.28 0.82,-700.24zm-3495.2 3620.03c70.78,9.16 135.71,-89.65 287.24,-23.15 46.49,20.4 241.32,141.47 287.67,41.46 -11.66,-566 -554.24,-296 -574.91,-18.3z"/>
			<path fill="#c0cde6" d="M9538 2297.9c-246.42,76.02 -436.49,206.92 -605.3,399.79 -47.38,-69.24 -167.14,-206.95 -234,-266.82 -162.34,143.76 -173.22,121.02 -117.98,265.95 198.15,245 207.23,290.13 -76.23,290.99 113.28,220.4 141.48,330.72 -23.14,288.72 65.51,284.1 60.9,221.3 -43.05,409.46 73.18,127.65 144.87,277.55 -14.41,217.75 22.46,144.87 88.24,144.48 114.01,-41.38 65.01,-348.32 167.53,-608.35 392.08,-832.25 410.37,-409.18 737.05,-450.72 997.54,-330.59 266.28,128.96 292.4,508.87 305.58,677.72l-2.59 188.23c136.44,-276.34 118.68,-812.72 -40.58,-1035.3 -94.07,-216.17 -470.35,-288.3 -651.93,-232.29zm-2066.31 2286.5c6.85,-16.53 -24.95,-70.53 -86.34,-59.58 -103.95,101.13 -46.54,79.34 86.34,59.58zm-82.03 -208.95c-137.55,30.09 -49.22,112.25 63.9,40.58 3.17,-20.93 -23.49,-48.86 -63.9,-40.58zm-69.95 -158.02c-153.91,-9.08 10.48,140.74 126.94,50.07 -5.31,-6.63 -89.89,-11.53 -126.94,-50.07zm337.63 -350.58c2.22,338.29 -8.79,560.85 -123.47,878.17 -46.92,129.81 -107.97,207.19 -222.78,295.31 -50.59,38.82 -238.92,161.54 -290.99,154.57 111.42,272.19 398.21,31.35 442.88,355.74 396.79,107.35 550.98,-636.31 471.26,-883.03 168.97,8.27 157.25,110.29 76.49,-174.1 114.5,18.78 169.85,31.97 51.7,-211.68 99.19,-46.51 158.36,-100.65 166.18,-163.94 -273.65,-22.78 -322.03,-374.01 -571.26,-251.03zm-823.6 1392.02l49.07 99.06 185.84 -83.6 -83.96 -43.17 -150.95 27.72zm170.81 -655.47c21.02,-54.11 -21.44,-110.82 -69.08,-136.43 -157.89,91.7 -42.73,71.73 69.08,136.43zm67.35 -227.1c-16.55,-39.7 -50.6,-68.92 -89.8,-84.61 -163.94,57.28 -100.92,93.1 75.99,132.98 17.38,-4.8 21.65,-29.74 13.82,-48.37zm6.05 -177.01c-14.68,-27.25 -137.34,-37.79 -261.64,-120.02 -45.38,-30.01 -23.71,-25.45 -61.3,-20.72 -36.77,98.56 270.04,239.01 322.94,140.74zm-240.05 -2179.42c-12.56,16.25 -70.51,139.26 -152.83,195.15 -75.66,210.13 112.67,134.17 193.3,40.67 320.67,-371.88 -3.28,-330.2 -40.46,-235.82zm322.08 -411.01c-57.49,-39.52 -110.97,20.88 -85.48,53.53 24.75,31.67 56.41,56.42 94.98,74.27 -249.09,0 -527.04,-85.09 -727.91,-235.74 -70.71,-53.44 -75.32,-68.42 -161.03,-86.22 195.48,644.1 1221.14,543.13 884.12,635.87 203.66,101.59 559.26,-155.84 388.15,42.03 184.39,-10.52 245.95,-116.77 297.64,-181.21 173.66,35.29 300.04,-153.83 279.99,-308.81 -199.05,28.09 -224.14,-66.74 -305.98,-227.26 -36.54,41.66 -60.23,106.96 -129.12,123.01 -64.05,57.44 -138.49,28.83 -126.07,107.06 -119.59,47.05 -298.03,82.79 -409.29,3.46zm1353.16 53.53c-143.63,-49.13 -393.63,401.08 -36.36,623.44 -43.98,-76.75 -98.43,-379.93 36.36,-623.44zm-733.19 4351.08c45.94,24.51 119.06,14.7 169.55,-15.96 97.74,-59.35 167.29,-56.32 229.51,-25.36 38.1,18.96 120.03,25.95 158.75,-32.94 -61.91,-415.15 -554.58,-420.38 -557.81,74.26zm626.21 -2485.1c-526.4,-84.57 -492.86,132.05 0,0z"/>
			<path fill="#e6b891" d="M5285.06 5324.13c-39.37,-138.63 -221.26,-4.64 -153.3,287.13 22.73,97.6 213.8,-74.06 153.3,-287.13z"/>
			<path fill="#d19160" d="M8029.13 6103.63c-113.21,239.74 52.91,548.57 170.76,332.37 136.07,-249.62 -77.44,-530 -170.76,-332.37zm-2756.72 -773.18c0.73,70.26 -29.03,275.32 -126.94,270.27 -10.18,255.25 272.11,5.5 126.94,-270.27z"/>
			<path fill="#f8e5b6" d="M5184.33 5320.09c-18.84,19.02 -47.07,73.01 1.72,72.53 21.38,-0.21 23.99,-21.42 44.04,-48.36 22.73,-30.52 -18.73,-51.71 -45.77,-24.17zm5.18 119.16c1.09,-30.53 -33.24,-33.77 -44.91,-14.68 -1.38,0 -7.34,20.98 1.72,31.09 19.4,21.65 41.69,1.47 43.18,-16.41z"/>
		</g>
		<path fill="black" d="M3973.73 6155.94c-57.63,25.63 -30.94,63.08 14.68,82.03 37.42,16.11 80.3,33.96 128.65,53.53 -19.95,53.18 -35.1,152.25 -40.58,214.14 -11.75,132.48 195.82,-71.46 215.01,-93.25 10.36,-12.08 25.62,-28.49 45.77,-49.22 34.71,0 284.4,60.44 321.21,38 32.34,-19.71 9.32,-34.5 -14.67,-86.34l-94.13 -164.93c17.33,-27.61 141.32,-190.6 104.48,-206.36 -32.99,-14.13 -176.71,23.93 -237.45,41.45l-82.89 -107.95c-13.81,-20.25 -36.88,-31.03 -50.94,-23.32 -17.1,9.39 -72.42,184.59 -78.57,208.11 -77.72,24.96 -155.47,61.68 -230.55,94.12zm214.15 102.75c-76.32,-24.66 -101.03,-30.42 -176.16,-64.76 44.09,-25.39 142.94,-58.01 225.37,-86.34l65.63 -188.24 98.44 132.11c71.94,-22.26 118.29,-36.27 178.75,-44.9l-104.49 136.43c64.26,90.3 91.14,128.85 119.16,205.51 -113.64,-12.52 -176.82,-21.43 -282.35,-47.49 -61.43,75.49 -96.47,105.01 -183.06,182.2l58.72 -224.51zm5538.35 -898.01c-219.05,147.19 -234.76,379.84 -142.47,600.11 97.82,233.46 351.28,335.2 600.12,262.5 103.5,-30.25 104.69,-48.15 172.69,-81.17l247.82 -152.83c117.16,-88.32 200.26,-234.23 202.05,-384.25 2.2,-183.22 -105.56,-347.18 -282.35,-397.2 -144.52,-40.89 -230.3,-16.67 -400.65,18.13 -68.73,14.04 -206.14,37.42 -275.46,65.63l-121.74 69.09zm-123.48 464.55c-36.68,-189.21 30.08,-352.33 196.88,-455.91 175.83,-109.2 430.97,-63.66 553.49,81.16 213.96,252.92 92.02,670.44 -240.05,736.56 -80.01,15.53 -156.86,10.64 -230.54,-14.68 -115.71,-56.41 -188.53,-113.98 -218.47,-172.7 -29.93,-59.28 -50.37,-117.43 -61.3,-174.42zm1124.25 -368.7c13.13,33.24 25.9,102.38 25.9,135.56 0,105.97 -41.17,203.79 -109.66,290.13 -36.26,44.9 -109.95,105.05 -221.06,180.47 97.78,-146.61 130.83,-301.32 77.72,-477.5 -38.58,-127.95 -157.9,-256.74 -284.08,-297.04l-70.81 -18.99c174.94,-33.8 284.69,-62.27 425.7,9.5 75.17,38.25 126.1,101.23 156.29,177.87zm-2038.67 -4180.11c-90.32,-49.89 -218.86,-82.41 -318.63,-51.81 -170.13,52.18 -308.41,186.24 -368.69,351.44 -31.61,-6.32 -89.63,-57.48 -107.95,-107.94 -28,-77.2 -22.74,-147.34 -66.48,-150.25 -39.42,-2.61 -94.97,91.41 -105.35,140.75 -42.28,-66.67 -66.46,-116.37 -127.79,-170.1 -112.04,-98.16 -225.82,-86.79 -354.9,-57.85 -102.08,-83.14 -235.84,-98.49 -351.44,-25.04 -108.8,69.13 -157.75,155.29 -163.2,158.88l-216.73 33.68c-69.17,10.39 -163.98,-7.9 -218.46,-50.08 -45.17,-34.98 -78.57,-7.62 -78.57,11.22 -1.72,0.58 -2.02,2.3 -0.86,5.18 -1.16,0.57 -1.16,1.43 0,2.59 -2.59,25.85 79.39,164.98 91.53,185.65 54.15,92.24 127.85,168.29 213.27,235.74 -79.9,226.4 -86.21,565.58 17.27,774.54 14.97,30.5 50.38,74.25 106.21,131.24 -6.33,11.52 -13.24,23.32 -20.72,35.4 -54.11,47.21 -116.85,77.14 -188.24,89.8 -56.36,9.03 -102.67,22.92 -64.75,80.3 43.74,69.09 105.62,117.15 185.64,144.21 -41.36,42.7 -122.48,153.11 -119.16,203.78 4.28,65.27 97.59,-27.51 192.56,-20.72 -37.85,45.8 -168.48,233.22 -158.01,291.86 4.02,24.18 18.99,32.53 44.9,25.04 151.5,-52.59 223.81,-65.35 397.19,-40.58l-0.86 0c-86.34,14.39 -156.28,12.96 -209.82,-4.31 -73.16,-14.66 -44.6,90.01 11.23,128.65l42.31 28.49c-106.2,64.64 -156.1,193.82 -68.22,158.02 15.54,-6.33 40.3,-12.38 74.26,-18.13l-315.16 574.22 -181.33 299.62c-438.5,-130.54 -883.81,269.32 -423.11,377.35 71.96,16.7 145.06,21.3 219.32,13.81l1.74 6.06c-135.58,43.2 -280.78,84.69 -409.29,142.47 -48.17,-216.1 -233.89,-351.58 -446.42,-262.5 -98.26,41.18 -197.45,174.53 -241.77,293.58 -93.95,252.35 -52.55,628.89 234.87,703.73 283.34,73.78 647.19,-104.59 907.52,-215.86l972.28 -415.34c89.48,52.46 197.5,80.44 299.62,94.98 36.21,149.64 141.14,463.93 196.02,607.89 31.66,82.32 60.44,164.93 86.34,247.82 32.52,105.23 77.45,237.71 134.7,299.63 21.31,23.02 58.43,51.23 111.39,84.62 141.07,89.14 331.06,59.07 441.24,-69.09 167.83,-195.2 152.33,-475.12 44.04,-695.1 -36.27,-73.1 -82.61,-139.59 -139.02,-199.46 -12.66,-58.14 -25.33,-112.25 -38,-162.33 -12.66,-50.08 -31.36,-103.62 -56.13,-160.6 2.31,-5.18 4.9,-10.37 7.78,-15.54 97.28,-28.21 182.48,-78 255.58,-149.38 58.84,210.08 81.59,322.91 317.77,404.1 57.56,19.8 141.91,12.85 170.1,-44.9 448.32,0 532.37,-318.64 391.15,-417.93 -106.57,-74.92 -232.52,-71.56 -348.84,-55.26 -30.51,-141.65 -92.74,-322.53 -144.2,-457.65 111.68,-223.35 262.4,-595.81 297.03,-843.62 307.01,183.49 663.8,250.93 1016.32,116.57 45.51,-18.28 82.85,-36.67 106.2,-82.88 62.04,-122.82 96.75,-357.85 119.17,-498.24 54.56,-341.68 -27.81,-743.03 -224.51,-1041.35 -115.59,-175.31 -246.02,-306.64 -413.61,-431.74 -127.02,-94.82 -281.17,-159.65 -437.78,-183.92 -152.56,-23.63 -214.61,-38 -373.03,-6.91 -17.37,-139.92 -76.18,-305.69 -205.5,-376.48zm-1591.4 -42.31c16.7,4.03 32.81,10.08 48.36,18.13l-315.17 91.53c6.33,-9.2 13.82,-17.27 22.45,-24.17 40.29,-44.33 89.51,-73.69 147.66,-88.08 32.81,-8.63 65.05,-7.77 96.7,2.59zm1263.27 2294.27c-111.1,27.63 -212.41,32.23 -303.94,13.81 128.95,-17.84 230.26,-22.44 303.94,-13.81zm-12.95 1410.93l47.49 169.25c-59.16,68.99 -108.48,119.17 -189.97,156.28 47.21,-94.41 111.6,-222.04 142.47,-325.53zm-2119.84 131.25c151.33,-50.43 303.4,-107.37 455.91,-150.25 43.18,-12.09 85.2,-27.34 126.08,-45.77 17.78,-0.89 29.87,-8.05 40.58,-27.63l94.12 -192.56c0,63.8 3.45,107.72 -19.87,170.96 -19.2,52.12 -55.14,133.66 -86.34,181.33 -67.21,102.74 -45.62,222.82 12.09,322.94 2.87,5.17 6.33,10.08 10.36,14.67 -137.8,53.02 -305.92,134.46 -454.2,195.15 -73.68,30.51 -146.79,61.6 -219.32,93.25l-531.04 212.41c-107.81,40.29 -293.22,76.5 -409.29,53.54 -234.29,-46.35 -281.26,-272.28 -265.08,-474.91 6.07,-75.89 32.6,-162.86 70.8,-229.69l0.86 0c1.16,-2.3 2.3,-4.6 3.46,-6.9l0 0.86c12.22,-36.67 103.84,-141.48 151.97,-170.96 -78.67,89.9 -80.5,259.1 -26.77,217.59 15.32,-11.84 -20.54,-143.99 136.43,-244.36 42.26,-27.02 97.9,0.83 140.75,36.27 -69.59,33.26 -135,160.48 -112.26,220.18l9.5 14.67 -0.85 0c2.3,1.74 4.89,2.88 7.77,3.46l-0.87 0c49.63,1.63 -3.34,-44.61 59.58,-136.44 12.22,-17.83 49.1,-61.29 78.58,-61.29 133.08,148.11 94.37,309.97 81.16,461.96 -3.63,41.84 34.48,33.64 45.77,5.17 17.37,-43.8 36.26,-144.86 36.26,-197.73 0,-22.45 -2.3,-49.8 -6.9,-82.03 66.79,-12.99 180.68,-59.96 247.81,-82.03l322.94 -101.89zm610.48 -467.14c6.91,-9.79 14.1,-19.57 21.59,-29.36 17.84,2.88 35.12,7.48 51.81,13.82 -33.52,75.62 -65.81,164.87 -109.67,233.14 -3.45,5.17 -5.74,10.36 -6.9,15.54 -45.8,0 -129.63,31.18 -175.29,46.62l218.46 -279.76zm1113.89 1105.25c-1.74,-3.45 -3.17,-6.91 -4.32,-10.36 21.88,-15.54 46.05,-28.21 72.54,-38 61.22,-14.62 138.04,32.81 138.15,32.81 52.88,149.06 -4.77,250.95 11.22,275.45 38.63,59.18 69.24,-140.23 38,-238.31 42.1,42.08 118.6,169.61 130.39,208.96 29.93,85.2 47.77,146.5 53.53,183.92 28.73,193.71 -30.11,464.59 -257.32,499.09 -133.09,20.21 -252.61,-31.08 -307.39,-151.11 -65.87,-144.33 -77.79,-311.66 -45.77,-462.83l44.03 -142.47c14.51,-40.82 53.25,-113.53 87.22,-139.02 47.13,94.8 6.12,263.37 51.81,263.37l0 -0.86c30.88,-8.82 20.14,-209.74 -12.08,-280.63zm542.26 -1720.05l-26.77 -41.45c10.37,5.75 20.73,11.8 31.09,18.13 -1.72,8.07 -3.17,15.84 -4.32,23.32zm54.4 -2711.33c31.59,0 104.49,36.85 131.25,56.99 169.16,127.31 184.16,425.39 135.56,622.57 -51.74,209.89 -135.75,436.83 -279.77,600.12l0.86 0c-57.79,59.11 -66.47,59.59 -136.43,110.52 84.23,0 133.98,-40.58 138.16,-40.58l20.72 84.62c27.54,86.68 75.49,148.01 147.66,200.33 -18.36,61.25 -115.62,60.17 -176.15,44.91l-115.71 -42.32c-21.23,-10.78 -66.77,9.32 61.3,73.4 29.36,14.69 93.35,174.67 88.08,276.32 -13.1,-4.37 -231.69,-43.82 -205.51,11.21 8.29,17.43 75.84,23.25 81.17,26.78l46.62 83.76c15.55,30.51 24.47,67.63 26.78,111.39 -109.12,-32.66 -165.42,-40.96 -309.13,-32.81 -232.1,13.17 -440.98,62.61 -708.92,57.85 -179.54,-3.19 -287.5,-18.95 -404.11,-53.53 -18.99,-5.75 -78.28,-17.85 -177.87,-36.27 -100.16,-20.15 -223.35,-10.64 -369.57,28.5 32.58,-72.42 95.89,-162.89 142.47,-225.37 141.52,11.77 79.2,-38.31 45.76,-50.08 -1.17,-0.39 -2.32,-0.96 -3.45,-1.74l0 0.87c-8.27,-2.65 -16.62,-5.24 -25.04,-7.77 -58.15,2.02 -116.57,3.73 -175.29,5.18 -4.77,1.77 -9.66,3.49 -14.68,5.17l84.63 -128.65c136.7,12.61 181.91,-69.47 118.29,-62.18 -113.37,18.61 -215.75,-24.37 -285.82,-112.25 87.15,-24.78 150.23,-39.08 225.37,-107.07 35.05,-31.71 44.49,-84.76 29.36,-103.61l-51.81 -60.44c-53.54,-76 -86.93,-159.46 -100.16,-250.42 -18.4,-128.47 -30.62,-270.19 -4.32,-396.33l39.72 -139.02 94.98 56.99c-30.89,107.57 -43.65,231.45 -31.95,341.94 10.11,95.34 29.09,180.61 122.62,135.56 156.98,-75.62 241.24,-194.98 306.54,-351.44 20.72,1.15 41.45,2.02 62.17,2.6 -100.4,40.14 61.81,116.52 186.52,94.98 81.16,-14.4 158.6,-39.43 232.27,-75.12 -32.3,38.74 -78,69.71 9.51,93.25 71.16,19.14 195.03,-54.25 247.81,-118.29 18.42,-24.18 36.56,-48.64 54.4,-73.4 55.99,35.63 163.53,-9.93 214.14,-56.13 110.87,-101.19 145.72,-365.76 58.72,-336.75l0 -0.86c-17.36,8.68 -23.55,24.02 -71.66,37.99 32.14,-75.72 104,-162.32 165.79,-216.73 91.89,-82.7 201.27,-110.91 328.12,-84.62zm-1481.74 61.31c68.95,-26.13 208.13,-57.5 282.36,-66.49 129.89,-15.73 231.3,52.2 292.72,159.74 18.89,33.08 45.06,62.37 75.13,84.62 0,31.1 38.37,154.34 93.24,147.66l0.86 0.86c40.84,-13.13 5.21,-26.52 -20.72,-126.07 -14.81,-56.87 9.54,-110.53 15.54,-110.53 0.58,-2.29 1.44,-3.45 2.6,-3.45 0.57,-2.3 1.43,-3.45 2.58,-3.45 0.58,-1.74 1.16,-2.6 1.74,-2.6 30.95,79.96 47.74,132.97 135.56,178.75 -5.57,16.71 62.68,68.36 167.51,20.72 -14.01,125.16 -97.13,269.6 -236.59,264.23 86.43,-200.61 -0.3,-169.96 -6.91,-149.38 -50.77,134.72 -95.16,242.99 -233.14,325.53 -20.15,11.51 -38.28,16.41 -54.39,14.67 40.49,-27.68 27.81,-15.08 57.85,-55.26 41.05,-54.9 44.13,-147.16 8.62,-144.2 -19.73,1.65 -27.99,35.42 -35.4,61.3 -72.24,17.2 -253.25,142.25 -392.02,110.52 122.53,-35.83 302.49,-97.15 367.84,-206.37 69.28,-115.77 -136.93,87.57 -381.66,102.76 -22.44,0.58 -44.32,1.15 -65.62,1.72l0 0.86c-139.31,-10.36 -255.02,-35.4 -347.12,-75.12l0 -0.86c-210.76,-90.27 -379.89,-218.35 -478.36,-424.83 28.11,0 100.33,48.92 337.62,-1.72l158.88 -31.95c84.63,-21.88 168.39,-45.76 251.27,-71.66zm-293.58 669.2c7.99,-15.95 20.93,-34.66 38.86,-56.13 69.34,23.31 110.82,39.34 192.56,50.94 -32.79,77 -64.33,134.83 -119.16,198.6 -29.36,-28.78 -64.48,-37.99 -105.35,-27.63 29.7,-92.76 40.39,-73.03 50.08,-104.49 48.95,23.3 73.24,-23.82 12.95,-49.22 -24.73,-10.2 -48.04,-14.23 -69.94,-12.08zm-51.81 -20.73c-38.54,59.93 -22.98,94.21 25.9,74.26 7.46,-3.07 14.95,-2.79 22.45,0.87 -41.08,48.4 -86.55,204.71 16.41,166.64 17.06,-6.3 39.75,2.86 63.04,9.5 -42.03,36.84 -88.95,68.22 -140.75,94.13 -40.76,-113.39 -25.77,-249.88 -6.05,-362.67 2.88,-20.72 7.48,-40.57 13.82,-59.58 12.08,5.75 25.89,12.38 41.45,19.87 -13.82,14.97 -25.91,33.96 -36.27,56.98zm978.32 1884.12l114.85 -1.72c67.64,16.51 129.38,191.58 283.22,230.55 0.5,0.1 0.79,0.1 0.86,0l110.52 27.63c-3.74,30.08 -83.42,83.92 -120.02,100.16 -59.6,26.44 -133.99,27.6 -199.46,11.22l0.86 0c-55.47,-21.43 -71.4,23.27 -30.22,44.04 59.86,29.35 122.61,36.83 188.23,22.44 26.98,55.65 44.91,104.38 52.67,167.51 -59.92,-19.97 -92.65,-31.61 -164.05,-15.53 -56.69,12.75 -49.91,66.71 7.77,54.39 12.66,-2.88 25.33,-4.61 37.99,-5.18 32.54,47.55 55.56,95.12 57.85,153.7 -74.16,-43.86 -180.85,-10.39 -145.92,32.81 7.38,9.13 23.75,2.09 31.08,0.87 46.9,199.29 -22.23,407.59 -105.34,607.03 -59.29,142.3 -158.39,287.21 -331.58,234.87l-4.32 -2.6 2.6 3.45c0,40.28 75.47,61.07 118.29,48.37 15.33,-2.37 26.27,-4.39 32.81,-6.06 184.14,-59.24 278.22,-404.95 319.48,-571.62 25.89,-104.54 29.29,-215.72 -10.36,-316.9 72.7,-4.35 76.7,53.03 126.93,43.17 33.72,-6.62 17.95,-142.92 -31.94,-221.91 54.98,12.23 138.25,92.04 110.52,-53.54l43.17 86.35 110.52 274.59c-1.72,25.33 -5.75,50.65 -12.08,75.98 -42.32,169.24 -190.02,427.14 -196.02,456.79l2.59 33.67c25.34,74.84 48.65,156.01 69.95,243.5 -95.76,-50.1 -184.23,-51.79 -271.14,16.42 -113.75,89.25 -161.95,208.96 -189.1,345.39 -12.08,59.87 -19.57,115.13 -22.45,165.79 -69.45,-210.52 -140.38,-375.2 -202.92,-606.17l-40.57 -138.15c35.05,1.67 137.06,-7.42 154.56,-19.87 0.48,0.16 0.76,0.17 0.86,0 63.9,-15.02 74.7,-66.43 40.58,-65.63 -104.55,2.47 -89.31,41.77 -290.12,14.68 -62.31,-8.41 -222.7,-53.66 -272.86,-94.12 -35.33,-28.49 -62.65,-78.51 -97.58,-50.94 -21.3,16.8 30.55,65.21 43.17,77.71l-140.74 59.58 -35.41 -75.99 0.86 0c-47.73,-148.86 5.47,-202.16 79.45,-345.39 50.83,-98.41 44.03,-184.43 44.03,-284.08l21.59 6.04c0.7,-0.7 15.12,-5.37 11.22,-31.08 -6.98,-46.12 -71.14,-72.1 -118.29,-80.31 34.2,-32.57 56.7,-64.01 80.3,-105.35 25.34,-1.71 44.33,7.2 56.99,26.78 16.96,18.9 57.1,-1.12 21.59,-56.13 -27.65,-42.84 -77.65,-34.37 -130.39,-37.13l92.39 -82.03c42.6,-5.18 75.41,-13.82 98.44,-25.91 36.11,-19.2 33.92,-59.5 -7.77,-48.35 -48.1,12.87 -122.08,23.25 -169.24,4.31 -62.4,-25.05 -139.74,-80.61 -173.56,-140.74 124.08,-15.47 165.05,-24.34 273.73,-103.62 100.46,-73.29 188.21,-71.13 300.49,-44.9 3,7.19 12.76,30.3 25.04,27.63 37.75,-8.22 41.91,-81.64 -48.36,-150.25 113.28,1.59 152.8,28.28 176.15,30.22 -3.45,13.83 13.21,22.11 21.59,17.27 64.6,-37.29 98.77,-65.08 178.74,-80.3 -56.4,33.84 -67.38,90.24 -24.18,112.25l-7.77 -3.45c15.07,7.54 17.36,9.51 49.22,7.77zm643.29 -155.43c17.79,17.79 61.04,9.79 81.17,1.74 47.74,51.25 75.74,107.56 80.31,178.74 -63.8,-33.34 -101.46,-64.21 -164.93,-56.99 -21.62,2.47 -38.75,41.86 2.59,54.4 13.24,4.03 26.78,8.63 40.58,13.81l101.03 183.07c102.03,179.24 242.27,513.69 309.13,712.36l88.94 299.63c-133.19,40.29 -127.08,96.21 -92.39,85.49 93.63,-28.94 140.95,-67.38 271.13,-59.59 77,4.62 207.99,13.29 226.23,98.44 -93.13,-93 -234.25,4.8 -138.15,0.87 45.15,-1.85 110.76,-0.23 122.62,57.84 2.87,13.82 4.89,27.64 6.04,41.45 -17.84,44.9 -49.5,79.45 -94.98,103.62 3.65,-91.44 -98.88,-116.49 -173.56,-101.03l-49.22 16.41c0,0.57 -0.28,0.86 -0.86,0.86l0 9.5 0.86 0c0,0.57 0.28,0.86 0.87,0.86 0,0.58 0.28,0.86 0.85,0.86 0,0.58 0.29,0.86 0.86,0.86 11.64,11.64 193.94,-33.21 176.16,91.53 -67.5,26.47 -148.47,43.18 -221.92,43.18 -7.52,-60.04 -43.59,-82.1 -86.34,-116.58 -33.19,-26.76 -123.48,-42.97 -147.66,-9.5 -25.04,34.68 57.4,-4.5 132.11,55.27 95.24,76.21 48.33,177.89 -95.85,108.8 -47.78,-22.91 -82.08,-45.18 -118.29,-76.86l0.86 0c-62.11,-53.02 -80.43,-117.15 -101.89,-210.69 -66.79,-291.08 -147.13,-535.82 -296.17,-790.08 -9.79,-16.69 -14.97,-25.33 -15.54,-25.9 0,-9.44 -34.3,-23.7 -39.72,3.45 -9.36,-41.08 -27.52,-107.13 -56.99,-138.16 71.34,-28.52 138.03,-68.21 165.79,-144.2 7.48,-21.3 6.05,-41.73 -4.32,-61.3 -25.87,-25.27 -183.98,-12.79 -271.13,-120.88 -32.23,-40.3 -67.63,-77.72 -106.21,-112.26 -31.09,-28.21 -68.21,-38.28 -111.39,-30.22 -27.63,-0.58 -54.69,3.17 -81.17,11.22 0.58,-1.72 0.86,-3.74 0.86,-6.05 92.35,-84.1 169.62,-57.02 158.88,-109.66 -0.57,-4.03 -2.3,-7.77 -5.17,-11.22 -0.58,0 -0.86,-0.29 -0.86,-0.87 -17.76,-15.01 -77.59,-9.88 -101.03,-9.5 -93.92,1.53 -147.29,35.38 -222.78,76.85 -3.46,1.74 -6.33,3.74 -8.63,6.05 -46.26,-38.56 -273.62,-84.85 -303.09,-22.44 -22.3,47.24 27.97,40.44 92.39,94.98 -116.63,-31.67 -223.7,-4.27 -318.61,69.08 -63.98,49.44 -157.99,76.71 -238.32,77.71 -15.54,0 -28.78,3.75 -39.72,11.23l118.29 -215.87c40.43,0 49.28,-15.75 25.04,-42.31 -26.14,-28.63 -77.66,-15.44 -113.97,-8.63 61.04,-71.23 125.5,-77.01 125.2,-94.12 -0.5,-28.65 -27.49,-23.88 -46.63,-18.14 -26.48,-22.45 -52.96,-44.61 -79.45,-66.48 73.22,4.29 101.25,12.47 183.06,-6.05 20.73,-4.61 47.78,-17.27 81.17,-38l265.95 52.68c105.67,21.94 294.49,31.2 406.7,20.72l282.35 -33.68c1.55,0.4 33.98,26.76 83.77,34.54 137.57,20.73 272.28,9.79 404.1,-32.81 17.26,-0.99 26.27,46.19 -12.95,81.17 -30.61,27.3 -80.23,13.51 -76.86,69.08 0,0.58 0.29,1.16 0.86,1.72zm554.36 -2017.08c467.6,-86.28 946.09,219.33 1183.82,611.34 270.46,445.96 255.45,933.63 105.35,1415.24 -5.75,18.43 -10.36,37.14 -13.82,56.13 -194.44,94.19 -369.6,130.8 -579.39,93.26 -167.51,-29.94 -329.56,-78.3 -486.14,-145.07 0,-0.57 0,-1.16 0,-1.72 6.33,-65.05 6.91,-129.81 1.72,-194.28 -6.87,-85.03 -20.68,-163.83 -41.45,-246.96 -12.34,-6.18 -22.47,15.33 -18.99,55.27 17.47,158.24 3.64,254.57 -10.36,411.01 -24.12,269.33 -147.93,515.12 -267.69,788.35l-139.88 -299.62 -106.21 -205.51c5.18,-18.43 10.08,-37.13 14.68,-56.13 9.44,-1.18 22.11,-5.42 24.17,-16.41 5.18,-33.38 4.04,-67.07 -3.45,-101.03 16.12,-111.1 40.87,-220.48 74.26,-328.12 52.66,-158.88 168.62,-343.28 282.36,-468.88 102.07,-112.7 280.31,-266.47 418.79,-330.71 108.63,-50.39 240.69,-90.04 363.53,-80.3 118.58,12.66 217.3,46.33 296.17,101.03 80.59,56.41 139.02,153.12 175.29,290.12 29.93,111.68 50.94,222.78 63.04,333.3l0 -1.72 1.72 17.27 -10.36 -178.75c-16.48,-134.29 -55.73,-261.01 -116.57,-366.11 -73.69,-127.79 -210.12,-201.19 -409.29,-220.19 -182.44,-15.71 -350.6,53.68 -499.09,154.57 -143.61,97.55 -377.04,325.64 -458.51,461.96 -107.76,180.34 -154.97,339.87 -204.65,544.85 -15.98,-36.25 -37.5,-73.84 -66.48,-102.75 27.39,-27.39 40.89,-61.74 35.4,-100.16l0.86 0.86 -0.86 -4.31c59.78,37.37 72.31,52.3 79.43,-21.59 7.24,-75.02 -31.56,-187.23 -75.99,-253 27.33,0 83.2,31.34 100.16,-9.5 34.69,-83.51 -20.46,-220.89 -70.8,-291.86 3.32,-1.11 139.06,47.32 222.77,-77.72 22.88,-34.16 -20.99,-65.37 -49.21,-89.79 -55.78,-48.29 -106.24,-152.32 -140.75,-244.37 173.19,-171.08 259.73,-435.52 309.13,-664.88 17.8,-82.66 21.56,-152.16 17.27,-233.13zm-2214.83 2340.03c0,25.89 62.93,101.1 79.45,117.43 47.88,47.35 113.79,94.72 181.33,107.94l-94.99 76.85c-26.83,18.35 -30.77,54.61 -6.05,60.45l66.5 9.5c-24.6,24.6 -24.6,50.34 -92.4,106.21 -12.07,9.95 -19.06,21.66 -12.95,37.99 -28.17,38.08 -245.41,336.59 -286.68,361.79l-407.55 132.98c-15.41,-15.24 -17.1,-49 -0.86,-75.12 60.88,-98.03 137.29,-89.27 143.34,-118.29 8.43,-40.45 -216.56,40.31 -204.64,170.96 -54.65,-2.6 -146.34,-8.75 -199.48,-22.44 -13.3,-26.76 8.52,-70.09 42.31,-92.39 48.79,-32.21 76.53,-7.72 93.26,-32.81 -9.74,-35.64 -114.76,-24.85 -158.02,59.58 -8.55,16.69 -11.68,38.8 -5.18,56.99 -28.78,-10.37 -56.41,-23.88 -82.89,-40.58 -6.63,-8.45 7.14,-106.51 84.62,-126.93l31.09 -11.23c18.97,-12.59 -20.99,-45.26 -84.62,-1.72 -34.58,23.66 -63.31,64.97 -65.63,104.49 -20.98,-42.04 14.11,-88.95 46.63,-116.57 53.88,-45.78 155.7,-78.72 242.64,-97.58 178.34,-38.66 300.87,32.51 371.29,33.68 46.92,0.78 -46.03,-55.27 -59.58,-55.27 96.43,-115.67 291.47,-487.06 379.06,-645.88zm636.39 179.61c48.65,-24.33 90.8,-59.53 122.62,-102.76 22.1,-30.02 -10.72,-49.21 -22.45,-37.13 -36.41,37.51 -115.3,108.62 -171.84,110.52 -68.3,2.31 -16.84,116.81 91.53,145.07 -20.51,25.97 -40.51,73.23 -56.13,105.34 -15.68,32.25 8.13,57.15 21.59,52.67 12.08,-4.6 24.18,-8.63 36.26,-12.08 -22.88,34.33 -82.76,163.81 -51.81,188.24 51.21,40.4 45.48,-57.05 177.87,-34.55 13.19,1.49 47.48,-70.74 -63.03,-62.17 -14.34,1.58 -28.45,5.03 -42.32,10.36 7.7,-30.86 42.85,-88.18 53.54,-114.84 25.14,-2.53 88.27,5.53 63.04,-39.73 -13.63,-24.43 -107.61,-9.29 -126.93,-4.31l46.62 -82.03c38.42,-1.59 80.46,-10.67 87.21,-55.26 10.11,-66.72 -114.62,52.07 -199.45,-50.95 10.94,-5.17 22.16,-10.64 33.68,-16.4zm1155.33 -2611.16c-68.36,11.08 -123.21,78.35 -147.65,139.02 -36.38,87.06 -94.12,191.83 -63.04,300.48 34.41,120.3 112.3,239.47 218.46,311.72 61.73,42.01 99.04,-68.75 130.39,-130.38 55.5,-109.1 87.1,-190.57 104.48,-317.77 20.38,-149.2 -68.76,-311.36 -223.64,-306.53 -6.9,0.57 -13.24,1.71 -18.99,3.45zm-9.5 209.82c2.57,43.76 -53.84,74.03 -86.34,88.94 -42.15,19.33 7.78,55.59 70.8,23.32 31.87,26.96 54.26,60.81 47.49,107.06 -128.13,-17.98 -141.9,53.24 -94.13,46.63l38.86 -6.05 29.35 54.4c-31.03,-3.19 -72.33,12.96 -81.16,37.99 -33.22,-52.37 -62.17,-104 -77.71,-160.6 -13.86,-50.47 19.58,-149.48 41.45,-192.56 34.02,13.74 75.56,11.82 111.39,0.86zm-25.9 -131.25c34.68,-23.36 48.29,-28.61 91.53,-20.72 33.39,5.17 59.87,21.3 79.43,48.36 54.69,75.98 69.37,159.16 44.04,249.54 -46.66,158.21 -94.87,236.77 -146.8,356.62 -30.17,-32.75 -71.03,-76.72 -88.94,-110.52 30.82,-38.24 35.98,-28.25 77.72,-20.73 51.68,9.31 40.92,-45.53 26.77,-68.21 -8.06,-12.66 -16.41,-25.03 -25.04,-37.13 20.61,-1.22 42.77,-3.88 45.77,-27.64 9.2,-68.5 -11.52,-119.44 -62.18,-152.83 50.09,-55 24.44,-126.27 4.31,-132.11l-18.13 -0.85c-7.5,7.5 -82.25,12.37 -98.43,12.08 32.46,-59.73 64.52,-87.64 69.94,-95.85zm-183.06 4474.55c-44.9,-168.26 -206.35,-212.1 -269.4,-31.95 -40.6,115.98 -30.84,276.74 57.84,369.58 13.07,13.68 46.66,27.34 48.37,25.03 52.91,11.79 123.21,-32.82 151.11,-106.2 30.35,-79.82 34.29,-174.22 12.08,-256.46zm-157.16 -93.25c95.39,-19.06 164.11,200.65 82.89,350.57 -98.04,181.01 -227.72,-88.59 -134.7,-297.9 10.94,-24.17 28.21,-41.73 51.81,-52.67zm-2766.58 -539.68c51.63,-224.81 -77.07,-365.27 -182.2,-242.64 -101.23,118.1 -90.95,454.61 60.44,453.33 33,-0.28 61.34,-36.58 74.26,-64.76l0.86 0c18.37,-37.1 38.05,-105.72 46.63,-145.93zm-82.89 -231.41c18.66,15.03 24.5,35.4 23.32,35.4l0 -0.86c33.14,72.46 15.15,168.89 -7.78,249.55 -13.78,48.48 -38.15,121.58 -75.11,101.89 -29.5,-15.73 -36.16,-53.34 -44.04,-81.17 -26.89,-94.89 -1.72,-153.91 -1.72,-176.15l0.86 0c6.86,-33.73 23.55,-106.86 54.4,-124.34 21.9,-11.99 38.59,-13.43 50.08,-4.31zm-431.74 -680.43c-115.55,-4.61 -319.68,69.66 -423.11,113.98l0 131.25 15.55 34.53c-203.02,62.17 -412.5,134.15 -615.66,190.84 -12.78,-44.72 -54.82,-105.94 -94.13,-133.84 -31.36,-22.28 -200.75,-0.64 -217.6,50.94 -21.2,64.89 22.44,136.96 51.81,205.5 26.63,62.16 65.66,168.98 115.71,208.1 15.54,12.09 40.01,15.54 73.4,10.36 54.1,-4.17 173.37,-9.61 162.33,-98.43 -2.86,-23 -20.15,-89.7 -33.68,-114.85 169.08,-51.56 399.88,-116.84 562.99,-177.02 52.08,-20.68 39.83,-22.08 56.99,18.14 51.44,120.57 63.79,111.59 213.27,56.99 62.03,-22.66 218.76,-74.67 257.32,-131.25 59.76,-96.36 49.78,-255.82 -38.86,-334.17 -18.99,-16.69 -47.78,-27.06 -86.34,-31.09zm-3.45 78.58c-60.18,-6.75 -299.33,65.54 -351.45,100.15 -12.08,-28.2 -21.58,-46.62 -28.49,-55.26 96.75,-27.75 391.01,-160.32 467.14,-37.14 26.15,42.31 47.81,104.78 15.54,150.26 -11.08,-75.05 -23.77,-138.28 -102.75,-158.02zm-264.23 429.15l0.86 -81.17c77.97,-14.61 356.52,-106.44 392.88,-179.6 -2.75,60.24 -23.02,111.14 -82.03,143.34 -72.71,39.68 -196.49,83.05 -265.95,106.21 -29.35,9.78 -44.61,13.52 -45.76,11.22zm264.23 -401.52c71.38,16.74 70.45,110.72 82.03,151.11 -61.98,54.82 -254.58,115.34 -341.95,139.89 -12.35,-16.83 -82.89,-189.1 -82.89,-199.46 73.73,-27.5 273.38,-107.81 342.81,-91.53zm-970.56 468.87l-34.53 -72.53c206.23,-68.75 414.59,-127.78 623.43,-189.97 9.67,7.72 36.14,51.04 12.95,63.03l-601.84 199.46zm-246.95 -203.79l87.21 -4.31c63.37,48.66 129.74,220.68 152.84,296.18 12.54,41.01 23.23,86.67 -28.5,100.16 -35.82,9.33 -136.77,33.04 -155.42,-14.68 -39.77,-101.73 -63.56,-100.19 -121.75,-281.5 -17.98,-56.02 -8.7,-83.09 65.63,-95.85zm894.56 -34.53c32.72,104.54 37.21,42.05 31.08,137.29l0 11.22 -42.31 -93.25c14.36,-35.86 -14.15,-123.1 -45.76,-119.16 -26.96,-45.6 -9.71,-38.31 -12.96,-93.25 -0.57,-9.79 -0.86,-15.54 -0.86,-17.27 18.61,55.41 50.1,108.24 70.81,174.42zm-866.07 94.12c-55.34,18.44 -32.63,41.77 -5.17,107.07 5.28,12.56 77.47,176.05 91.53,183.06 21.05,10.49 79.33,-20.87 82.02,-42.32 2.58,-20.57 -91.95,-208.3 -109.66,-229.68 -16.69,-20.15 -36.26,-26.19 -58.72,-18.13zm0.86 29.35c30,-14.96 30.04,4.61 60.44,45.77 25.72,34.81 80.09,161.4 72.54,170.1l-34.54 15.54 -102.75 -227.96c1.15,-1.16 2.59,-2.3 4.31,-3.46z"/>
	</g>
	<g id="Face-and-sand">
		<g id="Sand">
			<path fill="#fddda0" d="M9566.49 6410.66c121.63,60.44 384.77,65.33 510.32,-12.08 -164.06,-10.41 -468.56,-110.82 -510.32,12.08zm-3188.96 -532.63c-101.9,-20.5 -275.68,-31.66 -437.06,10.33l-7.84 69.32c91.41,38.24 339.33,12.11 442.79,-7.88l2.11 -71.76zm32.24 -135.49c71.64,71.05 323.58,57.85 412.55,-3.67 -55.6,-51.62 -329.63,-78.33 -412.55,3.67zm-502.06 -28c-84.41,-46.46 -271.17,-52.59 -376.56,7.93 99.6,59.58 270.09,64.42 376.56,-7.93z"/>
			<path fill="#efb578" d="M10292.68 6180.98c-67.32,-19.05 -378.22,-127.82 -506,7.76 21.79,21.04 51.74,39.75 89.8,56.13 38.21,17.08 76.78,32.62 115.71,46.63 45.04,-8.55 289.83,-75.9 300.49,-110.52zm-6381.12 -860.89c-137.48,14.24 -315.08,-12.62 -329.84,50.94 136.53,188.25 246.47,171.27 329.84,-50.94zm568.17 -199.46c37.85,64.69 121.9,60.66 252.14,-12.08 -105.38,-22.95 -154.33,-51.53 -252.14,12.08zm642.43 802.17c81.41,69.6 273.15,60.26 359.21,37.99 114.35,-176.79 -178.23,-136.2 -359.21,-37.99z"/>
			<path fill="#efbf85" d="M5927.91 5714.53c-56.58,40.43 -321.57,67.03 -406.03,17.22l-17.16 653c691.1,184.22 795.89,70.54 527.55,-408.95 -39.8,-1.78 -112.33,15.72 -111.86,-31.42l7.5 -229.84zm488.6 207.4c48,-30.27 63.75,-63.62 83.77,-114.85 -139.52,-130.06 -94.45,29.02 -83.77,114.85z"/>
			<path fill="#c86335" d="M5636.79 6268.18l180.38 30.99c-10.82,-347.17 -180.38,-220.92 -180.38,-30.99zm877.96 6.25l178.12 -44.2c16.83,-248.58 -192.36,-205.52 -178.12,44.2zm-377.45 45.6c-113.6,9.75 -162.05,232.5 -153.36,315.24l327.76 -7.18c7.58,-95.94 15.71,-324.39 -174.4,-308.06z"/>
			<path fill="#de9e64" d="M6012.41 6000.51l-60.44 416.2c-125.31,-5.85 -296.39,-13.9 -417.92,-31.95 -53.54,25.04 -19.64,109.68 -17.83,154.25 90.51,36.23 352.35,88.32 467.73,96.27 -2.72,-128.16 34.42,-295.29 173.53,-316.08 149.44,-22.34 174.37,187.81 154.23,308.89 261.16,-6.7 333.96,-57.33 522.64,-111.32l4.1 -758.45c-115.67,8.37 -229.32,37.51 -338.17,48.77 -20.02,51.23 -35.76,84.58 -83.77,114.85 -90.66,61.3 -216.63,50.4 -404.1,78.57zm692.51 108.8c9.21,21.3 16.69,64.47 22.45,129.52 -83.41,45.51 -153.81,70.25 -238.32,71.68 -11.6,-50.72 -9.34,-50.98 -4.31,-105.35 15.93,-172.08 170.02,-211.95 220.18,-95.85z"/>
		</g>
		<g id="Face">
			<path fill="white" d="M7516.59 2708.92c-3.24,48.68 -6.47,132.02 6.05,183.06 12.34,48.04 34.03,97.88 71.67,132.1 73.77,67.08 153.91,61.65 230.54,6.92 375.86,-633.61 -243.77,-1112.95 -308.26,-322.08zm-360.07 362.66c-21.2,4.52 -31.78,15.92 -20.72,41.45 25.08,0 33.63,-26.92 20.72,-41.45zm-276.77 -63.43c50.35,70 146.04,87.59 223.24,67.76 66.02,-77.51 116.67,-89.57 152.83,-132.11 28.76,-61.52 27.86,-107.13 25.9,-171.84 19.15,-843.63 -601.08,-255.75 -401.97,236.19zm638.57 155.84c1.77,-54.72 -76.48,-21.43 -45.77,12.08 19.2,20.94 44.28,5.59 45.77,-12.08zm84.62 16.4c1.46,-46.93 -66.8,-34.47 -53.54,6.91 9.45,29.47 52.33,23.41 53.54,-6.91zm-50.08 -109.66c-38.63,1.84 -33.82,66.91 6.91,56.13 28.33,-7.51 26.58,-49.02 -6.91,-56.13zm-371.3 95.85c18.6,-11.63 9.13,-45.27 -14.67,-46.63 -37.59,-2.14 -25.77,71.23 14.67,46.63zm944.65 -705.92c80.06,-69.97 -47.48,-314.33 -108.93,-274.26 -110,71.7 46.82,328.51 108.93,274.26zm-1173.93 -257.25c-81.99,-49.08 -296.25,103.06 -225.04,231.08 49.37,88.75 286.62,-194.23 225.04,-231.08z"/>
			<path fill="#3188d2" d="M7611.9 2793.01c-29.66,298.92 157.81,286.73 184.16,14.19l-184.16 -14.19zm-630.49 34.03c-14.72,274.23 177.83,223.16 199.11,-13.81l-199.11 13.81z"/>
			<path fill="#3a65ad" d="M7627.98 2805.64l140.74 11.21c72.35,-288.4 -168.79,-246.8 -140.74,-11.21zm-620.85 42.31l147.66 -13.82c73.53,-258.29 -204.58,-264.18 -147.66,13.82z"/>
			<path fill="#9f3441" d="M7611.83 3417.28c12.52,-31.77 21.75,-52.47 52.77,-61.46 -63.31,-51.37 -100.43,18.57 -52.77,61.46z"/>
			<path fill="#ec6ac5" d="M7619.79 3418.45c52.87,27.48 77.45,-11.87 48.57,-57.7 -35.54,4.19 -51.29,27.25 -48.57,57.7z"/>
			<path fill="#e6b891" d="M7274.26 3159.01c-101.69,-116.95 89.13,-150.05 119.61,-67.77l-119.61 67.77z"/>
			<path fill="#f8e5b6" d="M7276.55 3097.48l-6.05 -0.86c0,1.39 -11.56,3.66 -6.05,14.68 8.27,16.54 28.93,-5.4 12.09,-13.82zm20.72 -24.18c-6.6,4.96 -23.09,7.69 -16.41,19.87 13.75,25.02 60.05,-9.42 36.27,-25.9l-19.87 6.04z"/>
			<path fill="#d19160" d="M7281.5 3146.73c8.05,75.66 168.41,-4.21 98.66,-67.38 -28.23,31.77 -61.24,53.97 -98.66,67.38z"/>
		</g>
		<path fill="black" d="M9531.95 6408.93c14.14,28.34 64.49,-24.94 139.89,-28.49 196.18,-9.26 272.2,50.91 404.97,18.13 42.59,-10.36 86.34,-14.97 131.25,-13.82 50.37,9.8 53.45,-50.88 -31.09,-51.81 -114.77,-1.26 -111.4,43.43 -214.15,27.63 -138.83,-21.35 -321.81,-67.56 -430.01,33.68l-1.74 13.82c0.58,0 0.87,0.29 0.87,0.86zm227.09 -254.72c-8.06,4.6 -16.12,9.2 -24.18,13.81 -59.12,32.69 -16.09,79.26 -7.77,49.22 0,-8.79 106.52,-45.52 114.85,-48.36 179.31,-61.24 292.15,51.12 497.36,3.46 56.33,-13.08 132.33,-40 182.2,-34.55 48.35,5.3 52.85,-64.64 -25.04,-52.67 -39.72,3.45 -78.86,11.8 -117.43,25.04 -88.22,31.69 -207.53,26.58 -296.17,6.05 -106.4,-24.66 -227.85,-20.13 -323.81,38zm-5851.8 -870.39c-60.8,16.59 -88.74,40.16 -153.7,34.54 -39.14,-3.45 -78.87,-2.59 -119.16,2.6 -36.56,4.66 -94.13,34.25 -94.13,49.22l-1.72 9.5c0.57,0.57 0.86,1.15 0.86,1.72 15.85,15.85 47.39,-25.44 93.25,-27.64 103.69,-4.95 153.8,16.56 246.95,-25.89 19.88,-9.06 68.81,-12.05 94.99,-16.41 5.02,-28.49 -42.72,-34.7 -67.35,-27.64zm562.13 -158.88c102.37,-51.28 168.19,-15.19 262.49,-16.4 44.9,-1.16 89.51,-5.76 133.84,-13.82 13.7,2.83 3.69,8.63 40.58,8.63 0.57,-0.58 1.15,-1.16 1.72,-1.74 0,-2.79 5.94,-15.32 -8.63,-30.22 -41.16,-42.09 -96.06,12.09 -209.82,-3.45 -99.09,-13.55 -189.96,-17.55 -262.5,60.43l0.87 16.42c21.52,-1.21 12.9,1.07 41.45,-19.87zm2121.56 546.59c-51.62,1.07 -212.69,11.81 -221.05,76.85l-9.5 104.48c-77.03,-10.42 -233.25,-13.45 -311.72,-0.85l-94.12 17.26c-3.17,-163.12 37.5,-176.41 -131.24,-201.18 -79.11,-11.62 -243.22,-16.25 -308.26,22.44 -38.54,22.92 -40.45,68.74 -38,132.98 -100.45,-5.35 -345.2,26.43 -422.25,85.48 -17.58,13.48 -31.53,48.36 -2.59,48.36 37.51,-37.51 227.04,-76.05 279.77,-82.89 49.81,-6.45 99.03,-7.61 147.65,-3.45l0.86 411.88 0 253.86c-1.15,20.73 13.25,35.12 43.18,43.18 242.24,71.09 384.3,93.12 632.93,105.34 217.52,10.68 495.12,-31.62 680.42,-136.43 21.88,-12.66 31.66,-31.67 29.35,-56.99 7.49,-82.89 11.23,-159.46 11.23,-229.69 -0.71,-173.28 9.8,-290.27 -5.18,-470.59 -5.75,-69.18 6.65,-81.7 -119.16,-107.07 -64.9,-13.09 -99.4,-14.28 -162.34,-12.95zm-799.57 32.81c29.93,0.57 56.7,4.6 80.3,12.08 -56.99,22.44 -118.01,31.67 -183.06,27.63 -65.63,-4.6 -108.79,-11.8 -129.52,-21.58 74.64,-22.28 159.61,-19.5 232.28,-18.13zm707.18 22.44c98.79,-10.14 197.92,-15.73 294.45,12.08 -84.62,28.88 -299.74,46.65 -349.71,0.87 14.39,-6.91 32.81,-11.22 55.26,-12.96zm-424.82 665.75c63.37,-76.95 219.88,-97.51 208.1,152.83 -1.16,21.88 -2.6,43.76 -4.32,65.63 -91.53,3.46 -179.6,2.6 -264.23,-2.59 -2.71,-25.78 13.14,-120.71 22.45,-145.07 14.97,-34.54 27.63,-58.14 38,-70.8zm255.58 -498.23c18.48,1.53 28.27,2.39 29.36,2.6l0 31.95c-72.1,13.94 -71.95,17.55 -171.84,23.31 -90.48,5.22 -169.21,17.27 -237.45,-11.22 0,-13 0.28,-23.06 0.86,-30.23 32.71,-12.15 159.08,-27.13 203.78,-27.63 65.03,-0.73 122.22,8.46 175.29,11.22zm96.71 -108.8l0 3.46c118.02,42.6 266.07,27 392.88,-8.64l-7.77 638.98c-0.58,23.6 -0.58,48.36 0,74.26 -12.08,3.45 -27.64,8.92 -46.63,16.41 -151.4,61.32 -269.7,88.88 -430.01,97.58 10.87,-65.31 3.23,-185.82 -37.14,-248.68 -98.98,-154.19 -344.61,-44.93 -338.48,243.5 -117,-8.56 -330.76,-45.93 -423.11,-82.89 -5.84,-143.14 5.18,-267.66 0,-415.33l-3.45 -349.71c88.04,51.92 315.72,31.83 368.7,-6.05l-2.6 196.01c-1.01,101.87 399.98,42.75 427.43,38.86 87.19,-12.36 89.78,-40.68 94.12,-86.34 2.88,-36.85 4.89,-73.98 6.05,-111.4zm-695.97 275.45c-52.37,8.74 -82.78,42.94 -103.61,89.8 -11.52,26.48 -14.68,65.63 -9.5,117.43 57.23,30.19 156.1,55.27 216.72,55.27 18.4,-81.08 7.6,-143.93 -25.89,-214.15 -14.97,-31.66 -40.88,-47.78 -77.72,-48.36zm-46.62 83.77c15.71,-23.65 58.36,-59.75 83.76,-12.09 24.32,45.64 33.66,90.5 26.77,143.34 -44.33,-10.94 -88.08,-22.16 -131.25,-33.68 0,-34.33 4.3,-67.57 20.73,-97.57zm1043.95 94.11c-5.76,-65.05 -13.24,-108.22 -22.45,-129.52 -25.64,-59.3 -93.19,-84.2 -138.15,-53.54 -71.89,49.03 -81.76,112.4 -85.49,190.84l7.77 63.9c84.53,-1.43 154.91,-26.17 238.32,-71.68zm-76.86 -125.19c33.11,33.09 26.3,91.44 21.59,95.84l-139.01 46.63c-5.83,-101.9 51.77,-208.13 117.42,-142.47zm740.01 -3197.46c-135.09,11.23 -282.05,70.08 -306.53,221.05 -8.38,51.62 51.49,57.3 44.03,6.91 -2.29,-15.47 18.74,-59.26 28.49,-72.54 90.38,-123.02 337.48,-134.85 381.66,-50.07 14.18,27.22 59.87,-0.69 14.68,-55.27 -34.93,-42.2 -112.76,-52.63 -162.34,-50.08zm291.86 -331.58c-87.08,40.31 -119.83,180.82 -112.25,276.31 5.25,66.15 15.72,131.68 78.57,167.51 21.49,12.26 38.53,11.5 61.3,3.45 0,-0.57 0.58,-0.85 1.74,-0.85 36.26,-14.98 62.74,-41.74 79.43,-80.31 43.68,-103.34 51.31,-222.56 -7.77,-321.22 -38.54,-64.34 -85.84,-48.69 -101.03,-44.9zm-54.39 285.81c-9.95,-188.47 89.35,-296.62 126.93,-175.29 55.43,179.01 -60.75,367.34 -109.66,246.09 -10.94,-25.89 -16.69,-49.49 -17.27,-70.8zm108.8 -610.48c-2.31,-0.58 -4.32,-0.28 -6.05,0.86 -29.82,-5.95 -79.64,16.37 -101.89,38.86 -95.56,96.6 -128.75,212.97 -133.84,347.98 -3.11,82.44 44.8,63.46 46.62,50.94l6.05 -70.8c8.29,-76.86 32.95,-159.45 75.12,-230.54 61.81,-104.22 188.44,-66.13 229.68,10.36 29.94,52.95 44.91,111.39 44.91,175.28 0,332.05 -66.76,374.31 -73.4,435.2 -6.26,57.49 101.04,9.47 133.84,-289.27 12.64,-115.15 11.49,-304.29 -64.76,-388.57 -40.29,-44.32 -87.79,-70.51 -142.47,-78.57 -4.61,-1.72 -9.2,-2.3 -13.81,-1.72zm-858.3 604.43c-14.46,-159.34 3.56,-298.87 122.62,-417.92 42.02,-42.02 92.1,-61.6 150.25,-58.72 49.3,2.47 90.8,112 96.7,164.93 6.05,54.15 2.11,184.92 14.68,208.1 6.87,12.66 47.57,32.95 53.53,-61.3 6.84,-107.82 -2.8,-225.17 -69.08,-316.04 -123.38,-169.19 -422.99,40.01 -431.74,351.44 -8.99,319.81 115.12,314.17 85.49,221.92l-22.45 -92.4zm92.39 -129.52c-24.55,73.66 -37.05,221.52 31.09,277.17 116.6,95.22 284.91,-138.77 172.69,-349.71 -20.24,-38.06 -64.03,-63.96 -100.15,-57.85 -46.6,7.89 -91.09,88.61 -103.62,130.39zm131.25 -61.3c63.68,21.25 77.24,245.83 -4.32,288.4 -130.6,68.15 -96.57,-220.2 -44.03,-274.59 14.06,-14.54 30.3,-20.75 48.36,-13.81zm469.73 714.96c0,50.91 100.35,87.82 123.48,16.4 17.8,-54.95 -45.75,-111.99 -95.85,-72.53 -18.99,14.39 -28.21,33.1 -27.63,56.13zm55.26 26.77c2.66,-20.34 0.75,-32.78 37.14,-44.91 10.85,29.85 -8.93,50.53 -37.14,44.91zm-14.67 -10.37c0,13.37 -28.78,-29.75 2.59,-51.81 10.37,-7.49 22.17,-7.49 35.4,0 -30.17,6.34 -37.99,25.2 -37.99,51.81zm-285.81 -392.88c-62.26,5.64 -145.28,57.11 -107.07,129.53 74.32,140.84 281.88,26.53 205.5,-91.53 -19.5,-30.15 -61.67,-43.14 -98.43,-38zm-33.69 63.9c80.02,-37.31 121.85,20.24 76,59.58l-38 24.18c-3.9,-27.31 7.63,-50.51 -18.99,-53.54 -21.84,-2.49 -25.47,27.97 -21.58,49.22 -54.23,-50.09 -21.98,-59.34 2.58,-79.43zm737.42 -938.61c-36.58,0 -85.93,82 -76.85,161.47 33.46,292.65 280.46,238.65 243.5,58.73 -15.22,-74.12 -55.22,-125.44 -98.44,-184.78 -17.27,-23.61 -40.01,-35.41 -68.21,-35.41zm-3.46 209.83c-11.32,-49.24 -25.93,-84.92 9.51,-141.61 52.25,44.78 120.96,168.35 89.79,225.36 -18.49,24.25 -86.44,-7.78 -99.3,-83.75zm-1037.9 -132.11c-48,-150.22 -341.61,21.68 -303.94,215.01 6.49,33.37 37.15,59.76 63.03,51.8 101.04,-31.08 264.67,-183.64 240.91,-266.81zm-60.44 19.86c-27.21,81.65 -108.31,143.05 -182.2,180.47 -14.59,-145.77 159.38,-211.05 182.2,-188.24l0 7.77z"/>
	</g>
	<g id="Top">
		<rect fill="#98633B" x="5436.36" y="6567.38" width="3175.48" height="287.11"/>
		<path fill="#8c512b" d="M5818.13 6725.83c50.23,27.5 50.35,33.95 142.47,41.45 95.07,7.73 136.9,9.26 222.78,-1.72 98.5,-12.61 -8.66,-51.8 -37.14,-78.57 90.49,15.81 393.89,34.71 463.69,-12.96 101.22,52.15 78.35,55.17 217.6,78.57 73.54,12.28 146.65,15.16 219.32,8.63 129.89,-11.12 145.04,-15.23 50.94,-75.12 -45.06,-29.09 -89.67,-55.57 -133.84,-79.43l-1385.02 0 239.19 119.16zm2042.99 -119.16c90.18,101.57 183.72,166.34 280.63,194.28 97.62,27.94 189.15,41.19 274.59,39.72 85.42,-1.49 125.14,-33.74 119.16,-96.71 -5.93,-62.96 -30.1,-108.72 -72.53,-137.29l-601.85 0z"/>
		<rect fill="black" x="5412.01" y="6528.09" width="3242.46" height="78.58"/>
	</g>
</svg>
