<?xml version="1.0" encoding="UTF-8"?>
<!-- COPYRIGHT RobotoSkunk 2022 -->

<svg xmlns="http://www.w3.org/2000/svg" shape-rendering="geometricPrecision" viewBox="0 0 444.51 264.93">
	<g id="Skunk">
		<path fill="#98633B" d="M404.84 250.06c8.03,-1.06 11.5,-5.45 10.41,-13.15 4.49,-0.59 8.98,-1.27 13.47,-2.04 7.02,-1.19 10.01,-5.17 8.97,-11.92 -0.21,-1.46 -0.77,-2.68 -1.67,-3.66 -3.27,0.05 -10.39,-2.58 -13.63,-2.4 -31.61,38.14 -108.57,22.82 -108.85,2.92 -23.41,0.26 -96.69,-0.71 -163.72,3.35 -20.06,33.94 -99.54,37.17 -126.58,2.13 -0.99,0 -8.67,2.61 -9.65,2.61 -2.49,1.4 -4.12,3.89 -4.86,7.45 -0.73,3.37 0.74,6.9 4.11,8.41 4.86,2.21 9.9,2.91 15.1,2.11 -0.23,2.59 0.46,4.94 2.36,6.78 4.57,4.47 10.19,6.95 16.86,7.46 15.6,1.16 31.2,1.43 46.8,0.79 1.37,1.38 2.61,2.53 4.7,2.67 22.67,1.54 45.43,1.77 68.28,0.68 47.36,-2.28 94.73,-4.24 142.11,-5.86 17.81,-0.61 35.59,-1.42 53.34,-2.43 7.46,-0.43 11.77,-4.53 11.92,-4.58 0.2,-0.04 23.13,-0.33 30.53,-1.32z"/>
		<path fill="#6F432A" d="M136.25 250.86c0.72,0 1.44,-0.02 2.15,-0.04 14.09,-0.45 28.17,-0.65 42.26,-0.6 6.48,0.05 12.98,-0.11 19.49,-0.48 4.04,-0.21 6.44,1.26 11.88,-0.32 2.16,-4.33 -6.13,-4.75 -8.73,-4.42l0 0.04c-11.69,0.37 -23.39,0.45 -35.08,0.24 -2.87,-0.06 -5.77,0.04 -8.69,0.28 -9.22,0.71 -18.47,0.97 -27.74,0.75 -7.27,-0.69 -11.02,0.74 -11.25,4.31 5.21,0.16 10.45,0.24 15.71,0.24zm13.57 -22.41l-2.23 4.26c15.29,0.76 29.49,1.43 44.99,-0.47 0.58,-0.88 0.18,-1.61 -0.24,-1.63 -5.42,-0.61 -10.87,-1.01 -16.35,-1.2l-26.17 -0.96zm134.44 2.4c-4.2,0.31 -8.41,0.33 -12.64,0.04 -6.06,-0.43 -12.13,-0.64 -18.21,-0.64 -3.38,0.53 -6.82,0.99 -10.33,1.39l-19.85 1.92c-3.37,0.39 -6.75,0.44 -10.12,0.12 -1.58,0.08 -1.9,2.48 0.23,2.63 7.79,0.54 18.15,0.1 26.03,-1.04 20.72,-2.99 27.87,0.71 45.21,-0.2 8.16,-0.45 16.29,-0.28 24.39,0.52l3.83 0.16c0.44,-2.15 -0.84,-3.89 -4.74,-5.02 -0.24,0 -0.47,-0.02 -0.68,-0.04 -5.98,-0.58 -17.15,-0.3 -23.12,0.16zm72.47 15.7c1.75,0.13 3.36,-0.05 4.82,-0.56 3.97,-1.83 -14.5,-2.61 -30.05,-1.99 -10.71,0.4 -21.12,0.82 -31.22,1.28 -3.24,0.16 -6.31,0.55 -9.2,1.19 0,0.72 -0.13,1.31 1.03,1.4 2.45,0.13 4.89,0.12 7.34,-0.04 5.42,-0.35 10.85,-0.47 16.3,-0.36 10.31,0.21 20.58,-0.08 30.82,-0.88 3.37,-0.26 6.76,-0.28 10.16,-0.04zm-92.56 -2.47c3.15,-0.26 15.01,0.3 16.26,-1.16l0.4 -0.43c-0.85,-0.86 -0.54,-0.92 -2.91,-1.72 -3.46,-1.16 -10.8,-0.27 -14.43,0.2 -10.28,1.36 -20.59,1.73 -30.93,1.12l-0.84 -0.24c0,0 -4.95,0.25 -5.62,0.6l-0.4 0.59c6.36,1.79 12.73,2.66 19.49,2.32 6.36,-0.32 12.68,-0.75 18.98,-1.28z"/>
		<path fill="#8C512B" d="M16.54 227.9c1.76,4.36 4.28,6.74 7.46,10 9.88,10.13 24.87,15.12 38.62,16.98 4.73,0.64 9.42,0.55 14.08,-0.28 0.37,-0.08 0.75,-0.14 1.15,-0.2 -19.76,-8.36 -31.72,-11.5 -52.95,-29.2 -1.9,0 -6.58,0.55 -8.36,2.7zm294.18 -8.67c-4.68,-1.09 -6.8,0.14 -7.56,2.61 0.96,3.18 2.62,6.23 4.9,8.89 5.02,3.14 7.46,2.9 8.94,1.38 -2.55,-3.09 -5.35,-9.67 -6.28,-12.88zm17.67 24.29c1.03,0.19 2.07,0.35 3.11,0.48l7.09 -0.24c-1.17,-6.25 -15.6,-7.17 -20.02,-11.22l-5.77 3.21c4.55,4.11 9.43,6.76 15.59,7.77z"/>
		<path fill="#5A3828" d="M313.72 231.09c-1.73,-0.11 -3.62,-0.23 -5.66,-0.36l4.74 5.02 5.42 -0.76c4.35,-4.86 0.97,-5.33 -4.5,-3.9zm24.91 12.71l-0.04 -0.04 -7.09 0.24c6.75,0.72 12.12,1.14 16.1,1.28 1.49,-3.83 0.9,-6.11 -8.97,-1.48z"/>
		<path fill="#333333" d="M296.58 158.23c-65.45,3.51 -101.37,-14.92 -145.67,49.9 0.73,4.71 0.03,7.7 -2.27,15.13 32.47,-2.87 136.71,-2.83 164.9,-3.45 -0.95,-15.13 7.24,-27.89 18.91,-36.68 -9.87,-12.23 -33.18,-21.63 -35.87,-24.9zm-146.92 51.14c-15.51,-59.64 -101.85,-37.59 -124.25,-3.61 35.5,37.57 91.85,40.35 124.25,3.61zm-15.51 -58.42l-18.52 20.6 24.32 14.45 -5.8 -35.05zm288.12 52.44c-23.68,-60.69 -107.64,-18.95 -107.11,11.71 0.59,34.44 123.14,29.37 107.11,-11.71z"/>
		<path fill="#262626" d="M235.98 153.38c-4.48,-11.38 -31.58,-28.39 -43.23,-6.23 -0.23,3.03 -2.33,51.01 -1.17,54 3.53,9.13 36.11,3.11 43.61,0.88 8.1,-2.53 1.08,-40.25 0.79,-48.65zm137.27 -34.73c-32.46,9.2 -49.5,13.19 -77.98,14.46 1.7,7.9 1.86,18.65 1.19,26.66 0.12,0.15 30.11,22.48 31.65,23.52 39.46,-15.23 30.1,2.32 45.14,-64.64zm-316.16 -31.87c-13.31,36.89 2.57,72.69 11.42,89.71 20.26,-6.68 33.26,-4.59 53.83,-5 4.9,-5.81 7.26,-8.75 11.12,-13.39 11.08,-27.59 14.73,-42.42 26.59,-55.37 -14,-13.05 -29.59,-37.16 -18.21,-61.15 26.8,17.39 35.68,14.72 53.5,8.58 -14.54,-44.32 -99.13,-87.23 -138.25,36.62zm218.63 -66.49c25.31,11.83 58.89,30.77 83.78,30.48 -7.9,-40.78 -48.99,-58.95 -83.78,-30.48z"/>
		<path fill="#131313" d="M197.8 152.2c0.77,0.02 1.55,0.04 2.35,0.04 8.05,-0.03 18.24,1.98 30.57,6.02 17.45,-17.34 -44.44,-21.62 -32.92,-6.06zm163.59 -24.8l-7.13 19.5c-3.7,10.57 -8.59,20.48 -14.67,29.73 26.03,11.37 29.41,-42.49 30.89,-55.21 -3.01,-2.4 -5.78,0.19 -9.09,5.98zm-300.2 -40.62c-18.28,0.9 -16.21,65.73 -4.19,90.7 5.01,-1.83 14.81,-1.38 17.86,-7.35 -4.52,-8.68 -7.73,-17.92 -9.65,-27.7 -3.66,-18.96 -4.39,-36.47 -4.02,-55.65z"/>
		<path fill="#191919" d="M30.81 207.25c-20.39,9.62 1.7,45.77 54.92,43.16 68.99,-3.38 68.81,-33.46 57.95,-41.99 -20.91,17.78 -71.03,29.83 -112.87,-1.17zm388.72 -3.33c-36.94,15.66 -68.13,14.69 -100.67,9.87 -14.1,21.44 26.84,31.17 52.22,27.22 31.8,-4.96 62.79,-20.19 48.45,-37.09z"/>
		<path fill="white" d="M295.27 133.11c-4.15,-2.99 -24.86,-6.56 -31.69,-2.12 40.74,24.17 -10.06,22.4 -32.7,22.36 -0.38,15.62 3.72,29.87 13.28,42.46 4.14,5.47 9.09,10.07 14.83,13.79 42.19,-4.36 38.49,-40.25 36.28,-76.49zm-132.32 -31c-32.36,31.66 -40.71,107.87 13.44,113.35 9.75,-6 18.33,-38.17 19.93,-49.59 0.42,-2.94 1.81,-13.58 1.52,-17.02 -17.54,-13.87 -25.09,-25.22 -34.89,-46.74zm-74.06 53c38,-18.51 61.73,-54.12 62.09,-73.09 -18.02,-3.76 -16.8,-31.23 -39.5,-25.54 -24.04,16.92 -30.54,69.6 -22.59,98.63zm230.21 -22.18l13.68 20.1 14.39 -26.67 -28.07 6.57zm-104.42 -111.97c-7.5,40.16 -44.14,38.25 -71.62,21.84 -1.86,121.25 292.11,91.1 257.21,13.14 -45.24,1.06 -85.89,-23.77 -135.02,-33.78 -40.07,4.67 -34.64,35.91 -50.57,-1.2z"/>
		<path fill="#3188D2" d="M189.32 160.11c-7.31,0.32 -22.57,2.63 -30.86,5.52 0,6.76 -1.09,25.91 14.41,28.47 14.3,2.37 15.56,-25.95 16.45,-33.99zm78.63 3.02c-6.11,-1.99 -20.58,-2.22 -26.87,-0.73 0.5,7.17 1.32,31.2 15.42,29.95 11.84,-1.04 11.17,-22.36 11.45,-29.22z"/>
		<path fill="#3A65AD" d="M171.54 143.54c-9.45,0.82 -15.04,16.48 -9.42,26.32 8.29,-2.9 16.09,-4.51 23.4,-4.83 4.79,-6.49 3.66,-23.03 -13.98,-21.49zm95.62 9.91l-24.52 1.46c-1.68,3.74 -1.58,8.22 1.96,10.44 6.12,-1.44 14.66,-0.75 20.88,1.28 4.22,-4.07 3.46,-8.32 1.68,-13.18z"/>
		<path fill="#C0CDE6" d="M129.55 101.81c-2.28,0.96 -4.47,1.37 -6.57,1.24 -24.06,19.81 34.78,10.12 26.11,-16.56 -8.55,8.75 -7.91,9.91 -19.54,15.32zm-14.59 12.28c-2.12,4.89 -4.65,9.59 -7.57,14.11 -4.78,7.33 -9.93,14.42 -15.43,21.25 -4.32,4.33 -4.23,7.81 1.2,10.27 20.11,-8.12 30.67,-28.53 36.74,-42.9 -7.43,-1.5 -9.42,-2.1 -14.94,-2.73zm20.92 -32.56c0.85,-16.98 -12.98,-36.49 -22.71,-19.98 5.3,8.59 7.78,19.19 7.57,29.22 7.81,1.77 13.48,-3.01 15.14,-9.24zm196.25 52.81c-20.46,-14.79 -0.58,28.18 1.08,12.87 -0.45,-4.27 -0.81,-8.57 -1.08,-12.87zm-15.26 -38.67c-0.53,-0.02 -1.05,-0.05 -1.56,-0.08 -6.29,-4.35 -6.69,-3.49 -5.54,3.95 -6.24,-0.57 -16.72,-5.01 -24.87,-12.12 -7.18,7.74 9.36,15.35 6.45,22.32 -22.36,1.04 -30.61,-0.89 -44.56,-3.5 -38.19,15.35 26.35,21.91 48.94,24.49 66.69,-1.25 144.84,-30.2 140.49,-80.55 -10.41,1.22 -24.28,0.03 -37.67,9.7 -5.88,4.73 -12.75,8.38 -20.61,10.96 -5,0.42 -9.97,0.85 -14.91,1.27 -3.27,0.27 -4.89,1.96 -4.86,5.07 0.05,3.85 2.24,5.84 6.57,5.98 6.99,0.21 13.89,-0.46 20.69,-2 -22.47,9.65 -43.82,15.55 -68.56,14.51zm-77.93 8.01c-17.07,-4.3 -32.51,-11.95 -46.32,-22.96 -3.59,-2.84 -6.89,-2.92 -9.89,-0.24 -0.77,0.7 -1.04,1.53 -0.8,2.52 1.25,4.78 3.22,9.32 5.9,13.63 3.53,7.81 1.79,8.08 -7.7,-2.78 -10.64,-9.7 -23.8,-23.66 -26.86,-40.11 -4.04,-16.03 -13.74,-11.21 -14.57,-6.84 3.81,43.84 71.32,137.12 59.52,81.55 16.88,25.02 60.8,32.94 84.42,17.14 -42.81,-33.73 -51.47,-20.8 -43.7,-41.91z"/>
		<path fill="black" d="M343.97 15.43c-9.48,-8.96 -20.58,-13.12 -33.28,-12.48 -11.77,0.24 -22.63,3.54 -32.57,9.89 -2.52,1.57 -4.65,3.44 -6.38,5.62 -1.96,-0.29 -3.92,-0.52 -5.86,-0.68 -3.4,0.21 -6.84,0.68 -10.32,1.4 -8.59,1.8 -16.19,5.56 -22.8,11.28 -1.71,1.46 -3.83,2.9 -5.1,4.42 -0.48,-2.63 -1.31,-5.31 -2.48,-8.05 -4.2,-9.65 -11.26,-16.05 -21.2,-19.21 -1.38,-0.08 -7.31,2.49 -2.12,6.93 3.05,2.6 6.93,7.43 6.7,11.76 -0.11,2.02 -0.12,3.1 -0.04,3.23 -0.4,2.55 -1.29,4.89 -2.67,7.02 -1.81,2.68 -4.09,4.82 -6.86,6.41 -0.18,0.08 -0.36,0.19 -0.51,0.32 -0.11,-3.96 -1.69,-7.72 -4.75,-11.28 -7.23,-8.37 -15.54,-15.6 -24.95,-21.68 -10.79,-6.97 -22.4,-10.41 -34.84,-10.33 -17.46,2.18 -32.53,9.3 -45.21,21.37 -18.05,17.17 -31.42,40.35 -38.1,64.38 -6.96,25.01 -9.61,50.61 -5.03,76.37 0.83,4.65 3.24,11.92 6.3,15.75 -11,5.15 -20.4,12.33 -28.18,21.52 -5.51,6.46 -6.08,16.54 -3.47,23.8 -1.75,-0.16 -3.48,-0.18 -5.18,-0.08 -2.23,0.11 -4.47,0.16 -6.7,0.16 -0.93,0.19 -1.93,0.32 -2.99,0.4 -2.21,0.16 -5.38,1.56 -5.38,2.59 0,0.64 0.33,1.14 1.04,1.2 2.99,0.23 16.49,0.68 20.8,0.32 0.19,-0.03 0.36,-0.04 0.52,-0.04 4.82,8.11 15.88,15.64 23.92,19.21 14.18,6.31 26.42,7.73 41.22,7.73 19.77,0 37.04,-2.9 53.81,-13.63 5.45,-3.48 8.12,-7.21 10.57,-12.6l0.04 0 1.43 -4.26c3.59,0.71 25.27,-0.4 31.85,-0.36 2.42,0 18.05,-0.33 46.88,-1 48.97,-1.12 43.5,-0.82 77.17,-1.15 1.46,5.04 5.48,10.67 9.97,14.15 8.41,6.52 18.42,7.82 28.74,9.49 5.22,0.84 12.93,0.91 17.86,0.31l13.59 -1.87c12.04,-2.2 23.44,-6.16 34.2,-11.88 5.8,-3.11 10.01,-7.19 12.64,-12.24l13.79 -0.39c1.26,-0.01 4.03,-0.71 4.27,-1.28 0,-0.08 0.04,-0.15 0.12,-0.2 0.05,-0.44 0.24,-1.12 -0.28,-1.63 -1.54,-0.8 -3.15,-1.2 -4.82,-1.2 -2.74,0.05 -5.49,0.08 -8.26,0.08 -0.98,0.13 -1.99,0.25 -3.03,0.36 1.55,-5.07 2.02,-10.07 0.16,-15.19 -4.38,-11.98 -12.63,-20.65 -24.75,-25.99 -11.51,-5.05 -23.47,-7.09 -35.88,-6.14 -1.03,0 -2.07,0.04 -3.11,0.12 3.86,-6.67 8.03,-20.45 9.69,-28.02 1.33,-6.11 2.26,-12.28 2.79,-18.5 16.18,-6.66 38.21,-18.42 50.71,-31.29 8.11,-8.36 13.89,-18.83 14.43,-30.65l-0.12 -13.52c-0.08,-1.09 -0.44,-2.06 -1.08,-2.91 -2.98,-3.93 -5.82,-3.89 -8.53,0.12 -8.05,4.09 -16.64,6.61 -25.75,7.54 -14.63,1.49 -26.97,0.53 -41.22,-2.28 -5.35,-12.69 -11.18,-23.62 -21.41,-33.24zm-41.41 -3.39c6.89,-1.22 12.49,-2.26 19.45,-0.2 5.1,1.49 9.65,3.99 13.63,7.5 8.64,7.49 15.11,16.49 19.42,26.98 -17.22,-4.4 -37.82,-12.8 -54.18,-19.73 -6.35,-2.68 -12.78,-4.78 -19.29,-6.3 6.11,-4.2 13.1,-6.95 20.97,-8.25zm-6.1 21.96c24.5,10.08 38.71,16.64 62.1,22.09l0 0.04c26.47,4.66 50.42,6.32 74.35,-2.63 0.45,5.18 -0.14,6.67 -1.04,11.12l-3.91 9.05c-0.93,1.51 -1.98,2.97 -3.14,4.38 -9.57,11.4 -21.17,20.44 -34.81,27.11 -4.14,2.02 -11.79,5.33 -22.96,9.92l-0.04 -0.03 0 0.03c-22.5,8.36 -45.21,12.64 -69.36,12.44 -6.37,-16.79 -23.09,-30.54 -41.25,-31.17 -12.99,-0.45 -20.13,8.93 -25.44,19.25 -4.47,8.69 0.23,10.84 2.63,8.06 0.93,-1.09 1.77,-2.17 2.52,-3.23 0.34,0.29 0.57,0.46 0.67,0.52 4.76,2.92 9.68,5.42 14.75,7.49l21.33 13.87c1.01,0.69 2.06,1.36 3.15,1.99l-8.53 3.39c-5.42,-7.3 -11.66,-9.66 -18.7,-7.05 -2.96,1.22 -5.18,4.5 -6.69,7.29l-1.04 -0.32c-0.43,0 -7.67,-2.23 -21.73,-6.69l-9.56 -6.34c-2.93,-2.5 -5.66,-5.21 -8.21,-8.13 -0.01,-0.03 0.82,-8.31 -2.72,-16.91 -1.99,-4.85 -2.34,-4.14 -3.86,-6.73 -2.68,-4.55 -9.51,-7.9 -14.63,-8.81 -6.92,-1.24 -11.97,0.48 -12.52,0.48 -0.15,-4.57 -0.11,-11.22 -1.95,-15.11 -0.13,0 -1.11,-3.15 -3.23,-0.88 -1.76,1.89 -2.75,5.42 -3.15,9.13 -0.48,4.36 -0.72,6.75 -0.72,7.18 -0.93,-1.04 -1.83,-2.1 -2.71,-3.19 1.18,-6.59 -0.72,-14.97 -8.45,-16.55 -1.4,-4.47 -2.69,-11.98 -2.67,-16.5 0.01,-2.65 -0.08,-7.49 0.24,-10.2 2.87,2.09 4.72,3.53 8.09,5.38 9.78,5.34 20.32,6.95 31.61,4.82 5.48,-1.03 12.31,-3.19 16.63,-6.74 6.72,-5.41 13.65,-11.91 15.14,-21 3.87,8.81 3.14,15.73 -0.67,24.27 -2.67,5.98 0.72,5.66 4.86,1.84 2.26,-2.1 4.48,-6.46 6.66,-13.08 0.66,-0.5 1.36,-1.06 2.11,-1.67 6.96,-5.7 18.4,-12.75 27.5,-15.11 4.31,-1.04 9.08,-1.32 14.31,-0.84 5.21,0.45 13.56,3.04 25.04,7.77zm-49.67 72.24c3.9,-2.5 9.31,-3.38 13.75,-2.83 9.53,1.17 20.91,10.23 25.91,18.69l2.83 5.14c-14.03,-0.69 -26.06,-2.64 -39.46,-7.61 -3.93,-1.46 -7.77,-2.51 -11.52,-3.15 2.12,-4.57 4.95,-7.99 8.49,-10.24zm172.44 97.14c-0.02,0.03 -0.02,0.05 0,0.08 0,1.98 1.87,5.71 -0.83,11.96 -1.6,3.64 -4.85,6.54 -9.77,8.69 -4.94,2.15 -9.18,3.83 -12.72,5.02 1.7,-4.71 2.66,-12.28 0,-17.02 -1.32,-2.36 -3.48,-4.12 -6.45,-5.26 -2.55,0.77 -3.11,2.36 -1.68,4.78 1.22,2.02 1.59,4.36 1.76,6.66 0.59,8.09 -3.69,12.49 -3.95,13.79 -9.25,2.17 -18.37,4.16 -27.27,4.23 2.56,-7.92 1.69,-13.08 -0.27,-20.57 -0.59,-2.02 -1.79,-3.38 -3.59,-4.07 -2.16,0.88 -2.91,2.58 -2.27,5.1 1.47,6.01 0.99,11.87 -1.36,17.62 -0.27,0.64 -0.6,1.24 -1,1.8 -1.14,0 -1.68,0.01 -1.63,0.04 -7.74,-0.9 -16.56,-3.24 -22.72,-8.29 -7.35,-6.04 -8.48,-13.02 -4.47,-20.57 8.86,-16.7 27.23,-26.87 45.73,-28.74 12.94,-1.31 25.24,1.11 36.91,7.25 15.7,8.3 15.29,17.21 15.58,17.5zm-92.6 -68.16l14.11 -2.44c-2.2,5.49 -5.44,11.75 -8.76,16.19l-5.35 -13.75zm-69.48 11.68c1.33,0.63 2.42,1.64 3.27,3.03 -3.53,0.15 -7.63,0.03 -12.28,-0.36 1.82,-2.27 6.19,-4.03 9.01,-2.67zm1.04 11.72c2.39,-0.14 4.49,-0.31 6.3,-0.52 2.37,6.09 0.21,20.78 -1.76,24.87 -1.51,3.16 -3.73,5.02 -6.65,5.58 -5.19,0.98 -8.68,-3.88 -10.49,-14.59 -0.47,-3.06 -1.86,-13.14 -0.56,-16.66l2.8 0.92c2.76,0.45 6.21,0.58 10.36,0.4zm-195.89 -75.35c4.33,-13.69 10.77,-26.53 19.14,-38.18 9.83,-13.69 22.53,-23.89 38.11,-30.62 4.36,-1.88 8.94,-2.99 13.75,-3.31 11.32,-0.77 21.78,2.24 31.37,9.01 6.43,4.55 12.66,9.34 18.7,14.39 3.21,3.59 6,7.47 8.17,11.8 -0.24,0.08 -0.47,0.18 -0.68,0.28 -11.96,4.84 -23.61,3.88 -34.96,-2.87 -1.91,-1.11 -3.56,-2.52 -4.94,-4.22 -2.5,-2.98 -5.42,-4.99 -8.77,-6.02 -0.69,0.02 -1.3,0.3 -1.83,0.83 -7.35,7.35 -6.47,15.78 -5.7,25.4 -5.11,-5.9 -11.6,-9.04 -19.5,-9.41 -6.19,0.8 -11.17,3.55 -14.95,8.25 -3.93,4.84 -6.94,10.15 -9.04,15.94 -8.83,24.2 -11.65,47.97 -9.77,73.35 0.4,5.4 1.85,10.06 4.34,13.99 2.48,3.91 6.3,4.57 11.48,2 4.9,-2.7 16.12,-13.53 21.49,-19.22 6.11,-6.56 11.52,-13.63 16.22,-21.2 0.43,-0.75 2.21,-4.23 5.35,-10.45 4.51,-2.92 8.31,-6.76 11.4,-11.52l3.07 2.35c-17.01,18.64 -24.49,49.02 -20.33,73.83 -11.11,-7.59 -27.09,-11.58 -40.19,-10.44 -12.79,1.1 -22.58,3.08 -34.36,7.37 -5.65,-11.76 -7.04,-31.31 -6.57,-43.93 0.38,-10.48 1.88,-21.28 4.46,-31.41l4.54 -15.99zm28.31 47.92c0,-12.82 2.72,-26.61 5.86,-39.03 2.12,-8.45 5.33,-16.53 9.6,-24.23 1.71,-3.11 4.07,-5.24 7.1,-6.38 1.59,-0.61 3.39,-0.93 5.38,-0.96 6.96,3.01 11.06,6.58 12.28,10.73 1.19,4.14 1.85,7.17 1.95,9.09 -5.69,4.08 -11.58,8.68 -15.27,14.78 -0.02,-2.34 -1.3,-3.65 -3.82,-3.94 0.34,-0.85 0.74,-1.72 1.19,-2.59 2,-4.15 3.21,-8.52 3.63,-13.12 0.36,-3.78 -3.54,-5.89 -5.38,-3.47 -1.93,2.54 -0.4,7.32 -8.77,19.58 -1.91,2.79 -4.42,2.14 -4.94,6.41 -0.29,2.38 1.86,4.13 3.78,4.83 -3.4,5.48 -4.65,11.04 -4.7,17.5 -0.02,2.23 1.27,5.52 3.87,5.66 2.92,0.13 4.53,-1.17 4.82,-3.91l4.39 -3.79c2.09,-1.57 0.54,-6.03 -4.27,-5.86l4.19 -10.6c1.4,-0.66 2.73,-1.53 3.98,-2.59 -2.1,4.92 -2.99,9.84 -0.52,14.79l0 -0.04c0.11,0.18 0.2,0.37 0.28,0.56l6.78 4.38 2.95 0.08c-5.34,9.09 -10.47,16.27 -15.39,21.53 -3.59,3.77 -7.17,7.53 -10.76,11.28 -1.73,1.73 -3.62,3.21 -5.66,4.46 -1.63,-9.39 -2.6,-15.13 -2.55,-25.15zm57.76 -41.82c-1.28,3.33 -3.59,7.29 -6.18,10.97 -1.89,2.68 -5.02,5.3 -9.41,7.85l0 0.04c-6.59,2.74 -10.22,3.75 -10.88,3.03 -3.3,-3.49 3.91,-12.98 6.02,-15.31 3.67,-4.12 7.77,-7.64 12.32,-10.56 7.36,-4.78 10.43,-2 8.13,3.98zm21.2 13.72c10.16,-3.82 21.53,2.51 23.17,13.83 -2.14,-1.32 -4.14,-1.81 -3.99,2.19l-0.04 0c0.28,7.02 4.42,11.23 4.62,11.8l2.67 9.09 -2.59 0.64c-6.64,-4.63 -11.93,-10.65 -15.86,-18.06 -3.43,-6.17 -6.09,-12.66 -7.98,-19.49zm-5.06 51.06c1.76,-3.19 4.24,-5.55 7.46,-7.09 3.19,-1.57 6.36,-0.9 9.52,2.03 3.14,2.92 4.48,7.36 4.03,13.31l0 2.63c-1.49,13.45 -3.61,21.38 -6.38,23.8 -2.79,2.39 -5.91,2.98 -9.37,1.75 -3.48,-1.24 -5.64,-4.3 -6.49,-9.16 -1.47,-8.31 -1.1,-6.41 -1.16,-11.56 -0.16,-7.28 0.64,-12.52 2.39,-15.71zm-38.9 30.3c10.13,5.81 16.3,14.36 18.37,25.43 1.77,9.42 -0.1,17.04 -9.01,22.72 -7.91,5.05 -16.86,8.54 -26.82,10.48 -5.17,-5.92 -5.22,-10.05 -4.91,-17.73 0.11,-2.72 0.91,-6.18 1.76,-8.73 0.82,-2.5 -0.09,-4.07 -2.75,-4.71 -1.57,0.24 -2.73,1.09 -3.47,2.55 -3.15,6.2 -2.3,10.83 -2.43,17.26 -0.11,4.68 1.07,8.87 3.55,12.56 -0.48,0.05 -0.95,0.11 -1.4,0.16 -12.84,2.13 -24.14,1.75 -33.92,-1.12 -0.35,-0.61 -0.63,-1.23 -0.84,-1.87 -2.01,-5.89 -1.94,-12.1 -0.64,-18.1 0.51,-2.34 1.22,-4.61 2.15,-6.81 0.56,-0.78 0.91,-1.64 1.04,-2.6 0.21,-1.83 -0.64,-2.91 -2.55,-3.22 -2.18,0.53 -3.79,1.86 -4.82,3.98 -3.82,7.73 -4.83,17.02 -2.91,25.39 -12.68,-5.28 -18.37,-7.73 -24.08,-15.86 -2.73,-3.87 -3.92,-7.45 -3.23,-11.88l2.11 -5.1c0.55,-0.82 1.18,-1.65 1.92,-2.47 15.37,-17.28 37.64,-25.02 60.35,-27.23 11.53,-1.25 22.38,1.05 32.53,6.9zm235.78 -57.05l4.75 -1.63c-1.36,11.61 -4.78,29.49 -11.2,39.66 -1.07,1.65 -1.93,3.34 -2.6,5.06 -5.72,1.69 -7.47,3.09 -12.75,6.14l-11.24 6.5c-3.46,2.6 -6.71,5.49 -9.77,8.65 -2.95,3 -5.23,6.22 -6.86,9.65l-2.31 6.73c-0.61,2.2 -0.88,6.83 -0.71,9.41l-5.43 0.12 -119.9 1.72c-16.11,0.79 -25.22,1.3 -27.35,1.51 -0.74,0.05 -1.42,0.2 -2.03,0.44 0.53,-3.16 0.75,-5.58 0.56,-8.85 2.49,1.3 6.81,2.52 12.95,3.67 6.03,1.11 8.99,0.89 8.89,-0.92 -0.12,-2.22 -3.77,-3.33 -7.85,-4.54 -7.47,-2.32 -12.98,-5.76 -16.54,-10.33 -1.78,-4.94 -4.23,-9.37 -7.34,-13.27 -1.91,-5.03 -3.03,-10.27 -3.35,-15.75 -0.73,-12.61 1.34,-24.22 5.18,-36.11 3.28,-10.16 8.23,-19 15.19,-26.95 3.54,12.12 8.94,21.6 17.26,31.29 -1.46,-0.61 -2.97,-0.8 -4.54,-0.56 -5.1,0.35 -9.42,3.35 -12.96,9.01 -5.71,9.09 -5.74,15.35 -5.7,24.96 0.03,6.78 1.16,12.43 4.99,18.53 2.52,4.01 7.13,6.05 13.83,6.1 6.67,0.05 11.21,-4.57 13.63,-13.87 3.66,-14.14 5.62,-25.43 0.44,-36.64 5.06,3.78 13.43,1.17 20.01,-1.43l-0.24 0.12c10.85,3.82 22.07,7.78 30.54,9.8 -0.9,4.18 -0.9,7.5 -0.28,12.68 1.91,14.41 5.22,22.9 9.92,25.47 9.76,5.34 16.93,-0.08 20.85,-9.16 3.4,-7.89 3.95,-19.72 1.28,-28.03 5.66,-1.89 8.71,-3.04 14.23,-6.06 6.65,-3.64 0.48,-10.57 -4.51,-12.71 -1.8,-0.77 -3.48,-1.73 -5.02,-2.87 5.09,0.77 12.12,1.3 17.18,1.55 1.01,4.15 1.46,8.45 1.36,12.92 -0.37,13.03 -3.65,38.91 -10.97,48.15 -6.19,7.82 -21.36,9.45 -23.95,12.04 -0.09,0 -2.07,1.31 2.51,2.11 5.21,0.88 11.33,-0.29 18.38,-3.51 7.04,-3.24 12.14,-9.84 15.3,-19.81 5.3,-16.71 8.69,-34.66 5.02,-51.7 5.82,0.05 11.62,-0.16 17.39,-0.64 2.93,6.93 10.12,23.38 16.18,20.41 5.13,-2.51 11.21,-13.14 13.03,-19.29 1.17,-3.99 1.77,-6.05 1.8,-6.18 4.25,-1.06 8.5,-2.26 12.75,-3.59zm-82.27 -53.21c-2.63,4.51 -3.1,9.44 -1.4,14.79 2.29,7.28 7.21,16.22 13.63,20.76l10.65 5.34c6.72,2.13 11.2,2.28 13.43,0.44 6.67,-5.52 3.49,-13.51 -0.95,-21.52 -3.54,-6.35 -7.5,-11.84 -11.88,-16.47 -4.87,-5.15 -10.75,-7.74 -17.66,-7.77 -2.61,0.69 -4.55,2.17 -5.82,4.43zm5.78 13.23c0,-1.35 -0.48,-2.02 0.08,-4.42 3.67,-15.97 22.35,11.48 24.79,16.54 1.85,3.83 3.25,7.09 1.04,8.25 -1.7,0.88 -4.88,0.56 -9.53,-0.96 -4.68,-1.51 -8.78,-4.93 -12.32,-10.24l-0.83 -1.28 -3.23 -7.89z"/>
	</g>
	<g id="Snail">
		<path fill="#E7AF7C" d="M239.19 226.54c-1.57,1.57 -4.58,5.77 -6.55,6.67 6.23,2.76 51.08,4 63.41,-0.03 -7,-7.98 -41.96,-9.83 -56.86,-6.64z"/>
		<path fill="#CA8C64" d="M297.06 233.64c-0.85,-0.85 -6.6,-0.97 -7.54,-1.04 -12.36,-0.96 -25.32,-0.52 -37.91,-0.68l-15.03 0.12c2.34,-1.07 7.01,-4.69 8.51,-6.2 -32.95,7.01 -39.02,6.05 -65.18,0.67 -12.01,-1.27 -22.62,9.47 -3.45,10.73 32.6,2.71 124.59,5.92 120.6,-3.6z"/>
		<path fill="#88422C" d="M263.06 218.27c6.39,-15.56 -5.17,-38.85 -25.89,-50.74 -16.89,-9.69 -72.44,-14.93 -73.83,26.92 11.47,40.04 64.58,33.54 99.72,23.82z"/>
		<path fill="#653023" d="M262.02 202.9c-0.99,3.03 -2.52,5.82 -4.59,8.37 -1.3,1.6 -2.67,3.11 -4.1,4.55 -3.75,0.41 -10.01,2.73 -9.93,10.1 5.44,-0.37 8.87,0.6 15.12,1.93 5.49,-9.6 8.56,-18.89 3.5,-24.95zm-47.4 -4.7c-15.45,-0.4 4.04,9.51 5.98,3.83 -0.35,-0.52 -0.31,-0.68 -1.2,-1 -1.6,-0.58 -3.61,-1.66 -4.78,-2.83zm-16.87 30.97c-4.17,-5.48 -14.55,-11.37 -20.4,-19.57 -0.99,-0.5 -5.07,-5.4 -5.98,-6.66 -1.97,-2.74 -3.73,-5.57 -5.3,-8.49 -7.83,13.23 14.8,38.62 31.68,34.72zm55.74 -35c-3.07,3.99 -5.48,6.23 -8.26,8.69 -0.69,4.81 -4.55,9.66 -11.6,14.55 -8.78,6.06 -18.08,6.63 -27.46,3.15l-5.94 -2.39c-6.78,-3.17 -9.19,-6.94 -9.61,-7.25 -2.44,-1.39 -4.69,-3.06 -6.73,-5.03 -0.78,-0.74 -1.59,-1.42 -2.44,-2.03 -3.22,20.13 24.98,26.37 43.67,24.53 15.72,-1.55 36.42,-15.64 28.37,-34.22zm-13.48 7.58c-6.3,6.86 -16.15,10.98 -25.23,11.64 -6.76,0.49 -15.44,-3.97 -19.85,-9.45 -0.45,-0.56 -0.95,-1.02 -1.48,-1.4 -8.89,16.19 48.72,26.97 46.56,-0.79z"/>
		<path fill="black" d="M238.22 165.07c-4.2,-1.91 -7.93,-3.2 -11.2,-3.86 -20.57,-4.36 -36.78,-3.55 -48.64,2.43 -6.34,3.36 -14.33,11 -16.5,17.58 -5.36,16.22 -0.52,32.6 12.48,43.09 -4.05,0.94 -12.6,3.8 -11.16,9.61 1.9,7.72 22.3,7.87 29.54,8.05 21.41,1.03 42.82,1.18 64.21,0.44 8.83,-0.3 17.62,-0.87 26.39,-1.72 1.22,0 2.45,0 3.67,0 0.83,1.41 3.4,5.45 5.38,3.87 1.4,-1.11 -1.63,-3.92 -1.63,-3.95 1.82,-0.16 1.47,-0.36 2.23,0.08 1.22,0.71 7.5,4.02 8.53,1.68 0.35,-0.72 -1.02,-1.8 -4.11,-3.23 5.31,-1.86 5.02,-4.37 2.16,-7.18 -0.14,-0.13 -0.26,-0.24 -0.36,-0.32 1.67,-1.54 4.07,-4.58 5.62,-5.74 5.05,2.06 7.63,-3.01 4.9,-5.74 -2.51,-2.51 -6.03,-0.51 -6.34,2 -3.39,2.02 -5.01,4.52 -7.01,7.53 -0.77,-0.45 -1.61,-0.89 -2.51,-1.32 0.5,-1.68 2.73,-7.16 3.82,-8.25 3.06,0.56 5.26,-2.65 3.55,-5.34 -2.45,-3.86 -7.63,-0.97 -6.46,2.71 -2.07,2.5 -3.65,6.22 -4.26,9.41 -7.98,-3.05 -18.31,-3.47 -26.59,-3.83 1.13,-3.02 1.76,-4.26 2.51,-7.77 2.26,-10.57 -1.77,-20.07 -6.66,-29.06 -3.85,-7.11 -13.49,-17.49 -21.56,-21.17zm-1.16 44.13c-0.02,0 -0.05,0.01 -0.08,0.04 -2.33,2.59 -4.49,4.24 -8.45,5.86 -7.97,3.35 -15.01,3.65 -21.13,0.92 -5.45,-2.44 -12.36,-6.47 -13.23,-9.05 -1.9,-5.64 -0.14,-9.3 4.46,-14.47 3.06,-3.43 7.61,-5.06 13.64,-4.9 6,0.15 9.54,2.24 10.6,6.25 3.29,12.38 -10.05,8.16 -11.48,7.14 -1.44,-1.03 -0.26,-2.46 3.23,-2.79 2.9,-0.56 3.07,-1.54 0.52,-2.95 -2.69,-1.49 -5.12,-0.61 -7.3,2.63 -2.2,3.24 -0.53,5.63 5.03,7.17 5.55,1.52 9.79,1.09 12.71,-1.27 3.41,-2.84 3.44,-12.39 -0.72,-16.62 -11.9,-12.14 -37.78,-1.14 -36.79,16.66 0.53,9.54 10.66,14.04 18.46,16.86 9.25,3.35 18.49,2.68 27.1,-3.27 7.38,-5.09 11.04,-9.86 11.64,-15.15 1.08,-9.47 -2.47,-16.62 -8.57,-23.39 -3.08,-3.43 -8.42,-5.84 -16.02,-7.22 -13.79,-2.51 -32.97,2.36 -40.66,13.91 -5.99,8.97 -5.08,23.29 0.92,31.81 3.26,4.64 8.28,8 13.51,10.21 -8.25,-2.09 -14.98,-5.44 -20.81,-11.84 -6.41,-7.05 -8.57,-15.94 -7.21,-25.2 0.71,-4.8 2.21,-9.04 4.5,-12.71 2.31,-3.69 6.63,-6.79 12.96,-9.29 6.08,-2.44 14.45,-3.71 25.11,-3.79 10.66,-0.1 19.69,1.85 27.11,5.86 7.38,4.02 12.14,8.53 14.27,13.56 4.12,9.66 5.73,19.91 -0.96,28.86 -5.41,7.22 -15.24,12.38 -24.12,13.67 -9.86,1.06 -30.61,-1.08 -37.95,-8.77 -2.51,-2.64 -3.87,-4.77 -4.78,-8.53 -1.25,-5.14 -1.88,-9.41 -1.16,-14.63 0.67,-4.76 3.98,-9.18 9.93,-13.27 5.93,-4.12 13.31,-5.88 22.16,-5.27 8.11,0.56 12.99,1.37 14.63,2.44 6.41,4.01 10.29,10.11 11.64,18.29 1.36,8.35 -2.71,11.88 -2.71,12.24zm20.49 -18.58c3.52,6.8 7.1,18.13 4.27,25.44 -1.56,4.01 -2.78,6.68 -4.79,8.69 -1.22,1.23 -4.6,-0.3 -9.17,0 -7.03,0.45 2.49,-1.94 8.18,-13.64 3.26,-6.72 3.29,-13.36 1.51,-20.49zm17.26 38.03l-0.4 0 0.4 0.04c8.43,1.52 14.11,2.82 17.06,3.91 0.26,0.11 3.39,1.39 3.43,1.95 0.23,1.73 -12.27,1.07 -16.46,1.04l-9.21 -0.08 -8.53 0.4c-29.05,1.38 -44.11,1.35 -65.3,0.64 -7.41,-0.24 -13.26,-0.51 -17.53,-0.8 -6.49,-0.43 -9.55,-1.46 -9.17,-3.11 0.42,-2.04 2.77,-2.8 4.94,-3.11 2.95,-0.4 5.26,-0.73 6.94,-1 0.01,0.01 7.18,2.88 10.52,3.11l11.12 1.12c14.37,0.21 14.23,0.19 24.84,-1.64 2.07,-0.37 4.87,-1.08 8.41,-2.15 3.33,-1.09 0.19,0.14 6.3,-0.2 4.94,-0.37 10.4,0.1 16.38,1.4 1.67,-0.06 2.84,-0.68 3.51,-1.88 4.17,-0.05 8.42,0.07 12.75,0.36z"/>
	</g>
</svg>
