<?xml version="1.0" encoding="UTF-8"?>
<!-- COPYRIGHT RobotoSkunk 2022 -->

<svg xmlns="http://www.w3.org/2000/svg" shape-rendering="geometricPrecision" viewBox="0 0 338.67 337.92">
	<path fill="#ACC330" d="M204.33 32.4c10.09,-26.57 -48.74,-37.21 -77.92,-28.08 10.5,4.86 32.42,0.08 38.05,18.67 2.37,7.82 -5.06,12.98 -23.26,20.15 -72.99,15.79 -121.85,-31.33 -139.05,-0.9 -3.39,32.07 67.45,16.8 85.18,31.2 3.56,18.4 0.33,22.88 -3.6,46.7 17.6,3.13 105.35,-56.03 120.6,-87.74z"/>
	<path fill="#757917" d="M206.82 28.64c0.96,-4.5 -0.12,-8.46 -3.23,-11.85 -5.87,-6.45 -13.1,-10.87 -21.7,-13.25 -17.79,-4.98 -35.6,-4.17 -53.95,-0.87 -12.4,2.22 -28.81,6.11 -39.09,10.41 -3.06,1.3 -5.07,2.16 -6.02,2.57 16.67,-4.93 31.01,-8 47.07,-7.1 11.79,0.66 20.9,2.97 27.32,6.93 4.71,2.87 6.4,6.85 5.06,11.94 -0.89,3.36 -3.27,4.74 -5.97,6.45 -0.03,2.22 1.67,2.83 4.18,2.74 3.5,-3.03 5.47,-7.13 5.93,-12.29 0.06,-0.9 -0.04,-1.74 -0.31,-2.52 -2.29,-6.42 -6.81,-10.88 -13.55,-13.38 -6.73,-2.51 -13.66,-3.87 -20.79,-4.1 2.95,-0.4 5.9,-0.79 8.85,-1.18 15.4,-2.03 30.3,-0.46 44.71,4.71 6.1,2.18 11.33,5.58 15.69,10.2 4.04,4.26 3.25,10.05 0.44,14.29 1.7,1.19 3.33,0.23 4.96,-2.18 0.16,-0.48 0.29,-0.99 0.4,-1.52zm-202.52 13.6c0.18,-0.73 0.52,-1.33 1.05,-1.79 8.1,-7.06 17.59,-9.04 28.46,-5.93 9.79,2.82 19.61,5.54 29.46,8.15 20.47,5.44 45.39,7.16 66.43,4.04l2.37 -3.69c-27.22,4.22 -58.57,1.04 -84.41,-9.15 -10.57,-4.16 -21.39,-5.19 -32.46,-3.1 -4.35,0.84 -10.41,3.35 -12.82,7.33 -3.37,5.57 -3.16,11.09 0.61,16.56 1.28,1.91 3.03,3.28 5.23,4.09 18.66,7.03 38.09,10.45 58.31,10.24 6.45,-0.05 12.44,1.43 17.96,4.45 1.08,0.71 2.97,5.34 3.09,5.97 0,6.04 -0.47,12.03 -1,18 -1.03,11.67 -7.06,25.25 -8.14,29.84 -1.34,5.38 0.69,4.05 2.55,2.57 2.48,-3.76 10.72,-32.09 9.9,-41 0.24,-3.4 0.09,-6.78 -0.43,-10.15 -0.49,-3.14 -1.85,-5.86 -4.05,-8.15 -3.26,-2.01 -6.79,-3.25 -10.59,-3.75 -9.62,-1.25 -19.27,-2.16 -28.94,-2.74 -10,-0.61 -19.81,-2.28 -29.46,-5.02 -2.67,-0.75 -5.19,-1.88 -7.54,-3.39 -5,-3.23 -6.86,-7.69 -5.58,-13.38z"/>
	<path fill="#F1E3D7" d="M123.79 196.99c-12.79,0.99 -31.54,-17.78 -36.75,-29.66 -8.21,-18.76 -5.25,-34.14 -16.63,-59.52 -8.58,6.15 -20.64,7.33 -31.05,7.06 19.36,19.58 18.7,43.58 17.99,68.87 -0.98,35.39 26.89,79.74 57.95,90.3 59.61,10.15 158.41,-23 144.9,-84.02 -33.46,-19.52 -96.29,-27.62 -136.41,6.97z"/>
	<path fill="#D6BCB1" d="M258.24 190.91c-3.18,8.58 -9.52,17.98 -16.17,24.21 -20.15,18.89 -48.46,33.8 -74.26,42.88 -4.3,1.51 -8.57,3.05 -12.81,4.62 -12.14,4.5 -24.56,7.49 -37.26,8.98 -4.44,5.76 6.21,14.39 13.55,16.47 36.28,10.24 93.08,8.68 128.28,-8.55 40.51,-13.69 33.86,-70.99 -1.33,-88.61z"/>
	<path fill="#725C55" d="M34.32 111.37c4.89,8.94 34.13,2.17 34.96,-4.9 -0.37,-7.4 -36.31,-0.21 -34.96,4.9z"/>
	<path fill="#A28175" d="M140.6 183.43c27.44,-10.97 57.03,-12.53 86.15,-6.75 2.06,-2.96 5.09,-10.97 5.65,-14.56 -24.29,-14.09 -84.21,-9.63 -91.8,21.31z"/>
	<path fill="#88675B" d="M245.18 284.61c-37.02,11.69 -61.63,13.72 -98.63,8.3 -7.24,5.65 -6,15.41 3.56,16.24 10.72,0.93 58.23,-0.36 94.55,-8.9 9.42,-2.22 9.88,-8.87 0.52,-15.64zm-16.44 -120.66c-0.56,3.59 -2.91,7.42 -4.97,10.38 3.13,4.06 14.49,6.39 18.72,5.99 2.42,-6.21 -9.03,-19.29 -13.75,-16.37z"/>
	<path fill="#83574F" d="M202.32 146.78c-10.17,-0.14 -26.17,-0.32 -35.46,3.93l0.42 7.23c12.49,-2.48 21.26,-3.38 30.97,-2.97l4.07 -8.19z"/>
	<path fill="#673E37" d="M199.45 147.87c-1.6,2 -3.16,3.35 -5.01,5.06 2.38,2.91 10.55,3.2 14.8,2.03 2.9,-3.24 -4.55,-11.07 -9.79,-7.09z"/>
	<path fill="white" d="M196.24 36.21c-9.17,0.77 -6.28,3.48 -11.84,6.38 0.17,-7.31 -4.31,-12.82 -10.66,-15.01 0.88,9.46 -3.73,23.41 -9.32,23.5 -11.1,0.19 -12.6,1.63 -20.93,6.54 -12,1.2 -11.41,21.38 -1.78,31.68 7.45,-6.17 7.36,-12.09 8.09,-22.1 24.31,11.28 89.22,14.38 96.93,-19.94 -22.42,6.12 -30.13,-12.78 -50.49,-11.05zm-106.3 75.91c-5.97,8.7 -10.21,17.04 -10.42,27.69 11.36,-14.25 29.56,-17.45 36.96,-8.54 4.59,5.51 1.16,11.65 8.6,25.4 7.52,-0.04 8.52,-21.53 15.41,-33.94 -19.68,-7.75 -1.64,-6.92 -1.04,-15.68 -7.93,-3.03 -9.64,-8.02 -12.86,-15.32 -26.81,10.83 -38.2,12.71 -36.65,20.39z"/>
	<path fill="#C0CDE6" d="M149.47 60.93c-1.79,0.9 -2.92,3.42 -1.47,5.27 1.39,1.79 9.06,-2.92 7.31,-5.88 -2.89,2.63 -1.63,1.29 -3.23,2.4 -1.83,1.27 -2.39,-0.98 -2.61,-1.79zm-9.33 25.19c-0.84,2.5 0.54,3.12 2.52,2.97 16.19,-10.19 1.2,-37.89 -2.82,-29.03 6.71,12.94 2.71,16.69 0.3,26.06zm51.9 -17.52c-5.63,-0.87 -9.81,-0.83 -14.03,-5.4 -2.98,-3.22 -5.45,-0.63 -5.45,-0.31 -1.61,1.12 -2.55,1.14 -4.22,0.05 -2.38,-2.08 -5.26,-5.17 -8.63,-9.9 -17.45,-5 -21.81,-8.44 -12.62,9.55 4.79,-13.59 16.62,-5.6 5.91,2.63 3.45,29.33 25.23,28.48 18.37,14.62 6.59,5.13 13.93,6.73 21.15,5.85 -0.83,-2.74 -8.66,-6.8 -2.05,-7.39 0.25,-3.34 2.14,-7.29 1.57,-9.7zm49.9 -18.96l-3.83 2.23c-2.65,1.07 -3.66,2.83 -3.05,5.27l0.52 0.57c-3.6,1.01 -7.2,2 -10.81,2.96 -3.31,1.39 -6.12,-1.9 -7.84,-4.97 -2.21,-0.99 -1.91,1.44 -0.87,7.02l-6.41 1c1.59,3.44 4.36,10.08 4.39,17.33 14.71,-2.8 37.41,-13.42 33.86,-33.79 -2.74,-0.71 -4.26,-0.92 -5.96,2.38zm-35.34 14.47c-1.57,0.06 -3.15,0.06 -4.75,0 -2.82,-0.05 -3.92,1.19 -3.31,3.75 -1.07,0.31 -2.43,0.3 -3.58,0.35 -2.44,1.26 -4.12,6.84 -4.49,10.09 6.86,3.75 12.92,4.3 23.56,2.2 -0.38,-9.48 -3.11,-15.27 -7.43,-16.39zm-75.06 124.1l7.23 -4.95 -8.23 0.48 1 4.47zm9.55 -64.94c-1.75,-1.8 -3.61,-1.81 -4.65,0.42 -6.45,8.44 -10.81,21.69 -10.81,32.16 1.67,2.91 12.77,0.84 17.18,-1.58 -4.14,-10.54 10.56,-2.77 9.05,-7.58 -2.81,-7.82 -17.77,8.8 -8.37,-9.42 -13.89,3.35 -8.36,4.25 -2.4,-14zm196.34 187.33c1.89,-3.48 1.22,-3.6 0.56,-6.75 -0.03,-0.18 -0.07,-0.34 -0.13,-0.48 -4.41,-4.48 -9.89,-6.8 -16.43,-6.98 -8.74,-0.23 -17.5,-0.36 -26.28,-0.39 -5.75,0.09 -11.44,0.57 -17.08,1.44 -7.5,-3.52 -15.34,-5.54 -23.53,-6.06 1.65,14.64 -129.65,30.52 -111.82,5.41 -8.66,-0.46 -14.85,2.05 -18.97,3.4 -2.47,1.01 -4.75,2.28 -6.84,3.79 -1.74,0.14 -3.53,0.4 -5.36,0.78 -5.81,1.19 -11.53,2.56 -17.17,4.1 -6.88,1.92 -9.76,5.68 -8.63,11.29 1.06,5.73 15.46,4.54 24.58,3.66 1.37,3.31 3.95,6.07 7.76,8.28 7.96,4.61 16.75,6.49 26.36,5.62 11.09,-1.03 21.82,-3.25 32.21,-6.67 2.89,0.32 5.78,0.6 8.67,0.83 25.1,1.89 50.03,0.94 74.79,-2.84 9.67,-1.48 17.95,-5.27 24.84,-11.37 10.22,0.44 20.49,0.55 30.81,0.35 8.04,-0.17 15.21,-2.5 21.48,-6.97 0.06,-0.15 0.12,-0.29 0.18,-0.44z"/>
	<path fill="#333333" d="M167.18 88.59c-19.01,-14.73 -19.62,-5.64 -27.59,16.78 -0.48,15.02 -20.36,7.25 1.12,17.9 -2.92,2.86 -4.46,10.95 -5.42,13.38 42.81,2.2 68.79,-1.55 92.62,-26.66 -2.03,-2.61 -5.11,-7.39 -5.58,-10.61 -4.88,-20.56 -8.98,-15.4 -55.15,-10.79zm83.09 79.28c21.75,-2.91 39.66,2.72 59.76,4.74 0.1,-0.56 -1.07,-2.71 -1.64,-5.73 17.84,-4.31 12.55,-12.18 6.38,-14.49 9.4,-5.3 0.96,-12.36 -12.84,-11.65 8.53,-10.11 -13.19,-13.41 -22.62,2.97l-44.67 4.54c4.02,7.64 6.66,12.05 15.63,19.62zm-194.83 -5.79c-3.4,2.04 -3.53,5.28 -1.33,9.37 -7.93,2.73 -5.51,8.06 -0.84,11.28 -0.97,2.83 -1.38,5.85 2.1,8.62 3.42,-10.37 3.91,-20.21 0.07,-29.27zm28.11 -2.47c5.26,9.69 9.76,19.18 14.2,21.9 17.32,-4.79 36.3,-7.65 47.9,-9.56 8.81,-10.56 23.48,-9.95 21.13,-17.1 -11.63,-0.51 -26.88,1.03 -42.64,2.62 -1.99,-11.08 -4.43,-9.63 -6.76,-24.03 -3.99,-15.91 -50.34,-4.27 -33.83,26.17z"/>
	<path fill="#262626" d="M152.8 35.13c-9.04,-0.47 -19.55,4.61 -23.63,12.53 -16.46,31.93 7.57,59.49 12.15,58.03 6.86,-5.23 11.82,-11.74 14.64,-19.96 1.31,-6.25 -2.56,-12.63 -6.06,-13.68 -0.81,4.05 -1.78,13.05 -5.18,15.83 -7.94,6.5 -11.85,-10.59 -9.87,-22.2 0.9,-5.27 3.54,-7.81 8.64,-8.06 -2.81,-16.04 -0.53,-6.05 14.13,-6.05 -0.53,-5.04 -2.4,-11.91 -4.82,-16.44zm30.18 55.57c2.01,0.54 4.44,1 6.8,1.91 2.72,-1.66 10.35,-2.91 9.61,-3.96 0.57,-2.79 -17.79,-2.91 -16.41,2.05zm41.35 -45.54l-4.91 -11.73c-8.63,-4.26 -14.07,-2.96 -18.95,2.07 6.63,1.12 16.66,6.02 23.86,9.66zm49.64 112.82c0,-4.61 0.26,-7.02 -0.96,-11.94 -4.4,-2.24 -8.29,-2.23 -11.41,1.09 1.21,3.79 1.91,7.43 1.91,11.46 0.83,4.43 9.85,5.5 10.46,-0.61zm-133.87 -1.17c3.34,2.84 8.57,3.68 12.85,3.44 4.81,-0.27 8.3,-2.06 11.64,-5.4 1.25,-2.04 1.26,-2.76 1.6,-4.24 -17.46,-8.7 -8.66,-1.74 -23.8,-1.5 2.4,4.33 -0.4,5.23 -2.29,7.7zm-43.89 4.75c-21.63,-3.74 -8.4,3.65 -0.62,18.88 1.02,-0.37 1.52,-0.55 3.05,-1.07 -2.55,-6.01 -2.69,-11.46 -2.43,-17.81z"/>
	<path fill="#191919" d="M135.76 116.34c-9.82,-3.45 2.28,9.33 5.91,4.21 -2.07,-1.16 -4.14,-2.67 -5.91,-4.21zm21.33 -34.71l1.01 6.19c0.78,0.84 1.64,1.63 2.57,2.35 4.06,3.18 9.85,4.43 14.33,1.05 0.73,-0.54 1.05,-1.34 1.35,-2.14 0.96,0.47 1.99,0.82 3.1,1.05 11.25,-2.98 1.69,-3.55 -7.32,-9.58 2.48,10.67 -4.56,11.25 -15.04,1.08zm66.76 35.04c4.89,-3.5 9.23,-5.29 0.96,-11.21 -1.41,0.65 -4.29,4.2 -7.4,6.42 -5.65,4.03 -11.33,3.39 -8.94,7.45 -5.28,3.25 -10.98,5.56 -17.08,6.93 -3.62,0.81 -10.67,0.41 -14.38,-0.09 -3.78,-0.51 -5.03,4.43 1.04,5.62 -1.42,0.15 -2.87,0.22 -4.35,0.22 -6.28,-0.03 -12.53,0.25 -18.74,0.83 -0.47,0.06 -0.93,0.11 -1.4,0.17 -1.97,-0.87 -4.06,-1.38 -6.27,-1.52 -3.11,-0.12 -6.08,0.39 -8.89,1.52 -12.01,11.52 13.8,-2.38 0.95,12.95 5.26,-0.46 14.07,-2.54 19.58,-2.05 -0.02,3.31 3.05,6.46 8.54,6.85 10.42,-4.15 31.58,-5.26 53.1,-6.12 3.26,-17.09 -5.72,-18.1 5.57,-13.61 1.73,-4.73 0.61,-8.08 -2.29,-14.36zm-33.68 -36.86c-3.96,3.62 7.2,8.39 12.68,9.23 2.21,0.35 4.45,0.47 6.71,0.35 0.85,-0.06 4.9,-0.74 5.71,-0.83l4.49 10.42c1.67,-0.12 1.95,-0.18 3.39,0.4 -1.05,-31.99 9.27,-13.03 -32.98,-19.57zm126.86 75.86c-1.69,4.39 -8.26,8.63 -12.29,8.42 -0.35,-0.03 -0.62,0.07 -0.83,0.3 3.76,7.01 24.9,-2.11 13.12,-8.72zm-5.05 -8.97c-0.95,1.36 -5.01,4.39 -6.5,4.44 -0.43,0.03 -0.78,0.16 -1.04,0.39 9.61,7.56 22.64,-8.55 9.37,-7.62l-1.83 2.79zm-37.14 11.76c-0.29,-0.17 -0.58,-0.33 -0.87,-0.48 -5.79,4.78 -2.51,6.27 1.38,10.39 18.89,16.4 42.78,10.36 32.22,0.68 -5.57,0.35 -11.21,-1.3 -16.51,-2.87 -9.06,-2.69 -9.12,-3.63 -16.22,-7.72zm23.49 -24.01c0.97,0.97 1.06,4.85 -1.48,6.76 -0.44,0.33 -0.72,0.85 -0.61,1.39 12.17,-1.25 6.42,-10.86 2.09,-8.15zm-50.64 22.75c-3.26,-3.03 -6.62,-5.79 -10.63,-7.8 -5.86,-2.94 -8.67,-3.45 -11.98,-1.44 -20.68,12.73 1.18,6.94 18.56,25.02 18.19,-2.08 27.21,-2.07 19.87,-14.39 -2.38,0.18 -10.84,1.1 -12.63,1.7 -1.05,-1.07 -2.11,-2.1 -3.19,-3.09zm-193.45 27.98c-4.11,3.89 6.24,8.92 1.01,1 -0.35,-0.32 -0.69,-0.65 -1.01,-1zm44.4 -5.81c-5.53,8.4 14.08,15.65 25.15,17.62 4.31,-3.66 8.85,-6.25 6.37,-13.26 12.18,0.23 14.09,-6.42 15.9,-13.24 -4.68,0.75 -26.23,2.83 -47.42,8.88zm5.01 -33.33c-0.98,2.89 -1.4,6.86 -1.73,11.73 0.46,2.96 8.88,2.48 9.41,-0.74 -1.51,-3.64 -3.79,-7.38 -6.23,-10.64 -0.91,-1.48 -0.9,-1.47 -1.45,-0.35zm-51.98 30.16c-0.14,-0.2 -0.3,-0.39 -0.48,-0.57 -5.26,5.93 8.91,10 4.01,2.01 -0.91,-0.23 -2.02,0.02 -3.53,-1.44zm3.71 -9.37c0,-0.51 -0.35,-0.87 -1,-1.52 -3.97,2.61 3.79,8.5 1,1.52z"/>
	<path fill="#131313" d="M151.99 37.14c2.42,4.53 3.05,7.95 3.58,12.98 3.06,2.81 6,2.55 8.85,0.22 -2.17,-5.97 -5.15,-17.83 -12.43,-13.2zm-2.27 31.61c-0.35,3.45 -0.23,6.89 1.23,8.44l2.79 5.44c0.75,1.02 1.49,2.05 2.22,3.1 3.89,-2.79 -3.08,-20.47 -6.24,-16.98zm-18.51 23.52c-1.31,-2.27 -2.53,-4.55 -3.66,-6.85 -2.31,4.67 5.8,20.13 10.77,21.44 2.53,-2.55 1.87,-3.06 -0.14,-5.31 -2.64,-2.82 -4.97,-5.91 -6.97,-9.28zm60.96 -3.84c0.15,-0.17 0.27,-0.36 0.35,-0.57 -4.07,-1.91 -7.19,-1.16 -8.84,2.44 1,1.27 6.54,0.46 8.49,-1.87zm38.95 -41.69c-1.86,-6.15 -9.38,-15.37 -14.76,-13.39 1.72,2.7 3.3,5.47 4.75,8.32 0.12,0.23 0.23,0.46 0.35,0.7 2.76,3.66 7.42,5.63 9.66,4.37zm42.85 111.24l-10.46 0.61c0,3.4 -0.77,7.29 -2.17,10.38 5.07,2.63 14.67,1.96 12.2,-4.71l0.43 -6.28zm-44.56 -80.4c-8.47,0.94 -7.56,3.66 -3.66,10.59 1,-2.48 3.48,-7.94 3.66,-10.59zm-76.11 234.15c1.47,1.93 2.49,4.27 2.53,6.67 24.43,1.45 26.13,-15.56 -2.53,-6.67zm-19.74 -10.59c0.81,0.5 1.38,1.25 1.7,2.27 1.29,-0.32 2.16,0.26 2.53,1.57 0.35,-0.28 0.58,-0.21 1.48,0 5.98,-9.43 -3.33,-11.25 -5.71,-3.84zm33.34 -152.48c0.26,-1.11 0.51,-2.21 0.74,-3.31 -9.49,-4.4 -18.96,-1.83 -13.86,2.48 3.54,0.59 7.65,3.24 10.85,4.84 2.35,0.71 3.66,-1.13 2.27,-4.01zm-68.9 30.9c-0.72,3.01 0.11,3.39 1.92,2.09l-1.14 -2.31c-0.29,0.06 -0.55,0.13 -0.78,0.22zm118.23 136.01c-0.17,-1.7 0.27,-6.88 2.14,-7.8 -22.15,-7.84 -20.83,10.73 -2.14,7.8zm-15.12 -171.44c0,0.2 0.01,0.42 0.04,0.65 5.52,2.72 8.34,4.99 8.46,9.81 3.43,0.44 9.96,3.08 11.89,0.95 1.05,-0.49 2.07,-1.13 3.05,-1.91 1.72,-1.34 3.29,-2.82 4.71,-4.45 -0.39,-5.24 -23.56,-9.74 -28.15,-5.05z"/>
	<path fill="#E6B891" d="M285.25 154.49c-3.06,7.12 8.17,13.3 11.66,5.36 1.89,-6.52 -6.99,-13.98 -11.66,-5.36zm-94.06 -61.42c2.89,3.91 8.88,3.8 10.92,-0.31 -0.74,-3.38 -8.86,-3.73 -10.92,0.31z"/>
	<path fill="black" d="M234.8 47.25c-0.82,-0.03 -1.62,-0.13 -2.4,-0.31 -0.03,-0.2 -0.51,-1.58 -1.44,-4.14 -1.07,-2.96 -3.56,-5.85 -7.45,-8.67 -5.12,-3.69 -11.25,-5.23 -17.09,-3.97 -2.27,0.5 -6.32,2.54 -7.23,4.36 -2.53,-0.14 -3.8,-0.19 -6.32,0.48 -2.79,0.76 -5.15,2.14 -7.1,4.14 -0.41,-2.7 -1.57,-5.1 -3.49,-7.19 -2.85,-3.14 -6.19,-5.5 -10.02,-7.1 -0.62,-0.11 -1.83,0.87 -1.4,1.7 3.25,6.18 0.68,14.11 -2.7,19.74l-2.09 3.27c-0.74,-3.97 -2.65,-9.82 -5.58,-12.95 -4.11,-4.39 -10.08,-3.83 -15.51,-2.48 -11.88,2.95 -18.57,12.47 -21.66,23.58 -3.06,11 -1.3,22.62 2.22,33.29 -0.41,0 -0.8,0.02 -1.18,0.05 -6.24,2.17 -12.52,4.46 -18.82,6.84 -6.22,2.34 -14.37,6.75 -19.22,11.2l-3.1 3.44c-0.11,0.31 -0.13,1.49 0.62,1.92 1.29,0.75 1.45,0.34 4.05,-0.48 -0.7,0.91 -1.37,1.84 -2.01,2.79 -2.47,3.62 -4.55,7.49 -6.23,11.59 -1.45,4.12 -0.71,6.41 1.22,7.71 0.26,-0.96 0.57,-1.91 0.92,-2.87 2.49,-7.12 5.92,-13.72 10.28,-19.79 0.97,-1.07 6.34,-2.36 7.37,-2.66 0.27,-0.81 0.43,-1.22 -0.18,-1.96 -0.87,-1.06 -5.42,-0.46 -6.8,-0.3 2.1,-1.57 4.33,-2.89 6.72,-3.97 7.37,-3.4 14.94,-6.35 22.7,-8.84 1.63,-0.53 3.2,-1.09 4.71,-1.7 1.65,4.87 3.05,8.37 6.84,12.2 1.28,1.3 2.67,1.99 4.18,2.05 -0.44,1.33 -0.3,0.69 -1.22,2.09 -0.29,0.46 -0.59,0.93 -0.91,1.39 -1.43,1.63 -3.21,2.27 -5.36,1.92 -1.05,-0.61 -2.07,-0.64 -3.05,-0.09 -0.38,0.24 -0.58,0.55 -0.61,0.96 -0.12,1.51 0.59,2.67 2.13,3.49 1.95,2.15 4.23,3.89 6.84,5.23l3.4 1.17c-1.13,1.66 -2.75,5.09 -3.66,6.93 -1.25,2.5 -2.1,5.12 -2.57,7.85 -0.32,1.75 0.75,4.03 2.57,3.05 2.2,-1.18 3.21,-2.36 5.89,-3.01 -1.08,1.8 -4.28,7.92 -4.1,9.33 -1.8,2 -3.4,4.18 -4.8,6.53l-6.88 0.83c-1.14,-4.81 -2.54,-7.17 -3.66,-11.29l0.04 0c1.01,1.27 2.77,0.65 2.49,-0.95 -1.14,-6.31 -3.53,-6.09 -4.71,-9.94 -0.67,-2.61 -2.11,-4.74 -4.31,-6.36 -14.77,-10.92 -34,8.42 -34.17,9.24 -2.29,3.17 -1.78,4.86 1,5.36 5.4,-8.6 14.56,-14.62 25.06,-14.17 2.85,0.12 5.3,1.11 7.36,2.97l1.36 1.96c-0.83,-0.32 -1.48,-0.58 -2.14,0.04 -1.67,1.55 0.62,2.7 1.7,4.49 2.15,3.56 5.53,16.69 7.28,18.87l-15.56 1.18c-1.13,-5.82 -2.53,-13.5 -2.83,-18.22 -0.83,5.13 -0.6,12.54 -0.09,18.48 -5.68,0.63 -12.74,0.97 -17.87,1.83 -1.25,1.49 -0.81,2.54 1.18,3.18 6.13,-0.94 15.4,-1.57 22.05,-2.18 5.98,-0.54 14.16,-1.09 19.83,-1.87 0.38,-0.06 0.74,-0.1 1.09,-0.13 -3.79,7.57 -6.7,16 -7.37,24.53l-18.93 2.78 4.49 2.96c0.64,-0.09 2.01,-0.33 2.68,-0.42 0.43,0.84 1.13,2.08 1.45,2.61l11.07 4.83 -3.41 -2.21c-1.95,-1.32 -4.48,-3.48 -5.37,-5.75l7.81 -1.31c-0.06,2.9 0.2,5.74 0.78,8.5 2.66,-1.15 1.66,-1.5 1.44,-4.45 -0.03,-1.48 -0.02,-2.96 0.04,-4.44l3.36 -0.61 0.86 3.09 2.92 -1.83c-0.17,-0.46 -0.41,-1.37 -0.56,-1.83 1.4,-0.23 2.81,-0.47 4.23,-0.7 4.6,0.24 4.12,-1.4 3.44,-3.35 -2.23,-0.19 -11.61,1.43 -13.99,1.78 1.02,-9.13 3.72,-16.39 8.28,-24.66 1.8,-0.26 8.14,-1.05 9.76,-2.18 1.63,-0.5 2.17,-1.57 1.62,-3.23 -0.21,-0.55 -0.45,-1.09 -0.74,-1.61 3.09,0.29 3.78,0.13 6.58,0.13 2.21,4.43 6.79,1.2 4.01,-1.31 -1.05,-0.93 -1.07,-2.35 -1.44,-3.09 2.28,0.2 7.16,-0.39 8.37,-1.79 8.76,1.55 30.05,-0.09 44.71,-1.04 0,0.03 0,0.06 0,0.08 1.68,1.43 3.7,1.88 6.06,1.36 -1.53,1.47 -0.2,3.45 1.13,3.22 1.48,-0.26 2.69,-0.89 3.62,-1.87 1.83,1.21 5.08,0.25 8.28,0.17 -0.7,0.89 -0.54,1.62 -0.09,2.48 1.01,1.98 2.47,0.56 3.75,-0.08 3.35,5.18 5.9,8.75 8.58,14.34 0.29,0.61 0.58,1.23 0.87,1.87 1.7,8.09 4.57,12.33 7.76,14.9 0,-1.33 -1.16,-4.67 -1.52,-6.14l22.31 -2.66c3.14,-0.49 5.79,-0.84 7.97,-1.05 1.55,0.31 12.03,11.03 28.98,9.77 6.3,-0.47 9.47,-5.98 5.97,-12.16 4.8,-0.22 9.12,-2.01 11.25,-6.54 1.52,-3.23 -0.71,-7.1 -3.44,-8.67 3.86,-4.19 4.09,-7.47 0.69,-9.85 -3.4,-2.38 -6.4,-3.63 -9.02,-3.75 -2.61,-0.14 -4.09,-0.12 -4.44,0.09 1.24,-2.2 0.17,-4.85 -1.57,-6.45 -1.11,-1.02 -3.18,-1.69 -6.23,-2.01 -11.37,-1.23 -19.55,10.86 -19,11.6l-19.62 1.96c-5.41,0.73 -21.57,2.22 -25.71,2.22 0.29,-0.58 0.53,-0.99 0.18,-1.57 -1.56,-2.58 -3.38,-2.23 -5.84,-2l-3.53 -3.23c0.15,-2.47 -0.33,-5.15 -1.4,-7.36 -0.14,-0.29 -0.27,-0.58 -0.39,-0.88 1.68,0.85 2.42,1.41 4.66,1.23 1.82,-0.15 2.67,-4.11 2.31,-6.5 -0.5,-3.31 -1.8,-6.47 -3.7,-9.19 7.05,-2.63 6.58,-7.64 5.53,-8.24 -4.11,-2.37 -4.83,-4.84 -6.62,-7.98 -0.06,-0.08 -0.1,-0.17 -0.13,-0.26 0.96,-2.21 1.57,-4.53 1.83,-6.97 0.2,-0.29 0.39,-0.6 0.57,-0.91 3.63,-6.27 3.49,-8.22 4.66,-14.47 0.06,-0.35 0.09,-0.69 0.09,-1.01 4.89,-2.58 11.41,-6.9 14.38,-11.81 2.17,-3.59 4.56,-10.38 4.49,-14.59 -0.03,-1.35 -0.28,-6.43 -2.58,-5.67 -4.15,1.45 -8.41,2.13 -12.76,2.05zm-28.2 16.86c4.27,2.85 5.7,10.88 6.01,15.56 -0.05,0 -0.11,0 -0.17,0 -5.2,0.58 -10.36,0.36 -15.47,-0.65 -1.69,-0.32 -3.34,-0.7 -4.97,-1.14 0.53,-4.56 1.99,-8.9 4.88,-12.5 2.51,-3.13 6.88,-3.16 9.72,-1.27zm-20.96 14.78c0.54,2.17 4.22,5.22 4.22,5.23 0.03,0.14 0.09,0.3 0.18,0.48 -2.06,0.29 -4.04,0.21 -5.93,-0.22l-0.3 -6.63c0.58,0.41 1.19,0.79 1.83,1.14zm7.89 14.81c-0.35,-0.23 -0.72,-0.48 -1.09,-0.74 2.3,-2.3 7.03,-2.07 8.06,-0.69 0.18,0.24 0.55,0.58 0.35,0.78 0,0.5 -2.15,1.43 -3.4,1.74 -0.27,-1.07 -0.02,-1.53 -1.14,-2.09l0 0.05c-1.06,0 -0.7,1.36 -0.61,2.09 -0.72,-0.35 -1.45,-0.73 -2.17,-1.14zm34.07 -14.64c-0.19,2.82 -0.59,4.22 -1.69,6.97 -0.32,-1.97 -0.91,-3.85 -1.75,-5.62 1.16,-0.43 2.31,-0.88 3.44,-1.35zm12.77 69.77l39.92 -3.31c3.84,-6.25 7.96,-9.82 12.38,-10.72 8.86,-1.83 10.14,2.4 7.93,4.71 -1.05,1.09 -6.19,4.27 -7.93,5.44 8.29,-3.47 14.76,-3.88 21.14,-1.04 2.73,1.16 3.83,2.39 3.31,3.7 -1.57,3.85 -9.01,3.88 -12.16,3.88 -3.24,0 -3.96,4.07 2.96,3.66 6.6,-0.39 5.06,-1.89 8.2,-0.09 2.15,1.24 3.71,3.64 1.91,5.8 -0.67,0.78 -1.87,1.77 -3.61,2.96 -3.2,2.16 -7.86,0.38 -10.51,0.57l-1.78 0.44c-0.17,0.16 0.1,1.93 2.09,2.48 0.96,0.26 1.92,0.47 2.87,0.61 0.45,1.33 2.58,5.22 0.44,7.23 -1.07,1.02 -2.37,1.59 -3.88,1.7 -7.75,0.61 -14.8,-2.23 -21.31,-6.18 -2.76,-1.69 -4.71,-3.14 -5.84,-4.36 -1.52,-1.63 -6.24,-4.55 -3.79,1.09l-28.59 4.01c-2.55,-7.44 -7.23,-16.13 -11.72,-22.19l7.97 -0.39zm-17.25 -5.66c0.14,-0.44 0.27,-0.86 0.39,-1.27l1.13 1.22c-0.52,0 -1.03,0.02 -1.52,0.05zm-55.74 -77.18c2.7,-1.14 5.29,-0.9 7.75,0.69 2.68,1.76 4.59,4.43 5.19,7.54l0.31 0.88c0.61,1.7 0.64,6.39 0.74,8.45 -0.16,-0.16 -6.98,-2.73 -9.24,-4.97 -1.34,-1.33 -2.41,-2.9 -3.23,-4.7 -1.53,-3.36 -1.99,0.56 -0.3,4.27 0.82,1.8 2.32,4.47 2.66,6.36 1.05,5.97 -7.61,2.53 -11.86,-3.66 -0.26,-0.38 -0.49,-0.76 -0.69,-1.14 0.2,-1.24 0.47,-2.48 0.82,-3.7 1.17,-4.21 3.7,-8.28 7.85,-10.02zm-20.53 80.71c0.7,-0.29 1.41,-0.57 2.14,-0.83l0.35 1.57 -3.36 -0.35c0.29,-0.15 0.58,-0.28 0.87,-0.39zm-8.1 7.45c-1.17,0.17 -2.31,0.33 -3.45,0.48 0.73,-1.42 1.47,-2.86 2.23,-4.32 0.29,0.59 0.79,0.96 1.52,1.14l1.92 1.48 0.17 0.78c-0.78,0.15 -1.58,0.29 -2.39,0.44zm86.02 -115.53c1.92,2 3.31,4.44 4.19,7.32 -6.3,-2.93 -13.8,-6.93 -19.96,-9.24l-6.63 -1.79c3.95,-3.24 11.21,-2.76 15.04,-1.17 2.96,1.22 5.42,2.85 7.36,4.88zm2.62 9.63c0.16,0.08 3.2,1.2 5.53,1.57 4.22,0.66 9.66,0 13.73,-1.31 0.31,0.32 0.52,4.85 -0.04,6.8l-1.4 3.97 -0.04 0c-1.91,5.09 -7.9,10.48 -12.38,13.2 -5.21,3.17 -11.6,5.77 -17.65,6.8 -0.35,-4.87 -1.77,-11.84 -5.49,-15.56l0.04 0c-2.57,-2.57 -5.18,-3.67 -8.84,-3.18 -4.25,0.57 -7.14,4.42 -8.81,8.06 -0.29,0 -1.43,3.98 -1.61,4.71l-0.7 3.92c-0.95,-0.32 -5.95,-2.02 -6.45,-2.79 0,0 -1.96,-9.89 -10.72,-11.55 -6.63,-1.26 -12.08,3.9 -14.33,9.63 -0.5,1.25 -0.9,2.53 -1.22,3.84 -2.03,-4.98 -1.34,-6.78 -1.97,-10.68 5.43,-5.42 3.14,-8.96 3.14,-9.76 -0.03,-0.03 -0.04,-0.06 -0.04,-0.09 -0.29,-0.29 -1.43,-4.2 -5.84,-1.91 -2.55,1.32 -4.54,3.93 -5.84,6.45 -1.39,-3.09 -2.04,-6.65 -2.18,-9.98 5.15,2.39 9.74,2.89 15.43,2.65 4.69,-0.19 7.79,-0.32 10.76,-5.14 2.93,-4.76 5.06,-11.68 4.62,-17.87 4.36,2.11 6.95,5.6 7.76,10.64 0.47,2.91 -0.87,5.16 -2.49,7.49 -2.75,3.98 0.76,2.38 2.44,0.83 1.27,-1.16 2.32,-3.67 2.97,-5.58 0.97,-0.42 0.77,-1.03 1.78,-2.35 1.53,-1.61 3.4,-2.66 5.63,-3.14 8.07,-1.78 15.13,0.7 22.31,4.49 3.92,2.03 7.89,3.98 11.9,5.84zm-35.61 34.08c0,-0.32 0,-0.62 0,-0.92 7.39,2.27 13.46,2.62 20.88,1.88 0,2.44 -0.8,7.8 -1.53,10.07 -0.25,0.79 -0.47,2.79 -0.17,3.09 0,0.03 0.01,0.04 0.04,0.04 1.04,1.04 2.67,-2.43 2.96,-3.57 1.01,-3.86 1.26,-6.12 1.35,-10.07l6.06 -1.48c0.15,1.37 0.7,2.77 0.92,5.06 0.26,3.08 0.06,6.9 -0.61,11.46 -0.73,-0.55 -0.73,-0.53 -1.22,-0.35 -0.74,0.27 -0.81,0.76 -0.7,1.44 0.61,4.67 3.95,9.05 7.45,12.03 -0.06,0.05 -0.11,0.13 -0.17,0.21 -0.1,0 -1.73,2.16 -4.71,2.53 -0.45,0.06 -0.93,-0.34 -1.22,-0.61 -0.47,-0.45 -3.02,-2.22 -3.66,-1.26 -0.58,0 -1.46,2.58 1.7,4.88 0.93,0.67 1.99,1 3.18,1 1.81,3.82 3.53,6.24 2.97,10.72 -1.36,0 -5.05,-3.98 -9.64,0.52 -0.94,0.91 -0.61,3.13 1.35,2.36 0.56,-0.21 1.11,-0.34 1.66,-0.4 0.61,1.03 0.7,2.18 0.96,3.53 0.53,2.8 0.67,3.87 0.09,6.93 -2.69,-0.79 -13.29,-1.35 -16.78,-1.09 -13.6,1.86 -25.5,2.2 -35.69,1.01 -10.2,-1.19 -18.31,-0.32 -24.32,2.61 1.19,-3.34 1.84,-3.3 2.79,-5.01 6.73,0.96 4.65,-3.44 1.04,-3.66l-2.48 -0.31 0.04 -0.04c-2.44,-0.12 -4.8,0.31 -7.1,1.26l2.05 -5.18 3.66 -6.8c0.41,-0.23 5.46,-1.02 4.49,-4.49 -0.06,-0.03 -0.12,-0.04 -0.18,-0.04 -4.05,-0.33 -3.93,0.57 -5.57,0.87 -2.95,0.3 -6.02,-1.17 -8.11,-3.27 2.12,-0.88 2.8,-0.93 4.44,-2.96 2.34,-2.89 3.64,-6.03 3.27,-9.72 -0.13,-1.34 -1.15,-2.75 -2.35,-3.36 -0.08,0.03 -0.71,0.06 -0.96,0.57 -0.03,0 -0.04,0.01 -0.04,0.04 -0.38,0.38 0.13,1.78 0.13,3.53 -1.67,-1.4 -2.65,-1.5 -3.49,-2.87 -1.48,-2.21 -2.71,-4.56 -3.7,-7.06 -4.17,-10.33 -7.23,-23.66 -4.53,-34.56 2.26,-9.16 5.78,-16.7 14.51,-21.27 4.26,-2.23 8.56,-2.92 13.16,-2.31 5.11,0.68 6.83,8.44 8.5,13.03 -3.95,0 -12.82,-0.23 -16,-2.13 -1.25,-0.76 -2.48,-1.49 -3.7,-2.18 -0.04,-0.01 -0.96,0.02 -1.13,0.74 -0.83,3.33 -0.56,6.03 0.26,9.28 -10.49,0.53 -9.42,18 -7.46,25.28 1.15,4.22 4.64,12.89 10.33,8.23 3.26,-2.67 5.48,-8.48 6.15,-12.37 0.32,-2.24 0.26,-4.42 -0.18,-6.54 0.47,0.2 0.98,0.36 1.53,0.48 1.06,6.09 3.83,10.5 3.83,10.5l-0.17 4.1c-0.04,3.41 0.21,7.86 0.87,11.2 0.15,0.67 0.25,1.32 0.31,1.96 0.15,1.25 1.19,1.94 1.65,1.48 0,-0.03 0.02,-0.04 0.05,-0.04 0.02,-0.03 0.04,-0.06 0.04,-0.09 0.03,-0.03 0.06,-0.04 0.09,-0.04l-0.87 -12.38 0.08 -3.31c0.61,0.75 2.02,1.93 4.23,3.53 2.18,1.6 4.37,2.37 6.58,2.31 3.76,-0.13 5.18,-1.85 4.88,-5.19 -0.14,-1.36 -0.32,-2.29 -0.52,-2.79 2.36,1.93 5.41,3.51 8.32,4.4l0.48 1.62 -2.35 1.48 -2.53 2.4c-0.86,1.08 0.49,1.73 0.96,1.43 4.61,-2.87 8.28,-5.84 14.29,-5.84 1.6,0 3.14,0.27 4.62,0.79 -1.91,-0.14 -7.31,1.23 -7.41,4.27 -0.07,2.08 4.85,5.04 8.81,4.05 1.37,-0.34 4.01,-1.5 4.53,-2.87 1.48,5.49 -0.78,8.36 0.17,10.93l0.88 0.14c0.87,-0.61 1.42,-1.43 1.65,-2.45 2.01,-8.9 -1.45,-15.83 -10.68,-17.21 0.03,-0.2 -0.05,-0.38 -0.26,-0.52 -1.07,-0.84 -2.09,-1.73 -3.05,-2.66zm-48.94 -22.79c1.04,3.34 2.68,5.51 2.7,5.58 0.07,0.16 0.14,1.81 1.01,2.57 1.99,1.75 1.74,-0.36 1.74,4.14 0,1.74 -0.36,4.25 -1.09,7.54 -0.76,3.25 -2.59,6.14 -5.49,8.67 -4.9,-4.65 -5.63,-14.66 -5.14,-21.01 0.31,-4.19 3.1,-8.76 6.27,-7.49zm5.71 3.14c0.77,-1.97 2.88,-5.04 4.66,-5.89 3.48,-1.65 3.37,2.02 1.44,4.62 -1.54,1.95 -2.87,3.18 -4.01,3.71 -3.13,1.38 -2.08,-2.42 -2.09,-2.44zm-7.06 -0.05c-1.46,0 -0.82,2.29 -2.53,5.27 -0.34,0.61 -2.82,2.15 -0.65,3.75 0.33,0.23 0.69,0.39 1.09,0.48 -0.58,1.16 0.41,8.23 2.7,8.19 1.76,-0.02 1.12,-1.11 1.96,-1.96 1.04,-1.03 2.52,-1.98 1.27,-2.96 -0.68,-0.53 -2.27,-0.12 -3.01,0.78l-0.65 -4.09c2.76,-0.92 2.06,-2.79 1.69,-2.79l0 -0.04c-0.63,-0.44 -1.32,-0.44 -2.04,0l0.43 -1.09c0.02,-0.01 1.53,-4.43 0.39,-5.28 -0.17,-0.12 -0.38,-0.21 -0.65,-0.26zm44.63 50.12l0 -0.26c-0.03,-0.03 -0.05,-0.06 -0.05,-0.09l-0.04 -0.04 0 -0.05c-0.03,-0.03 -0.04,-0.06 -0.04,-0.08 -1.92,-0.96 -2.74,0.99 -6.15,0.43 -3.26,-0.54 -6.11,-4.1 -6.54,-7.71 -0.11,-1.08 -0.34,-2.09 -0.69,-3.05l-0.44 -0.18c-0.06,0.03 -0.55,0.06 -0.7,0.48 -1.29,4.88 3.15,14.58 11.77,12.68 1.34,-0.29 2.3,-1 2.88,-2.13zm30.98 -62.15c-2.19,0.24 -3.53,2.38 -3.35,4.58 0.86,10.68 8.05,12.57 9.71,9.41 3.45,-6.54 -0.18,-14.14 -6.36,-13.99zm0.18 3.14c1.25,-0.31 4.2,1.4 4.27,5.23 0.01,0.81 -0.28,3.68 -0.83,3.84 -2.65,0.54 -4.7,-7.19 -3.44,-9.07zm70.16 95.7c-1.56,0.52 -6.92,6.21 -3.57,11.51 3.97,6.28 14.54,5.39 15.34,-1.7 0.69,-6.2 -6.21,-12.19 -11.77,-9.81zm-1.13 9.2c-0.84,-2.45 1.42,-5.79 3.09,-6.28 3.82,-0.76 7.45,4.56 6.15,7.15l-0.53 0.96c-1.99,1.6 -6.79,1.69 -8.71,-1.83zm-154.76 145.9c0,-0.08 2.03,-4.56 4.41,-5.36 1.42,-0.49 3.1,-0.52 4.18,-0.32l1.79 -3.18c-5.08,-2.18 -15.84,4.14 -14.91,13.26 0.59,5.77 4.71,9.76 10.37,11.77 6.2,2.2 9.97,2.89 16.04,1.96 6.6,-1 12.98,-2.41 18.83,-5.75 2.12,-1.21 4,-3.99 4.38,-6.28l-3.71 0.3c-1.46,2.05 -6.99,4.91 -9.26,5.63 -5.41,1.73 -11.96,2.91 -17.86,2.18 -1.1,-3.34 -1.4,-5.83 -1.24,-9.65l-2.35 -1.52c-0.9,2.23 -0.12,8.29 0.84,10.73 -1.62,-0.17 -6.65,-1.73 -7.06,-2.7 -1.29,-3.32 -0.37,-8.96 1.13,-9.89 0.44,-0.27 2.09,-2.27 0.31,-2.96 -2.54,-0.99 -4.65,4.5 -4.8,6.36l-0.08 3.66c-1.98,-2.54 -2.55,-5.04 -1.01,-8.24zm-76.13 -140.59c1.21,-1.38 1.2,-2.64 -0.13,-3.74 -5.51,4.28 -3.14,9.01 -3.14,9.8 -3.25,1.6 -4.85,4.1 -4.79,7.5 0.02,2.16 2.43,5 4.71,5.79 -0.88,2.41 -1.07,4.12 0.56,7.06 1.13,2.07 2.12,3.27 2.97,3.62 2.26,-1.78 2.38,-3.43 0,-4.92 -2.33,-1.67 -1.27,-4.97 -0.66,-5.32l0.31 -0.04c1.47,-1.02 1.3,-1.96 -0.05,-2.84 -1.85,-0.24 -4.31,-1.08 -4.22,-3.44 0.1,-2.83 0.16,-2.24 4.27,-4.36l0.08 -4.22c-0.45,-0.46 -0.78,0.21 -1.26,-1.75 -0.28,-1.15 0.48,-2.26 1.35,-3.14zm172.48 141.98l-2.53 0.35c0.11,1.43 0.04,6.41 -0.68,7.33l-0.53 1.22c-8.27,0.76 -14.54,2.05 -20.9,-6l-3.57 0.3c3.66,7.85 12.68,10.84 20.77,10.1 6.51,-0.59 16.48,-2.24 20.87,-7.63 2.04,-2.47 2.86,-5.94 2.49,-8.93l-4.14 1.09c0,2.17 -0.69,4.37 -2.23,5.97 0.25,-1.41 0.17,-3.86 -0.37,-5.21l-2.92 0.3c0.35,2.79 1.03,4.59 -0.89,7.17 -0.15,0.21 -0.29,0.41 -0.44,0.62l-4.92 1.52c0,-0.76 1.26,-3.99 -0.01,-8.2z"/>
	<path fill="#371714" d="M208.34 147.09c-3.1,-3.11 -5.95,-2.45 -10.24,-2.05 -18.19,0.61 -28.59,1.82 -31.2,3.62 -2.45,1.56 -2.74,5.32 -1.92,8.23 -11.33,3.78 -13.37,5.99 -20.39,13.47 -7.6,8.09 -2.7,11.08 -8.72,13.77l-7.06 4.14c-2.77,2.17 -3.73,4.12 -5.36,6.84 -8.8,-3.84 -11.16,-4.36 -18.65,-9.58l-5.41 -4.32 -6.62 -7.89c-3.18,-5.49 -4.44,-7.98 -6.54,-13.94 -1.99,-5.66 -4.25,-17 -5.36,-23.32 -1.54,-8.78 -2.19,-15.88 -5.71,-23.97 -2.15,-4.96 -3.6,-7.77 -4.36,-8.41 -2.23,-1.91 -4.89,-2.71 -7.97,-2.39 -4.59,0.33 -6.01,0.37 -10.59,1.09 -5.46,0.85 -12.26,1.96 -17,4.31 -4.51,2.24 -5.12,7 -1.74,8.85 4.06,2.22 7.34,6.39 10.11,10.81 8.13,12.93 11.54,21.94 11.81,37.6l-0.17 9.11 0 13.99c0,0.67 0.11,1.34 0.35,2.01l0 4.92c0.43,5.41 1.39,10.72 2.87,15.95 2.44,8.6 5.81,16.84 10.11,24.71 5.06,9.24 12.47,18.12 22.23,26.63 9.24,8.05 16.62,12.71 22.14,13.99 -0.15,1.51 0.91,3.88 3.18,7.1 2.23,3.2 6.04,5.7 11.42,7.5 5.34,1.8 10.5,3.13 15.47,4.01l-1.53 1.7c-1.97,3.38 -3,4.96 -2.22,9.41l0.04 0c0.61,2.14 3.3,3.94 5.1,4.97 4.94,2.82 23.73,2.12 28.15,1.78l20.36 -1.7c12.55,-0.9 22.33,-1.74 35.03,-3.57l9.29 -1.31c-0.03,-0.05 -0.06,-0.11 -0.09,-0.17 5.35,-1.02 21.74,-4.99 18.08,-12.29 -1.33,-2.68 -3.04,-5.11 -4.92,-6.58 11.53,-4.61 19.09,-7.3 28.72,-15.91 6.98,-6.24 10.71,-14.65 10.85,-24.01 0.15,-10.26 -1.55,-20.24 -5.1,-29.94 -3.31,-9.12 -8.67,-16.84 -16.08,-23.14 -6.88,-5.26 -14.31,-9.54 -22.27,-12.86 -1.92,-5.65 -5.28,-12.9 -9.5,-16.6 -6.53,-5.73 -16.95,-9.24 -25.67,-10.37 -0.03,-1.2 -1.28,-4.01 -2.92,-6.19zm-4.79 0.96c0.8,0 2.55,1.19 3.01,2.66 0.37,1.27 0.62,2.04 0.74,2.31 -6.82,-0.56 -14.3,-0.04 -21.14,0.17 -6.07,0.17 -11.78,0.99 -17.13,2.44l-0.65 -2.74c-0.35,-1.98 5.05,-3.39 16.21,-4.23 5.51,-0.41 16.61,-1.2 18.96,-0.61zm-1.22 9.59c10.77,0.05 21.76,2.43 30.5,9.02 4.14,3.11 5.54,7.32 8.11,12.11 -8.59,-2.83 -18.76,-5.09 -27.8,-6.14 -9.68,-1.08 -19.37,-1.24 -29.07,-0.48 -9.65,0.96 -19.16,2.5 -28.55,4.62 -4.01,0.96 -7.9,2.19 -11.68,3.7 2.45,-5.39 5.96,-9.96 10.94,-13.29 5.81,-3.89 12.18,-6.38 19.09,-7.45 9.41,-1.46 18.9,-2.15 28.46,-2.09zm41.05 130.74c0.55,-0.18 1.1,-0.35 1.66,-0.53 0.97,0.01 8.32,6.07 3.27,8.37 -3.62,1.64 -12.74,3.8 -16.91,4.4 -17.35,2.52 -42.32,4.96 -54.74,5.88 -10.34,0.76 -18.35,0.89 -24.01,0.4 -5.67,-0.5 -8.49,-2.1 -8.46,-4.8 0,-2.73 1.4,-5.18 4.19,-7.36 26.31,3.85 47.3,3.51 73.65,-1.31 7.18,-1.31 14.32,-3 21.35,-5.05zm-206.61 -176.76c0,-1.43 1.87,-2.5 5.62,-3.23 3.92,-0.76 23.56,-5.31 25.54,-1.92 0.35,0.61 -0.73,1.59 -3.23,2.92 -2.49,1.34 -7.78,2.4 -15.86,3.18 -8.08,0.79 -12.1,0.47 -12.07,-0.95zm163.21 64.71c19.65,0.29 38.89,4.91 56.13,14.43 17.97,9.92 27.96,29.77 29.28,49.85 0.73,11.07 -3.34,19.83 -12.2,26.28 -12.8,9.35 -19.04,12.07 -32.64,16.43 -1.76,0.27 -3.7,1 -5.45,1.44 -5.7,1.42 -14.86,3.14 -20.31,4.14 -22.83,4.17 -42.09,3.68 -65.72,0.48 -4.62,-0.7 -10.54,-2.07 -17.78,-4.1 -7.34,-2.07 -11.84,-6.76 -13.55,-13.68 -1.66,-0.55 -3.3,-1.18 -4.92,-1.88l0.04 0.05c-10.02,-4.84 -17.91,-9.96 -24.62,-16.96 -11.85,-12.39 -20.38,-28 -25.06,-44.45 -2.27,-8.02 -3.28,-16.22 -3.05,-24.62 0.23,-8.34 0.19,-16.65 -0.13,-24.93 -0.61,-15.48 -7.18,-30.15 -18.05,-41.14 6.63,0.18 13,-0.48 19.4,-2.18 2.55,-0.66 5.58,-2.25 9.06,-4.75 2.98,9.52 4.25,12 5.62,22.75 0.96,7.46 2.84,16.53 4.14,21.49 1.4,4.79 3.1,9.5 5.1,14.12 3.97,9.06 11.61,17.08 19.88,22.44 3.53,2.29 16.8,9.4 21.13,9.07 0.79,-1.05 1.63,-2.36 2.53,-3.93 3.66,-4.09 8,-7.38 13.03,-9.85 8.98,-4.41 18.43,-7.35 28.37,-8.8 9.88,-1.28 19.8,-1.84 29.77,-1.7z"/>
	<path fill="white" d="M183.72 98.28c-2.35,0.12 -1.39,3.74 0.74,2.48 0.78,-0.46 0.98,-2.23 -0.74,-2.48zm2.22 -1.7c1.24,-0.69 0.8,-2.67 -0.74,-2.66 -1.12,0.01 -2.03,1.52 -0.87,2.49 0.49,0.43 1.03,0.49 1.61,0.17zm4.75 1.79c0.11,-1.87 -2.06,-2.35 -2.83,-0.92 -1.22,2.28 2.71,3.17 2.83,0.92z"/>
</svg>
