<?xml version="1.0" encoding="UTF-8"?>
<!-- COPYRIGHT RobotoSkunk 2021 -->

<svg xmlns="http://www.w3.org/2000/svg" shape-rendering="geometricPrecision" viewBox="0 0 3740.39 3091.15">
  <g>
		<path fill="white" d="M2203.53 41.31c-215.8,-121.51 -461.37,45.62 -579.7,234.47 -17.92,-96.15 27.57,-249.02 -142.18,-230.55 -78.28,6.89 -132.24,74.17 -166.13,159.46 -119.4,-49.18 -214.28,-43.35 -335.81,-16.89 -198.25,-186.12 -457.62,-6.04 -567.14,184.59 -78.26,19.96 -196.96,56.24 -266.68,1.18 -87.85,-69.08 -181.43,33.58 -132.36,116.26 29.66,47.53 237.6,238.41 277.29,267.47 -18.87,231.66 77.34,466.33 243.12,627.62 -4.76,11.99 -25.06,26.52 -39.28,26.71 -98.89,1.29 -95.79,98.33 -89.55,114.68 25.33,66.32 52.43,116.72 151.6,165.35 -35.19,60.4 -50.01,97.8 -70.69,159.85 -29.08,96.65 74.93,159.2 148.46,101.33 9.63,-6.8 -18.46,41.13 -19.25,43.2 -103.74,-11.1 -131.69,129.8 -51.84,216.02 -28.76,37.35 -58,80.86 -47.13,129.22 -55.8,-13.75 -155.86,-28.76 -213.26,-26.71 -204.16,9.56 -318.95,210.08 -290.64,400.21l3728.03 0c-5.84,-176.89 -50.03,-332.39 -145.71,-451.27 11.36,-38.45 2.59,-75.76 -26.32,-111.94 -190.11,-238.13 -323.57,-373.02 -595.41,-518.43 -2.68,-37.49 -18.84,-58.27 -50.27,-78.95 -34.64,-21.99 -304.81,-102.66 -346.41,-113.12 -81.22,-20.31 -163.04,-26.99 -245.47,-20.03 47.26,-67.74 42.49,-223.09 -72.66,-211.69l-19.25 -17.68c235.59,-251.55 347.64,-897.52 -35.35,-1150.38z"/>
		<path fill="#333333" d="M2608.46 2690.04c-3.14,8.38 -6.54,16.63 -10.21,24.75l1061.42 0c-2.39,-246.79 -119.62,-357.97 -199.36,-528.93 -147.24,-95.07 -351.26,-31.9 -519.18,33.63 -27.4,98.18 -314.87,282.75 -332.68,470.56zm-2513 -86.05c-49.89,446.78 515.21,441.11 490.72,110.79l447.52 0c56.81,-125.35 134.59,-402.22 164.47,-497.13 48.6,-27.52 102.17,-36.78 175.66,-56.19 -54.11,-44.2 -7.95,-70.05 69.33,-72.4 -16.27,-26.04 -29.19,-59.24 0.35,-60.34 64.32,-2.39 107.2,26.64 141.94,100.72 66.37,0 197.44,35.73 263.61,57.78 27.22,20.73 53.7,28.02 78.59,105.14 -211.35,24.03 -575.93,163.89 -585.46,392.13 -22.2,393.49 431.2,548.89 486.02,122.01 237.08,-126.69 321.99,-147 653.52,-169.52 -51.76,-306.09 -166.09,-537.83 -361.98,-751.21 -5.53,-100.9 -44.5,-166.18 -103.86,-232.61 57.56,-31.9 149.67,-17.93 195.79,-6.93 9.08,-61.59 -33.61,-152.46 -65.89,-207.69 65.69,-27.92 123.05,-58.74 129.65,-125.55 -49.76,-27.6 -97.03,-68.02 -170.67,-160.38 -15.34,-161.42 -152.99,-407.07 -308.02,-493.61 -22.25,197.38 -219.61,326.37 -189.08,161.59 -206.29,221.05 -370.43,148.9 -299.96,45.82 -139.27,34.48 -397.16,54.9 -537.62,35.92 -94.78,118.48 -155.82,252.61 -200.4,395.03 68.57,63.1 91.47,129.62 -73.05,223.82 52.52,99.29 119.34,98.03 199.82,97.75 -28.13,98.12 -81.62,139.32 -126.2,253.96 93.82,-38.15 177.25,-79.35 256.18,-61.29 -0.02,0.02 -127.48,194.07 -141.58,218.87 279.39,36.36 98.65,217.75 0.38,459.75 -184.48,-96.37 -551.75,-186.54 -589.79,113.76z"/>
		<path fill="#262626" d="M1045.16 2657.86c-38.63,3 -90.75,33.63 -106.69,56.94l95.24 0 11.45 -56.94zm51.82 -650.97l-275.74 2.73c-61.38,58.2 -122.51,74.27 -215.78,82.52 19.21,46.8 23.27,77.21 74.94,104.93 -32.31,49.54 -62.97,64.79 -73.41,129.33 166.5,-2.23 440.72,-150.01 489.99,-319.5zm-798.06 401.34c162.09,57.68 272.86,138.25 291.63,306.57l92.63 0c-6.94,-92.63 -42.82,-194.9 -131.73,-268.85 -96.63,-36.85 -146.8,-44.28 -252.53,-37.72zm1892.76 265.1c44.43,-7.87 72.1,-17 104.69,-15.48 18.18,30.8 30.6,110.41 32.66,166.17 42.59,-36.2 87.29,-130.45 86.96,-198.55 35.15,29.36 49.05,40.34 72.34,74.45 -8.23,-92.72 -27.55,-189.33 -61.04,-290.93 -108.16,20.58 -226.4,172.47 -235.61,264.33zm-471.78 -325.13c-32.84,10.94 -140.89,70 -168.76,89.93 171.09,86.17 271.63,161.83 286.54,363.36 64.12,-43.4 123.51,-69.1 172.88,-77.32 -60.69,-121.39 -163.29,-308.04 -290.66,-375.96zm211.01 -490.75c61.45,183.18 210.25,328.45 420.49,379.31 -42.2,-88.23 -61.62,-139.58 11.97,-122.09 -137.44,-171.28 -61.81,-223.5 -100.19,-262.18 -87.82,66.15 -173.52,62.85 -189.14,-1.13 -33.29,2.67 -109.18,3.83 -143.13,6.1zm-998.05 -1577.6c-94.84,-182.11 -446.6,6.76 -425.19,153.5 132.56,-42.62 266.7,-110.84 425.19,-153.5zm317.62 645c-13.24,153.15 -32.24,361.09 18.56,507.48 -43.85,17.49 -84.21,54.89 -88.24,111.27 2.27,62.28 95.44,70.1 149.25,20.03 53.8,-71.88 91.29,-102.78 141.78,-141.9 8.48,-17.14 -22.29,-19.45 -24.24,-45.58 -22.89,-144.01 -31.2,-268.37 -33.39,-415.28 -63.44,12.46 -110.12,-7.31 -163.72,-36.02zm-529.9 -43.37c-52.88,93.24 -95.22,180.44 -132.22,317.17 -118.08,-88.35 -144.63,-314.7 -129.59,-440.67 -9.17,-5.5 -72.77,-23.87 -81.41,-29.37 -36.6,294.43 87.4,466.97 220.9,592.49 39.75,-144.84 109.06,-306.06 203.84,-424.54 -18.41,-2.63 -63.25,-11.6 -81.53,-15.08zm1436.69 -598.29c219.01,75.33 104.95,535.85 -69,785.82 1.39,-125.79 -117.58,-328.48 -223.53,-390.29 9.47,-106.38 98.26,-359.93 292.53,-395.53zm-392.19 309.83c17.25,23.74 23.47,57.79 17.54,79.97 139.71,126.35 269.02,398.92 294.3,542.84 311.04,-278.07 346.14,-667.07 208.27,-982.44 -151.21,-271.13 -538.9,-126.87 -620.71,179.07 74.02,-2.18 117.55,-58.77 148.38,-111.8 90.7,106.07 47.1,225.29 -47.79,292.36z"/>
		<path fill="black" d="M1630.11 404.22c-55.9,-60.15 -72.35,-98.46 -69.13,-185.78 1.93,-52.39 -2.43,-121.93 -73.05,-114.68 -77.33,7.94 -125.54,124.47 -135.11,188.52 -125.81,-86.31 -252.62,-72.3 -391.58,-39.67 -175.66,-194.44 -415.63,-10.45 -509.4,170.85 -65.67,16.72 -123.74,28.99 -191.67,37.71 -136.88,17.56 -154.43,-84.42 -193.23,-37.31 -9.43,11.26 -10.35,23.3 -2.75,36.13 57.31,96.16 196.75,201.36 289.07,269.43 -23.45,179.78 19.35,326.56 114.29,479.55 20.6,33.06 96.31,139.67 133.14,150.03 -1.35,60.81 -51.3,111.19 -105.25,111.54 -28.56,0.19 -38.38,24.06 -33.78,38.49 25.06,78.59 108.25,144.56 191.66,143.36 -44.89,63.05 -89.78,139.21 -110.36,214.44 -11.24,41.09 23.89,63.9 54.98,39.67 53.62,-41.79 118.75,-60 185.38,-66.77 -27.67,27.67 -129.56,173.7 -119.01,216.01 -41.63,3.62 -59.56,-6.98 -74.62,5.11 -35.94,28.85 -4.97,89.13 20.42,114.68 12.31,12.31 25.53,22.52 39.67,30.64 -26.95,23.59 -51.9,55.23 -69.13,86.41 -13.18,23.84 -6.23,55.45 10.22,58.52 62.5,11.69 88.15,-9.25 127.65,-5.89 -24.6,57.69 -25.63,63.11 -45.17,122.54 -105.57,-60.52 -245.29,-97.11 -367.62,-94.26 -266.04,6.18 -332.32,417.59 -75.41,569.89 153.45,90.97 337.9,16.91 373.12,-156.32 12.63,-62.15 4.67,-107.31 -8.64,-166.92 -19.06,-84.73 -76.37,-61.01 -53.02,-31.03 11,38.75 17.15,78.29 18.46,118.62 1.07,65.83 -22.56,132.88 -74.62,173.99 -46.51,-46.51 -77.61,-106.68 -71.48,-173.99 1.05,-14.93 -4.45,-24.88 -16.5,-29.85 -10.47,2.36 -17.8,9.16 -21.99,20.43 -20.29,57.59 30.22,161.82 73.05,205.41 -32.99,14.66 -68.07,19.51 -105.26,14.53 -58.76,-8.13 -91.81,-99.97 -91.12,-152.78 0.11,-8.36 -3.29,-45.04 -15.32,-43.99 -14.66,1.28 -22.78,34.02 -23.56,47.91 -2.07,36.55 4.5,73.82 21.6,106.04 -84.16,-62.18 -127.5,-166.78 -105.66,-269.82 13.25,-62.5 48.33,-138.22 107.61,-168.1 68.52,-34.88 215.97,-8.81 284.36,15.32 57.31,20.23 86.13,33.51 139.82,64.02 -12.67,37.94 16.01,56.48 27.89,34.16 4.92,-9.24 62.41,-166.56 84.44,-214.44 27.44,-58.85 66.92,-130.22 82.48,-192.45 4.97,-18.59 -0.79,-30.24 -17.28,-34.96 -18.55,-2.6 -40.38,56.13 -46.74,70.3 -0.26,-0.52 -0.39,-0.91 -0.39,-1.18 -46.27,-31.16 -98.77,18.4 -154.74,-63.62 71.98,3.03 185.34,-23.16 225.44,-80.91 227.14,1.67 431.33,-16.45 655.9,-56.95 136.56,-24.63 290.81,-81.45 426.14,-90.73 23.49,-1.61 86.22,-6.04 103.69,7.07 74.5,54.58 138.94,26.34 210.91,-10.21 13.02,73.41 -27.61,82.01 -80.91,114.29 -17.68,10.7 -14.14,7.35 -14.14,17.28 0,4.87 49.32,50.18 109.97,-13.36l54.2 83.66c-48.48,-2.53 -99.74,12.83 -122.93,56.95 -5.18,9.86 1.72,34.13 28.67,20.43 15.44,-7.86 31.16,-13.49 47.13,-16.89 83.45,139.53 152.5,321.41 178.7,483.87 -21.55,-19.8 -49.4,-51.16 -76.2,-60.88 -16.61,-6.02 -35.87,15.35 -21.6,34.17l33.78 34.17c-8.42,57.39 -17.31,86.71 -51.84,132.75 -4.89,-9.78 2.58,-90.95 -42.03,-133.93 -9.25,-8.9 -20.47,-3.62 -23.56,6.28 -28.56,-3.16 -112.94,13.02 -144.14,20.82 -65.96,16.49 -232.41,58.42 -281.6,107.61 -4.14,-52.97 -8.1,-96.79 -22.78,-148.85 -9.83,-35.48 -60.04,-91 -43.99,-2.75 9.37,54.23 13.43,123.71 12.18,179.09 -1.48,65.64 -23.52,146.11 -73.45,190.88 -71.98,-34.79 -77.08,-137.72 -66.38,-207.77 7.15,-46.77 -53.54,-44.81 -47.91,71.48 3.09,64.03 22.83,122.37 76.19,161.81 -45.63,22.53 -138.61,31.71 -168.49,-19.64 -30.56,-52.51 -26.6,-114.88 -20.81,-173.2 2.38,-28.56 -24.55,-31.42 -34.57,-4.72 -14.06,38.89 -12.04,96.5 -3.93,137.07 -23.5,-35.22 -35.5,-52.41 -53.02,-93.08 -31.42,-72.93 -34.8,-126.96 -31.81,-201.87 3.09,-77.6 86.35,-140.51 146.11,-178.7 153.02,-97.83 264.52,-146.12 446.56,-157.49 9.34,-1.08 67.47,-16.18 47.92,-35.35 -16.26,-15.94 -48.25,-17.95 -69.91,-16.89 -18.76,-62.06 -72.9,-157.27 -135.1,-184.99 -4.96,-1.05 -16.75,7.45 -10.21,19.25 13.3,24.02 26.23,39.83 40.84,62.45 -66.18,-22.06 -173.2,-52.24 -239.58,-52.24 -26.24,-105.28 -155.77,-124.09 -188.52,-104.08 -19.45,11.89 -27.81,36 -15.71,55.38 -28.88,2.62 -67.36,14.96 -94.26,27.1 -28.84,13.02 -20.24,41.73 -11.78,45.56 10.21,4.72 20.29,9.56 30.24,14.53 -26.13,0 -83.69,23.03 -106.83,33.78 -2.08,-28.04 -27.63,-41.49 -30.24,-15.32 -21.6,167.13 -112.47,385.04 -175.95,543.18l53.02 0c37.62,-72.64 141.88,-387.42 152,-483.09 76.25,-29.99 67.86,-27.27 143.75,-40.45 21.57,-3.74 53.23,-1.25 45.95,-34.95 -4.76,-22.04 -17.06,-22.37 -23.96,-34.17 25.65,-7.33 61.37,1.48 72.27,0.39 5.2,17.46 23.34,32.76 35.35,22.39 33.59,-29 -4.47,-68.88 -28.67,-86.8 42.08,1.41 81.85,24.49 95.83,66.38 4.45,13.35 12.53,26.25 26.71,27.1 73.98,4.43 240.74,50.33 290.64,66.76 9.69,17.8 18.19,36.14 25.53,54.99 -170.17,17.9 -433.75,138.97 -539.65,282.39 -14.1,-2.35 -78.96,21.77 -93.47,26.71l80.51 -117.44c6.32,-0.8 72.57,21.83 95.44,-33.38 6.44,-15.55 -16.12,-19.17 -27.1,-18.46 -45.76,2.94 -94.9,-1.52 -126.47,-38.1 51.87,-16.8 127.42,-64.52 146.11,-119 8.95,-26.03 -17.66,-37.92 -23.96,-26.71 -32.05,57.07 -98.59,94.23 -160.64,110.76 -34.02,9.06 -9.18,54.59 4.32,69.52 15.58,17.22 34.57,32.01 55.38,42.42 -19.32,18.28 -45.4,60.6 -66.77,87.58 -15.81,19.95 -38.14,60.44 -18.85,83.65 15.71,18.9 31.71,10.91 51.06,5.11 -11.83,11.83 -27.8,63.73 -18.46,86.41l46.34 0c6.38,-22.32 -0.64,-34.07 17.68,-56.95 2.04,123.46 7.93,201.96 82.48,311.06 119.15,174.39 361.27,163.57 428.5,-41.24 11,-33.52 18.19,-67.55 21.6,-102.12 158.91,-107.24 253.73,-98.66 431.64,-145.32 7.13,43.96 22.04,91.69 14.53,141.39 -4.77,31.58 14.72,51.73 29.07,45.17 56.28,-25.74 98.11,-143.91 105.26,-201.09 41.74,38.12 18.75,21.94 34.56,49.1 9.53,16.39 29.64,28.75 42.03,0 40.46,-93.97 -126.68,-481.53 -175.56,-573.42 14.86,0.78 13.9,0.39 21.21,5.89 15.67,11.78 52.01,4.26 42.41,-27.89 -11.69,-39.14 -67.05,-122.89 -101.33,-145.71 21.69,-40.26 25.74,-162.17 -31.03,-161.42 -24.8,0.33 -43.09,56.68 -126.86,61.27l2.36 -1.18c7.23,-29.02 -1.25,-52.79 -15.32,-95.83 -12.16,-37.18 -40.91,-82.16 -74.62,-113.9 48.26,-2.51 90.88,-5.39 137.07,13.75 25.88,10.73 54.14,12.91 56.16,-23.57 1.83,-38.75 -4.84,-75.15 -20.03,-109.18 162.82,-37.59 341.38,-4.72 477.19,51.45 -50.7,0 -46.26,62.84 -13.35,62.84 28.64,0 50.52,-15.69 87.58,-1.18 273.02,106.88 439.89,247.14 624.09,468.16 -148.03,-34.82 -422.31,6.6 -538.08,126.07 -8.64,3.67 -17.41,7.46 -26.32,11.39 -57.48,24.45 -76.62,95.63 -43.2,84.44 12.96,-4.34 31.59,-18.85 41.24,-18.85 -102.62,89.77 -205.45,214.23 -250.18,344.84 -1.16,12.29 13.53,24.49 23.56,19.25 7.13,-3.72 19.29,-21.39 23.56,-31.42 58.39,-135.04 162.66,-238.84 273.36,-332.66 36.91,-31.64 110.72,-55.54 112.7,-74.64 1.38,-13.27 -2.65,-28.65 -18.43,-32.58 167.94,-65.54 297.35,-89.59 444.6,5.5 107.39,140.51 170.35,248.19 186.17,432.03 1.83,19.9 5.89,38.75 12.17,56.56l43.6 0c-7.18,-178.57 -46.68,-305.79 -157.1,-446.96 15.82,-5.82 24.83,-45.73 -1.96,-79.33 -200.69,-251.76 -337.09,-376.71 -624.09,-528.65 22,-19.63 19.38,-38.36 -7.85,-56.16 -202.1,-76.19 -427.68,-165.88 -690.07,-99.76l-30.64 -50.27c51.79,-7.95 115.91,-44.24 126.08,-98.97 3.81,-20.49 11.13,-59.96 -3.93,-75.02 -26.37,-26.37 -41.05,18.84 -129.61,-86.01 31.86,-32.92 89.61,-128.54 113.5,-168.89 130.56,-220.37 135.41,-412.2 82.09,-657.08 -112.69,-517.56 -647.7,-284.31 -727.77,36.52zm224.66 -95.05c-11.78,-19.64 -27.75,-33.12 -47.91,-40.45 -3.44,-0.5 -16.36,4.05 -18.07,12.17 -8.35,39.56 -22.98,57.61 -51.45,84.84 -14.4,13.62 -30.24,23.57 -47.52,29.85 46.1,-115.74 165.78,-216.61 279.24,-262.36 36.4,-14.66 74.23,-17.8 113.51,-9.43 74.62,16.23 130.92,58.39 168.88,126.47 26.97,48.18 45.69,99.76 56.17,154.74 57.36,300.41 -4.59,539.04 -209.73,766.27 -22.5,24.92 -43.24,7.83 -59.31,53.02 -8.08,22.73 69.01,11.89 94.26,-5.11 19.06,49.07 69.34,88.46 119.4,101.73 -5.91,55.77 -49.48,75.91 -105.26,78.94 -50.65,2.42 -54.45,-32.98 -85.62,-16.5 -10.4,5.5 -17.41,45.48 25.92,61.66 12.04,4.45 24.22,7.6 36.52,9.43 32.28,55.23 59.08,100.88 68.34,166.13 -14.03,0 -94.2,-36.87 -214.84,-1.96 -29.39,8.5 -38.7,40.73 -21.6,49.09 10.47,5.24 21.74,6.67 33.78,4.32 51.78,66.12 75.06,53.5 98.19,160.24 -54.85,0 -82.05,-5.96 -146.89,-0.79 -122.21,9.76 -258.76,48.36 -379.4,78.16 -164.17,44.04 -442.26,72.66 -602.1,72.66 -87.52,0 -139.41,-10.56 -228.58,24.35 19.85,-39.66 77.24,-139.57 109.18,-166.92 10.39,1.69 32.79,3.43 39.67,-7.07 17.21,-26.29 -7.28,-46.18 -26.31,-48.31 -83.12,-9.34 -164.58,8.49 -239.58,45.17 11.64,-29.93 97.8,-190.11 119,-199.52 15.5,-6.84 40.38,-37.17 18.85,-65.2 -6.9,-8.97 -30.66,2.8 -38.49,8.64 -63.25,47.17 -145.78,10.14 -184.6,-52.23 95.7,-25.62 161.12,-181.67 93.09,-206.98 -17.91,-10.74 -85.13,-92.64 -96.23,-110.36 -90.36,-144.36 -136,-268.79 -120.57,-440.67 8.64,5.5 17.55,11 26.71,16.49 -10.95,120.75 -0.58,240.47 63.23,345.63 17.28,28.54 36.39,55.64 57.34,81.3 8.42,10.79 53.73,54.54 61.66,18.06 23.66,-109.15 45.24,-175.35 97.8,-274.53 6.81,-13.09 14.14,-25.79 21.99,-38.1 148.96,28.4 357.14,36.72 507.04,-0.39 -43.72,63.93 142.71,96.55 207.77,66.37 48.06,-22.29 102.16,-67.1 138.64,-104.86 -4.72,15.74 -10.89,14.12 -7.86,28.28 5.41,25.23 32.56,24.73 53.02,19.64 101.53,-25.26 171.17,-123.02 177.53,-221.12 2.69,-41.55 -4.44,-51.55 -13.75,-88.77 2.55,-3.84 28.94,-28.22 51.06,-62.84 48.7,-76.24 55.02,-160.15 7.85,-239.19zm-116.26 109.19c33.25,-20.42 59.7,-47.66 79.33,-81.69 24.79,45.27 30.85,93.56 11,142.18 -26.05,63.8 -58.9,83.63 -67.16,97.4 -24.19,-9.97 -28.16,4.64 -24.35,12.17 57.66,114.07 15.58,238.03 -105.65,285.93 12.57,-29.33 20.69,-59.7 24.35,-91.12 3.96,-28.5 -14.93,-96.88 -30.24,-120.57 -14.45,-16.32 -30.92,7.74 -26.31,29.46 13.57,63.88 -29.36,128.69 -76.59,167.31 -63.01,51.55 -111.22,99.46 -201.88,67.95 31.06,-23.3 58.41,-50.77 78.16,-84.44 55.68,-36.88 103.65,-82.96 136.29,-141.78 18.58,-33.08 4.48,-86.62 -15.71,-73.05 -28.56,19.17 -39.32,90.59 -162.6,164.56 -159.97,95.98 -407.55,87.25 -585.99,59.7 -216.36,-33.14 -411.58,-189.33 -572.25,-330.31 174.28,2.04 375.06,-69.39 535.32,-134.32 223.05,-90.37 463.14,-175.56 656.3,14.53 42.88,42.88 61.36,-4.55 24.74,-66.38 -30.25,-51.07 24.73,-145.98 70.7,-174.77l20.81 1.57c7.12,11.33 7.23,85.94 7.86,102.51 3.14,69.12 30.24,125.94 81.3,170.46 23.63,20.75 53.48,18.16 57.34,4.71 29.59,1.83 58,-5.5 85.23,-21.99zm-1133.88 -44.38l-73.84 25.92c58.34,-84.16 143.28,-159.25 248.22,-170.06 41.02,-4.23 88.33,16.41 119.78,39.67 -70.07,18.87 -143.59,45.19 -210.91,72.27 -31.23,12.56 -8.85,6.32 -34.96,6.68 -17.8,0.25 -34.74,14.05 -48.31,25.53zm-122.54 435.17c7.33,4.19 14.79,8.38 22.39,12.57 -20.44,25.79 -29.05,81.81 18.06,82.09 8.71,0.05 15.97,-10.46 39.67,-13.36 -20.12,20.12 -72.74,117.61 -29.07,134.32 48.4,18.53 64.44,-17.02 88.37,9.03 -13.1,30.8 -35.58,95.44 -39.28,124.89 -81.89,-116.17 -112.06,-206.32 -100.15,-349.55zm171.24 81.69c11,3.67 22.13,7.07 33.39,10.21l-45.56 86.41c-25.69,-12.84 -46.96,-17.19 -75.8,-9.03 8.74,-24.75 23.73,-61.57 44.77,-78.16 8.72,4.7 13.66,10.29 21.99,10.6 15.19,0.26 22.26,-6.42 21.21,-20.03zm56.95 1336.15l0.4 0c21.51,1.73 41.86,2.83 63.23,-7.86l-32.6 73.05c-17.55,-7.52 -76.63,-1.99 -96.22,1.97 18.22,-25.73 37.47,-51.17 65.19,-67.16zm1565.13 -1848.69c-8.37,-21.74 -18.59,-42.68 -30.64,-62.84 -24.61,-41.37 -60.09,-63.63 -106.43,-66.77 -60.99,0.14 -150.9,100.38 -183.03,147.67 -25.83,38.03 -70.38,112.38 -87.19,161.03 -9.32,26.97 -24.3,93.97 -22.78,124.5 27.2,18.45 50.16,40.93 74.62,62.84 69.52,69.05 140.21,193.04 140.21,294.17 -0.52,23.57 3.8,45.43 12.96,65.59 2.7,3.63 23.23,7.97 29.45,-14.14 1.83,-6.54 3.27,-13.22 4.32,-20.03 91.13,-52.23 168.28,-329.37 186.16,-427.32 16.01,-87.67 14.26,-180.44 -17.68,-264.71zm-124.11 -73.84c156.42,41.34 83.72,387.66 47.91,492.91 -26.16,76.89 -52.18,138.42 -97.4,206.19 -8.3,-47.95 -20.15,-82.38 -38.88,-126.08 9.89,6.18 19.51,21.52 45.17,16.89 36.41,-6.56 7.59,-105.97 -3.93,-126.47 10.03,0.4 26.87,-5.46 26.31,-20.03 -1.72,-44.92 -9.38,-112.38 -45.17,-142.96 49.62,-59.01 39.79,-169.21 -7.07,-141.39 -33.33,19.79 -95.17,49.71 -134.72,42.81 26.22,-47.08 141.71,-220.39 207.77,-201.88zm-171.63 305.95c-4.83,-0.25 -25.88,-0.6 -23.17,7.46 17.18,51.29 75.64,29.55 106.82,6.68 14.02,23.19 19.05,52.54 21.21,78.94 -74.15,-18.53 -85.13,36.33 -67.55,36.52 14.79,0.17 31.99,2.66 45.95,8.25 0,33.53 21.1,42.45 22.39,91.91 -15.45,-10.21 -31.95,-14.53 -49.49,-12.96 -33.94,-56.16 -85.02,-111.39 -142.57,-142.57 0,-56.11 5.22,-97.39 34.16,-148.07 35.44,23.94 116.23,-2.42 149.64,-19.25 0,50.3 -52.49,84.1 -97.4,93.08z"/>
		<g>
			<path fill="white" d="M1078.29 1617.05c-0.86,-0.43 -5.25,-9.78 -13.35,-7.08 -16.54,5.51 -5.78,34 13.75,31.42 4.19,-0.53 7.07,-2.75 8.64,-6.68 4.72,-12.13 -4.1,-12.74 -9.03,-17.67zm298.1 -29.07c9.42,17.89 31.23,10.75 32.6,-4.32 3.27,-36.14 -46.8,-22.9 -32.6,4.32zm-254.51 9.81c-6.7,18.98 13.86,39.96 30.64,22.39 20.65,-21.62 -19.19,-51.52 -30.64,-22.39zm334.23 -35.74c-35.05,5.54 -19.74,59.69 11.79,40.85 18.13,-10.84 12.42,-40.85 -11.79,-40.85zm-44.38 -29.85c0,31.26 42.28,28.62 37.31,0 -4.59,-26.46 -37.31,-25.63 -37.31,0zm-312.23 59.7c22.22,-10.06 11.13,-44.64 -4.46,-50.02 -6.47,8.23 -13.65,25.03 -25,16.49 -6.04,20.89 9.66,42.91 29.46,33.53zm-42.07 -798.39c-284.16,13.9 -354.65,405.33 -234.78,594.11 61.34,96.6 196.68,118 295.69,89.6 84.61,-136.07 104.97,-348.56 94.27,-473.98 -23.15,-71.07 -62.35,-199.99 -155.18,-209.74zm723.71 85.58c-144.19,-328.17 -374.7,-144.89 -402.96,85.56 -21.04,115.34 -1.09,337.05 99.62,427.01 28.62,3.95 63.24,18.12 86.85,35.83 199.77,-84.11 303.81,-276.48 216.49,-548.4zm-94.21 -382.76c-28.35,51.4 55.06,147.84 163.25,166.07 59.71,25.54 139.79,-39.85 6.6,-149.65 -83.92,-73.13 -144.85,-65.64 -169.85,-16.42z"/>
			<path fill="#E6B891" d="M1269.03 1594.33c75.26,-15.55 108.91,-111.93 -15.83,-95.89 -105.91,21.54 -84.41,101.46 15.83,95.89z"/>
			<path fill="#EC6AC5" d="M1557.88 1587.53c-28.81,56 -80.12,88.59 -154.84,104.66 49.36,58.9 128.56,140.52 186.3,115.31 60.08,-26.23 30.63,-172.77 -31.46,-219.97z"/>
			<path fill="#3188D2" d="M1068.04 948.99c-178.33,46.43 -98.07,406 7.28,384.99 102.54,0 177.37,-358.44 -7.28,-384.99zm512.61 -62.13c-111.96,46.08 -156.6,225.19 -73.31,344.47 111.62,70.31 185.11,-8.09 178.68,-156 -9.06,-68.13 -34.93,-165.15 -105.38,-188.47z"/>
			<path fill="#3A65AD" d="M1464.3 1090.65c20.29,-268.63 188.64,-264.37 221.74,-15.31 -72.99,4.5 -148.69,9.79 -221.74,15.31zm-500.36 44.62c13.32,-262.24 213.93,-220.81 216.83,-21.55 -72.99,4.5 -145.52,7.91 -216.83,21.55z"/>
			<path fill="black" d="M1262.89 1620.19c32.71,0.79 92.7,-44.86 95.44,-79.34 3.82,-48.23 -36.8,-77.16 -84.44,-71.09 -150.02,19.14 -139.58,147.32 -11,150.43zm-54.2 -72.27c0,-16.57 99.87,-53.22 108.01,-13.75 -10.98,20.14 -38.9,32.81 -58.92,42.81 -8.31,-16.62 4.23,-15.6 -7.86,-21.6 0,-2.05 -10.88,1.83 -11.78,20.81 -18.09,-7.83 -29.46,-11.25 -29.46,-28.28zm392.75 268.64c69.14,-66.32 22.41,-168.45 -23.56,-233.3 15.51,-64.05 -35.55,-66.85 -39.67,-36.92 -14.21,104.42 -109.77,125.2 -197.55,120.18 -25.66,-1.42 -31.08,24.46 -8.25,29.45 17.72,5.28 15.6,7.84 41.63,10.22 45.25,38.79 164.2,171.68 227.4,110.36zm5.11 -76.98c-3.46,18.26 -29.32,61.36 -64.8,41.24 -42.61,-24.16 -65.75,-47.48 -102.12,-78.55 30.92,-6.87 47.54,-15.35 73.84,-31.42 34.57,27.65 19.08,35.54 40.85,52.63 12.95,10.17 33.72,-34.59 -17.68,-72.27l28.67 -37.7c20.28,29.28 48.1,89.83 41.24,126.08zm-813.79 -1224.61c-85.33,13.49 -188.32,134.94 -203.45,221.12 -7.2,41.44 19.83,82.36 56.16,79.33 72.74,-6.05 155.85,-96.02 194.81,-153.17 37.77,-55.4 18.81,-140.29 -47.52,-147.28zm18.85 75.41c8.34,42.9 -67.62,112.05 -94.26,135.11 -12.89,11.07 -78.89,42.59 -80.12,20.03 -1.97,-35.8 50.12,-99.68 72.66,-123.32 18.81,-19.83 90.18,-91.23 101.72,-31.81zm148.46 428.49c-24.11,72.34 -27.67,165.96 1.18,238.4 48.44,121.64 152.22,145.16 211.7,12.96 38.78,-86.2 43.4,-196.42 0,-281.22 -53.07,-109.16 -176.62,-79.58 -212.87,29.85zm151.99 -32.6c66.27,88.83 53.19,207 -1.57,298.1 -21.17,35.23 -79.22,30.84 -99.37,-18.07 -28.46,-69.08 -30.6,-154.2 -9.43,-225.83 14.07,-47.78 74.83,-101.95 110.36,-54.2zm456.38 -124.89c-132.5,44.55 -157.03,273.32 -100.54,355.83 55.02,80.37 130.61,94.05 199.91,21.6 57.66,-60.27 38.91,-202.01 2.35,-280.82 -17.07,-36.28 -50.04,-113.99 -101.72,-96.61zm22.39 56.16c56.98,75.27 90.56,201.15 41.63,291.03 -20.75,38.24 -63.7,33.74 -95.44,13.75 -61.77,-63.34 -56.43,-164.84 -21.99,-240.37 7.18,-15.4 58.57,-86.01 75.8,-64.41zm-19.25 -241.93c-119.34,2.44 -231.53,205.56 -200.69,308.31 2.56,6.76 17.67,11.21 24.74,1.18 27.75,-80.21 49.81,-179.11 116.65,-234.08 99.08,-80.43 203.91,25.7 243.12,117.04 52.31,122.25 42.8,302.48 -28.67,416.71 -44.9,72.62 -101.38,87.92 -173.2,119.4 -94.93,-71.21 -335.09,-3.65 -419.86,57.73 -113.18,10.63 -217.3,11.75 -287.1,-98.18 -62.52,-98.46 -66.11,-226.9 -28.28,-335.41 64.79,-185.84 308.02,-323.46 359.76,-58.13l20.42 77.76 5.5 -1.57 8.64 -14.92c15.36,-75.03 4.77,-137.87 -42.42,-201.48 -94.01,-128.75 -255.06,-48.03 -334.23,53.41 -99.49,127.93 -123.71,303.22 -63.63,453.63 50.88,127.37 172.79,186.88 303.99,177.53 -27.56,41.98 -3.17,56.56 3.93,51.45 17.85,-12.85 16.48,-16.14 23.96,-24.35 82.52,-90.53 262.43,-125.9 378.22,-112.72 22.73,2.58 63.03,20.74 74.62,31.03 32.52,28.86 48.83,2.89 34.17,-18.07 131.28,-53.35 214.39,-133.92 236.83,-278.46 27.22,-178.19 -14.51,-492.75 -256.47,-487.8zm374.69 -56.95c-7.52,-62 -60.48,-108.18 -109.18,-143.35 -44.12,-31.86 -104.39,-51.44 -149.25,-16.5 -101.6,79.15 76.79,220.25 170.85,230.55 47.36,5.19 93.77,-21.62 87.58,-70.7zm-60.87 -45.95c38.44,49.97 8.4,87.27 -38.88,67.94 -33.71,-13.91 -166.03,-74.79 -138.25,-127.25 25.02,-49.26 80.18,-20.62 114.29,1.57 24.35,15.45 45.3,34.7 62.84,57.74z"/>
		</g>
	</g>
</svg>
